<svg xmlns="http://www.w3.org/2000/svg" xmlns:xlink="http://www.w3.org/1999/xlink" width="121" height="91" viewBox="0 0 121 91"><defs><style>.a,.h{fill:#fff;}.a{stroke:#707070;}.b{fill:#40384b;}.c{clip-path:url(#a);}.d{fill:#f0f0f0;}.e{clip-path:url(#b);}.f{fill:#fcfcfd;}.g{fill:#ddd;}.i,.k,.m{fill:none;}.i{stroke:#49c000;}.i,.k{stroke-width:1.5px;}.j{fill:#49c000;}.k{stroke:#fff;stroke-linecap:round;}.l{stroke:none;}</style><clipPath id="a"><rect class="a" width="115" height="83" rx="8" transform="translate(498 334)"/></clipPath><clipPath id="b"><rect class="b" width="35.264" height="42.498" rx="5" transform="translate(0 0)"/></clipPath></defs><g transform="translate(-1008 -530)"><g class="c" transform="translate(510 204)"><g transform="translate(509.781 341.703)"><g transform="translate(0)"><rect class="d" width="91.215" height="68.412" rx="10"/><rect class="b" width="24.877" height="5.183" transform="translate(49.754 17.621)"/><rect class="b" width="35.242" height="5.183" transform="translate(8.292 8.292)"/><rect class="b" width="19.694" height="5.183" transform="translate(58.046 26.95)"/><rect class="b" width="6.219" height="5.183" transform="translate(49.754 26.95)"/><rect class="b" width="11.402" height="5.183" transform="translate(49.754 36.279)"/><rect class="b" width="20.731" height="5.183" transform="translate(63.229 36.279)"/><rect class="b" width="20.731" height="5.183" transform="translate(49.754 45.608)"/><rect class="b" width="35.264" height="42.498" rx="5" transform="translate(8.292 16.585)"/><g class="e" transform="translate(8.292 16.585)"><g transform="translate(-19.64 3.298)"><g transform="translate(0 0)"><path class="f" d="M41.93,45.537l-39.742.672A289.579,289.579,0,0,1,.02,5.495a93.637,93.637,0,0,1,11.3-3.545,9.853,9.853,0,0,0,8.906,5.918C25.315,8.027,29.611,4.574,30.246,0c6.646.024,11.446.562,11.446.562L37.766,13.388A241.668,241.668,0,0,0,41.93,45.537Z" transform="translate(16.5 28.526)"/><path class="g" d="M12.938,7.051A49.334,49.334,0,0,1,11.646,0L6.835.425A46.376,46.376,0,0,1,5.538,7.9a.81.81,0,0,1-.649.576C3.216,8.759,1.568,9.109,0,9.49a9.853,9.853,0,0,0,8.906,5.918c5.088.159,9.383-3.294,10.018-7.868-1.627-.006-3.365.019-5.17.091A.813.813,0,0,1,12.938,7.051Z" transform="translate(27.822 20.987)"/><path class="g" d="M17.577,4.731a1.391,1.391,0,0,0-.524-.057A31.48,31.48,0,0,0,17.05,0L.239.839C-2.05,19.554,12.792,22.239,16.373,8.8,18.121,9.337,19.818,5.42,17.577,4.731Z" transform="translate(28.925 8.616)"/><path class="h" d="M20.816,2.119A10.208,10.208,0,0,0,12.1.335C9.5,1.128,7.63,3.751,4.794,3.927c-1.283.081-2.725-.367-3.76.394a2.87,2.87,0,0,0-1,2.037A6.446,6.446,0,0,0,3.648,12.6a8.493,8.493,0,0,0,7.411-.193c1.776-.881,3.422-2.328,5.4-2.313,1.581.014,3.473,1.464,4.616,3.286a1.457,1.457,0,0,1,.808-.061A7.782,7.782,0,0,0,23.63,9.1,8.008,8.008,0,0,0,20.816,2.119Z" transform="translate(24.5 0)"/><path class="f" d="M25.969,7.166A6.94,6.94,0,0,0,14.58,1.617c-.054.04-.1.085-.151.129-.08.071-.16.141-.237.216A69.378,69.378,0,0,0,0,19.493a102.357,102.357,0,0,1,12.383,6.9Q18.195,18.664,24.4,11.351A6.951,6.951,0,0,0,25.969,7.166Z" transform="translate(0 33.558)"/><path class="f" d="M13.648,5.1a6.872,6.872,0,0,0-.539-1.361A6.946,6.946,0,0,0,.483,9.492a168.181,168.181,0,0,0,5.1,17.34,82.533,82.533,0,0,1,13.43-3.908A117.867,117.867,0,0,0,13.648,5.1Z" transform="translate(51.024 29.086)"/></g></g></g></g></g></g><g class="i" transform="translate(1008 538)"><rect class="l" width="115" height="83" rx="8"/><rect class="m" x="0.75" y="0.75" width="113.5" height="81.5" rx="7.25"/></g><g transform="translate(510 204)"><circle class="j" cx="8.5" cy="8.5" r="8.5" transform="translate(602 326)"/><path class="k" d="M12825.384,327.334l2.417,2.392" transform="translate(-12218.329 8.166)"/><path class="k" d="M0,0,5.222,5.222" transform="translate(614.473 332.67) rotate(90)"/></g></g></svg>