<svg xmlns="http://www.w3.org/2000/svg" xmlns:xlink="http://www.w3.org/1999/xlink" width="121" height="91" viewBox="0 0 121 91"><defs><style>.a,.h{fill:#fff;}.a{stroke:#707070;}.b{fill:#40384b;}.c{clip-path:url(#a);}.d{fill:#f0f0f0;}.e{clip-path:url(#b);}.f{fill:#fcfcfd;}.g{fill:#ddd;}.i,.k,.m{fill:none;}.i{stroke:#eff0f0;}.i,.k{stroke-width:1.5px;}.j{fill:#ef463f;}.k{stroke:#fff;stroke-linecap:round;}.l{stroke:none;}</style><clipPath id="a"><rect class="a" width="115" height="83" rx="8" transform="translate(498 334)"/></clipPath><clipPath id="b"><rect class="b" width="51.832" height="62.464" rx="5" transform="translate(0)"/></clipPath></defs><g transform="translate(-469 -530)"><g class="c" transform="translate(-29 204)"><g transform="matrix(0.966, -0.259, 0.259, 0.966, -490.249, 187.986)"><g transform="translate(875.222 394)"><rect class="d" width="134.07" height="100.552" rx="10"/><rect class="b" width="36.564" height="7.618" transform="translate(73.129 25.9)"/><rect class="b" width="51.8" height="7.618" transform="translate(12.188 12.188)"/><rect class="b" width="28.947" height="7.618" transform="translate(85.317 39.612)"/><rect class="b" width="9.141" height="7.618" transform="translate(73.129 39.612)"/><rect class="b" width="16.759" height="7.618" transform="translate(73.129 53.323)"/><rect class="b" width="30.47" height="7.618" transform="translate(92.935 53.323)"/><rect class="b" width="30.47" height="7.618" transform="translate(73.129 67.035)"/><rect class="b" width="51.832" height="62.464" rx="5" transform="translate(12.188 24.376)"/><g class="e" transform="translate(12.188 24.376)"><g transform="translate(-28.867 4.848)"><path class="f" d="M-200.314,505.54l-58.413.988a425.621,425.621,0,0,1-3.188-59.842,137.633,137.633,0,0,1,16.612-5.21,14.482,14.482,0,0,0,13.09,8.7c7.478.234,13.792-4.841,14.724-11.564,9.769.035,16.823.826,16.823.826l-5.77,18.851C-205.17,475.655-203.27,491.689-200.314,505.54Z" transform="translate(286.196 -396.681)"/><path class="g" d="M-219.543,433.4a72.512,72.512,0,0,1-1.9-10.363l-7.07.624a68.161,68.161,0,0,1-1.907,10.983,1.191,1.191,0,0,1-.954.847c-2.459.419-4.882.934-7.186,1.494a14.483,14.483,0,0,0,13.09,8.7c7.478.234,13.792-4.841,14.724-11.564-2.391-.009-4.946.029-7.6.133A1.2,1.2,0,0,1-219.543,433.4Z" transform="translate(279.453 -392.19)"/><path class="g" d="M-210.447,404.439a2.046,2.046,0,0,0-.77-.083,46.267,46.267,0,0,0,0-6.87l-24.709,1.233c-3.364,27.508,18.451,31.455,23.715,11.7C-209.647,411.21-207.153,405.452-210.447,404.439Z" transform="translate(278.796 -384.823)"/><path class="h" d="M-214.825,382.806a15,15,0,0,0-12.81-2.622c-3.823,1.165-6.571,5.021-10.739,5.28-1.886.119-4.005-.539-5.526.579a4.218,4.218,0,0,0-1.471,2.995,9.475,9.475,0,0,0,5.312,9.174,12.483,12.483,0,0,0,10.893-.284c2.611-1.3,5.03-3.422,7.943-3.4,2.324.02,5.1,2.151,6.785,4.829a2.141,2.141,0,0,1,1.188-.089,11.438,11.438,0,0,0,2.562-6.206A11.77,11.77,0,0,0-214.825,382.806Z" transform="translate(281.431 -379.691)"/><path class="f" d="M-257.854,459.533a10.211,10.211,0,0,0-9.887-10.527,10.159,10.159,0,0,0-6.853,2.372c-.08.058-.149.125-.222.189-.117.1-.235.208-.348.317a101.974,101.974,0,0,0-20.859,25.767,150.452,150.452,0,0,1,18.2,10.148q8.542-11.366,17.659-22.115A10.216,10.216,0,0,0-257.854,459.533Z" transform="translate(296.023 -399.678)"/><path class="f" d="M-170.578,447.269a10.1,10.1,0,0,0-.792-2,10.218,10.218,0,0,0-8.736-5.5,10.212,10.212,0,0,0-10.527,9.887,10.168,10.168,0,0,0,.7,4.059,247.194,247.194,0,0,0,7.493,25.486,121.307,121.307,0,0,1,19.74-5.743A173.24,173.24,0,0,0-170.578,447.269Z" transform="translate(265.634 -397.015)"/></g></g></g></g></g><g class="i" transform="translate(469 538)"><rect class="l" width="115" height="83" rx="8"/><rect class="m" x="0.75" y="0.75" width="113.5" height="81.5" rx="7.25"/></g><g transform="translate(-29 204)"><circle class="j" cx="8.5" cy="8.5" r="8.5" transform="translate(602 326)"/><g transform="translate(-1.133 -1.133)"><path class="k" d="M12825.384,327.334l5.221,5.222" transform="translate(-12216 5.469)"/><path class="k" d="M0,0,5.222,5.222" transform="translate(614.606 332.803) rotate(90)"/></g></g></g></svg>