<?xml version="1.0" encoding="utf-8"?>
<!-- Generator: Adobe Illustrator 23.1.1, SVG Export Plug-In . SVG Version: 6.00 Build 0)  -->
<svg version="1.1" id="Capa_1" xmlns="http://www.w3.org/2000/svg" xmlns:xlink="http://www.w3.org/1999/xlink" x="0px" y="0px"
	 viewBox="0 0 144 144" style="enable-background:new 0 0 144 144;" xml:space="preserve">
<style type="text/css">
	.st0{fill:#40384B;}
	.st1{fill:#FFFFFF;}
	.st2{fill:#F0F0F0;}
	.st3{clip-path:url(#SVGID_2_);}
	.st4{fill:#FCFCFD;}
	.st5{fill:#DDDDDD;}
</style>
<circle id="Ellipse_245" class="st0" cx="72" cy="72.5" r="52.5"/>
<path class="st1" d="M83.6,103.5l-10-10c-0.7-0.7-1.9-0.7-2.6,0l-10,10c-0.7,0.7-0.7,1.9,0,2.6s1.9,0.7,2.6,0l6.9-6.9v16.2
	c0,1,0.8,1.8,1.8,1.8s1.8-0.8,1.8-1.8V99.2l6.9,6.9c0.3,0.3,0.8,0.5,1.3,0.5l0,0c0.5,0,0.9-0.2,1.3-0.5
	C84.3,105.4,84.3,104.2,83.6,103.5z"/>
<g>
	<path id="Rectangle_850" class="st2" d="M38,19.3h68c5.5,0,10,4.5,10,10v46c0,5.5-4.5,10-10,10H38c-5.5,0-10-4.5-10-10v-46
		C28,23.7,32.5,19.3,38,19.3z"/>
	<rect id="Rectangle_851" x="38" y="35.2" class="st0" width="24" height="7"/>
	<rect id="Rectangle_852" x="38" y="46.2" class="st0" width="24" height="7"/>
	<path id="Rectangle_853" class="st0" d="M74,29.2h29c2.8,0,5,2.2,5,5v37c0,2.8-2.2,5-5,5H74c-2.8,0-5-2.2-5-5v-37
		C69,31.5,71.2,29.2,74,29.2z"/>
	<g>
		<g>
			<defs>
				<path id="SVGID_1_" d="M74,29.2h29c2.8,0,5,2.2,5,5v37c0,2.8-2.2,5-5,5H74c-2.8,0-5-2.2-5-5v-37C69,31.5,71.2,29.2,74,29.2z"/>
			</defs>
			<clipPath id="SVGID_2_">
				<use xlink:href="#SVGID_1_"  style="overflow:visible;"/>
			</clipPath>
			<g id="Mask_Group_1" class="st3">
				<g id="Group_268" transform="translate(-10.671 -2.253)">
					<g id="Group_267" transform="translate(497.173 511.901)">
						<path id="Path_467" class="st4" d="M-374.6-394.8l-44,0.7c-1.9-14.9-2.7-30-2.4-45c4.1-1.6,8.3-2.9,12.5-3.9
							c1.7,3.9,5.6,6.5,9.8,6.5c5.6,0.2,10.4-3.6,11.1-8.7c7.4,0,12.7,0.6,12.7,0.6l-4.3,14.2C-378.5-418.5-376.9-406.6-374.6-394.8
							z"/>
						<path id="Path_468" class="st5" d="M-394.1-445.7c-0.7-2.6-1.1-5.2-1.4-7.8l-5.4,0.4c-0.3,2.8-0.7,5.6-1.4,8.3
							c-0.1,0.3-0.4,0.6-0.7,0.6c-1.9,0.3-3.7,0.7-5.4,1.1c1.7,3.9,5.6,6.5,9.8,6.5c5.6,0.2,10.4-3.6,11.1-8.7c-1.8,0-3.7,0-5.7,0.1
							C-393.7-445.1-394-445.3-394.1-445.7z"/>
						<path id="Path_469" class="st5" d="M-387.8-462c-0.2-0.1-0.4-0.1-0.6-0.1c0.1-1.7,0.1-3.4,0-5.2l-18.6,0.9
							c-2.5,20.7,13.9,23.7,17.8,8.8C-387.2-456.9-385.3-461.2-387.8-462z"/>
						<path id="Path_470" class="st1" d="M-389.1-474.4c-2.7-2.1-6.3-2.8-9.6-2c-2.9,0.9-4.9,3.8-8.1,4c-1.4,0.1-3-0.4-4.2,0.4
							c-0.7,0.6-1.1,1.4-1.1,2.3c-0.2,2.9,1.4,5.6,4,6.9c2.6,1.2,5.6,1.1,8.2-0.2c2-1,3.8-2.6,6-2.6c1.7,0,3.8,1.6,5.1,3.6
							c0.3-0.1,0.6-0.1,0.9-0.1c1.1-1.3,1.8-3,1.9-4.7C-385.7-469.6-386.8-472.5-389.1-474.4z"/>
						<path id="Path_471" class="st4" d="M-410.5-431.7c0.1-4.2-3.2-7.8-7.4-7.9l0,0c-1.9-0.1-3.7,0.6-5.2,1.8
							c-0.1,0-0.1,0.1-0.2,0.1c-0.1,0.1-0.2,0.2-0.3,0.2c-6.2,5.6-11.5,12.1-15.6,19.4c4.7,2.2,9.3,4.8,13.7,7.6
							c4.3-5.7,8.7-11.2,13.3-16.6C-411.2-428.4-410.6-430-410.5-431.7z"/>
						<path id="Path_472" class="st4" d="M-367.7-438.9c-0.1-0.5-0.3-1-0.6-1.5c-1.3-2.5-3.8-4-6.6-4.1c-4.2-0.1-7.8,3.2-7.9,7.4
							c0,1,0.1,2.1,0.5,3.1c1.5,6.5,3.4,12.9,5.6,19.2c4.9-2,9.9-3.4,14.9-4.4C-363.2-425.9-365.2-432.5-367.7-438.9z"/>
					</g>
				</g>
			</g>
		</g>
	</g>
</g>
</svg>
