<?xml version="1.0" standalone="no"?>
<!DOCTYPE svg PUBLIC "-//W3C//DTD SVG 20010904//EN"
 "http://www.w3.org/TR/2001/REC-SVG-20010904/DTD/svg10.dtd">
<svg version="1.0" xmlns="http://www.w3.org/2000/svg"
 width="400.000000pt" height="400.000000pt" viewBox="0 0 400.000000 400.000000"
 preserveAspectRatio="xMidYMid meet">
<metadata>
Created by potrace 1.11, written by Peter Selinger 2001-2013
</metadata>
<g transform="translate(0.000000,400.000000) scale(0.100000,-0.100000)"
fill="#000000" stroke="none">
<path d="M0 2000 l0 -2000 2000 0 2000 0 0 2000 0 2000 -2000 0 -2000 0 0
-2000z m2312 1198 l252 -203 -273 -3 c-150 -1 -392 -1 -537 0 l-265 3 278 202
c153 111 282 202 286 202 4 1 121 -90 259 -201z m701 -90 c-11 -13 -251 -306
-533 -653 -282 -346 -516 -631 -520 -633 -5 -2 -410 454 -558 630 l-23 27 98
-33 c54 -19 176 -61 271 -95 128 -45 178 -58 190 -51 9 5 256 194 547 419 292
225 534 410 539 410 5 1 0 -9 -11 -21z m-2001 -759 l3 -292 489 -314 c269
-173 495 -312 502 -309 7 3 238 161 514 351 l500 347 2 245 3 246 160 -129
160 -129 3 -883 2 -882 -595 0 -595 0 -2 207 -3 208 -202 3 -203 2 0 -210 0
-210 -570 0 -570 0 2 882 3 883 190 137 c105 76 193 138 197 138 4 0 9 -131
10 -291z"/>
</g>
</svg>
