<svg xmlns="http://www.w3.org/2000/svg" width="100" height="100" viewBox="0 0 100 100">
  <g id="Group_1611" data-name="Group 1611" transform="translate(-51.048 -346.136)">
    <g id="shuttle" transform="matrix(0.695, -0.719, 0.719, 0.695, 51.048, 398.174)">
      <path id="Path_1680" data-name="Path 1680" d="M72.256,5.4A5.623,5.623,0,0,0,66.94.085c-5.8-.317-17.144-.009-27.994,5.6A54.958,54.958,0,0,0,22.9,19l-.171.207-10.594.818a5.593,5.593,0,0,0-4.261,2.507L.645,33.461a3.874,3.874,0,0,0,2.638,5.965l8.925,1.382c-.032.174-.063.347-.092.52a5.62,5.62,0,0,0,1.576,4.888L26.124,58.649A5.634,5.634,0,0,0,30.1,60.3a5.54,5.54,0,0,0,.912-.076c.174-.029.347-.061.52-.092l1.382,8.926A3.871,3.871,0,0,0,38.88,71.7l10.932-7.228a5.592,5.592,0,0,0,2.507-4.261l.818-10.594.208-.171A54.953,54.953,0,0,0,66.653,33.394c5.612-10.85,5.92-22.2,5.6-27.994ZM47.474,60.933,37.017,67.846l-1.347-8.7a47.478,47.478,0,0,0,12.957-6.169l-.533,6.9a1.381,1.381,0,0,1-.619,1.052ZM29.122,55.652,16.689,43.219a1.374,1.374,0,0,1-.392-1.192,36.459,36.459,0,0,1,1.655-6.3L36.606,54.385a36.613,36.613,0,0,1-6.292,1.659,1.374,1.374,0,0,1-1.192-.392ZM12.46,24.247l6.9-.533a47.474,47.474,0,0,0-6.169,12.957l-8.7-1.347,6.914-10.457A1.381,1.381,0,0,1,12.46,24.247Zm38.17,21.94A48.592,48.592,0,0,1,40.82,52.6L19.736,31.52a49.433,49.433,0,0,1,6.417-9.81A50.579,50.579,0,0,1,40.894,9.453C50.851,4.3,61.342,4.025,66.71,4.317a1.39,1.39,0,0,1,1.314,1.314c.293,5.367.015,15.858-5.136,25.816A50.579,50.579,0,0,1,50.63,46.188Z" transform="translate(0 0)" fill="#fff"/>
      <path id="Path_1681" data-name="Path 1681" d="M10.6,21.183a10.588,10.588,0,1,0-7.493-3.1A10.566,10.566,0,0,0,10.6,21.183ZM6.1,6.1a6.358,6.358,0,1,1-1.862,4.5A6.338,6.338,0,0,1,6.1,6.1Z" transform="translate(38.957 12.196)" fill="#fff"/>
    </g>
    <g id="Group_821" data-name="Group 821" transform="translate(111.105 348.351)">
      <circle id="Ellipse_252" data-name="Ellipse 252" cx="15.041" cy="15.041" r="15.041" transform="translate(0 0)" fill="#56ab33"/>
      <g id="Group_820" data-name="Group 820" transform="translate(8.119 10.309)">
        <path id="Path_523" data-name="Path 523" d="M90.147,355.8l4.382,4.335" transform="translate(-90.147 -350.669)" fill="none" stroke="#fff" stroke-linecap="round" stroke-width="1.5"/>
        <path id="Path_524" data-name="Path 524" d="M114.452,338.428l-9.464,9.464" transform="translate(-100.606 -338.428)" fill="none" stroke="#fff" stroke-linecap="round" stroke-width="1.5"/>
      </g>
    </g>
  </g>
</svg>
