<svg xmlns="http://www.w3.org/2000/svg" xmlns:xlink="http://www.w3.org/1999/xlink" width="121" height="91" viewBox="0 0 121 91"><defs><style>.a{fill:#fff;stroke:#707070;}.b{clip-path:url(#a);}.c{fill:#f0f0f0;}.d{fill:#40384b;}.e,.f,.h,.j{fill:none;}.e{stroke:#40384b;}.e,.h{stroke-linecap:round;}.f{stroke:#49c000;}.f,.h{stroke-width:1.5px;}.g{fill:#49c000;}.h{stroke:#fff;}.i{stroke:none;}</style><clipPath id="a"><rect class="a" width="115" height="83" rx="8" transform="translate(498 334)"/></clipPath></defs><g transform="translate(-1008 -530)"><g class="b" transform="translate(510 204)"><g transform="translate(510.129 341.464)"><g transform="translate(0)"><rect class="c" width="90.749" height="68.062" rx="10"/><g transform="translate(28.535 25.769)"><rect class="d" width="3.943" height="5.156" transform="translate(0)"/><rect class="d" width="3.943" height="5.156" transform="translate(6.26)"/><rect class="d" width="3.943" height="5.156" transform="translate(12.52)"/><rect class="d" width="3.943" height="5.156" transform="translate(18.78)"/><rect class="d" width="3.943" height="5.156" transform="translate(25.04)"/><rect class="d" width="3.943" height="5.156" transform="translate(31.301)"/></g><g transform="translate(8.254 19.312)"><g transform="translate(62.226 0)"><rect class="d" width="11.413" height="2.509" transform="translate(1.938 3.412)"/><rect class="d" width="11.413" height="2.509" transform="translate(1.938 38.382)"/><rect class="d" width="13.351" height="2.509"/><rect class="d" width="30.83" height="1.882" transform="translate(5.279 6.824) rotate(90)"/><rect class="d" width="30.83" height="1.882" transform="translate(9.154 6.824) rotate(90)"/><rect class="d" width="30.83" height="1.882" transform="translate(13.03 6.824) rotate(90)"/></g><g transform="translate(0 0)"><rect class="d" width="11.698" height="2.509" transform="translate(0 3.412)"/><rect class="d" width="11.698" height="2.509" transform="translate(0 38.382)"/><rect class="d" width="13.565" height="2.509"/><rect class="d" width="30.83" height="1.813" transform="translate(10.085 6.824) rotate(90)"/><rect class="d" width="30.83" height="1.813" transform="translate(6.113 6.824) rotate(90)"/><rect class="d" width="30.83" height="1.813" transform="translate(2.123 6.824) rotate(90)"/></g></g><path class="d" d="M5.129,15.2V6.3H80.706v8.9S59.642,10.688,43.2,10.685,5.129,15.2,5.129,15.2Z" transform="translate(3.125 1.252)"/><path class="e" d="M27.849,55.255s9.485-1.11,11.389-9.717-.223-12.074-1.64-10.677S35.675,40.98,36.119,46.6s3.743,6.091,5.475,3.866,4.522-7.194,4.9-4.924-2.528,5.787-1.2,6.649,11.828-7.918,11.828-7.918" transform="translate(4.337 1.498)"/></g></g></g><g class="f" transform="translate(1008 538)"><rect class="i" width="115" height="83" rx="8"/><rect class="j" x="0.75" y="0.75" width="113.5" height="81.5" rx="7.25"/></g><g transform="translate(510 204)"><circle class="g" cx="8.5" cy="8.5" r="8.5" transform="translate(602 326)"/><path class="h" d="M12825.384,327.334l2.417,2.392" transform="translate(-12218.329 8.166)"/><path class="h" d="M0,0,5.222,5.222" transform="translate(614.473 332.67) rotate(90)"/></g></g></svg>