<svg xmlns="http://www.w3.org/2000/svg" xmlns:xlink="http://www.w3.org/1999/xlink" width="121" height="91" viewBox="0 0 121 91"><defs><style>.a{fill:#fff;stroke:#707070;}.b{clip-path:url(#a);}.c{fill:#f0f0f0;}.d{fill:#40384b;}.e{fill:#aaa7a7;}.f{fill:#888;}.g{fill:#f5f5f5;}.h,.j,.l{fill:none;}.h{stroke:#eff0f0;}.h,.j{stroke-width:1.5px;}.i{fill:#ef463f;}.j{stroke:#fff;stroke-linecap:round;}.k{stroke:none;}.m{filter:url(#b);}</style><clipPath id="a"><rect class="a" width="114" height="83" rx="8" transform="translate(498 334)"/></clipPath><filter id="b" x="-19.916" y="6.658" width="83.198" height="84.502" filterUnits="userSpaceOnUse"><feOffset dy="3" input="SourceAlpha"/><feGaussianBlur stdDeviation="3" result="c"/><feFlood flood-opacity="0.161"/><feComposite operator="in" in2="c"/><feComposite in="SourceGraphic"/></filter></defs><g transform="translate(-648 -530)"><g class="b" transform="translate(150 204)"><g transform="translate(517.847 343)"><rect class="c" width="116" height="63" rx="7" transform="translate(0.153)"/><rect class="d" width="37" height="7" transform="translate(67.153 9)"/><rect class="d" width="37" height="7" transform="translate(67.153 21)"/><rect class="d" width="37" height="7" transform="translate(67.153 32)"/><rect class="d" width="37" height="7" transform="translate(67.153 44)"/><rect class="d" width="46" height="7" transform="translate(11.153 9)"/><rect class="d" width="46" height="7" transform="translate(11.153 31)"/></g><g transform="translate(487.084 338.658)"><g transform="translate(0)"><g class="m" transform="matrix(1, 0, 0, 1, 10.92, -12.66)"><path class="e" d="M7622.115,1645.614s-13.68-7.482-18.751-3.974-19.516,19.742-25.343,27.272-9,24.428,2.548,32.647,20.648,5.044,20.648,5.044l31.437-12.125s7.2-3.092,4.85-10.808-5.991-6.765-7.288-7.01-25.49,6.064-25.49,6.064l-.621-26.36s-.364-5.8,3.137-8.425a12.581,12.581,0,0,1,7.688-2.326Z" transform="translate(-7583.69 -1628.05)"/></g><path class="f" d="M7607.349,1665.32s-5.715,8.407-5.586,14.306,6.2,4.723,6.2,4.723Z" transform="translate(-7576.022 -1642.278)"/></g><path class="g" d="M4.18.156,6.932.018a3.612,3.612,0,0,1,3.541,3.722l.593,3.707A3.649,3.649,0,0,1,7.393,11.1l-3.682-.009A3.7,3.7,0,0,1,.019,7.418l.488-3.61A3.649,3.649,0,0,1,4.18.156Z" transform="matrix(0.358, 0.934, -0.934, 0.358, 60.142, 37.326)"/></g></g><g class="h" transform="translate(648 538)"><rect class="k" width="115" height="83" rx="8"/><rect class="l" x="0.75" y="0.75" width="113.5" height="81.5" rx="7.25"/></g><g transform="translate(150 204)"><circle class="i" cx="8.5" cy="8.5" r="8.5" transform="translate(602 326)"/><g transform="translate(-1.133 -1.133)"><path class="j" d="M12825.384,327.334l5.221,5.222" transform="translate(-12216 5.469)"/><path class="j" d="M0,0,5.222,5.222" transform="translate(614.606 332.803) rotate(90)"/></g></g></g></svg>