<?xml version="1.0" encoding="utf-8"?>
<!-- Generator: Adobe Illustrator 24.2.0, SVG Export Plug-In . SVG Version: 6.00 Build 0)  -->
<svg version="1.1" id="Capa_1" xmlns="http://www.w3.org/2000/svg" xmlns:xlink="http://www.w3.org/1999/xlink" x="0px" y="0px"
	 viewBox="0 0 144 144" style="enable-background:new 0 0 144 144;" xml:space="preserve">
<style type="text/css">
	.st0{fill:#40384B;}
	.st1{fill:#FFFFFF;}
	.st2{fill:#F0F0F0;}
</style>
<g id="Group_284" transform="translate(-743 -474)">
	<circle id="Ellipse_245_1_" class="st0" cx="815.4" cy="546.3" r="52.5"/>
	<g id="Group_275" transform="translate(67 13)">
		<g id="Group_274" transform="translate(5.837 -751.648)">
			<g id="Group_272" transform="translate(711.163 1285.648)">
				<path id="Path_481" class="st1" d="M41.7,33.4c-0.5,0-0.9-0.2-1.3-0.5l-8.7-8.7L23,32.9c-0.7,0.7-1.9,0.7-2.6,0
					c-0.7-0.7-0.7-1.9,0-2.6l0,0l10-10c0.7-0.7,1.9-0.7,2.6,0l10,10c0.7,0.7,0.7,1.9,0,2.6C42.6,33.2,42.2,33.4,41.7,33.4L41.7,33.4
					z"/>
			</g>
			<g id="Group_273" transform="translate(721.162 1288.368)">
				<path id="Path_482" class="st1" d="M21.7,41.3c-1,0-1.8-0.8-1.8-1.8V21.6c0-1,0.8-1.8,1.8-1.8c1,0,1.8,0.8,1.8,1.8v17.9
					C23.5,40.5,22.7,41.3,21.7,41.3z"/>
			</g>
		</g>
	</g>
	<g id="Group_752" transform="translate(14231.488 -6090)">
		<path id="Rectangle_1021" class="st2" d="M-13453.6,6588.8h75c3.9,0,7,3.1,7,7v49c0,3.9-3.1,7-7,7h-75c-3.9,0-7-3.1-7-7v-49
			C-13460.6,6591.9-13457.5,6588.8-13453.6,6588.8z"/>
		<rect id="Rectangle_1025" x="-13415.6" y="6597.8" class="st0" width="37" height="7"/>
		<rect id="Rectangle_1024" x="-13415.6" y="6609.8" class="st0" width="37" height="7"/>
		<rect id="Rectangle_1869" x="-13415.6" y="6620.8" class="st0" width="37" height="7"/>
		<rect id="Rectangle_1870" x="-13415.6" y="6632.8" class="st0" width="37" height="7"/>
		<rect id="Rectangle_1854" x="-13453.6" y="6597.8" class="st0" width="36" height="7"/>
		<rect id="Rectangle_1871" x="-13453.6" y="6620.8" class="st0" width="25" height="7"/>
	</g>
</g>
</svg>
