<svg xmlns="http://www.w3.org/2000/svg" width="187.481" height="25.208" viewBox="0 0 187.481 25.208">
  <path id="Path_2021" data-name="Path 2021" d="M138.986-25.491a61.394,61.394,0,0,0-6.575.364c-2.232.218-3.275.34-3.13.34,0-.049.049-.267.121-.631a5.123,5.123,0,0,0,.121-.9,1.025,1.025,0,0,0-1.116-1.165c-.922,0-1.431.995-1.553,2.984-.1.024-.364.049-.825.1-.437.049-.679.073-.7.073a16.453,16.453,0,0,0-3.154.34c-1.528.315-2.3.728-2.3,1.262,0,.1.146.291.437.607a2.291,2.291,0,0,0,.607.534c.97.412,1.553.679,1.723.776a7.7,7.7,0,0,1,1.892,1.553,7.136,7.136,0,0,1,1.456,2.135,8.718,8.718,0,0,1,.194,2.717,26.243,26.243,0,0,0,1.456,10.238c.243.607.388.97.437,1.067.291.558.607.825.922.825h.558c-.194-.849-.218-1.334-.049-1.456a6.374,6.374,0,0,0,.873.509V-3.68c-.437-1.917-.873-3.858-1.31-5.774a26.24,26.24,0,0,1-.655-5.313c0-1.359.024-2.717.1-4.1a14.893,14.893,0,0,1,.388-3.494c.17-.218,1.237-.485,3.2-.776a30.254,30.254,0,0,1,3.251-.388c3.421-.315,5.483-.267,6.187.1a1.9,1.9,0,0,1,.946.534c.218.291.388,1.092.558,1.286a2.217,2.217,0,0,0,.485-1.48c0-.776-.509-1.383-1.553-1.844A7.526,7.526,0,0,0,138.986-25.491Zm-12.81,6.648c-.267-.34-.631-.825-1.043-1.431a4.94,4.94,0,0,1-.631-1.092c-.024-.218.194-.412.631-.631a2.571,2.571,0,0,1,.946-.267h.437Zm7.982,9.462a4.853,4.853,0,0,0,.995,2.814,3.9,3.9,0,0,0,2.111,1.528,6.044,6.044,0,0,0,1.917.17,5.269,5.269,0,0,0,2.984-1.407c.437-.437.631-.752.607-.946a.492.492,0,0,0-.461-.194c.024,0-.364.194-1.116.558a4.787,4.787,0,0,1-2.038.558,2.361,2.361,0,0,1-2.4-1.528,5.54,5.54,0,0,0,1.431-.1A3.456,3.456,0,0,0,141-9.866a7.653,7.653,0,0,0,1.092-3.348,2.8,2.8,0,0,0-.558-1.868,2.11,2.11,0,0,0-1.771-.9,4.969,4.969,0,0,0-4.076,2.378A7.06,7.06,0,0,0,134.158-9.381Zm5.92-4.488a6.341,6.341,0,0,1-.461,2.256c-.437,1.189-1.068,1.8-1.917,1.844a4.9,4.9,0,0,1-1.359-.024l.024-.461a4.481,4.481,0,0,1,1.359-2.45c.873-.995,1.577-1.48,2.086-1.431C139.981-14.063,140.078-13.991,140.078-13.869Zm10.748,5.8a3.854,3.854,0,0,0,.17,2.3,2.406,2.406,0,0,0,.922.946c.582.194.922.1,1.043-.315a4.278,4.278,0,0,1-.34-1.431,13.191,13.191,0,0,1,.7-3.3,11.463,11.463,0,0,0,.655-3.809,1.718,1.718,0,0,0-1.844-1.747,5.943,5.943,0,0,0-2.911,1.868c-.873.849-1.747,1.723-2.644,2.6q.036-.255.146-.728a1.927,1.927,0,0,0,.024-.534,1.287,1.287,0,0,0-1.31-1.043,1.241,1.241,0,0,0-1.019.631,9.605,9.605,0,0,1-.34,2.62c-.291,1.431-.437,2.135-.437,2.135a1.757,1.757,0,0,0,.267.679c.218.388.485.582.752.558.243-.073.412-.121.534-.146a26.748,26.748,0,0,0,3.227-3.4c1.868-2.135,2.936-3.154,3.178-3.081C151.918-12.947,151.675-11.225,150.826-8.071Zm3.906.922c0,1.868,1.189,2.814,3.591,2.814a5.455,5.455,0,0,0,2.159-.9q.473-.328,1.092-.8a9.217,9.217,0,0,0,.946.558,3.6,3.6,0,0,0,1.6.558,2.508,2.508,0,0,0,1.116-.582,3.648,3.648,0,0,0-1.116-.97,1.557,1.557,0,0,1-.752-1.262,3.91,3.91,0,0,1,.8-1.31,3.373,3.373,0,0,0,.8-1.48c0-.218-.485-.825-.485-.946a8.833,8.833,0,0,1,.243-1.092,8.833,8.833,0,0,0,.243-1.092,1.8,1.8,0,0,0-.582-1.286,1.8,1.8,0,0,0-1.286-.582,6.15,6.15,0,0,0-3.154,1.48,17.7,17.7,0,0,0-3.542,3.3A6.254,6.254,0,0,0,154.732-7.149Zm7.885-4.61a.342.342,0,0,1-.243.315,1.573,1.573,0,0,0-.534.243,2.98,2.98,0,0,0-.679,1.14,4.868,4.868,0,0,0-.34,1.577c0,.291.1.776.1.946a4.785,4.785,0,0,1-2.984,1.6,1.321,1.321,0,0,1-.655-.17c-.267-.146-.412-.315-.412-.509,0-1.019.825-2.4,2.45-4.149,1.528-1.626,2.547-2.45,3.081-2.45.073,0,.1,0,.121.024C162.69-13,162.738-12.511,162.617-11.759Zm10.99,3.688a3.854,3.854,0,0,0,.17,2.3,2.406,2.406,0,0,0,.922.946c.582.194.922.1,1.043-.315a4.277,4.277,0,0,1-.34-1.431,13.191,13.191,0,0,1,.7-3.3,11.463,11.463,0,0,0,.655-3.809,1.718,1.718,0,0,0-1.844-1.747,5.943,5.943,0,0,0-2.911,1.868c-.873.849-1.747,1.723-2.644,2.6q.036-.255.146-.728a1.927,1.927,0,0,0,.024-.534,1.287,1.287,0,0,0-1.31-1.043,1.241,1.241,0,0,0-1.019.631,9.6,9.6,0,0,1-.34,2.62c-.291,1.431-.437,2.135-.437,2.135a1.757,1.757,0,0,0,.267.679c.218.388.485.582.752.558.243-.073.412-.121.534-.146a26.746,26.746,0,0,0,3.227-3.4c1.868-2.135,2.936-3.154,3.178-3.081C174.7-12.947,174.456-11.225,173.607-8.071Zm13.975-8.273a20.542,20.542,0,0,0-2.062-.024c.218-1.577.437-2.887.679-3.93.679-2.547,1.019-3.833.995-3.858a1.257,1.257,0,0,0-.461-.7,1.29,1.29,0,0,0-.97-.388q-.691.109-1.456,4.221c-.267,1.577-.485,3.154-.679,4.682-.873.218-1.359.315-1.48.34a9.381,9.381,0,0,0-2.5.8c-1.359.655-1.965,1.431-1.82,2.378.121.728,1.116,2.475,3.008,5.24l2.911,4.149a.146.146,0,0,0,.1.024.839.839,0,0,0,.291.073c.194-.024.315-.049.364-.049.267-5.24.534-9.049.849-11.427a4.5,4.5,0,0,1,.825-.121q.764-.109,4.221-.146c.121,0,.218-.218.243-.218a4.006,4.006,0,0,0-1.868-.825C188.018-16.271,187.606-16.344,187.582-16.344Zm-4.634,9c-.315-.412-.873-1.213-1.674-2.45a10.961,10.961,0,0,1-1.334-2.523c-.146-.9,1.019-1.626,3.494-2.208Zm36.368-2.693c.121-.461.049-.752-.218-.922a21.449,21.449,0,0,1-3.372,2.329,15.508,15.508,0,0,1-4.658,2.062,7.177,7.177,0,0,1-1.528.17,5.258,5.258,0,0,1-4.319-2.038,6.753,6.753,0,0,1-1.456-4.343,7.016,7.016,0,0,1,.17-1.407c.146-.558.243-.873.267-.995a12.668,12.668,0,0,1,1.528-.267l3.033-.412c.922-.121,1.407-.17,1.431-.194,1.431-.243,2.135-.655,2.135-1.213,0-.776-1.359-1.48-4.1-2.111a2.667,2.667,0,0,1,.776-.146c.073,0,.9-.024,2.475-.049s2.426-.049,2.5-.049c.34,0,1.626.049,3.833.17,2.232.1,3.324.146,3.251.146a2.984,2.984,0,0,0,1.019-.243.351.351,0,0,0,.049-.17c0-.17-.146-.315-.243-.437a17.16,17.16,0,0,0-3.858-.946,49.561,49.561,0,0,0-5.532-.485c-.607-.024-1.213-.049-1.868-.049A71.947,71.947,0,0,0,201.58-21a14.258,14.258,0,0,0-1.626.218,18.048,18.048,0,0,0-2.378.509c-.17.049-.243.243-.243.607,0,.607.461.995,1.359,1.189.194.024.922.1,2.159.194a6.922,6.922,0,0,1,.728.073,2.843,2.843,0,0,1,.849.146l-.461,1.286q-.619.146-.655.146a11.17,11.17,0,0,0-2.863.995,9.094,9.094,0,0,0-2.086,1.262c-.849.728-1.262,1.286-1.262,1.65,0,1.431,2.208,2.135,6.623,2.062A7.6,7.6,0,0,0,202.939-7.9a8.488,8.488,0,0,0,1.917,2.086,7.33,7.33,0,0,0,3.275,1.286,6.978,6.978,0,0,0,1.723.073,8.792,8.792,0,0,0,3.105-.728,11.24,11.24,0,0,0,2.5-1.286,17.939,17.939,0,0,0,3.13-2.523A8.4,8.4,0,0,0,219.315-10.036ZM206.408-17.7c-.073,0-.34.049-.8.121s-.7.073-.679,0a1.594,1.594,0,0,1,.146-.291c.073-.073.267-.1.582-.1,1.286,0,1.989,0,2.159.024Zm-5.92,5.7c-1.189-.218-1.868-.461-1.989-.728q.109-.691,1.528-1.237a4.6,4.6,0,0,1,1.48-.412,14.133,14.133,0,0,0,0,2.5ZM223.8-4.213c.267-.024.946-.752,2.038-2.159a24.937,24.937,0,0,0,2.79-4.658,5.712,5.712,0,0,0,.364-.922,5.776,5.776,0,0,0,.218-.849,2.234,2.234,0,0,0-.073-1.383c-.509-.437-.97-.485-1.359-.146-.121.364-.146.582-.509,1.723a13.78,13.78,0,0,1-.873,1.892,19.1,19.1,0,0,1-1.383,2.038,9.773,9.773,0,0,1-1.6,1.8,10.2,10.2,0,0,1-1.14-2.572,22.432,22.432,0,0,1-.582-3.081c-.17-1.189-.485-1.577-1.431-1.48a1.133,1.133,0,0,0-.485.17c-.17.121-.243.388-.218.776a29.7,29.7,0,0,0,.995,4.658C221.572-5.524,222.663-4.116,223.8-4.213Zm4.707-2.936c0,1.868,1.189,2.814,3.591,2.814a5.456,5.456,0,0,0,2.159-.9q.473-.328,1.092-.8a9.215,9.215,0,0,0,.946.558,3.6,3.6,0,0,0,1.6.558,2.508,2.508,0,0,0,1.116-.582,3.648,3.648,0,0,0-1.116-.97,1.557,1.557,0,0,1-.752-1.262,3.909,3.909,0,0,1,.8-1.31,3.372,3.372,0,0,0,.8-1.48c0-.218-.485-.825-.485-.946a8.831,8.831,0,0,1,.243-1.092,8.834,8.834,0,0,0,.243-1.092,1.8,1.8,0,0,0-.582-1.286,1.8,1.8,0,0,0-1.286-.582,6.15,6.15,0,0,0-3.154,1.48,17.7,17.7,0,0,0-3.542,3.3A6.254,6.254,0,0,0,228.51-7.149Zm7.885-4.61a.342.342,0,0,1-.243.315,1.573,1.573,0,0,0-.534.243,2.98,2.98,0,0,0-.679,1.14,4.868,4.868,0,0,0-.34,1.577c0,.291.1.776.1.946a4.785,4.785,0,0,1-2.984,1.6,1.321,1.321,0,0,1-.655-.17c-.267-.146-.412-.315-.412-.509,0-1.019.825-2.4,2.45-4.149,1.528-1.626,2.547-2.45,3.081-2.45.073,0,.1,0,.121.024C236.468-13,236.517-12.511,236.4-11.759Zm9.7,4.61a10.5,10.5,0,0,0-1.7.825c-.825.461-1.262.679-1.286.679a1.377,1.377,0,0,1-.509-.146V-7.2a47.338,47.338,0,0,1,.849-7.084c.412-2.3.922-4.949,1.577-7.909.558-2.6.849-3.833.849-3.761a.891.891,0,0,0-.922-.849c-.582,0-.922.194-.995.558q-3.384,14.63-3.372,20.6c0,1.528.437,2.281,1.286,2.281A4.962,4.962,0,0,0,244.6-4.8c1.14-.946,1.7-1.674,1.723-2.135Zm13.028-6.842c0-.121-.146-.315-.437-.558a1.191,1.191,0,0,0-.849-.388q-.619,0-1.6,1.456c-.315.509-.607.995-.9,1.48a45.2,45.2,0,0,1-4.658,3.13,5.813,5.813,0,0,1-1.8.8l-.049-.509a7.23,7.23,0,0,1,.7-2.4c.461-1.092.7-1.65.7-1.7,0-.873-.364-1.31-1.068-1.31s-1.286.946-1.771,2.814a14.586,14.586,0,0,0-.558,3.324,1.953,1.953,0,0,0,1.941,1.892c.607,0,1.626-.534,3.081-1.6.849-.655,1.7-1.334,2.547-1.989v.218a6.9,6.9,0,0,0-.17,2.572,3.58,3.58,0,0,0,.364,1.456c.315.607.7.873,1.165.849a.978.978,0,0,0,.7-.218c.146-.146.1-.631-.146-1.431L256.29-7.44a6.477,6.477,0,0,1,.752-2.984,14.408,14.408,0,0,1,1.359-2.184A3.653,3.653,0,0,0,259.128-13.991Zm-.34,6.842c0,1.868,1.189,2.814,3.591,2.814a5.455,5.455,0,0,0,2.159-.9q.473-.328,1.092-.8a9.217,9.217,0,0,0,.946.558,3.6,3.6,0,0,0,1.6.558,2.508,2.508,0,0,0,1.116-.582,3.648,3.648,0,0,0-1.116-.97,1.557,1.557,0,0,1-.752-1.262,3.909,3.909,0,0,1,.8-1.31,3.373,3.373,0,0,0,.8-1.48c0-.218-.485-.825-.485-.946a8.833,8.833,0,0,1,.243-1.092,8.833,8.833,0,0,0,.243-1.092,1.8,1.8,0,0,0-.582-1.286,1.8,1.8,0,0,0-1.286-.582A6.15,6.15,0,0,0,264-14.039a17.7,17.7,0,0,0-3.542,3.3A6.254,6.254,0,0,0,258.789-7.149Zm7.885-4.61a.342.342,0,0,1-.243.315,1.573,1.573,0,0,0-.534.243,2.98,2.98,0,0,0-.679,1.14,4.868,4.868,0,0,0-.34,1.577c0,.291.1.776.1.946a4.785,4.785,0,0,1-2.984,1.6,1.321,1.321,0,0,1-.655-.17c-.267-.146-.412-.315-.412-.509,0-1.019.825-2.4,2.45-4.149,1.528-1.626,2.547-2.45,3.081-2.45.073,0,.1,0,.121.024C266.746-13,266.795-12.511,266.674-11.759Zm12.907-4.585a20.542,20.542,0,0,0-2.062-.024c.218-1.577.437-2.887.679-3.93.679-2.547,1.019-3.833.995-3.858a1.258,1.258,0,0,0-.461-.7,1.29,1.29,0,0,0-.97-.388q-.691.109-1.456,4.221c-.267,1.577-.485,3.154-.679,4.682-.873.218-1.359.315-1.48.34a9.382,9.382,0,0,0-2.5.8c-1.359.655-1.965,1.431-1.82,2.378.121.728,1.116,2.475,3.008,5.24l2.911,4.149a.146.146,0,0,0,.1.024.839.839,0,0,0,.291.073c.194-.024.315-.049.364-.049.267-5.24.534-9.049.849-11.427a4.5,4.5,0,0,1,.825-.121q.764-.109,4.221-.146c.121,0,.218-.218.243-.218a4.006,4.006,0,0,0-1.868-.825C280.017-16.271,279.6-16.344,279.581-16.344Zm-4.634,9c-.315-.412-.873-1.213-1.674-2.45a10.961,10.961,0,0,1-1.334-2.523c-.146-.9,1.019-1.626,3.494-2.208Zm13.9-12.713c-.194-.315-.849-.485-1.941-.485a4.736,4.736,0,0,0-1.407.34c-.752.267-1.116.534-1.116.825a1.409,1.409,0,0,0,1.334,1.286,10.3,10.3,0,0,0,1.092-.437,15.778,15.778,0,0,1,1.553-.631A1.49,1.49,0,0,0,288.848-20.056Zm-4.1,15.7a.553.553,0,0,0,.024-.728,3.239,3.239,0,0,1-.655-2.378,19.564,19.564,0,0,1,.364-3.372c.267-1.334.388-1.965.388-1.892q0-.255-.509-.582a1.517,1.517,0,0,0-.679-.315.883.883,0,0,0-.97.315,19.617,19.617,0,0,1-.291,1.989,19.946,19.946,0,0,0-.291,2.96,8.525,8.525,0,0,0,.243,2.159,2.583,2.583,0,0,0,1.747,1.844Zm11.233-6.4a3.613,3.613,0,0,0-.534-1.892,1.994,1.994,0,0,0-1.723-1.092,2.9,2.9,0,0,0-1.989.825,2.736,2.736,0,0,0-.97,2.086,3.794,3.794,0,0,0,.146.995c.146.509.34.752.558.752.291,0,.534-.218.7-.655.073-.291.17-.582.267-.873q.509-1.092,1.019-1.092a.184.184,0,0,1,.1.049c.243.049.364.485.364,1.286a5.133,5.133,0,0,1-1.019,2.79,3.374,3.374,0,0,1-2.79,1.82,1.6,1.6,0,0,1-.534-.146c-.291-.1-.534-.437-.728-.995a5.37,5.37,0,0,1-.243-1.31,7.051,7.051,0,0,1,1.456-3.93c1.092-1.626,2.256-2.426,3.445-2.426a1.618,1.618,0,0,1,.509.218,2.45,2.45,0,0,0,.534.194,1.217,1.217,0,0,0,.7-.437,1.506,1.506,0,0,0-.728-1.431,2.562,2.562,0,0,0-1.5-.461q-2.184,0-4.294,2.766a8.984,8.984,0,0,0-2.111,5.507,4.692,4.692,0,0,0,.752,2.426,2.856,2.856,0,0,0,2.3,1.6c2.742,0,4.367-1.189,5.847-4.2A5.775,5.775,0,0,0,295.981-10.764Zm8.2,2.693a3.854,3.854,0,0,0,.17,2.3,2.406,2.406,0,0,0,.922.946c.582.194.922.1,1.043-.315a4.277,4.277,0,0,1-.34-1.431,13.191,13.191,0,0,1,.7-3.3,11.461,11.461,0,0,0,.655-3.809,1.718,1.718,0,0,0-1.844-1.747,5.943,5.943,0,0,0-2.911,1.868c-.873.849-1.747,1.723-2.645,2.6q.036-.255.146-.728a1.927,1.927,0,0,0,.024-.534,1.287,1.287,0,0,0-1.31-1.043,1.241,1.241,0,0,0-1.019.631,9.605,9.605,0,0,1-.34,2.62C297.146-8.58,297-7.877,297-7.877a1.757,1.757,0,0,0,.267.679c.218.388.485.582.752.558.243-.073.412-.121.534-.146a26.752,26.752,0,0,0,3.227-3.4c1.868-2.135,2.936-3.154,3.178-3.081C305.273-12.947,305.031-11.225,304.182-8.071Z" transform="translate(-119.868 27.48)" fill="#fff"/>
</svg>
