<svg xmlns="http://www.w3.org/2000/svg" width="377.897" height="31.17" viewBox="0 0 377.897 31.17">
  <path id="Path_2015" data-name="Path 2015" d="M17.28-4.05c1.44,3.81,2.94,5.76,4.53,5.85.39,0,1.26-1.11,2.55-3.33a32.968,32.968,0,0,0,3.57-8.58,39.068,39.068,0,0,0,1.02-7.62,14.221,14.221,0,0,0-.57-3.96c-.45-1.23-1.08-1.83-1.95-1.83a2.039,2.039,0,0,0-.57.09,8.347,8.347,0,0,1,.75,4.32,31.908,31.908,0,0,1-1.68,9.63A27.856,27.856,0,0,1,21-1.65c-.57-.57-1.05-1.98-1.47-4.2a28.16,28.16,0,0,1-.51-4.77,27.148,27.148,0,0,1,.15-2.82c.09-.87.15-1.35.15-1.44a1.417,1.417,0,0,0-.45-.9,1.579,1.579,0,0,0-1.29-.66c-1.23,0-3.36,2.13-6.39,6.36l.27-.93c.15-.51.72-1.89,1.71-4.17.99-2.19,1.47-3.3,1.47-3.33,0-.15-.21-.36-.63-.66a1.857,1.857,0,0,0-1.05-.48A9.517,9.517,0,0,0,9-18.03a24.043,24.043,0,0,0-4.86,3.69c-1.59,1.59-2.4,2.97-2.4,4.11a1.217,1.217,0,0,0,.48,1.14,4.126,4.126,0,0,0,1.53.39,3.937,3.937,0,0,0,.75-1.47,6.615,6.615,0,0,1,.66-1.59,11.644,11.644,0,0,1,2.49-2.58,7.1,7.1,0,0,1,2.76-1.59C8.7-11.64,7.83-8.52,7.83-6.57c0,1.89.42,2.85,1.29,2.85h.63c.18,0,1.17-1.26,2.94-3.75,2.1-2.91,3.21-4.47,3.36-4.65.03.15.15,1.5.39,4.05A15.358,15.358,0,0,0,17.28-4.05ZM29.13-5.1a6,6,0,0,0,1.23,3.48A4.818,4.818,0,0,0,32.97.27a7.474,7.474,0,0,0,2.37.21,6.516,6.516,0,0,0,3.69-1.74c.54-.54.78-.93.75-1.17a.608.608,0,0,0-.57-.24c.03,0-.45.24-1.38.69a5.92,5.92,0,0,1-2.52.69,2.919,2.919,0,0,1-2.97-1.89,6.851,6.851,0,0,0,1.77-.12,4.273,4.273,0,0,0,3.48-2.4,9.463,9.463,0,0,0,1.35-4.14,3.462,3.462,0,0,0-.69-2.31,2.609,2.609,0,0,0-2.19-1.11,6.145,6.145,0,0,0-5.04,2.94A8.73,8.73,0,0,0,29.13-5.1Zm7.32-5.55a7.841,7.841,0,0,1-.57,2.79c-.54,1.47-1.32,2.22-2.37,2.28a6.062,6.062,0,0,1-1.68-.03l.03-.57a5.541,5.541,0,0,1,1.68-3.03c1.08-1.23,1.95-1.83,2.58-1.77C36.33-10.89,36.45-10.8,36.45-10.65ZM48.3-2.34a12.979,12.979,0,0,0-2.1,1.02c-1.02.57-1.56.84-1.59.84a1.7,1.7,0,0,1-.63-.18V-2.4a58.533,58.533,0,0,1,1.05-8.76c.51-2.85,1.14-6.12,1.95-9.78.69-3.21,1.05-4.74,1.05-4.65a1.1,1.1,0,0,0-1.14-1.05c-.72,0-1.14.24-1.23.69Q41.475-7.86,41.49-.48c0,1.89.54,2.82,1.59,2.82.84,0,1.95-.6,3.36-1.77s2.1-2.07,2.13-2.64ZM54.48.87A4.863,4.863,0,0,0,57.66-.6a1.8,1.8,0,0,0,.33-.75c0-.15-.15-.21-.48-.18a11.008,11.008,0,0,1-2.67.42c-2.13,0-3.45-1.62-3.45-3.9a8.83,8.83,0,0,1,.93-3.75c.99-1.71,2.16-2.55,3.57-2.55a1.1,1.1,0,0,1,1.26,1.23,4.377,4.377,0,0,1-.63,1.83c0,.21.36.78.72.78a2.1,2.1,0,0,0,1.5-.9,2.712,2.712,0,0,0,.81-1.8,3.009,3.009,0,0,0-1.2-2.43,4.186,4.186,0,0,0-2.82-1.02,5.973,5.973,0,0,0-4.95,2.73,8.622,8.622,0,0,0-1.77,5.1,7.182,7.182,0,0,0,1.53,4.44A5.109,5.109,0,0,0,54.48.87ZM71.94-6.81a4.467,4.467,0,0,0-.66-2.34,2.466,2.466,0,0,0-2.13-1.35,3.582,3.582,0,0,0-2.46,1.02,3.383,3.383,0,0,0-1.2,2.58,4.691,4.691,0,0,0,.18,1.23c.18.63.42.93.69.93.36,0,.66-.27.87-.81.09-.36.21-.72.33-1.08q.63-1.35,1.26-1.35a.227.227,0,0,1,.12.06c.3.06.45.6.45,1.59a6.347,6.347,0,0,1-1.26,3.45A4.172,4.172,0,0,1,64.68-.63a1.984,1.984,0,0,1-.66-.18c-.36-.12-.66-.54-.9-1.23a6.641,6.641,0,0,1-.3-1.62,8.719,8.719,0,0,1,1.8-4.86c1.35-2.01,2.79-3,4.26-3a2,2,0,0,1,.63.27,3.029,3.029,0,0,0,.66.24,1.505,1.505,0,0,0,.87-.54,1.862,1.862,0,0,0-.9-1.77,3.168,3.168,0,0,0-1.86-.57q-2.7,0-5.31,3.42a11.109,11.109,0,0,0-2.61,6.81,5.8,5.8,0,0,0,.93,3,3.532,3.532,0,0,0,2.85,1.98c3.39,0,5.4-1.47,7.23-5.19A7.142,7.142,0,0,0,71.94-6.81Zm14.97,3.6A22.274,22.274,0,0,0,88.53-.84,6.35,6.35,0,0,0,92.4,1.41,7.844,7.844,0,0,0,97.35-.06l.18-.48a.518.518,0,0,0-.6-.39,20.717,20.717,0,0,1-2.7.39,4.407,4.407,0,0,1-3.54-1.59,26.186,26.186,0,0,1-1.98-3.09q-.945-1.71-1.8-1.71a1.453,1.453,0,0,0-1.08.54c-.15.21-.33.39-.48.57a5.317,5.317,0,0,0,.03-.72,5.777,5.777,0,0,0-.63-2.7,1.985,1.985,0,0,0-1.83-1.32,5.977,5.977,0,0,0-3.54,1.53c-.87.75-1.77,1.53-2.64,2.28l.06-.51c0-.09.06-.57.21-1.44.15-.9.24-1.41.24-1.5a1.43,1.43,0,0,0-1.41-1.2,2.235,2.235,0,0,0-1.2,1.89c-.15,1.11-.33,2.25-.48,3.36A49.1,49.1,0,0,0,73.02-.81a2.01,2.01,0,0,0,.36.87c.3.48.6.72.93.69a2.734,2.734,0,0,1,.48.09c.9-1.44,1.8-2.88,2.73-4.32,2.01-2.91,3.6-4.38,4.83-4.41.24-.03.36.36.39,1.17,0,.09-.12.99-.39,2.7q-.36,2.565-.36,2.7a1.586,1.586,0,0,0,.75,1.11,2.231,2.231,0,0,0,1.23.54q.27-.045,1.26-1.35c.03-.03.48-.72,1.41-2.01Q86.82-3.255,86.91-3.21ZM96.27-5.1A6,6,0,0,0,97.5-1.62,4.818,4.818,0,0,0,100.11.27a7.474,7.474,0,0,0,2.37.21,6.516,6.516,0,0,0,3.69-1.74c.54-.54.78-.93.75-1.17a.608.608,0,0,0-.57-.24c.03,0-.45.24-1.38.69a5.92,5.92,0,0,1-2.52.69,2.919,2.919,0,0,1-2.97-1.89,6.851,6.851,0,0,0,1.77-.12,4.273,4.273,0,0,0,3.48-2.4,9.463,9.463,0,0,0,1.35-4.14,3.462,3.462,0,0,0-.69-2.31,2.609,2.609,0,0,0-2.19-1.11,6.145,6.145,0,0,0-5.04,2.94A8.73,8.73,0,0,0,96.27-5.1Zm7.32-5.55a7.841,7.841,0,0,1-.57,2.79c-.54,1.47-1.32,2.22-2.37,2.28a6.062,6.062,0,0,1-1.68-.03L99-6.18a5.541,5.541,0,0,1,1.68-3.03c1.08-1.23,1.95-1.83,2.58-1.77C103.47-10.89,103.59-10.8,103.59-10.65Zm23.64-3.06a25.4,25.4,0,0,0-2.55-.03c.27-1.95.54-3.57.84-4.86.84-3.15,1.26-4.74,1.23-4.77a1.555,1.555,0,0,0-.57-.87,1.6,1.6,0,0,0-1.2-.48q-.855.135-1.8,5.22c-.33,1.95-.6,3.9-.84,5.79-1.08.27-1.68.39-1.83.42a11.6,11.6,0,0,0-3.09.99c-1.68.81-2.43,1.77-2.25,2.94.15.9,1.38,3.06,3.72,6.48l3.6,5.13a.18.18,0,0,0,.12.03,1.037,1.037,0,0,0,.36.09c.24-.03.39-.06.45-.06.33-6.48.66-11.19,1.05-14.13a5.57,5.57,0,0,1,1.02-.15q.945-.135,5.22-.18c.15,0,.27-.27.3-.27a4.954,4.954,0,0,0-2.31-1.02C127.77-13.62,127.26-13.71,127.23-13.71ZM121.5-2.58c-.39-.51-1.08-1.5-2.07-3.03a13.554,13.554,0,0,1-1.65-3.12c-.18-1.11,1.26-2.01,4.32-2.73Zm18.39-4.23a4.467,4.467,0,0,0-.66-2.34,2.466,2.466,0,0,0-2.13-1.35,3.582,3.582,0,0,0-2.46,1.02,3.383,3.383,0,0,0-1.2,2.58,4.692,4.692,0,0,0,.18,1.23c.18.63.42.93.69.93.36,0,.66-.27.87-.81.09-.36.21-.72.33-1.08q.63-1.35,1.26-1.35a.227.227,0,0,1,.12.06c.3.06.45.6.45,1.59a6.347,6.347,0,0,1-1.26,3.45,4.172,4.172,0,0,1-3.45,2.25,1.983,1.983,0,0,1-.66-.18c-.36-.12-.66-.54-.9-1.23a6.64,6.64,0,0,1-.3-1.62,8.719,8.719,0,0,1,1.8-4.86c1.35-2.01,2.79-3,4.26-3a2,2,0,0,1,.63.27,3.029,3.029,0,0,0,.66.24,1.505,1.505,0,0,0,.87-.54,1.862,1.862,0,0,0-.9-1.77,3.168,3.168,0,0,0-1.86-.57q-2.7,0-5.31,3.42a11.109,11.109,0,0,0-2.61,6.81,5.8,5.8,0,0,0,.93,3,3.532,3.532,0,0,0,2.85,1.98c3.39,0,5.4-1.47,7.23-5.19A7.142,7.142,0,0,0,139.89-6.81Zm31.56-18.21a75.915,75.915,0,0,0-8.13.45c-2.76.27-4.05.42-3.87.42,0-.06.06-.33.15-.78a6.334,6.334,0,0,0,.15-1.11,1.267,1.267,0,0,0-1.38-1.44c-1.14,0-1.77,1.23-1.92,3.69-.12.03-.45.06-1.02.12-.54.06-.84.09-.87.09a20.345,20.345,0,0,0-3.9.42c-1.89.39-2.85.9-2.85,1.56,0,.12.18.36.54.75a2.833,2.833,0,0,0,.75.66c1.2.51,1.92.84,2.13.96a9.518,9.518,0,0,1,2.34,1.92,8.823,8.823,0,0,1,1.8,2.64,10.78,10.78,0,0,1,.24,3.36,32.45,32.45,0,0,0,1.8,12.66c.3.75.48,1.2.54,1.32.36.69.75,1.02,1.14,1.02h.69c-.24-1.05-.27-1.65-.06-1.8a7.881,7.881,0,0,0,1.08.63V1.95c-.54-2.37-1.08-4.77-1.62-7.14a32.446,32.446,0,0,1-.81-6.57c0-1.68.03-3.36.12-5.07a18.416,18.416,0,0,1,.48-4.32c.21-.27,1.53-.6,3.96-.96a37.41,37.41,0,0,1,4.02-.48c4.23-.39,6.78-.33,7.65.12a2.353,2.353,0,0,1,1.17.66c.27.36.48,1.35.69,1.59a2.741,2.741,0,0,0,.6-1.83c0-.96-.63-1.71-1.92-2.28A9.307,9.307,0,0,0,171.45-25.02ZM155.61-16.8c-.33-.42-.78-1.02-1.29-1.77a6.109,6.109,0,0,1-.78-1.35c-.03-.27.24-.51.78-.78a3.179,3.179,0,0,1,1.17-.33h.54Zm9.87,11.7a6,6,0,0,0,1.23,3.48A4.818,4.818,0,0,0,169.32.27a7.474,7.474,0,0,0,2.37.21,6.516,6.516,0,0,0,3.69-1.74c.54-.54.78-.93.75-1.17a.608.608,0,0,0-.57-.24c.03,0-.45.24-1.38.69a5.92,5.92,0,0,1-2.52.69,2.919,2.919,0,0,1-2.97-1.89,6.851,6.851,0,0,0,1.77-.12,4.273,4.273,0,0,0,3.48-2.4,9.463,9.463,0,0,0,1.35-4.14,3.462,3.462,0,0,0-.69-2.31,2.609,2.609,0,0,0-2.19-1.11,6.145,6.145,0,0,0-5.04,2.94A8.73,8.73,0,0,0,165.48-5.1Zm7.32-5.55a7.841,7.841,0,0,1-.57,2.79c-.54,1.47-1.32,2.22-2.37,2.28a6.062,6.062,0,0,1-1.68-.03l.03-.57a5.541,5.541,0,0,1,1.68-3.03c1.08-1.23,1.95-1.83,2.58-1.77C172.68-10.89,172.8-10.8,172.8-10.65Zm13.29,7.17a4.766,4.766,0,0,0,.21,2.85A2.975,2.975,0,0,0,187.44.54c.72.24,1.14.12,1.29-.39a5.289,5.289,0,0,1-.42-1.77,16.311,16.311,0,0,1,.87-4.08,14.174,14.174,0,0,0,.81-4.71,2.124,2.124,0,0,0-2.28-2.16c-.87.09-2.07.84-3.6,2.31-1.08,1.05-2.16,2.13-3.27,3.21q.045-.315.18-.9a2.383,2.383,0,0,0,.03-.66,1.591,1.591,0,0,0-1.62-1.29,1.535,1.535,0,0,0-1.26.78,11.877,11.877,0,0,1-.42,3.24c-.36,1.77-.54,2.64-.54,2.64a2.172,2.172,0,0,0,.33.84c.27.48.6.72.93.69.3-.09.51-.15.66-.18a33.075,33.075,0,0,0,3.99-4.2c2.31-2.64,3.63-3.9,3.93-3.81C187.44-9.51,187.14-7.38,186.09-3.48Zm4.83,1.14c0,2.31,1.47,3.48,4.44,3.48A6.746,6.746,0,0,0,198.03.03q.585-.405,1.35-.99a11.4,11.4,0,0,0,1.17.69,4.45,4.45,0,0,0,1.98.69,3.1,3.1,0,0,0,1.38-.72,4.511,4.511,0,0,0-1.38-1.2,1.925,1.925,0,0,1-.93-1.56,4.834,4.834,0,0,1,.99-1.62,4.17,4.17,0,0,0,.99-1.83c0-.27-.6-1.02-.6-1.17a10.923,10.923,0,0,1,.3-1.35,10.921,10.921,0,0,0,.3-1.35,2.225,2.225,0,0,0-.72-1.59,2.225,2.225,0,0,0-1.59-.72c-.93,0-2.22.6-3.9,1.83a21.886,21.886,0,0,0-4.38,4.08C191.61-5.04,190.92-3.57,190.92-2.34Zm9.75-5.7a.423.423,0,0,1-.3.39,1.945,1.945,0,0,0-.66.3,3.684,3.684,0,0,0-.84,1.41,6.019,6.019,0,0,0-.42,1.95c0,.36.12.96.12,1.17q-2.115,1.98-3.69,1.98a1.633,1.633,0,0,1-.81-.21c-.33-.18-.51-.39-.51-.63,0-1.26,1.02-2.97,3.03-5.13,1.89-2.01,3.15-3.03,3.81-3.03.09,0,.12,0,.15.03C200.76-9.57,200.82-8.97,200.67-8.04Zm13.59,4.56a4.766,4.766,0,0,0,.21,2.85A2.975,2.975,0,0,0,215.61.54c.72.24,1.14.12,1.29-.39a5.289,5.289,0,0,1-.42-1.77,16.311,16.311,0,0,1,.87-4.08,14.174,14.174,0,0,0,.81-4.71,2.124,2.124,0,0,0-2.28-2.16c-.87.09-2.07.84-3.6,2.31-1.08,1.05-2.16,2.13-3.27,3.21q.045-.315.18-.9a2.383,2.383,0,0,0,.03-.66A1.591,1.591,0,0,0,207.6-9.9a1.535,1.535,0,0,0-1.26.78,11.877,11.877,0,0,1-.42,3.24c-.36,1.77-.54,2.64-.54,2.64a2.172,2.172,0,0,0,.33.84c.27.48.6.72.93.69.3-.09.51-.15.66-.18a33.075,33.075,0,0,0,3.99-4.2c2.31-2.64,3.63-3.9,3.93-3.81C215.61-9.51,215.31-7.38,214.26-3.48Zm17.28-10.23a25.4,25.4,0,0,0-2.55-.03c.27-1.95.54-3.57.84-4.86.84-3.15,1.26-4.74,1.23-4.77a1.555,1.555,0,0,0-.57-.87,1.6,1.6,0,0,0-1.2-.48q-.855.135-1.8,5.22c-.33,1.95-.6,3.9-.84,5.79-1.08.27-1.68.39-1.83.42a11.6,11.6,0,0,0-3.09.99c-1.68.81-2.43,1.77-2.25,2.94.15.9,1.38,3.06,3.72,6.48l3.6,5.13a.18.18,0,0,0,.12.03,1.037,1.037,0,0,0,.36.09c.24-.03.39-.06.45-.06.33-6.48.66-11.19,1.05-14.13a5.57,5.57,0,0,1,1.02-.15q.945-.135,5.22-.18c.15,0,.27-.27.3-.27a4.954,4.954,0,0,0-2.31-1.02C232.08-13.62,231.57-13.71,231.54-13.71ZM225.81-2.58c-.39-.51-1.08-1.5-2.07-3.03a13.554,13.554,0,0,1-1.65-3.12c-.18-1.11,1.26-2.01,4.32-2.73Zm44.97-3.33c.15-.57.06-.93-.27-1.14a26.523,26.523,0,0,1-4.17,2.88,19.176,19.176,0,0,1-5.76,2.55,8.874,8.874,0,0,1-1.89.21,6.5,6.5,0,0,1-5.34-2.52,8.351,8.351,0,0,1-1.8-5.37,8.675,8.675,0,0,1,.21-1.74c.18-.69.3-1.08.33-1.23a15.664,15.664,0,0,1,1.89-.33l3.75-.51c1.14-.15,1.74-.21,1.77-.24,1.77-.3,2.64-.81,2.64-1.5,0-.96-1.68-1.83-5.07-2.61a3.3,3.3,0,0,1,.96-.18c.09,0,1.11-.03,3.06-.06s3-.06,3.09-.06c.42,0,2.01.06,4.74.21,2.76.12,4.11.18,4.02.18a3.69,3.69,0,0,0,1.26-.3.434.434,0,0,0,.06-.21c0-.21-.18-.39-.3-.54a21.219,21.219,0,0,0-4.77-1.17,61.285,61.285,0,0,0-6.84-.6c-.75-.03-1.5-.06-2.31-.06a88.965,88.965,0,0,0-11.19.78,17.63,17.63,0,0,0-2.01.27,22.316,22.316,0,0,0-2.94.63c-.21.06-.3.3-.3.75,0,.75.57,1.23,1.68,1.47.24.03,1.14.12,2.67.24a8.559,8.559,0,0,1,.9.09,3.515,3.515,0,0,1,1.05.18l-.57,1.59q-.765.18-.81.18a13.813,13.813,0,0,0-3.54,1.23,11.246,11.246,0,0,0-2.58,1.56c-1.05.9-1.56,1.59-1.56,2.04,0,1.77,2.73,2.64,8.19,2.55a9.4,9.4,0,0,0,1.5,3.42A10.5,10.5,0,0,0,252.9-.69,9.064,9.064,0,0,0,256.95.9a8.629,8.629,0,0,0,2.13.09,10.872,10.872,0,0,0,3.84-.9,13.9,13.9,0,0,0,3.09-1.59,22.182,22.182,0,0,0,3.87-3.12A10.387,10.387,0,0,0,270.78-5.91Zm-15.96-9.48c-.09,0-.42.06-.99.15s-.87.09-.84,0a1.973,1.973,0,0,1,.18-.36c.09-.09.33-.12.72-.12,1.59,0,2.46,0,2.67.03ZM247.5-8.34c-1.47-.27-2.31-.57-2.46-.9q.135-.855,1.89-1.53a5.689,5.689,0,0,1,1.83-.51,17.475,17.475,0,0,0,0,3.09Zm28.83,9.63c.33-.03,1.17-.93,2.52-2.67a30.836,30.836,0,0,0,3.45-5.76,7.064,7.064,0,0,0,.45-1.14,7.142,7.142,0,0,0,.27-1.05,2.762,2.762,0,0,0-.09-1.71c-.63-.54-1.2-.6-1.68-.18-.15.45-.18.72-.63,2.13a17.04,17.04,0,0,1-1.08,2.34,23.617,23.617,0,0,1-1.71,2.52,12.084,12.084,0,0,1-1.98,2.22,12.611,12.611,0,0,1-1.41-3.18A27.738,27.738,0,0,1,273.72-9c-.21-1.47-.6-1.95-1.77-1.83a1.4,1.4,0,0,0-.6.21c-.21.15-.3.48-.27.96a36.73,36.73,0,0,0,1.23,5.76C273.57-.33,274.92,1.41,276.33,1.29Zm5.82-3.63c0,2.31,1.47,3.48,4.44,3.48A6.746,6.746,0,0,0,289.26.03q.585-.405,1.35-.99a11.4,11.4,0,0,0,1.17.69,4.45,4.45,0,0,0,1.98.69,3.1,3.1,0,0,0,1.38-.72,4.511,4.511,0,0,0-1.38-1.2,1.925,1.925,0,0,1-.93-1.56,4.834,4.834,0,0,1,.99-1.62,4.17,4.17,0,0,0,.99-1.83c0-.27-.6-1.02-.6-1.17a10.92,10.92,0,0,1,.3-1.35,10.923,10.923,0,0,0,.3-1.35,2.225,2.225,0,0,0-.72-1.59,2.225,2.225,0,0,0-1.59-.72c-.93,0-2.22.6-3.9,1.83a21.887,21.887,0,0,0-4.38,4.08C282.84-5.04,282.15-3.57,282.15-2.34Zm9.75-5.7a.423.423,0,0,1-.3.39,1.945,1.945,0,0,0-.66.3,3.684,3.684,0,0,0-.84,1.41,6.02,6.02,0,0,0-.42,1.95c0,.36.12.96.12,1.17q-2.115,1.98-3.69,1.98a1.633,1.633,0,0,1-.81-.21c-.33-.18-.51-.39-.51-.63,0-1.26,1.02-2.97,3.03-5.13,1.89-2.01,3.15-3.03,3.81-3.03.09,0,.12,0,.15.03C291.99-9.57,292.05-8.97,291.9-8.04Zm12,5.7a12.98,12.98,0,0,0-2.1,1.02c-1.02.57-1.56.84-1.59.84a1.7,1.7,0,0,1-.63-.18V-2.4a58.533,58.533,0,0,1,1.05-8.76c.51-2.85,1.14-6.12,1.95-9.78.69-3.21,1.05-4.74,1.05-4.65a1.1,1.1,0,0,0-1.14-1.05c-.72,0-1.14.24-1.23.69Q297.075-7.86,297.09-.48c0,1.89.54,2.82,1.59,2.82.84,0,1.95-.6,3.36-1.77s2.1-2.07,2.13-2.64Zm16.11-8.46c0-.15-.18-.39-.54-.69a1.473,1.473,0,0,0-1.05-.48q-.765,0-1.98,1.8c-.39.63-.75,1.23-1.11,1.83a55.892,55.892,0,0,1-5.76,3.87,7.188,7.188,0,0,1-2.22.99l-.06-.63a8.941,8.941,0,0,1,.87-2.97c.57-1.35.87-2.04.87-2.1,0-1.08-.45-1.62-1.32-1.62s-1.59,1.17-2.19,3.48a18.037,18.037,0,0,0-.69,4.11,2.415,2.415,0,0,0,2.4,2.34c.75,0,2.01-.66,3.81-1.98,1.05-.81,2.1-1.65,3.15-2.46v.27a8.536,8.536,0,0,0-.21,3.18,4.427,4.427,0,0,0,.45,1.8c.39.75.87,1.08,1.44,1.05a1.209,1.209,0,0,0,.87-.27c.18-.18.12-.78-.18-1.77L316.5-2.7a8.009,8.009,0,0,1,.93-3.69,17.815,17.815,0,0,1,1.68-2.7A4.517,4.517,0,0,0,320.01-10.8Zm-.42,8.46c0,2.31,1.47,3.48,4.44,3.48A6.746,6.746,0,0,0,326.7.03q.585-.405,1.35-.99a11.4,11.4,0,0,0,1.17.69,4.45,4.45,0,0,0,1.98.69,3.1,3.1,0,0,0,1.38-.72,4.511,4.511,0,0,0-1.38-1.2,1.925,1.925,0,0,1-.93-1.56,4.834,4.834,0,0,1,.99-1.62,4.17,4.17,0,0,0,.99-1.83c0-.27-.6-1.02-.6-1.17a10.92,10.92,0,0,1,.3-1.35,10.923,10.923,0,0,0,.3-1.35,2.225,2.225,0,0,0-.72-1.59,2.225,2.225,0,0,0-1.59-.72c-.93,0-2.22.6-3.9,1.83a21.887,21.887,0,0,0-4.38,4.08C320.28-5.04,319.59-3.57,319.59-2.34Zm9.75-5.7a.423.423,0,0,1-.3.39,1.945,1.945,0,0,0-.66.3,3.684,3.684,0,0,0-.84,1.41,6.02,6.02,0,0,0-.42,1.95c0,.36.12.96.12,1.17q-2.115,1.98-3.69,1.98a1.633,1.633,0,0,1-.81-.21c-.33-.18-.51-.39-.51-.63,0-1.26,1.02-2.97,3.03-5.13,1.89-2.01,3.15-3.03,3.81-3.03.09,0,.12,0,.15.03C329.43-9.57,329.49-8.97,329.34-8.04Zm15.96-5.67a25.4,25.4,0,0,0-2.55-.03c.27-1.95.54-3.57.84-4.86.84-3.15,1.26-4.74,1.23-4.77a1.555,1.555,0,0,0-.57-.87,1.6,1.6,0,0,0-1.2-.48q-.855.135-1.8,5.22c-.33,1.95-.6,3.9-.84,5.79-1.08.27-1.68.39-1.83.42a11.6,11.6,0,0,0-3.09.99c-1.68.81-2.43,1.77-2.25,2.94.15.9,1.38,3.06,3.72,6.48l3.6,5.13a.18.18,0,0,0,.12.03,1.037,1.037,0,0,0,.36.09c.24-.03.39-.06.45-.06.33-6.48.66-11.19,1.05-14.13a5.57,5.57,0,0,1,1.02-.15q.945-.135,5.22-.18c.15,0,.27-.27.3-.27a4.954,4.954,0,0,0-2.31-1.02C345.84-13.62,345.33-13.71,345.3-13.71ZM339.57-2.58c-.39-.51-1.08-1.5-2.07-3.03a13.553,13.553,0,0,1-1.65-3.12c-.18-1.11,1.26-2.01,4.32-2.73ZM356.76-18.3c-.24-.39-1.05-.6-2.4-.6a5.856,5.856,0,0,0-1.74.42c-.93.33-1.38.66-1.38,1.02a1.743,1.743,0,0,0,1.65,1.59,12.729,12.729,0,0,0,1.35-.54,19.513,19.513,0,0,1,1.92-.78A1.843,1.843,0,0,0,356.76-18.3ZM351.69,1.11a.684.684,0,0,0,.03-.9,4.005,4.005,0,0,1-.81-2.94,24.191,24.191,0,0,1,.45-4.17c.33-1.65.48-2.43.48-2.34q0-.315-.63-.72a1.876,1.876,0,0,0-.84-.39,1.092,1.092,0,0,0-1.2.39,24.257,24.257,0,0,1-.36,2.46,24.666,24.666,0,0,0-.36,3.66,10.541,10.541,0,0,0,.3,2.67,3.194,3.194,0,0,0,2.16,2.28Zm13.89-7.92a4.467,4.467,0,0,0-.66-2.34,2.466,2.466,0,0,0-2.13-1.35,3.582,3.582,0,0,0-2.46,1.02,3.383,3.383,0,0,0-1.2,2.58,4.692,4.692,0,0,0,.18,1.23c.18.63.42.93.69.93.36,0,.66-.27.87-.81.09-.36.21-.72.33-1.08q.63-1.35,1.26-1.35a.227.227,0,0,1,.12.06c.3.06.45.6.45,1.59a6.347,6.347,0,0,1-1.26,3.45,4.172,4.172,0,0,1-3.45,2.25,1.984,1.984,0,0,1-.66-.18c-.36-.12-.66-.54-.9-1.23a6.641,6.641,0,0,1-.3-1.62,8.719,8.719,0,0,1,1.8-4.86c1.35-2.01,2.79-3,4.26-3a2,2,0,0,1,.63.27,3.029,3.029,0,0,0,.66.24,1.505,1.505,0,0,0,.87-.54,1.862,1.862,0,0,0-.9-1.77,3.168,3.168,0,0,0-1.86-.57q-2.7,0-5.31,3.42A11.109,11.109,0,0,0,354-3.66a5.8,5.8,0,0,0,.93,3,3.532,3.532,0,0,0,2.85,1.98c3.39,0,5.4-1.47,7.23-5.19A7.142,7.142,0,0,0,365.58-6.81Zm10.14,3.33a4.765,4.765,0,0,0,.21,2.85A2.975,2.975,0,0,0,377.07.54c.72.24,1.14.12,1.29-.39a5.289,5.289,0,0,1-.42-1.77,16.313,16.313,0,0,1,.87-4.08,14.173,14.173,0,0,0,.81-4.71,2.124,2.124,0,0,0-2.28-2.16c-.87.09-2.07.84-3.6,2.31-1.08,1.05-2.16,2.13-3.27,3.21q.045-.315.18-.9a2.383,2.383,0,0,0,.03-.66,1.591,1.591,0,0,0-1.62-1.29,1.535,1.535,0,0,0-1.26.78,11.877,11.877,0,0,1-.42,3.24c-.36,1.77-.54,2.64-.54,2.64a2.172,2.172,0,0,0,.33.84c.27.48.6.72.93.69.3-.09.51-.15.66-.18a33.075,33.075,0,0,0,3.99-4.2c2.31-2.64,3.63-3.9,3.93-3.81C377.07-9.51,376.77-7.38,375.72-3.48Z" transform="translate(-1.74 27.48)" fill="#fff"/>
</svg>
