<svg xmlns="http://www.w3.org/2000/svg" width="91" height="91" viewBox="0 0 91 91">
  <g id="Group_2249" data-name="Group 2249" transform="translate(-905 -332.758)">
    <circle id="Ellipse_525" data-name="Ellipse 525" cx="45.5" cy="45.5" r="45.5" transform="translate(905 332.758)" fill="#fff"/>
    <g id="identification" transform="translate(925 365.008)">
      <path id="Path_639" data-name="Path 639" d="M120.036,92.573a5.411,5.411,0,1,0-5.411-5.411A5.412,5.412,0,0,0,120.036,92.573Zm0-8.719a3.318,3.318,0,1,1-3.318,3.318A3.318,3.318,0,0,1,120.036,83.854Zm0,0" transform="translate(-105.027 -79.715)" fill="#009cdc"/>
      <path id="Path_640" data-name="Path 640" d="M88.311,234.873a8.121,8.121,0,0,0-5.882,2.46A8.681,8.681,0,0,0,80,243.476a1.05,1.05,0,0,0,1.047,1.047H95.575a1.05,1.05,0,0,0,1.047-1.047,8.681,8.681,0,0,0-2.428-6.144A8.121,8.121,0,0,0,88.311,234.873Zm-6.144,7.557a6.4,6.4,0,0,1,1.758-3.632,6.166,6.166,0,0,1,8.771,0,6.433,6.433,0,0,1,1.758,3.632Zm0,0" transform="translate(-73.301 -220.016)" fill="#009cdc"/>
      <path id="Path_641" data-name="Path 641" d="M45.008-5.25H5.233A5.236,5.236,0,0,0,0-.017V26.569A5.236,5.236,0,0,0,5.233,31.8H45.008a5.236,5.236,0,0,0,5.233-5.233V-.017A5.236,5.236,0,0,0,45.008-5.25Zm3.14,31.819a3.149,3.149,0,0,1-3.14,3.14H5.233a3.149,3.149,0,0,1-3.14-3.14V-.017a3.149,3.149,0,0,1,3.14-3.14H45.008a3.149,3.149,0,0,1,3.14,3.14Zm0,0" fill="#009cdc"/>
      <path id="Path_642" data-name="Path 642" d="M361.866,203.5H349.672a1.047,1.047,0,1,0,0,2.093h12.194a1.047,1.047,0,1,0,0-2.093Zm0,0" transform="translate(-319.433 -191.27)" fill="#009cdc"/>
      <path id="Path_643" data-name="Path 643" d="M361.866,283.5H349.672a1.047,1.047,0,1,0,0,2.093h12.194a1.047,1.047,0,1,0,0-2.093Zm0,0" transform="translate(-319.433 -264.571)" fill="#009cdc"/>
      <path id="Path_644" data-name="Path 644" d="M361.866,123.5H349.672a1.047,1.047,0,0,0,0,2.093h12.194a1.047,1.047,0,1,0,0-2.093Zm0,0" transform="translate(-319.433 -117.969)" fill="#009cdc"/>
    </g>
  </g>
</svg>
