<svg id="Group_1586" data-name="Group 1586" xmlns="http://www.w3.org/2000/svg" width="56.176" height="92.938" viewBox="0 0 56.176 92.938">
  <path id="Union_4" data-name="Union 4" d="M10.174,92.938A10.192,10.192,0,0,1,0,82.764V10.183A10.2,10.2,0,0,1,10.174,0H45.992A10.211,10.211,0,0,1,56.176,10.183V82.764A10.2,10.2,0,0,1,45.992,92.938ZM4.662,10.183V82.764a5.522,5.522,0,0,0,5.512,5.512H45.992a5.536,5.536,0,0,0,5.522-5.512V10.183a5.537,5.537,0,0,0-5.522-5.512H42.9v1.6a5.755,5.755,0,0,1-5.739,5.746H19.01a5.752,5.752,0,0,1-5.736-5.738v-1.6h-3.1A5.522,5.522,0,0,0,4.662,10.183ZM17.943,6.266a1.078,1.078,0,0,0,1.076,1.075H37.157a1.09,1.09,0,0,0,1.084-1.075v-1.6h-20.3Zm-.412,78.505a2.336,2.336,0,1,1,0-4.671h21.1a2.336,2.336,0,1,1,0,4.671Z" fill="#fff"/>
  <g id="Group_826" data-name="Group 826" transform="translate(12.373 31.258)">
    <path id="Path_627" data-name="Path 627" d="M-13633.518,1328.684a2.466,2.466,0,0,1-1.752-.731l-11.492-11.6-11.5,11.6a2.467,2.467,0,0,1-3.488.016,2.466,2.466,0,0,1-.012-3.487l13.248-13.371a2.46,2.46,0,0,1,1.75-.73h0a2.468,2.468,0,0,1,1.752.731l13.244,13.371a2.47,2.47,0,0,1-.016,3.488A2.461,2.461,0,0,1-13633.518,1328.684Z" transform="translate(13662.477 -1310.382)" fill="#fff"/>
    <path id="Path_628" data-name="Path 628" d="M-13496.123,1501.915a2.464,2.464,0,0,1-2.465-2.466v-24.533a2.464,2.464,0,0,1,2.465-2.466,2.467,2.467,0,0,1,2.467,2.466v24.533A2.467,2.467,0,0,1-13496.123,1501.915Z" transform="translate(13511.835 -1471.488)" fill="#fff"/>
  </g>
</svg>
