<svg xmlns="http://www.w3.org/2000/svg" width="65.677" height="65.679" viewBox="0 0 65.677 65.679">
  <g id="resume_2_" data-name="resume (2)" transform="translate(-0.007)">
    <g id="Group_1168" data-name="Group 1168" transform="translate(0.007)">
      <g id="Group_1167" data-name="Group 1167" transform="translate(0)">
        <path id="Path_1831" data-name="Path 1831" d="M53.114,19.081A1.283,1.283,0,0,0,54.4,17.8V3.848A3.853,3.853,0,0,0,50.549,0H3.855A3.853,3.853,0,0,0,.007,3.848V61.83a3.853,3.853,0,0,0,3.848,3.848H50.549A3.853,3.853,0,0,0,54.4,61.83V52.38a1.283,1.283,0,1,0-2.566,0V61.83a1.284,1.284,0,0,1-1.283,1.283H3.855A1.284,1.284,0,0,1,2.573,61.83V3.848A1.284,1.284,0,0,1,3.855,2.566H50.549a1.284,1.284,0,0,1,1.283,1.283V17.8A1.283,1.283,0,0,0,53.114,19.081Z" transform="translate(-0.007)" fill="#009cdc"/>
      </g>
    </g>
    <g id="Group_1170" data-name="Group 1170" transform="translate(15.4 6.927)">
      <g id="Group_1169" data-name="Group 1169">
        <path id="Path_1832" data-name="Path 1832" d="M131.809,54a11.8,11.8,0,0,0-8.1,20.38,1.269,1.269,0,0,0,.138.128,11.779,11.779,0,0,0,15.918,0,1.28,1.28,0,0,0,.138-.128,11.8,11.8,0,0,0-8.1-20.38Zm0,21.038a9.187,9.187,0,0,1-5.579-1.882,6.414,6.414,0,0,1,11.158,0A9.187,9.187,0,0,1,131.809,75.038Zm-2.052-9.749v-.834a2.052,2.052,0,0,1,4.1,0v.834a2.052,2.052,0,0,1-4.1,0Zm9.485,5.988a8.9,8.9,0,0,0-3.779-3.168,4.594,4.594,0,0,0,.965-2.82v-.834a4.618,4.618,0,1,0-9.236,0v.834a4.594,4.594,0,0,0,.965,2.82,8.9,8.9,0,0,0-3.779,3.168,9.236,9.236,0,1,1,14.865,0Z" transform="translate(-120.007 -54)" fill="#009cdc"/>
      </g>
    </g>
    <g id="Group_1172" data-name="Group 1172" transform="translate(25.919 56.186)">
      <g id="Group_1171" data-name="Group 1171">
        <path id="Path_1833" data-name="Path 1833" d="M210.217,438H203.29a1.283,1.283,0,0,0,0,2.566h6.927a1.283,1.283,0,0,0,0-2.566Z" transform="translate(-202.007 -438)" fill="#009cdc"/>
      </g>
    </g>
    <g id="Group_1174" data-name="Group 1174" transform="translate(14.631 49.002)">
      <g id="Group_1173" data-name="Group 1173">
        <path id="Path_1834" data-name="Path 1834" d="M133.505,382H115.29a1.283,1.283,0,1,0,0,2.566h18.216a1.283,1.283,0,1,0,0-2.566Z" transform="translate(-114.007 -382)" fill="#009cdc"/>
      </g>
    </g>
    <g id="Group_1176" data-name="Group 1176" transform="translate(14.631 41.819)">
      <g id="Group_1175" data-name="Group 1175">
        <path id="Path_1835" data-name="Path 1835" d="M133.505,326H115.29a1.283,1.283,0,1,0,0,2.566h18.216a1.283,1.283,0,1,0,0-2.566Z" transform="translate(-114.007 -326)" fill="#009cdc"/>
      </g>
    </g>
    <g id="Group_1178" data-name="Group 1178" transform="translate(9.151 34.635)">
      <g id="Group_1177" data-name="Group 1177">
        <path id="Path_1836" data-name="Path 1836" d="M73.478,270.376a1.282,1.282,0,1,0,.376.907A1.293,1.293,0,0,0,73.478,270.376Z" transform="translate(-71.287 -270)" fill="#009cdc"/>
      </g>
    </g>
    <g id="Group_1180" data-name="Group 1180" transform="translate(9.151 41.819)">
      <g id="Group_1179" data-name="Group 1179">
        <path id="Path_1837" data-name="Path 1837" d="M73.478,326.376a1.282,1.282,0,1,0,.376.907A1.3,1.3,0,0,0,73.478,326.376Z" transform="translate(-71.287 -326)" fill="#009cdc"/>
      </g>
    </g>
    <g id="Group_1182" data-name="Group 1182" transform="translate(9.151 49.002)">
      <g id="Group_1181" data-name="Group 1181">
        <path id="Path_1838" data-name="Path 1838" d="M73.478,382.376a1.282,1.282,0,1,0,.376.907A1.3,1.3,0,0,0,73.478,382.376Z" transform="translate(-71.287 -382)" fill="#009cdc"/>
      </g>
    </g>
    <g id="Group_1184" data-name="Group 1184" transform="translate(14.631 34.635)">
      <g id="Group_1183" data-name="Group 1183">
        <path id="Path_1839" data-name="Path 1839" d="M133.505,270H115.29a1.283,1.283,0,1,0,0,2.566h18.216a1.283,1.283,0,1,0,0-2.566Z" transform="translate(-114.007 -270)" fill="#009cdc"/>
      </g>
    </g>
    <g id="Group_1186" data-name="Group 1186" transform="translate(38.18 15.993)">
      <g id="Group_1185" data-name="Group 1185">
        <path id="Path_1840" data-name="Path 1840" d="M322.4,125.4a5.388,5.388,0,0,0-7.36,1.972L298.9,155.331a1.285,1.285,0,0,0-.164.5L297.6,166.009a1.283,1.283,0,0,0,2.036,1.175l8.246-6.073a1.28,1.28,0,0,0,.35-.392l16.143-27.96A5.394,5.394,0,0,0,322.4,125.4Zm-21.928,37.98.593-5.315,3.713,2.144Zm6.177-5.054-4.888-2.822,12.954-22.437,4.888,2.822Zm15.5-26.849-1.264,2.19L316,130.844l1.264-2.19a2.822,2.822,0,0,1,4.888,2.822Z" transform="translate(-297.589 -124.675)" fill="#009cdc"/>
      </g>
    </g>
  </g>
</svg>
