<svg id="Group_704" data-name="Group 704" xmlns="http://www.w3.org/2000/svg" width="53.84" height="53.84" viewBox="0 0 53.84 53.84">
  <circle id="Ellipse_253" data-name="Ellipse 253" cx="26.92" cy="26.92" r="26.92" fill="#009cdc"/>
  <g id="Group_703" data-name="Group 703" transform="translate(15.204 16.784)">
    <g id="Group_697" data-name="Group 697" transform="translate(0 1.408)">
      <path id="Path_454" data-name="Path 454" d="M301.88,278.38H279.536a.544.544,0,0,1-.544-.544V260.06a.543.543,0,0,1,.544-.544h5.83a.544.544,0,1,1,0,1.087h-5.285v16.688h21.255V260.6H296.43a.544.544,0,1,1,0-1.087h5.45a.543.543,0,0,1,.544.544v17.776a.544.544,0,0,1-.544.544Z" transform="translate(-278.992 -259.516)" fill="#fff"/>
    </g>
    <g id="Group_698" data-name="Group 698" transform="translate(4.99 5.742)">
      <path id="Path_455" data-name="Path 455" d="M286.033,268.783a2.6,2.6,0,1,1,2.308-2.581,2.462,2.462,0,0,1-2.308,2.581Zm0-4.075a1.523,1.523,0,1,0,1.221,1.494,1.382,1.382,0,0,0-1.221-1.494Z" transform="translate(-283.718 -263.62)" fill="#fff"/>
    </g>
    <g id="Group_699" data-name="Group 699" transform="translate(3.203 11.655)">
      <path id="Path_456" data-name="Path 456" d="M289.529,274.5h-6.806a.543.543,0,0,1-.542-.506l-.152-2.2a2.262,2.262,0,0,1,1.422-2.115,7.943,7.943,0,0,1,5.344,0,2.247,2.247,0,0,1,1.425,2.118c-.045.72-.1,1.458-.149,2.2a.543.543,0,0,1-.543.5Zm-6.3-1.089h5.79c.04-.565.077-1.13.113-1.685a1.177,1.177,0,0,0-.711-1.022,6.879,6.879,0,0,0-4.6,0,1.191,1.191,0,0,0-.708,1.02l.116,1.687Z" transform="translate(-282.026 -269.221)" fill="#fff"/>
    </g>
    <g id="Group_700" data-name="Group 700" transform="translate(5.975)">
      <path id="Path_457" data-name="Path 457" d="M294.718,259.27a.817.817,0,1,1,0,1.633h-8.164a.817.817,0,0,1,0-1.633h8.164m0-1.088h-8.164a1.9,1.9,0,0,0,0,3.809h8.164a1.9,1.9,0,1,0,0-3.809Z" transform="translate(-284.651 -258.182)" fill="#fff"/>
    </g>
    <g id="Group_701" data-name="Group 701" transform="translate(13.504 8.253)">
      <path id="Path_458" data-name="Path 458" d="M296.862,267.088h-4.536a.544.544,0,0,1,0-1.089h4.536a.544.544,0,0,1,0,1.089Z" transform="translate(-291.782 -265.999)" fill="#fff"/>
    </g>
    <g id="Group_702" data-name="Group 702" transform="translate(13.504 11.7)">
      <path id="Path_459" data-name="Path 459" d="M296.862,270.352h-4.536a.544.544,0,0,1,0-1.089h4.536a.544.544,0,0,1,0,1.089Z" transform="translate(-291.782 -269.263)" fill="#fff"/>
    </g>
  </g>
</svg>
