<svg xmlns="http://www.w3.org/2000/svg" width="111.723" height="23.461" viewBox="0 0 111.723 23.461">
  <path id="Path_2020" data-name="Path 2020" d="M14.307-8.532c1.165,3.081,2.378,4.658,3.663,4.731.315,0,1.019-.9,2.062-2.693a26.662,26.662,0,0,0,2.887-6.939,31.6,31.6,0,0,0,.825-6.162,11.5,11.5,0,0,0-.461-3.2c-.364-.995-.873-1.48-1.577-1.48a1.649,1.649,0,0,0-.461.073,6.751,6.751,0,0,1,.607,3.494,25.8,25.8,0,0,1-1.359,7.788,22.528,22.528,0,0,1-3.178,6.332,7.39,7.39,0,0,1-1.189-3.4,22.773,22.773,0,0,1-.412-3.858,21.955,21.955,0,0,1,.121-2.281c.073-.7.121-1.092.121-1.165a1.146,1.146,0,0,0-.364-.728,1.277,1.277,0,0,0-1.043-.534c-.995,0-2.717,1.723-5.168,5.143l.218-.752c.121-.412.582-1.528,1.383-3.372.8-1.771,1.189-2.669,1.189-2.693,0-.121-.17-.291-.509-.534a1.5,1.5,0,0,0-.849-.388,7.7,7.7,0,0,0-3.2,1.31,19.444,19.444,0,0,0-3.93,2.984C2.4-15.568,1.74-14.452,1.74-13.53a.984.984,0,0,0,.388.922,3.337,3.337,0,0,0,1.237.315,3.184,3.184,0,0,0,.607-1.189,5.349,5.349,0,0,1,.534-1.286,9.417,9.417,0,0,1,2.014-2.086,5.74,5.74,0,0,1,2.232-1.286c-1.383,3.469-2.086,5.993-2.086,7.57,0,1.528.34,2.3,1.043,2.3h.509A16.942,16.942,0,0,0,10.6-11.3c1.7-2.353,2.6-3.615,2.717-3.761.024.121.121,1.213.315,3.275A12.42,12.42,0,0,0,14.307-8.532Zm9.583-.849a4.853,4.853,0,0,0,.995,2.814A3.9,3.9,0,0,0,27-5.038a6.044,6.044,0,0,0,1.917.17A5.269,5.269,0,0,0,31.9-6.276c.437-.437.631-.752.607-.946a.492.492,0,0,0-.461-.194c.024,0-.364.194-1.116.558a4.787,4.787,0,0,1-2.038.558,2.361,2.361,0,0,1-2.4-1.528,5.54,5.54,0,0,0,1.431-.1,3.456,3.456,0,0,0,2.814-1.941,7.653,7.653,0,0,0,1.092-3.348,2.8,2.8,0,0,0-.558-1.868,2.11,2.11,0,0,0-1.771-.9A4.969,4.969,0,0,0,25.419-13.6,7.06,7.06,0,0,0,23.891-9.381Zm5.92-4.488a6.341,6.341,0,0,1-.461,2.256c-.437,1.189-1.067,1.8-1.917,1.844a4.9,4.9,0,0,1-1.359-.024l.024-.461a4.481,4.481,0,0,1,1.359-2.45c.873-.995,1.577-1.48,2.086-1.431C29.713-14.063,29.81-13.991,29.81-13.869Zm9.583,6.72a10.5,10.5,0,0,0-1.7.825c-.825.461-1.262.679-1.286.679A1.377,1.377,0,0,1,35.9-5.79V-7.2a47.336,47.336,0,0,1,.849-7.084c.412-2.3.922-4.949,1.577-7.909.558-2.6.849-3.833.849-3.761a.891.891,0,0,0-.922-.849c-.582,0-.922.194-.995.558q-3.384,14.63-3.372,20.6c0,1.528.437,2.281,1.286,2.281A4.962,4.962,0,0,0,37.889-4.8c1.14-.946,1.7-1.674,1.723-2.135Zm5,2.6a3.933,3.933,0,0,0,2.572-1.189,1.453,1.453,0,0,0,.267-.607c0-.121-.121-.17-.388-.146a8.9,8.9,0,0,1-2.159.34c-1.723,0-2.79-1.31-2.79-3.154a7.141,7.141,0,0,1,.752-3.033c.8-1.383,1.747-2.062,2.887-2.062a.893.893,0,0,1,1.019.995,3.54,3.54,0,0,1-.509,1.48c0,.17.291.631.582.631a1.7,1.7,0,0,0,1.213-.728,2.193,2.193,0,0,0,.655-1.456,2.434,2.434,0,0,0-.97-1.965,3.385,3.385,0,0,0-2.281-.825,4.83,4.83,0,0,0-4,2.208,6.972,6.972,0,0,0-1.431,4.124,5.808,5.808,0,0,0,1.237,3.591A4.132,4.132,0,0,0,44.391-4.553Zm14.12-6.211a3.613,3.613,0,0,0-.534-1.892,1.994,1.994,0,0,0-1.723-1.092,2.9,2.9,0,0,0-1.989.825,2.736,2.736,0,0,0-.97,2.086,3.794,3.794,0,0,0,.146.995c.146.509.34.752.558.752.291,0,.534-.218.7-.655.073-.291.17-.582.267-.873q.509-1.092,1.019-1.092a.184.184,0,0,1,.1.049c.243.049.364.485.364,1.286a5.133,5.133,0,0,1-1.019,2.79,3.374,3.374,0,0,1-2.79,1.82,1.6,1.6,0,0,1-.534-.146c-.291-.1-.534-.437-.728-.995a5.37,5.37,0,0,1-.243-1.31,7.051,7.051,0,0,1,1.456-3.93c1.092-1.626,2.256-2.426,3.445-2.426a1.618,1.618,0,0,1,.509.218,2.449,2.449,0,0,0,.534.194,1.217,1.217,0,0,0,.7-.437,1.506,1.506,0,0,0-.728-1.431,2.562,2.562,0,0,0-1.5-.461q-2.184,0-4.294,2.766a8.984,8.984,0,0,0-2.111,5.507A4.692,4.692,0,0,0,49.9-5.79a2.856,2.856,0,0,0,2.3,1.6c2.742,0,4.367-1.189,5.847-4.2A5.776,5.776,0,0,0,58.511-10.764ZM70.618-7.853a18.013,18.013,0,0,0,1.31,1.917,5.135,5.135,0,0,0,3.13,1.82,6.343,6.343,0,0,0,4-1.189l.146-.388a.419.419,0,0,0-.485-.315,16.754,16.754,0,0,1-2.184.315,3.564,3.564,0,0,1-2.863-1.286,21.176,21.176,0,0,1-1.6-2.5q-.764-1.383-1.456-1.383a1.175,1.175,0,0,0-.873.437c-.121.17-.267.315-.388.461a4.3,4.3,0,0,0,.024-.582,4.672,4.672,0,0,0-.509-2.184,1.6,1.6,0,0,0-1.48-1.067,4.833,4.833,0,0,0-2.863,1.237c-.7.607-1.431,1.237-2.135,1.844l.049-.412c0-.073.049-.461.17-1.165.121-.728.194-1.14.194-1.213a1.157,1.157,0,0,0-1.14-.97,1.807,1.807,0,0,0-.97,1.528c-.121.9-.267,1.82-.388,2.717a39.7,39.7,0,0,0-.922,4.319,1.625,1.625,0,0,0,.291.7c.243.388.485.582.752.558a2.211,2.211,0,0,1,.388.073c.728-1.165,1.456-2.329,2.208-3.494,1.626-2.353,2.911-3.542,3.906-3.566.194-.024.291.291.315.946,0,.073-.1.8-.315,2.184q-.291,2.074-.291,2.184a1.282,1.282,0,0,0,.607.9,1.8,1.8,0,0,0,.995.437q.218-.036,1.019-1.092c.024-.024.388-.582,1.14-1.626Q70.545-7.889,70.618-7.853Zm7.57-1.528a4.853,4.853,0,0,0,.995,2.814,3.9,3.9,0,0,0,2.111,1.528,6.044,6.044,0,0,0,1.917.17,5.269,5.269,0,0,0,2.984-1.407c.437-.437.631-.752.607-.946a.492.492,0,0,0-.461-.194c.024,0-.364.194-1.116.558a4.787,4.787,0,0,1-2.038.558,2.361,2.361,0,0,1-2.4-1.528,5.54,5.54,0,0,0,1.431-.1,3.456,3.456,0,0,0,2.814-1.941,7.653,7.653,0,0,0,1.092-3.348,2.8,2.8,0,0,0-.558-1.868,2.11,2.11,0,0,0-1.771-.9A4.969,4.969,0,0,0,79.716-13.6,7.06,7.06,0,0,0,78.187-9.381Zm5.92-4.488a6.341,6.341,0,0,1-.461,2.256c-.437,1.189-1.067,1.8-1.917,1.844a4.9,4.9,0,0,1-1.359-.024l.024-.461a4.481,4.481,0,0,1,1.359-2.45c.873-.995,1.577-1.48,2.086-1.431C84.01-14.063,84.107-13.991,84.107-13.869Zm19.118-2.475a20.542,20.542,0,0,0-2.062-.024c.218-1.577.437-2.887.679-3.93.679-2.547,1.019-3.833.995-3.858a1.257,1.257,0,0,0-.461-.7,1.29,1.29,0,0,0-.97-.388q-.691.109-1.456,4.221c-.267,1.577-.485,3.154-.679,4.682-.873.218-1.359.315-1.48.34a9.381,9.381,0,0,0-2.5.8c-1.359.655-1.965,1.431-1.82,2.378.121.728,1.116,2.475,3.008,5.24l2.911,4.149a.146.146,0,0,0,.1.024.839.839,0,0,0,.291.073c.194-.024.315-.049.364-.049.267-5.24.534-9.049.849-11.427a4.5,4.5,0,0,1,.825-.121q.764-.109,4.221-.146c.121,0,.218-.218.243-.218a4.006,4.006,0,0,0-1.868-.825C103.662-16.271,103.249-16.344,103.225-16.344Zm-4.634,9c-.315-.412-.873-1.213-1.674-2.45a10.962,10.962,0,0,1-1.334-2.523c-.146-.9,1.019-1.626,3.494-2.208Zm14.872-3.421a3.613,3.613,0,0,0-.534-1.892,1.994,1.994,0,0,0-1.723-1.092,2.9,2.9,0,0,0-1.989.825,2.736,2.736,0,0,0-.97,2.086,3.794,3.794,0,0,0,.146.995c.146.509.34.752.558.752.291,0,.534-.218.7-.655.073-.291.17-.582.267-.873q.509-1.092,1.019-1.092a.184.184,0,0,1,.1.049c.243.049.364.485.364,1.286a5.133,5.133,0,0,1-1.019,2.79,3.374,3.374,0,0,1-2.79,1.82,1.6,1.6,0,0,1-.534-.146c-.291-.1-.534-.437-.728-.995a5.37,5.37,0,0,1-.243-1.31,7.051,7.051,0,0,1,1.456-3.93c1.092-1.626,2.256-2.426,3.445-2.426a1.618,1.618,0,0,1,.509.218,2.45,2.45,0,0,0,.534.194,1.217,1.217,0,0,0,.7-.437,1.506,1.506,0,0,0-.728-1.431,2.562,2.562,0,0,0-1.5-.461q-2.184,0-4.294,2.766A8.984,8.984,0,0,0,104.1-8.217a4.692,4.692,0,0,0,.752,2.426,2.856,2.856,0,0,0,2.3,1.6c2.742,0,4.367-1.189,5.847-4.2A5.776,5.776,0,0,0,113.463-10.764Z" transform="translate(-1.74 26.801)" fill="#fff"/>
</svg>
