<?xml version="1.0" encoding="utf-8"?>
<!-- Generator: Adobe Illustrator 23.1.1, SVG Export Plug-In . SVG Version: 6.00 Build 0)  -->
<svg version="1.1" id="Capa_1" xmlns="http://www.w3.org/2000/svg" xmlns:xlink="http://www.w3.org/1999/xlink" x="0px" y="0px"
	 viewBox="0 0 144 144" style="enable-background:new 0 0 144 144;" xml:space="preserve">
<style type="text/css">
	.st0{fill:#40384B;}
	.st1{fill:#DDDDDD;}
	.st2{fill:#C6C6C6;}
	.st3{fill:#C3C4C6;}
	.st4{fill:#FFFFFF;}
	.st5{fill:#D6D6D6;}
</style>
<g id="Group_285" transform="translate(-1043 -466.7)">
	<circle id="Ellipse_247" class="st0" cx="1116" cy="542.4" r="52.5"/>
	<path id="Path_485" class="st1" d="M1149.1,563.5c-1,2.7-2.3,5.3-4,7.6c-8.5,12-23.7,17.3-37.8,13.1c-5.6-1.6-10.7-4.7-14.8-8.8
		l-13-13l-1.4-1.4l-8.7-8.3c-4.4,0-7.9-3.4-8-7.8c0-4.4,3.4-7.9,7.8-8c0.1,0,0.1,0,0.2,0c-4.4,0-7.9-3.5-7.9-7.9s3.5-7.9,7.9-7.9
		V512c-4.4,0-7.9-3.5-7.9-7.9s3.5-7.9,7.9-7.9l0,0l50.3,24.4l2,0.9l2.2,1.1c0.2-2,0.5-4,1-5.9c1.2-4.6,5.9-7.5,10.5-6.3
		c4.6,1.2,7.5,5.9,6.3,10.5l0,0c-1.3,5.2-0.5,10.6,2.3,15.2C1144,536.1,1153.8,550.4,1149.1,563.5z"/>
	<g id="Group_281" transform="translate(1046.738 480.351)">
		<path id="Path_486" class="st2" d="M60.6,103.9c-5.6-1.6-10.7-4.7-14.8-8.8l-13-13l-1.4-1.4l22.5,4.6
			C40.2,85.4,51.2,98,60.6,103.9z"/>
		<path id="Path_487" class="st2" d="M83.6,66.6c-1.1,0.7-2.5,0.3-3.1-0.8c0,0,0,0,0,0c-4.3-7.1-6.3-15.4-5.6-23.7
			c0-0.2,0-0.5,0.1-0.9l2.2,1.1c0.2-2,0.5-4,1-5.9c0.6-2.5,2.3-4.6,4.6-5.7c-1.9,3.6-3,7.6-3.2,11.6l0,0.2c0,0.3,0,0.6-0.1,0.9
			c-0.4,5.8,0.8,11.7,3.3,17c0.5,1.1,1.1,2.1,1.7,3.2C85.1,64.6,84.7,66,83.6,66.6C83.6,66.6,83.6,66.6,83.6,66.6z"/>
		<path id="Path_488" class="st2" d="M73,40.3v38c0,3.9-3.7,7-8.2,7H36l-3.3-3.3l-10.1-9.7c-1.5,0-2.9-0.4-4.1-1.2l0.1-0.1
			c2.9-4,2.9-9.4-0.1-13.3l0,0c1.2-0.8,2.7-1.2,4.1-1.2c-1.5,0-2.9-0.4-4.1-1.2l0.5-0.7c2.7-3.3,2.8-8,0.3-11.5l-0.9-1.2
			c1.2-0.8,2.7-1.2,4.1-1.2v-9.3c-1.5,0-2.9-0.4-4.1-1.2l1.4-2.3c1.7-2.9,1.6-6.4-0.2-9.2L18.5,17c1.2-0.8,2.7-1.2,4.1-1.2L73,40.3z
			"/>
	</g>
	<path id="Path_489" class="st3" d="M1069.1,511.7v-21.5c0-4.3,3.5-7.7,7.7-7.7h35.7c4.3,0,7.7,3.4,7.7,7.7v71.3
		c0,4.3-3.5,7.7-7.7,7.7c0,0,0,0,0,0h-35.7c-4.3,0-7.7-3.4-7.7-7.7c0,0,0,0,0,0V511.7z"/>
	<rect id="Rectangle_1026" x="1073.2" y="494.7" class="st4" width="43" height="62.4"/>
	<path id="Path_490" class="st3" d="M1165.1,561.5c-5.7,13.3-13.5,21-24.2,27.1c-5.6,3.2-12.3,4.6-18.8,5.9l-7.4-7.3l38-38
		L1165.1,561.5z"/>
	<g id="Group_282" transform="translate(1067.25 471.757)">
		<path id="Path_491" class="st4" d="M34.5,19.5H20.4c-1,0-1.8-0.8-1.8-1.8v0l0,0c0-1,0.8-1.8,1.8-1.8l0,0h14.1c1,0,1.8,0.8,1.8,1.8
			v0l0,0C36.3,18.7,35.5,19.5,34.5,19.5L34.5,19.5z"/>
		<circle id="Ellipse_246" class="st4" cx="27.4" cy="91.4" r="3.5"/>
	</g>
	<path id="Path_492" class="st5" d="M1141.1,588.4c-5.9,3.3-12.4,5.3-19,6.1l-7.3-7.3l12.5-12.5L1141.1,588.4z"/>
	<g id="Group_266" transform="translate(1016.396 307.395)">
		<rect id="Rectangle_856" x="63.1" y="204.5" width="1" height="8"/>
		<rect id="Rectangle_857" x="63.1" y="213.5" width="1" height="1"/>
		<rect id="Rectangle_858" x="63.1" y="217.5" width="1" height="3"/>
		<rect id="Rectangle_859" x="63.1" y="226.5" width="1" height="9"/>
		<rect id="Rectangle_860" x="64.1" y="204.5" width="1" height="1"/>
		<rect id="Rectangle_861" x="64.1" y="211.5" width="1" height="1"/>
		<rect id="Rectangle_862" x="64.1" y="213.5" width="1" height="4"/>
		<rect id="Rectangle_863" x="64.1" y="218.5" width="1" height="3"/>
		<rect id="Rectangle_864" x="64.1" y="222.5" width="1" height="3"/>
		<rect id="Rectangle_865" x="64.1" y="226.5" width="1" height="1"/>
		<rect id="Rectangle_866" x="64.1" y="233.5" width="1" height="2"/>
		<rect id="Rectangle_867" x="65.1" y="204.5" width="1" height="1"/>
		<rect id="Rectangle_868" x="65.1" y="206.5" width="1" height="3"/>
		<rect id="Rectangle_869" x="65.1" y="211.5" width="1" height="1"/>
		<rect id="Rectangle_870" x="65.1" y="216.5" width="1" height="1"/>
		<rect id="Rectangle_871" x="65.1" y="218.5" width="1" height="3"/>
		<rect id="Rectangle_872" x="65.1" y="222.5" width="1" height="2"/>
		<rect id="Rectangle_873" x="65.1" y="226.5" width="1" height="1"/>
		<rect id="Rectangle_874" x="65.1" y="229.5" width="1" height="3"/>
		<rect id="Rectangle_875" x="65.1" y="233.5" width="1" height="2"/>
		<rect id="Rectangle_876" x="66.1" y="204.5" width="2" height="1"/>
		<rect id="Rectangle_877" x="66.1" y="206.5" width="2" height="3"/>
		<rect id="Rectangle_878" x="66.1" y="211.5" width="2" height="1"/>
		<rect id="Rectangle_879" x="66.1" y="213.5" width="2" height="3"/>
		<rect id="Rectangle_880" x="66.1" y="217.5" width="2" height="1"/>
		<rect id="Rectangle_881" x="66.1" y="222.5" width="2" height="3"/>
		<rect id="Rectangle_882" x="66.1" y="226.5" width="2" height="1"/>
		<rect id="Rectangle_883" x="66.1" y="229.5" width="2" height="3"/>
		<rect id="Rectangle_884" x="66.1" y="233.5" width="2" height="2"/>
		<rect id="Rectangle_885" x="68.1" y="204.5" width="0" height="1"/>
		<rect id="Rectangle_886" x="68.1" y="206.5" width="0" height="3"/>
		<rect id="Rectangle_887" x="68.1" y="211.5" width="0" height="1"/>
		<rect id="Rectangle_888" x="68.1" y="213.5" width="0" height="4"/>
		<rect id="Rectangle_889" x="68.1" y="218.5" width="0" height="4"/>
		<rect id="Rectangle_890" x="68.1" y="226.5" width="0" height="1"/>
		<rect id="Rectangle_891" x="68.1" y="229.5" width="0" height="3"/>
		<rect id="Rectangle_892" x="68.1" y="233.5" width="0" height="2"/>
		<rect id="Rectangle_893" x="68.1" y="204.5" width="2" height="1"/>
		<rect id="Rectangle_894" x="68.1" y="211.5" width="2" height="1"/>
		<rect id="Rectangle_895" x="68.1" y="216.5" width="2" height="4"/>
		<rect id="Rectangle_896" x="68.1" y="226.5" width="2" height="1"/>
		<rect id="Rectangle_897" x="68.1" y="233.5" width="2" height="2"/>
		<rect id="Rectangle_898" x="70.1" y="204.5" width="1" height="8"/>
		<rect id="Rectangle_899" x="70.1" y="213.5" width="1" height="1"/>
		<rect id="Rectangle_900" x="70.1" y="216.5" width="1" height="1"/>
		<rect id="Rectangle_901" x="70.1" y="218.5" width="1" height="2"/>
		<rect id="Rectangle_902" x="70.1" y="221.5" width="1" height="1"/>
		<rect id="Rectangle_903" x="70.1" y="224.5" width="1" height="1"/>
		<rect id="Rectangle_904" x="70.1" y="226.5" width="1" height="9"/>
		<rect id="Rectangle_905" x="71.1" y="214.5" width="1" height="3"/>
		<rect id="Rectangle_906" x="71.1" y="218.5" width="1" height="2"/>
		<rect id="Rectangle_907" x="71.1" y="222.5" width="1" height="2"/>
		<rect id="Rectangle_908" x="72.1" y="204.5" width="1" height="1"/>
		<rect id="Rectangle_909" x="72.1" y="211.5" width="1" height="2"/>
		<rect id="Rectangle_910" x="72.1" y="216.5" width="1" height="1"/>
		<rect id="Rectangle_911" x="72.1" y="222.5" width="1" height="2"/>
		<rect id="Rectangle_912" x="72.1" y="225.5" width="1" height="1"/>
		<rect id="Rectangle_913" x="72.1" y="229.5" width="1" height="2"/>
		<rect id="Rectangle_914" x="72.1" y="232.5" width="1" height="3"/>
		<rect id="Rectangle_915" x="73.1" y="205.5" width="2" height="1"/>
		<polygon id="Rectangle_916" points="73.1,209.5 75.1,209.5 75.1,209.5 		"/>
		<rect id="Rectangle_917" x="73.1" y="213.5" width="2" height="3"/>
		<rect id="Rectangle_918" x="73.1" y="217.5" width="2" height="3"/>
		<rect id="Rectangle_919" x="73.1" y="221.5" width="2" height="1"/>
		<rect id="Rectangle_920" x="73.1" y="232.5" width="2" height="3"/>
		<rect id="Rectangle_921" x="75.1" y="205.5" width="1" height="2"/>
		<rect id="Rectangle_922" x="75.1" y="209.5" width="1" height="5"/>
		<rect id="Rectangle_923" x="75.1" y="216.5" width="1" height="2"/>
		<rect id="Rectangle_924" x="75.1" y="221.5" width="1" height="3"/>
		<rect id="Rectangle_925" x="75.1" y="225.5" width="1" height="1"/>
		<rect id="Rectangle_926" x="75.1" y="227.5" width="1" height="5"/>
		<rect id="Rectangle_927" x="75.1" y="233.5" width="1" height="2"/>
		<rect id="Rectangle_928" x="76.1" y="204.5" width="1" height="1"/>
		<polygon id="Rectangle_929" points="76.1,209.5 77.1,209.5 77.1,209.5 		"/>
		<rect id="Rectangle_930" x="76.1" y="212.5" width="1" height="2"/>
		<rect id="Rectangle_931" x="76.1" y="216.5" width="1" height="2"/>
		<rect id="Rectangle_932" x="76.1" y="220.5" width="1" height="1"/>
		<rect id="Rectangle_933" x="76.1" y="222.5" width="1" height="2"/>
		<rect id="Rectangle_934" x="76.1" y="226.5" width="1" height="3"/>
		<rect id="Rectangle_935" x="76.1" y="229.5" width="1" height="3"/>
		<rect id="Rectangle_936" x="77.1" y="204.5" width="2" height="1"/>
		<rect id="Rectangle_937" x="77.1" y="206.5" width="2" height="3"/>
		<rect id="Rectangle_938" x="77.1" y="209.5" width="2" height="3"/>
		<rect id="Rectangle_939" x="77.1" y="213.5" width="2" height="3"/>
		<rect id="Rectangle_940" x="77.1" y="218.5" width="2" height="2"/>
		<rect id="Rectangle_941" x="77.1" y="224.5" width="2" height="1"/>
		<rect id="Rectangle_942" x="77.1" y="227.5" width="2" height="2"/>
		<rect id="Rectangle_943" x="77.1" y="231.5" width="2" height="1"/>
		<rect id="Rectangle_944" x="77.1" y="233.5" width="2" height="2"/>
		<rect id="Rectangle_945" x="79.1" y="204.5" width="1" height="5"/>
		<rect id="Rectangle_946" x="79.1" y="212.5" width="1" height="1"/>
		<rect id="Rectangle_947" x="79.1" y="221.5" width="1" height="1"/>
		<rect id="Rectangle_948" x="79.1" y="224.5" width="1" height="2"/>
		<rect id="Rectangle_949" x="79.1" y="227.5" width="1" height="2"/>
		<rect id="Rectangle_950" x="79.1" y="229.5" width="1" height="3"/>
		<rect id="Rectangle_951" x="80.1" y="206.5" width="1" height="1"/>
		<polygon id="Rectangle_952" points="80.1,209.5 81.1,209.5 81.1,209.5 		"/>
		<rect id="Rectangle_953" x="80.1" y="211.5" width="1" height="1"/>
		<rect id="Rectangle_954" x="80.1" y="213.5" width="1" height="1"/>
		<rect id="Rectangle_955" x="80.1" y="220.5" width="1" height="1"/>
		<rect id="Rectangle_956" x="80.1" y="229.5" width="1" height="2"/>
		<rect id="Rectangle_957" x="80.1" y="233.5" width="1" height="2"/>
		<rect id="Rectangle_958" x="81.1" y="206.5" width="2" height="3"/>
		<rect id="Rectangle_959" x="81.1" y="213.5" width="2" height="9"/>
		<rect id="Rectangle_960" x="81.1" y="224.5" width="2" height="1"/>
		<rect id="Rectangle_961" x="81.1" y="227.5" width="2" height="2"/>
		<rect id="Rectangle_962" x="81.1" y="232.5" width="2" height="1"/>
		<rect id="Rectangle_963" x="83.1" y="207.5" width="1" height="2"/>
		<rect id="Rectangle_964" x="83.1" y="211.5" width="1" height="1"/>
		<rect id="Rectangle_965" x="83.1" y="213.5" width="1" height="1"/>
		<rect id="Rectangle_966" x="83.1" y="220.5" width="1" height="1"/>
		<rect id="Rectangle_967" x="83.1" y="224.5" width="1" height="7"/>
		<rect id="Rectangle_968" x="83.1" y="233.5" width="1" height="2"/>
		<rect id="Rectangle_969" x="84.1" y="217.5" width="1" height="1"/>
		<rect id="Rectangle_970" x="84.1" y="222.5" width="1" height="3"/>
		<rect id="Rectangle_971" x="84.1" y="229.5" width="1" height="3"/>
		<rect id="Rectangle_972" x="84.1" y="233.5" width="1" height="2"/>
		<rect id="Rectangle_973" x="85.1" y="204.5" width="1" height="8"/>
		<rect id="Rectangle_974" x="85.1" y="213.5" width="1" height="1"/>
		<rect id="Rectangle_975" x="85.1" y="218.5" width="1" height="2"/>
		<rect id="Rectangle_976" x="85.1" y="221.5" width="1" height="4"/>
		<rect id="Rectangle_977" x="85.1" y="226.5" width="1" height="1"/>
		<rect id="Rectangle_978" x="85.1" y="229.5" width="1" height="2"/>
		<rect id="Rectangle_979" x="86.1" y="204.5" width="2" height="1"/>
		<rect id="Rectangle_980" x="86.1" y="211.5" width="2" height="1"/>
		<rect id="Rectangle_981" x="86.1" y="214.5" width="2" height="6"/>
		<rect id="Rectangle_982" x="86.1" y="221.5" width="2" height="4"/>
		<rect id="Rectangle_983" x="86.1" y="229.5" width="2" height="4"/>
		<rect id="Rectangle_984" x="88.1" y="204.5" width="0" height="1"/>
		<rect id="Rectangle_985" x="88.1" y="206.5" width="0" height="3"/>
		<rect id="Rectangle_986" x="88.1" y="211.5" width="0" height="1"/>
		<rect id="Rectangle_987" x="88.1" y="214.5" width="0" height="3"/>
		<rect id="Rectangle_988" x="88.1" y="220.5" width="0" height="1"/>
		<rect id="Rectangle_989" x="88.1" y="222.5" width="0" height="7"/>
		<rect id="Rectangle_990" x="88.1" y="231.5" width="0" height="2"/>
		<rect id="Rectangle_991" x="88.1" y="204.5" width="2" height="1"/>
		<rect id="Rectangle_992" x="88.1" y="206.5" width="2" height="3"/>
		<rect id="Rectangle_993" x="88.1" y="211.5" width="2" height="1"/>
		<rect id="Rectangle_994" x="88.1" y="214.5" width="2" height="4"/>
		<rect id="Rectangle_995" x="88.1" y="221.5" width="2" height="1"/>
		<rect id="Rectangle_996" x="88.1" y="226.5" width="2" height="1"/>
		<rect id="Rectangle_997" x="88.1" y="229.5" width="2" height="2"/>
		<rect id="Rectangle_998" x="88.1" y="233.5" width="2" height="2"/>
		<rect id="Rectangle_999" x="90.1" y="204.5" width="1" height="1"/>
		<rect id="Rectangle_1000" x="90.1" y="206.5" width="1" height="3"/>
		<rect id="Rectangle_1001" x="90.1" y="211.5" width="1" height="1"/>
		<rect id="Rectangle_1002" x="90.1" y="214.5" width="1" height="2"/>
		<rect id="Rectangle_1003" x="90.1" y="217.5" width="1" height="1"/>
		<rect id="Rectangle_1004" x="90.1" y="221.5" width="1" height="4"/>
		<rect id="Rectangle_1005" x="90.1" y="231.5" width="1" height="2"/>
		<rect id="Rectangle_1006" x="91.1" y="204.5" width="1" height="1"/>
		<rect id="Rectangle_1007" x="91.1" y="211.5" width="1" height="1"/>
		<rect id="Rectangle_1008" x="91.1" y="214.5" width="1" height="2"/>
		<rect id="Rectangle_1009" x="91.1" y="217.5" width="1" height="1"/>
		<rect id="Rectangle_1010" x="91.1" y="220.5" width="1" height="2"/>
		<rect id="Rectangle_1011" x="91.1" y="224.5" width="1" height="2"/>
		<rect id="Rectangle_1012" x="91.1" y="227.5" width="1" height="2"/>
		<rect id="Rectangle_1013" x="91.1" y="229.5" width="1" height="4"/>
		<rect id="Rectangle_1014" x="92.1" y="204.5" width="2" height="8"/>
		<rect id="Rectangle_1015" x="92.1" y="213.5" width="2" height="1"/>
		<rect id="Rectangle_1016" x="92.1" y="216.5" width="2" height="4"/>
		<rect id="Rectangle_1017" x="92.1" y="221.5" width="2" height="3"/>
		<rect id="Rectangle_1018" x="92.1" y="226.5" width="2" height="1"/>
		<rect id="Rectangle_1019" x="92.1" y="229.5" width="2" height="6"/>
	</g>
</g>
</svg>
