<svg xmlns="http://www.w3.org/2000/svg" width="100" height="100"  viewBox="0 0 100 100">
  <defs>
    <filter id="f1" x="" y="">
      <feGaussianBlur in="SourceGraphic" stdDeviation="2"/>
    </filter>
    <style>.a {
      fill: #40384b;
    }

    .b {
      fill: #d6d6d6;
    }

    .c {
      clip-path: url(#a);
    }

    .d {
      fill: #fcfcfd;
    }

    .e {
      fill: #ddd;
    }

    .f {
      fill: #fff;
    }

    .g {
      fill: #49c000;
    }

    .h {
      fill: none;
      stroke: #fff;
      stroke-linecap: round;
      stroke-width: 1.5px;
    }</style>
    <clipPath id="a">
      <rect class="a" width="60" height="47.801" rx="5" transform="translate(0 0)"/>
    </clipPath>
  </defs>
  <g id="Group_2243"  data-name="Group 2243" transform="translate(-68.043 -250.958)">
    <path id="Exclusion_1"  filter="url(#f1)" data-name="Exclusion 1"
          d="M9596.849,2576.089h-68.8a9.057,9.057,0,0,1-9.053-9.052v-45.985a9.057,9.057,0,0,1,9.053-9.052h68.8a9.07,9.07,0,0,1,9.053,9.052v45.985A9.07,9.07,0,0,1,9596.849,2576.089Zm-68.8-60.469a5.459,5.459,0,0,0-5.432,5.431v45.985a5.446,5.446,0,0,0,5.432,5.431h68.8a5.449,5.449,0,0,0,5.432-5.431v-45.985a5.463,5.463,0,0,0-5.432-5.431Zm29.474,47.851H9532.4a1.823,1.823,0,0,1-1.811-1.811,15.034,15.034,0,0,1,4.2-10.629,14.04,14.04,0,0,1,10.067-4.253h.213a14.046,14.046,0,0,1,10.069,4.253,15.044,15.044,0,0,1,4.2,10.629A1.822,1.822,0,0,1,9557.526,2563.471Zm-12.564-13.071a10.667,10.667,0,0,0-7.587,3.168,11.146,11.146,0,0,0-3.04,6.282h21.253a11.21,11.21,0,0,0-3.039-6.282,10.667,10.667,0,0,0-7.587-3.168Zm47.434,7.042H9571.3a1.811,1.811,0,0,1,0-3.621H9592.4a1.811,1.811,0,0,1,0,3.621Zm0-11.586H9571.3a1.811,1.811,0,0,1,0-3.621H9592.4a1.811,1.811,0,0,1,0,3.621Zm-47.434-2.536a9.36,9.36,0,1,1,9.358-9.359A9.315,9.315,0,0,1,9544.962,2543.32Zm0-15.079a5.739,5.739,0,1,0,5.737,5.738A5.748,5.748,0,0,0,9544.962,2528.24Zm47.434,6.027H9571.3a1.81,1.81,0,1,1,0-3.621H9592.4a1.81,1.81,0,0,1,0,3.621Z"
          transform="translate(-9440.121 -2249.851)" fill="#fff"/>
    <g id="Group_800" data-name="Group 800" transform="translate(69 250.958)">
      <ellipse id="Ellipse_252" data-name="Ellipse 252" cx="13.423" cy="13.423" rx="13.423" ry="13.423"
               transform="translate(0 0)" fill="#ef463f"/>
      <g id="Group_661" data-name="Group 661" transform="translate(9.183 9.453)">
        <path id="Path_523" data-name="Path 523" d="M12825.382,327.334l7.961,7.964"
              transform="translate(-12825.382 -327.334)" fill="none" stroke="#fff" stroke-linecap="round"
              stroke-width="1.5"/>
        <path id="Path_524" data-name="Path 524" d="M0,0,7.964,7.964" transform="translate(7.964) rotate(90)"
              fill="none" stroke="#fff" stroke-linecap="round" stroke-width="1.5"/>
      </g>
    </g>
  </g>
</svg>
