<svg xmlns="http://www.w3.org/2000/svg" width="57.372" height="57.372" viewBox="0 0 57.372 57.372">
  <g id="shuttle" transform="translate(0 0)">
    <path id="Path_1680" data-name="Path 1680" d="M57.3,4.283A4.46,4.46,0,0,0,53.089.067a44.287,44.287,0,0,0-22.2,4.444A43.586,43.586,0,0,0,18.16,15.065l-.135.164-8.4.649a4.435,4.435,0,0,0-3.38,1.989L.511,26.537A3.072,3.072,0,0,0,2.6,31.267l7.079,1.1c-.025.138-.05.275-.073.413a4.457,4.457,0,0,0,1.25,3.877l9.86,9.86a4.468,4.468,0,0,0,3.153,1.309,4.393,4.393,0,0,0,.724-.06c.138-.023.275-.048.413-.073l1.1,7.079a3.07,3.07,0,0,0,4.73,2.093l8.67-5.732a4.435,4.435,0,0,0,1.988-3.38l.649-8.4.165-.135A43.582,43.582,0,0,0,52.861,26.485,44.29,44.29,0,0,0,57.3,4.283ZM37.651,48.325l-8.293,5.483-1.069-6.9a37.654,37.654,0,0,0,10.276-4.892l-.423,5.473a1.1,1.1,0,0,1-.491.834ZM23.1,44.136l-9.86-9.86a1.089,1.089,0,0,1-.311-.946,28.915,28.915,0,0,1,1.312-4.993L29.031,43.132a29.037,29.037,0,0,1-4.99,1.316,1.09,1.09,0,0,1-.946-.311ZM9.882,19.23l5.473-.423a37.651,37.651,0,0,0-4.892,10.276l-6.9-1.068,5.483-8.293A1.1,1.1,0,0,1,9.882,19.23Zm30.272,17.4a38.537,38.537,0,0,1-7.781,5.089L15.652,25a39.2,39.2,0,0,1,5.089-7.78A40.113,40.113,0,0,1,32.432,7.5,40.886,40.886,0,0,1,52.906,3.424a1.1,1.1,0,0,1,1.042,1.042A40.883,40.883,0,0,1,49.875,24.94,40.113,40.113,0,0,1,40.154,36.631Z" transform="translate(0 0)" fill="#fff"/>
    <path id="Path_1681" data-name="Path 1681" d="M284.127,103.118a8.4,8.4,0,1,0-5.942-2.457A8.38,8.38,0,0,0,284.127,103.118Zm-3.566-11.965a5.042,5.042,0,1,1-1.477,3.565A5.026,5.026,0,0,1,280.561,91.153Z" transform="translate(-244.827 -76.646)" fill="#fff"/>
    <path id="Path_1682" data-name="Path 1682" d="M1.982,351.814a1.675,1.675,0,0,0,1.188-.492l5.488-5.488a1.681,1.681,0,0,0-2.377-2.377L.794,348.944a1.681,1.681,0,0,0,1.188,2.869Z" transform="translate(-0.268 -304.534)" fill="#fff"/>
    <path id="Path_1683" data-name="Path 1683" d="M13.42,388.338a1.681,1.681,0,0,0-2.377,0L.493,398.888a1.681,1.681,0,1,0,2.377,2.377l10.55-10.55A1.681,1.681,0,0,0,13.42,388.338Z" transform="translate(-0.001 -344.385)" fill="#fff"/>
    <path id="Path_1684" data-name="Path 1684" d="M96.042,433.219l-5.488,5.488a1.681,1.681,0,1,0,2.377,2.377l5.488-5.488a1.681,1.681,0,0,0-2.377-2.377Z" transform="translate(-79.971 -384.237)" fill="#fff"/>
  </g>
</svg>
