<svg xmlns="http://www.w3.org/2000/svg" width="100" height="100" viewBox="0 0 100 100">
  <g id="Group_2245" data-name="Group 2245" transform="translate(-69 -250.958)">
    <path id="Subtraction_8" data-name="Subtraction 8"
          d="M12596.775,2576.089h-30.723a9.053,9.053,0,0,1-9.053-9.053v-37.063c.393.014.831.022,1.3.022.787,0,1.566-.023,2.314-.07v37.111a5.459,5.459,0,0,0,5.435,5.431h32.435c-.6,1.176-1.181,2.394-1.712,3.621Zm-1.25-12.62H12570.4a1.816,1.816,0,0,1-1.81-1.809,15.04,15.04,0,0,1,4.2-10.63,14.074,14.074,0,0,1,10.067-4.255l.053,0h.1l.053,0a14.074,14.074,0,0,1,10.07,4.255,15.04,15.04,0,0,1,4.2,10.63A1.819,1.819,0,0,1,12595.525,2563.469Zm-12.566-13.069a10.668,10.668,0,0,0-7.583,3.167,11.15,11.15,0,0,0-3.043,6.28h21.253a11.158,11.158,0,0,0-3.04-6.28,10.668,10.668,0,0,0-7.587-3.167Zm26.579,7.04h-.237a1.809,1.809,0,0,1,0-3.619h4.255c-1.381,1.135-2.732,2.351-4.017,3.618Zm16.651-11.584H12609.3a1.811,1.811,0,0,1,0-3.622h21.094a1.808,1.808,0,0,1,1.715,1.23,59.689,59.689,0,0,0-5.92,2.391Zm-43.23-2.537a9.36,9.36,0,1,1,9.361-9.358A9.307,9.307,0,0,1,12582.959,2543.318Zm0-15.082a5.739,5.739,0,1,0,5.743,5.74A5.748,5.748,0,0,0,12582.959,2528.237Zm57.318,13.062h0v-20.247a5.456,5.456,0,0,0-5.428-5.431h-46.472a38.413,38.413,0,0,0,2.588-3.618h43.884a9.064,9.064,0,0,1,9.05,9.05v19.676c-1.207.153-2.425.345-3.621.572Zm-9.883-7.03H12609.3a1.811,1.811,0,0,1,0-3.622h21.094a1.811,1.811,0,0,1,0,3.622Z"
          transform="translate(-12478.121 -2249.851)" fill="#fff"/>

    <g id="Group_800" data-name="Group 800" transform="translate(69 250.958)">
      <ellipse id="Ellipse_252" data-name="Ellipse 252" cx="13.423" cy="13.423" rx="13.423" ry="13.423"
               transform="translate(0 0)" fill="#ef463f"/>
      <g id="Group_661" data-name="Group 661" transform="translate(9.183 9.453)">
        <path id="Path_523" data-name="Path 523" d="M12825.382,327.334l7.961,7.964"
              transform="translate(-12825.382 -327.334)" fill="none" stroke="#fff" stroke-linecap="round"
              stroke-width="1.5"/>

        <path id="Path_524" data-name="Path 524" d="M0,0,7.964,7.964" transform="translate(7.964) rotate(90)"
              fill="none" stroke="#fff" stroke-linecap="round" stroke-width="1.5"/>
      </g>
    </g>
  </g>
</svg>
