<svg xmlns="http://www.w3.org/2000/svg" xmlns:xlink="http://www.w3.org/1999/xlink" width="121" height="91" viewBox="0 0 121 91"><defs><style>.a,.g{fill:#fff;}.a{stroke:#707070;}.b{clip-path:url(#a);}.c{fill:#f0f0f0;}.d{fill:#ddd;}.e{fill:#c3c4c6;}.f{fill:#40384b;}.h{fill:#aaa7a7;}.i{fill:#888;}.j{fill:#f5f5f5;}.k,.m,.o{fill:none;}.k{stroke:#eff0f0;}.k,.m{stroke-width:1.5px;}.l{fill:#ef463f;}.m{stroke:#fff;stroke-linecap:round;}.n{stroke:none;}.p{filter:url(#b);}</style><clipPath id="a"><rect class="a" width="115" height="83" rx="8" transform="translate(498 334)"/></clipPath><filter id="b" x="-20" y="6.658" width="83.701" height="84.502" filterUnits="userSpaceOnUse"><feOffset dy="3" input="SourceAlpha"/><feGaussianBlur stdDeviation="3" result="c"/><feFlood flood-opacity="0.161"/><feComposite operator="in" in2="c"/><feComposite in="SourceGraphic"/></filter></defs><g transform="translate(-648 -530)"><g class="b" transform="translate(150 204)"><g transform="translate(508.9 355.292)"><g transform="translate(0)"><rect class="c" width="68.978" height="83.234" rx="10" transform="translate(9 -12)"/><g transform="translate(-87.207 -20.188)"><path class="d" d="M157.654,280l-3.384,2.256H133.963L130.578,280s-5.641,7.9,1.128,29.332h6.769a2.256,2.256,0,0,0,2.256-2.256v-1.128H147.5v1.128a2.256,2.256,0,0,0,2.256,2.256h6.769C163.295,287.9,157.654,280,157.654,280Z" transform="translate(-14.066 -226.74)"/><path class="e" d="M129.025,30.785V28.528A4.524,4.524,0,0,0,124.506,24h-.01a4.523,4.523,0,0,0-4.5,4.528V35.3a8.632,8.632,0,0,0,2.256,5.641Z" transform="translate(-6.872 -6.841)"/><path class="e" d="M295.938,30.769l-.01-2.256A4.5,4.5,0,0,1,300.413,24h.048a4.521,4.521,0,0,1,4.5,4.513v6.769a8.645,8.645,0,0,1-2.248,5.641Z" transform="translate(-157.99 -6.841)"/><path class="d" d="M158.364,82.153,151.6,72H135.752l-6.72,10.153v4.513L127.9,93.435a3.207,3.207,0,0,0,2.256,3.384l4.513,2.256h18.051l4.513-2.256a3.207,3.207,0,0,0,2.256-3.384l-1.128-6.769Z" transform="translate(-13.648 -48.072)"/><path class="f" d="M179.412,173.641c-5.641-2.256-5.1-5.641-7.9-5.641s-2.256,3.384-7.9,5.641-3.384,7.9,1.128,7.9h3.384l3.384-4.513,3.384,4.513h3.384C182.8,181.538,185.053,175.9,179.412,173.641Z" transform="translate(-41.464 -130.534)"/><path class="g" d="M166.563,250.256H148.513L144,248v4.513l3.384,2.256h20.307l3.384-2.256V248Z" transform="translate(-27.487 -199.253)"/><path class="e" d="M224,264h4.513v4.513H224Z" transform="translate(-96.206 -212.996)"/><circle class="e" cx="9.025" cy="9.025" r="9.025" transform="translate(121.025 55.516)"/><path class="g" d="M206.949,332.7a2.753,2.753,0,0,0-4.465-1.128,3.264,3.264,0,0,0,0,4.513l4.471,3.384,4.554-3.384a3.264,3.264,0,0,0,0-4.513,2.845,2.845,0,0,0-4.56,1.128Z" transform="translate(-76.946 -270.414)"/><path class="f" d="M194.95,330.074l4.471,3.384a1.128,1.128,0,0,0,1.354,0L205.416,330a4.385,4.385,0,0,0,0-6.18,3.846,3.846,0,0,0-5.3.065,3.789,3.789,0,0,0-1.918-1.021,3.864,3.864,0,0,0-3.327.956,4.37,4.37,0,0,0,0,6.181l.073.071Zm1.442-4.578a1.66,1.66,0,0,1,1.1-.434,1.479,1.479,0,0,1,.273.026,1.941,1.941,0,0,1,1.312,1.19,1.128,1.128,0,0,0,1,.641,1.1,1.1,0,0,0,1.015-.607,2.1,2.1,0,0,1,1.428-1.226,1.617,1.617,0,0,1,1.371.411,1.934,1.934,0,0,1,.535,1.419,1.974,1.974,0,0,1-.451,1.354l-3.872,2.877-3.716-2.808a2.149,2.149,0,0,1,0-2.845Z" transform="translate(-70.089 -263.502)"/><path class="f" d="M121.654,17.713A5.641,5.641,0,0,0,112,21.688v6.769a9.673,9.673,0,0,0,2.256,6.063V38.5l-1.119,6.723a4.252,4.252,0,0,0,2.247,4.237V52.94c-1.015,1.751-5.009,10.391,1.181,29.992a1.128,1.128,0,0,0,1.075.789h6.769a3.384,3.384,0,0,0,3.384-3.384h4.513a3.384,3.384,0,0,0,3.384,3.384h6.769a1.128,1.128,0,0,0,1.075-.79c6.19-19.6,2.2-28.24,1.181-29.991V49.46a4.272,4.272,0,0,0,2.241-4.287L145.845,38.5V34.512A9.692,9.692,0,0,0,148.1,28.44V21.672a5.653,5.653,0,0,0-9.672-3.959,5.528,5.528,0,0,0-1.62,3.959l.01,1.128H123.282V21.7A5.556,5.556,0,0,0,121.654,17.713Zm-7.4,10.745V21.688a3.384,3.384,0,0,1,5.8-2.386,3.325,3.325,0,0,1,.974,2.386v1.826l-2.256,3.409V21.672a1.128,1.128,0,1,0-2.256,0v8.661l-1.194,1.805A7.185,7.185,0,0,1,114.256,28.457Zm11.282,51.878a1.128,1.128,0,0,1-1.128,1.128h-5.939c-4.87-15.907-2.643-23.949-1.534-26.566l2.334,1.557a1.136,1.136,0,0,0,.626.19h3.786a10.107,10.107,0,0,0-2.658,12.523v7.784a1.128,1.128,0,0,0,1.632,1.015l1.974-.987a1.128,1.128,0,0,1,.906,1.1Zm4.513-37.229a3.378,3.378,0,0,0,3-1.841,12.522,12.522,0,0,0,4.483,2.889c1.884.754,2.854,2,2.595,3.347a3.208,3.208,0,0,1-3.3,2.374H134l-3.046-4.061a1.169,1.169,0,0,0-1.805,0L126.1,49.875h-2.82a3.208,3.208,0,0,1-3.306-2.369c-.258-1.343.712-2.595,2.595-3.347a12.522,12.522,0,0,0,4.483-2.889,3.378,3.378,0,0,0,3,1.837Zm-1.128-3.384a1.128,1.128,0,1,1,1.128,1.128A1.128,1.128,0,0,1,128.922,39.722Zm0,10.153,1.128-1.5,1.128,1.5Zm2.256,2.256v2.256h-2.256V52.132Zm-1.128,4.513a7.9,7.9,0,1,1-7.9,7.9A7.9,7.9,0,0,1,130.05,56.644Zm3.384-2.256V52.132h5.641a1.127,1.127,0,0,0,.5-.113l2.88-1.446v2.084l-2.595,1.732Zm-12.914-2.369a1.127,1.127,0,0,0,.5.113h5.641v2.256h-6.43l-2.595-1.732V50.573Zm11.786,26.06h-4.513a3.384,3.384,0,0,0-3.384-3.384,1.127,1.127,0,0,0-.5.113l-.624.318V72.088a10.09,10.09,0,0,0,13.538,0v3.038l-.624-.312a1.128,1.128,0,0,0-.5-.118A3.384,3.384,0,0,0,132.307,78.079Zm9.323,3.384h-5.939a1.128,1.128,0,0,1-1.128-1.128V78.079a1.128,1.128,0,0,1,.9-1.106l1.974.987a1.128,1.128,0,0,0,1.636-1.01V69.167a10.107,10.107,0,0,0-2.658-12.523H140.2a1.135,1.135,0,0,0,.626-.19l2.334-1.556C144.277,57.523,146.5,65.566,141.63,81.464Zm-1.6-62.168a3.4,3.4,0,0,1,5.813,2.376V28.44a7.242,7.242,0,0,1-1.069,3.685l-1.187-1.778V21.672a1.128,1.128,0,1,0-2.256,0v5.294l-2.256-3.384-.009-1.918A3.3,3.3,0,0,1,140.031,19.3Zm-2.687,5.76,6.244,9.364v4.174a1.16,1.16,0,0,0,.016.186l1.121,6.723a2.105,2.105,0,0,1-1.533,2.187c-.037.015-.915.451-.915.451.017-.072.048-.14.063-.213.37-1.918-.479-4.471-3.975-5.866a10.379,10.379,0,0,1-4.766-3.586,4.017,4.017,0,0,0-7.1,0,10.379,10.379,0,0,1-4.766,3.586c-3.5,1.4-4.345,3.949-3.974,5.866.015.073.046.141.063.213,0,0-.878-.437-.915-.451a2.1,2.1,0,0,1-1.54-2.143l1.128-6.769a1.156,1.156,0,0,0,.016-.181V34.439l6.256-9.383Z" transform="translate(0)"/><circle class="f" cx="2.256" cy="2.256" r="2.256" transform="translate(136.819 34.081)"/><circle class="f" cx="2.256" cy="2.256" r="2.256" transform="translate(118.769 34.081)"/><path class="f" d="M218.329,132.093l1.252-1.877a7.457,7.457,0,0,0-8.021,0l1.252,1.877A5.223,5.223,0,0,1,218.329,132.093Z" transform="translate(-85.52 -97.073)"/><path class="f" d="M368,264h4.513v2.256H368Z" transform="translate(-219.899 -212.996)"/><path class="f" d="M363.615,227.473,367,225.215l1.252,1.877-3.385,2.258Z" transform="translate(-216.132 -179.681)"/><path class="f" d="M363.659,291.328l1.252-1.877,3.385,2.258-1.252,1.877Z" transform="translate(-216.17 -234.858)"/><circle class="e" cx="2.256" cy="2.256" r="2.256" transform="translate(127.794 37.466)"/></g></g></g><g transform="translate(487 338.658)"><g transform="translate(0)"><g class="p" transform="matrix(1, 0, 0, 1, 11, -12.66)"><path class="h" d="M7622.5,1645.614s-13.786-7.482-18.9-3.974-19.667,19.742-25.539,27.272-9.065,24.428,2.568,32.647,20.808,5.044,20.808,5.044l31.679-12.125s7.259-3.092,4.887-10.808-6.037-6.765-7.344-7.01-25.687,6.064-25.687,6.064l-.626-26.36s-.366-5.8,3.162-8.425a12.753,12.753,0,0,1,7.748-2.326Z" transform="translate(-7583.78 -1628.05)"/></g><path class="i" d="M7607.392,1665.32s-5.759,8.407-5.629,14.306,6.245,4.723,6.245,4.723Z" transform="translate(-7575.824 -1642.278)"/></g><path class="j" d="M4.184.146,6.939,0a3.6,3.6,0,0,1,3.535,3.737l.584,3.73a3.686,3.686,0,0,1-3.686,3.686H3.686A3.686,3.686,0,0,1,0,7.468L.5,3.832A3.686,3.686,0,0,1,4.184.146Z" transform="matrix(0.358, 0.934, -0.934, 0.358, 60.606, 37.326)"/></g></g><g class="k" transform="translate(648 538)"><rect class="n" width="115" height="83" rx="8"/><rect class="o" x="0.75" y="0.75" width="113.5" height="81.5" rx="7.25"/></g><g transform="translate(150 204)"><circle class="l" cx="8.5" cy="8.5" r="8.5" transform="translate(602 326)"/><g transform="translate(-1.133 -1.133)"><path class="m" d="M12825.384,327.334l5.221,5.222" transform="translate(-12216 5.469)"/><path class="m" d="M0,0,5.222,5.222" transform="translate(614.606 332.803) rotate(90)"/></g></g></g></svg>