<svg xmlns="http://www.w3.org/2000/svg" xmlns:xlink="http://www.w3.org/1999/xlink" width="121" height="91" viewBox="0 0 121 91"><defs><style>.a,.g{fill:#fff;}.a{stroke:#707070;}.b{clip-path:url(#a);}.c{fill:#f0f0f0;}.d{fill:#ddd;}.e{fill:#c3c4c6;}.f{fill:#40384b;}.h,.j,.l{fill:none;}.h{stroke:#eff0f0;}.h,.j{stroke-width:1.5px;}.i{fill:#ef463f;}.j{stroke:#fff;stroke-linecap:round;}.k{stroke:none;}</style><clipPath id="a"><rect class="a" width="114" height="82" rx="8" transform="translate(497.909 333.929)"/></clipPath></defs><g transform="translate(-469 -530)"><g class="b" transform="translate(-27.909 205.071)"><g transform="matrix(0.875, -0.485, 0.485, 0.875, 438.307, 323.433)"><path class="c" d="M10.451.465,111.625.613a9.923,9.923,0,0,1,9.912,9.893l.185,125.944a9.853,9.853,0,0,1-9.883,9.865l-101.174-.148a9.923,9.923,0,0,1-9.912-9.893L.568,10.329A9.853,9.853,0,0,1,10.451.465Z"/><g transform="translate(28.182 14.012)"><path class="d" d="M51.425.282,45.5,4.223,9.883,4.171,3.941.213S-5.931,14.022,6,51.562l11.871.017a3.939,3.939,0,0,0,3.951-3.944l0-1.975,11.871.017,0,1.975a3.967,3.967,0,0,0,3.963,3.956l11.871.017C61.338,14.121,51.425.282,51.425.282Z" transform="translate(4.157 65.176)"/><path class="e" d="M15.926,11.932l-.006-3.95A7.955,7.955,0,0,0,7.982.044H7.965A7.9,7.9,0,0,0,.092,7.959L.109,19.808a15.139,15.139,0,0,0,3.971,9.88Z" transform="translate(1.99 2.152)"/><path class="e" d="M.067,11.881.044,7.932A7.855,7.855,0,0,1,7.9.044h.083a7.949,7.949,0,0,1,7.908,7.911L15.907,19.8a15.074,15.074,0,0,1-3.929,9.869Z" transform="translate(45.547 2.216)"/><path class="d" d="M53.628,18.02,41.731.229,13.948.188,2.188,17.945l.012,7.9L.238,37.69A5.634,5.634,0,0,0,4.2,43.621l7.92,3.961,31.656.046,7.908-3.938a5.6,5.6,0,0,0,3.948-5.919l-2-11.852Z" transform="translate(3.883 13.868)"/><path class="f" d="M33.65,10C23.752,6.039,24.683.116,19.786.109S15.838,6.027,5.951,9.963.036,23.778,7.95,23.79l5.935.009,5.924-7.891,5.947,7.908,5.935.009C39.606,23.836,43.548,13.967,33.65,10Z" transform="translate(12.014 37.667)"/><path class="g" d="M39.608,4.2,7.953,4.153.033.191l.012,7.9,5.941,3.958L41.6,12.1l5.93-3.941-.012-7.9Z" transform="translate(8.054 57.298)"/><path class="e" d="M.032.032,7.946.044l.012,7.9L.044,7.931Z" transform="translate(27.846 61.436)"/><path class="e" d="M15.892.087A15.8,15.8,0,1,1,.088,15.863,15.869,15.869,0,0,1,15.892.087Z" transform="translate(15.954 69.286)"/><path class="g" d="M9.445,3.31A4.834,4.834,0,0,0,1.611,1.324a5.706,5.706,0,0,0,.012,7.9l7.849,5.936,7.978-5.913a5.706,5.706,0,0,0-.012-7.9A4.981,4.981,0,0,0,9.445,3.31Z" transform="translate(22.335 77.912)"/><path class="f" d="M2.424,12.807l7.849,5.936a1.982,1.982,0,0,0,2.374,0l8.131-6.039a7.667,7.667,0,0,0-.016-10.818,6.753,6.753,0,0,0-9.289.1A6.672,6.672,0,0,0,8.107.2,6.77,6.77,0,0,0,2.275,1.862a7.641,7.641,0,0,0,.02,10.82l.129.125ZM4.94,4.8a2.905,2.905,0,0,1,1.932-.758,2.6,2.6,0,0,1,.479.046,3.416,3.416,0,0,1,2.3,2.087A1.986,1.986,0,0,0,11.408,7.3a1.919,1.919,0,0,0,1.779-1.06,3.665,3.665,0,0,1,2.5-2.143,2.845,2.845,0,0,1,2.4.722A3.391,3.391,0,0,1,19.035,7.3a3.442,3.442,0,0,1-.788,2.369L11.464,14.7,4.94,9.772a3.757,3.757,0,0,1-.007-4.981Z" transform="translate(20.35 75.906)"/><path class="f" d="M17.024,3.176A9.872,9.872,0,0,0,.1,10.11L.121,21.96A16.961,16.961,0,0,0,4.094,32.578l.01,6.967L2.159,51.311a7.464,7.464,0,0,0,3.952,7.423l.009,6.09C4.343,67.887-2.638,83,8.268,117.329a1.985,1.985,0,0,0,1.888,1.383l11.871.017a5.909,5.909,0,0,0,5.927-5.916l7.914.012a5.951,5.951,0,0,0,5.944,5.933l11.871.017a1.971,1.971,0,0,0,1.883-1.38C66.371,83.1,59.345,67.968,57.56,64.9l-.009-6.09a7.452,7.452,0,0,0,3.918-7.5L59.5,39.627l-.01-6.981a16.9,16.9,0,0,0,3.941-10.623l-.017-11.849A9.932,9.932,0,0,0,46.444,3.219a9.639,9.639,0,0,0-2.831,6.926l.021,1.975-23.742-.035,0-1.929A9.746,9.746,0,0,0,17.024,3.176ZM4.078,21.965,4.061,10.116A5.929,5.929,0,0,1,14.218,5.954a5.832,5.832,0,0,1,1.714,4.179l0,3.2-3.948,5.962L11.975,10.1a1.978,1.978,0,0,0-3.957-.006L8.04,25.253,5.951,28.41A12.589,12.589,0,0,1,4.078,21.965ZM24,112.808a1.97,1.97,0,0,1-1.976,1.972l-10.415-.015c-8.582-27.858-4.7-41.929-2.759-46.508l4.1,2.731a2,2,0,0,0,1.1.333l6.64.01a17.645,17.645,0,0,0-4.629,21.914l.02,13.627a1.983,1.983,0,0,0,2.865,1.782l3.46-1.723a1.983,1.983,0,0,1,1.592,1.928Zm7.818-65.159a5.9,5.9,0,0,0,5.248-3.215,22.051,22.051,0,0,0,7.87,5.069c3.306,1.324,5.011,3.517,4.559,5.866A5.606,5.606,0,0,1,43.7,59.516l-4.946-.007L33.4,52.391a2.054,2.054,0,0,0-2.886-.284,2.02,2.02,0,0,0-.28.28l-5.331,7.1-4.946-.007a5.646,5.646,0,0,1-5.8-4.156c-.457-2.351,1.242-4.54,4.542-5.853a21.878,21.878,0,0,0,7.855-5.046,5.946,5.946,0,0,0,5.26,3.223Zm-1.987-5.927A1.978,1.978,0,1,1,31.809,43.7,1.97,1.97,0,0,1,29.827,41.722ZM29.853,59.5l1.975-2.63L33.81,59.5Zm3.963,3.956.006,3.95L29.865,67.4l-.006-3.95Zm-1.967,7.9a13.824,13.824,0,1,1-13.829,13.8A13.886,13.886,0,0,1,31.849,71.348Zm5.93-3.941-.006-3.95,9.892.014a1.976,1.976,0,0,0,.884-.2L53.6,60.751,53.6,64.4l-4.546,3.025Zm-22.654-4.18a1.983,1.983,0,0,0,.885.2l9.892.014.006,3.95-11.277-.017-4.555-3.038-.005-3.648Zm20.736,45.649-7.914-.012A5.951,5.951,0,0,0,22,102.931a1.976,1.976,0,0,0-.884.2l-1.093.555-.008-5.318A17.72,17.72,0,0,0,43.76,98.4l.008,5.318-1.095-.549a1.985,1.985,0,0,0-.885-.209A5.909,5.909,0,0,0,35.861,108.876Zm16.359,5.948-10.415-.015a1.984,1.984,0,0,1-1.981-1.978l-.006-3.95a1.969,1.969,0,0,1,1.58-1.933l3.465,1.733a1.972,1.972,0,0,0,2.866-1.763l-.02-13.627a17.7,17.7,0,0,0-4.693-21.928l6.64.01a1.989,1.989,0,0,0,1.1-.33l4.089-2.717C56.8,72.923,60.714,87.007,52.22,114.824ZM49.257,5.994a5.972,5.972,0,0,1,10.2,4.174l.017,11.849a12.63,12.63,0,0,1-1.866,6.447l-2.086-3.115L55.5,10.162a1.978,1.978,0,0,0-3.957-.006l.014,9.268-3.966-5.93-.021-3.357A5.752,5.752,0,0,1,49.257,5.994Zm-4.7,10.077L55.534,32.478l.011,7.307a2.029,2.029,0,0,0,.028.326l1.984,11.771a3.673,3.673,0,0,1-2.683,3.825c-.065.026-1.6.788-1.6.788.029-.126.085-.245.11-.373.644-3.356-.852-7.828-6.985-10.279a18.274,18.274,0,0,1-8.368-6.29A7.619,7.619,0,0,0,31.8,35.8a7.564,7.564,0,0,0-6.219,3.727,18.124,18.124,0,0,1-8.35,6.266c-6.13,2.44-7.609,6.9-6.955,10.259.026.128.081.247.111.373,0,0-1.54-.767-1.606-.792a3.689,3.689,0,0,1-2.706-3.756L8.034,40.031a2.018,2.018,0,0,0,.027-.316l-.011-7.273L19,16.033Z" transform="translate(0 0)"/><path class="f" d="M3.973.022A3.95,3.95,0,1,1,.022,3.966,3.967,3.967,0,0,1,3.973.022Z" transform="translate(43.646 31.852)"/><path class="f" d="M3.973.022A3.95,3.95,0,1,1,.022,3.966,3.967,3.967,0,0,1,3.973.022Z" transform="translate(11.99 31.806)"/><path class="f" d="M11.887,5.381,14.078,2.1A13.1,13.1,0,0,0,.011,2.077l2.2,3.289A9.174,9.174,0,0,1,11.887,5.381Z" transform="translate(24.744 28.12)"/><path class="f" d="M.016.032,7.93.044l.006,3.95L.022,3.982Z" transform="translate(63.474 61.488)"/><path class="f" d="M.022,3.976,5.952.033l2.2,3.289L2.223,7.266Z" transform="translate(62.376 51.92)"/><path class="f" d="M.018,3.3,2.21.012,8.151,3.973,5.96,7.256Z" transform="translate(62.413 67.792)"/><path class="e" d="M3.973.022A3.95,3.95,0,1,1,.022,3.966,3.967,3.967,0,0,1,3.973.022Z" transform="translate(27.827 37.753)"/></g></g></g><g class="h" transform="translate(469 538)"><rect class="k" width="115" height="83" rx="8"/><rect class="l" x="0.75" y="0.75" width="113.5" height="81.5" rx="7.25"/></g><g transform="translate(-29 204)"><circle class="i" cx="8.5" cy="8.5" r="8.5" transform="translate(602 326)"/><g transform="translate(-1.133 -1.133)"><path class="j" d="M12825.384,327.334l5.221,5.222" transform="translate(-12216 5.469)"/><path class="j" d="M0,0,5.222,5.222" transform="translate(614.606 332.803) rotate(90)"/></g></g></g></svg>