<svg xmlns="http://www.w3.org/2000/svg" xmlns:xlink="http://www.w3.org/1999/xlink" width="121" height="91" viewBox="0 0 121 91"><defs><style>.a,.g{fill:#fff;}.a{stroke:#707070;}.b{clip-path:url(#a);}.c{fill:#f0f0f0;}.d{fill:#ddd;}.e{fill:#c3c4c6;}.f{fill:#40384b;}.h,.j,.l{fill:none;}.h{stroke:#49c000;}.h,.j{stroke-width:1.5px;}.i{fill:#49c000;}.j{stroke:#fff;stroke-linecap:round;}.k{stroke:none;}</style><clipPath id="a"><rect class="a" width="115" height="83" rx="8" transform="translate(498 334)"/></clipPath></defs><g transform="translate(-1008 -530)"><g class="b" transform="translate(510 204)"><g transform="translate(515.762 350.953)"><g transform="translate(-6.424 -12)"><rect class="c" width="92.1" height="73.912" rx="10"/><g transform="translate(31.2 6.969)"><path class="d" d="M26,0,22.995,2H4.962L1.957,0s-5.009,7.013,1,26.047H8.969a2,2,0,0,0,2-2v-1h6.011v1a2,2,0,0,0,2,2H25C31.009,7.013,26,0,26,0Z" transform="translate(2.051 33.055)"/><path class="e" d="M8.015,6.025v-2A4.017,4.017,0,0,0,4,0H3.992A4.016,4.016,0,0,0,0,4.021v6.011a7.665,7.665,0,0,0,2,5.009Z" transform="translate(1.002 0.997)"/><path class="e" d="M.009,6.011,0,4.007A4,4,0,0,1,3.983,0h.042a4.014,4.014,0,0,1,4,4.007v6.011a7.677,7.677,0,0,1-2,5.009Z" transform="translate(23.033 0.997)"/><path class="d" d="M27.063,9.016,21.052,0H6.984L1.016,9.016v4.007l-1,6.011a2.848,2.848,0,0,0,2,3.005l4.007,2H22.054l4.007-2a2.848,2.848,0,0,0,2-3.005l-1-6.011Z" transform="translate(1.99 7.008)"/><path class="f" d="M17,5.009C11.988,3.005,12.464,0,9.984,0s-2,3.005-7.013,5.009-3.005,7.013,1,7.013H6.979L9.984,8.015l3.005,4.007H16C20,12.022,22.006,7.013,17,5.009Z" transform="translate(6.045 19.03)"/><path class="g" d="M20.036,2H4.007L0,0V4.007l3.005,2H21.038l3.005-2V0Z" transform="translate(4.007 29.048)"/><path class="e" d="M0,0H4.007V4.007H0Z" transform="translate(14.025 31.052)"/><circle class="e" cx="8.015" cy="8.015" r="8.015" transform="translate(8.015 35.059)"/><path class="g" d="M4.769,1.648A2.444,2.444,0,0,0,.8.646a2.9,2.9,0,0,0,0,4.007l3.97,3.005L8.819,4.653a2.9,2.9,0,0,0,0-4.007,2.527,2.527,0,0,0-4.049,1Z" transform="translate(11.218 39.422)"/><path class="f" d="M1.2,6.462l3.97,3.005a1,1,0,0,0,1.2,0L10.5,6.4A3.894,3.894,0,0,0,10.5.91a3.415,3.415,0,0,0-4.7.058A3.365,3.365,0,0,0,4.09.061,3.431,3.431,0,0,0,1.136.91a3.881,3.881,0,0,0,0,5.489l.065.063ZM2.483,2.4a1.474,1.474,0,0,1,.979-.386,1.311,1.311,0,0,1,.242.023A1.724,1.724,0,0,1,4.869,3.091a1,1,0,0,0,.887.569.975.975,0,0,0,.9-.539A1.864,1.864,0,0,1,7.926,2.032,1.436,1.436,0,0,1,9.143,2.4a1.717,1.717,0,0,1,.475,1.26,1.752,1.752,0,0,1-.4,1.2L5.779,7.414,2.479,4.92a1.908,1.908,0,0,1,0-2.527Z" transform="translate(10.218 38.415)"/><path class="f" d="M8.573,1.489A5.009,5.009,0,0,0,0,5.02v6.011a8.59,8.59,0,0,0,2,5.384v3.534l-.994,5.97a3.776,3.776,0,0,0,2,3.763v3.09C2.1,34.326-1.443,42,4.054,59.4a1,1,0,0,0,.955.7H11.02A3.005,3.005,0,0,0,14.025,57.1h4.007A3.005,3.005,0,0,0,21.038,60.1h6.011A1,1,0,0,0,28,59.4c5.5-17.4,1.951-25.077,1.049-26.632v-3.09a3.794,3.794,0,0,0,1.99-3.807l-.988-5.926V16.407a8.607,8.607,0,0,0,2-5.392V5A5.02,5.02,0,0,0,23.47,1.489,4.909,4.909,0,0,0,22.031,5l.009,1H10.018V5.028A4.934,4.934,0,0,0,8.573,1.489ZM2,11.031V5.02A3.005,3.005,0,0,1,7.15,2.9,2.952,2.952,0,0,1,8.015,5.02V6.642l-2,3.027V5a1,1,0,1,0-2,0V12.7l-1.06,1.6A6.38,6.38,0,0,1,2,11.031ZM12.022,57.1a1,1,0,0,1-1,1H5.746C1.422,43.975,3.4,36.834,4.384,34.51l2.073,1.382a1.008,1.008,0,0,0,.556.168h3.362a8.975,8.975,0,0,0-2.36,11.12v6.913a1,1,0,0,0,1.45.9l1.753-.877a1,1,0,0,1,.8.977Zm4.007-33.06a3,3,0,0,0,2.66-1.635A11.12,11.12,0,0,0,22.67,24.97c1.673.669,2.535,1.78,2.3,2.972A2.849,2.849,0,0,1,22.04,30.05h-2.5l-2.7-3.607a1.038,1.038,0,0,0-1.6,0l-2.7,3.607h-2.5a2.849,2.849,0,0,1-2.935-2.1c-.229-1.192.632-2.3,2.3-2.972a11.12,11.12,0,0,0,3.981-2.566,3,3,0,0,0,2.661,1.631Zm-1-3.005a1,1,0,1,1,1,1A1,1,0,0,1,15.027,21.034Zm0,9.016,1-1.335,1,1.335Zm2,2v2h-2v-2Zm-1,4.007a7.013,7.013,0,1,1-7.013,7.013A7.013,7.013,0,0,1,16.029,36.061Zm3.005-2v-2h5.009a1,1,0,0,0,.448-.1l2.558-1.284v1.85l-2.3,1.538Zm-11.468-2.1a1,1,0,0,0,.448.1h5.009v2H7.313l-2.3-1.538v-1.85ZM18.033,55.1H14.025A3.005,3.005,0,0,0,11.02,52.09a1,1,0,0,0-.448.1l-.554.283v-2.7a8.96,8.96,0,0,0,12.022,0v2.7l-.554-.278a1,1,0,0,0-.448-.105A3.005,3.005,0,0,0,18.033,55.1ZM26.312,58.1H21.038a1,1,0,0,1-1-1v-2a1,1,0,0,1,.8-.982l1.753.877a1,1,0,0,0,1.453-.9V47.181a8.975,8.975,0,0,0-2.36-11.12h3.362a1.008,1.008,0,0,0,.556-.168l2.073-1.382C28.662,36.841,30.634,43.983,26.312,58.1ZM24.892,2.895A3.017,3.017,0,0,1,30.054,5v6.011a6.431,6.431,0,0,1-.95,3.272l-1.054-1.579V5a1,1,0,1,0-2,0v4.7l-2-3.005L24.036,5A2.929,2.929,0,0,1,24.892,2.895ZM22.506,8.01l5.545,8.315v3.707a1.03,1.03,0,0,0,.014.165l1,5.97A1.869,1.869,0,0,1,27.7,28.109c-.033.013-.812.4-.812.4.015-.064.043-.124.056-.189.329-1.7-.426-3.97-3.529-5.209a9.217,9.217,0,0,1-4.233-3.185,3.843,3.843,0,0,0-3.152-1.9,3.843,3.843,0,0,0-3.152,1.9,9.216,9.216,0,0,1-4.233,3.185c-3.106,1.242-3.858,3.506-3.529,5.209.013.065.041.125.056.189,0,0-.779-.388-.812-.4a1.864,1.864,0,0,1-1.367-1.9l1-6.011a1.026,1.026,0,0,0,.014-.16v-3.69L9.562,8.01Z"/><circle class="f" cx="2.004" cy="2.004" r="2.004" transform="translate(22.04 16.025)"/><circle class="f" cx="2.004" cy="2.004" r="2.004" transform="translate(6.011 16.025)"/><path class="f" d="M6.011,2.706,7.123,1.039A6.622,6.622,0,0,0,0,1.039L1.112,2.706A4.638,4.638,0,0,1,6.011,2.706Z" transform="translate(12.468 14.152)"/><path class="f" d="M0,0H4.007V2H0Z" transform="translate(32.058 31.052)"/><path class="f" d="M0,2,3.006,0,4.118,1.667l-3.006,2Z" transform="translate(31.509 26.195)"/><path class="f" d="M0,1.667,1.112,0,4.118,2,3.006,3.672Z" transform="translate(31.514 34.239)"/><circle class="e" cx="2.004" cy="2.004" r="2.004" transform="translate(14.025 19.03)"/></g></g></g></g><g class="h" transform="translate(1008 538)"><rect class="k" width="115" height="83" rx="8"/><rect class="l" x="0.75" y="0.75" width="113.5" height="81.5" rx="7.25"/></g><g transform="translate(510 204)"><circle class="i" cx="8.5" cy="8.5" r="8.5" transform="translate(602 326)"/><path class="j" d="M12825.384,327.334l2.417,2.392" transform="translate(-12218.329 8.166)"/><path class="j" d="M0,0,5.222,5.222" transform="translate(614.473 332.67) rotate(90)"/></g></g></svg>