<?xml version="1.0" encoding="utf-8"?>
<!-- Generator: Adobe Illustrator 24.2.0, SVG Export Plug-In . SVG Version: 6.00 Build 0)  -->
<svg version="1.1" id="Capa_1" xmlns="http://www.w3.org/2000/svg" xmlns:xlink="http://www.w3.org/1999/xlink" x="0px" y="0px"
	 viewBox="0 0 144 144" style="enable-background:new 0 0 144 144;" xml:space="preserve">
<style type="text/css">
	.st0{fill:#40384B;}
	.st1{fill:#FFFFFF;}
	.st2{fill:#F0F0F0;}
	.st3{fill:#DDDDDD;}
	.st4{fill:#C3C4C6;}
</style>
<g id="Group_284_1_" transform="translate(-743 -473.292)">
	<circle id="Ellipse_245" class="st0" cx="815" cy="545.6" r="52.5"/>
	<g id="Group_275_1_" transform="translate(67 13)">
		<g id="Group_274_1_" transform="translate(5.837 -751.648)">
			<g id="Group_272_1_" transform="translate(711.163 1285.648)">
				<path id="Path_481_1_" class="st1" d="M41.3,32.7c-0.5,0-0.9-0.2-1.3-0.5l-8.7-8.7l-8.7,8.7c-0.7,0.7-1.9,0.7-2.6,0
					c-0.7-0.7-0.7-1.9,0-2.6l0,0l10-10c0.7-0.7,1.9-0.7,2.6,0l10,10c0.7,0.7,0.7,1.9,0,2.6C42.3,32.5,41.8,32.7,41.3,32.7L41.3,32.7
					z"/>
			</g>
			<g id="Group_273_1_" transform="translate(721.162 1288.368)">
				<path id="Path_482_1_" class="st1" d="M21.3,40.6c-1,0-1.8-0.8-1.8-1.8V20.9c0-1,0.8-1.8,1.8-1.8c1,0,1.8,0.8,1.8,1.8v17.9
					C23.1,39.8,22.3,40.6,21.3,40.6z"/>
			</g>
		</g>
	</g>
	<g id="Group_674_1_" transform="translate(751.9 485.292)">
		<g id="Group_673_1_" transform="translate(9 -12)">
			<path id="Rectangle_1793_1_" class="st2" d="M29.5,19.1h49c5.5,0,10,4.5,10,10v51c0,5.5-4.5,10-10,10h-49c-5.5,0-10-4.5-10-10
				v-51C19.5,23.6,24,19.1,29.5,19.1z"/>
			<g id="Group_723" transform="translate(15.793 6.694)">
				<path id="Path_588" class="st3" d="M51.1,50.8l-3.4,1.9H27.4L24,50.8c0,0-5.6,6.7,1.1,25h6.8c1.2,0.1,2.2-0.8,2.3-1.9v-1h6.8v1
					c0.1,1.2,1.1,2,2.3,1.9H50C56.7,57.6,51.1,50.8,51.1,50.8z"/>
				<path id="Path_589" class="st4" d="M29.7,25.8v-1.9c0-2.1-2-3.9-4.5-3.9h0c-2.5,0-4.5,1.7-4.5,3.9v5.8c0.1,1.8,0.9,3.6,2.3,4.8
					L29.7,25.8z"/>
				<path id="Path_590" class="st4" d="M45.4,25.8l0-1.9c0-2.1,2-3.8,4.5-3.8h0c2.5,0,4.5,1.7,4.5,3.8v5.8c-0.1,1.8-0.9,3.6-2.2,4.8
					L45.4,25.8z"/>
				<path id="Path_591" class="st3" d="M52.2,34.5l-6.8-8.7H29.6l-6.7,8.7v3.8l-1.1,5.8c-0.1,1.4,0.9,2.6,2.3,2.9l4.5,1.9h18
					l4.5-1.9c1.4-0.3,2.3-1.5,2.3-2.9l-1.1-5.8L52.2,34.5z"/>
				<path id="Path_592" class="st0" d="M45.4,42.2c-5.6-1.9-5.1-4.8-7.9-4.8s-2.3,2.9-7.9,4.8s-3.4,6.7,1.1,6.7h3.4l3.4-3.8l3.4,3.8
					h3.4C48.8,48.9,51.1,44.1,45.4,42.2z"/>
				<path id="Path_593" class="st1" d="M46.6,48.9h-18L24,47v3.8l3.4,1.9h20.3l3.4-1.9V47L46.6,48.9z"/>
				<path id="Path_594" class="st4" d="M35.3,48.9h4.5v3.8h-4.5V48.9z"/>
				<ellipse id="Ellipse_254" class="st4" cx="37.5" cy="60.5" rx="9" ry="7.7"/>
				<path id="Path_595" class="st1" d="M37.5,58.5c-0.6-1.3-2.1-1.9-3.5-1.5c-0.3,0.1-0.7,0.3-1,0.5c-1.1,0.9-1.2,2.5-0.3,3.5
					c0.1,0.1,0.2,0.2,0.3,0.3l4.5,2.9l4.6-2.9c1.1-0.9,1.2-2.5,0.3-3.5c-0.1-0.1-0.2-0.2-0.3-0.3c-1.2-0.9-2.9-0.8-4,0.2
					C37.8,58,37.6,58.3,37.5,58.5z"/>
				<path id="Path_596" class="st0" d="M32.4,62.2l4.5,2.9c0.4,0.3,0.9,0.3,1.4,0l4.6-2.9c1.5-1.2,1.7-3.3,0.5-4.7
					c-0.2-0.2-0.3-0.4-0.5-0.5c-1.6-1.2-3.8-1.2-5.3,0.1c-0.5-0.5-1.2-0.8-1.9-0.9c-1.2-0.2-2.4,0.1-3.3,0.8
					c-1.5,1.1-1.7,3.3-0.6,4.7C31.9,61.8,32.1,62,32.4,62.2L32.4,62.2L32.4,62.2z M33.8,58.3c0.3-0.2,0.7-0.4,1.1-0.4
					c0.1,0,0.2,0,0.3,0c0.6,0.1,1.1,0.5,1.3,1c0.2,0.3,0.6,0.6,1,0.5c0.4,0,0.8-0.2,1-0.5c0.3-0.5,0.8-0.9,1.4-1
					c0.5-0.1,1,0,1.4,0.3c0.4,0.3,0.6,0.7,0.5,1.2c0,0.4-0.1,0.9-0.5,1.2l-3.9,2.5l-3.7-2.4c-0.7-0.6-0.7-1.6-0.1-2.3
					C33.7,58.4,33.8,58.3,33.8,58.3L33.8,58.3z"/>
				<path id="Path_597" class="st0" d="M29.2,20.5c-2.3-1.9-5.6-1.9-8,0c-1,0.8-1.7,2.1-1.7,3.4v5.8c0.1,1.9,0.9,3.8,2.3,5.2v3.4
					L20.6,44c-0.1,1.6,0.8,3,2.2,3.6v3c-1,1.5-5,8.9,1.2,25.6c0.2,0.4,0.6,0.7,1.1,0.7h6.8c1.7,0.1,3.2-1.2,3.4-2.9h4.5
					c0.1,1.7,1.7,3,3.4,2.9H50c0.5,0,0.9-0.2,1.1-0.7c6.2-16.7,2.2-24.1,1.2-25.6v-3c1.5-0.6,2.4-2.1,2.2-3.7l-1.1-5.7v-3.4
					c1.4-1.4,2.2-3.2,2.3-5.2v-5.8c0-2.7-2.5-4.8-5.7-4.8c-1.5,0-2.9,0.5-4,1.4c-1,0.8-1.6,2.1-1.6,3.4l0,1H30.8v-0.9
					C30.8,22.6,30.2,21.4,29.2,20.5z M21.8,29.7v-5.8c0.1-1.7,1.6-3,3.4-2.9c0.9,0,1.7,0.3,2.4,0.9c0.6,0.5,1,1.2,1,2v1.6l-2.3,2.9
					v-4.5c0-0.6-0.6-1-1.1-1c-0.6,0-1.1,0.4-1.1,1v7.4l-1.2,1.5C22.2,31.9,21.8,30.8,21.8,29.7z M33,73.9c0,0.6-0.6,1-1.1,1H26
					c-4.9-13.6-2.6-20.4-1.5-22.7l2.3,1.3c0.2,0.1,0.4,0.2,0.6,0.2h3.8c-3.8,2.6-4.9,7-2.7,10.7v6.6c0,0.6,0.5,1,1.1,1
					c0.2,0,0.3,0,0.5-0.1l2-0.8c0.5,0.1,0.9,0.4,0.9,0.9L33,73.9z M37.6,42.2c1.2,0,2.3-0.6,3-1.6c1.3,1.1,2.8,1.9,4.5,2.5
					c1.9,0.6,2.9,1.7,2.6,2.9c-0.5,1.3-1.9,2.2-3.3,2h-2.8l-3-3.5c-0.4-0.4-1.1-0.5-1.6-0.1c-0.1,0-0.1,0.1-0.2,0.1l-3,3.5h-2.8
					c-1.4,0.1-2.8-0.7-3.3-2c-0.3-1.1,0.7-2.2,2.6-2.9c1.6-0.5,3.2-1.4,4.5-2.5C35.2,41.6,36.3,42.2,37.6,42.2L37.6,42.2z
					 M36.4,39.3c-0.1-0.6,0.3-1.2,0.9-1.3s1.2,0.3,1.3,0.9s-0.3,1.2-0.9,1.3c-0.1,0-0.1,0-0.2,0C37,40.3,36.5,39.9,36.4,39.3z
					 M36.4,48l1.1-1.3l1.1,1.3H36.4z M38.7,49.9v1.9h-2.3v-1.9L38.7,49.9z M37.6,53.7c4.4,0,7.9,3,7.9,6.7c0,3.7-3.5,6.7-7.9,6.7
					s-7.9-3-7.9-6.7C29.7,56.7,33.2,53.7,37.6,53.7L37.6,53.7z M40.9,51.8v-1.9h5.6c0.2,0,0.3,0,0.5-0.1l2.9-1.2v1.8l-2.6,1.5
					L40.9,51.8z M28,49.8c0.2,0.1,0.3,0.1,0.5,0.1h5.6v1.9h-6.4l-2.6-1.5v-1.8L28,49.8z M39.8,72h-4.5c-0.1-1.7-1.7-3-3.4-2.9
					c-0.2,0-0.3,0-0.5,0.1l-0.6,0.3v-2.6c4,3,9.5,3,13.5,0v2.6l-0.6-0.3c-0.2-0.1-0.3-0.1-0.5-0.1C41.5,69,40,70.3,39.8,72z
					 M49.1,74.9h-5.9c-0.6,0-1.1-0.4-1.1-1V72c0-0.5,0.4-0.9,0.9-0.9l2,0.8c0.5,0.2,1.2,0.1,1.5-0.4c0.1-0.1,0.1-0.3,0.1-0.4v-6.6
					c2.2-3.6,1.1-8.1-2.7-10.7h3.8c0.2,0,0.4-0.1,0.6-0.2l2.3-1.3C51.8,54.5,54,61.3,49.1,74.9z M47.5,21.9c1.4-1.1,3.4-1.1,4.8,0
					c0.6,0.5,1,1.3,1,2v5.8c0,1.1-0.4,2.2-1.1,3.1l-1.2-1.5v-7.4c-0.1-0.6-0.7-1-1.3-0.9c-0.5,0.1-0.9,0.5-0.9,0.9v4.5l-2.3-2.9
					l0-1.6C46.6,23.1,46.9,22.4,47.5,21.9z M44.8,26.8l6.2,8v3.6c0,0.1,0,0.1,0,0.2l1.1,5.7c0,0.9-0.6,1.7-1.5,1.9
					c0,0-0.9,0.4-0.9,0.4c0-0.1,0-0.1,0.1-0.2c0.4-1.6-0.5-3.8-4-5c-1.8-0.6-3.5-1.6-4.8-3.1c-1.4-2-4.1-2.4-6.1-1
					c-0.4,0.3-0.7,0.6-1,1c-1.3,1.4-2.9,2.5-4.8,3.1c-3.5,1.2-4.3,3.4-4,5c0,0.1,0,0.1,0.1,0.2c0,0-0.9-0.4-0.9-0.4
					c-0.9-0.1-1.5-0.9-1.5-1.8l1.1-5.8c0-0.1,0-0.1,0-0.2v-3.5l6.3-8L44.8,26.8z"/>
				<ellipse id="Ellipse_255" class="st0" cx="46.6" cy="36.4" rx="2.3" ry="1.9"/>
				<ellipse id="Ellipse_256" class="st0" cx="28.5" cy="36.4" rx="2.3" ry="1.9"/>
				<path id="Path_598" class="st0" d="M40.3,35.3l1.3-1.6c-2.5-1.3-5.5-1.3-8,0l1.3,1.6C36.5,34.4,38.6,34.4,40.3,35.3z"/>
				<path id="Path_599" class="st0" d="M55.6,48.9h4.5v1.9h-4.5V48.9z"/>
				<path id="Path_600" class="st0" d="M55,46.2l3.4-1.9l1.3,1.6l-3.4,1.9L55,46.2z"/>
				<path id="Path_601" class="st0" d="M55,53.6l1.3-1.6l3.4,1.9l-1.3,1.6L55,53.6z"/>
				<ellipse id="Ellipse_257" class="st4" cx="37.5" cy="39.3" rx="2.3" ry="1.9"/>
			</g>
		</g>
	</g>
</g>
</svg>
