<svg xmlns="http://www.w3.org/2000/svg" width="102.596" height="91.667" viewBox="0 0 102.596 91.667">
  <defs>
    <filter id="f1" x="0" y="0">
      <feGaussianBlur in="SourceGraphic" stdDeviation="2" />
    </filter>
    <style>.a {
      fill: #40384b;
    }

    .b {
      fill: #d6d6d6;
    }

    .c {
      clip-path: url(#a);
    }

    .d {
      fill: #fcfcfd;
    }

    .e {
      fill: #ddd;
    }

    .f {
      fill: #fff;
    }

    .g {
      fill: #49c000;
    }

    .h {
      fill: none;
      stroke: #fff;
      stroke-linecap: round;
      stroke-width: 1.5px;
    }</style>
    <clipPath id="a">
      <rect class="a" width="39.664" height="47.801" rx="5" transform="translate(0 0)"/>
    </clipPath>
  </defs>
  <g transform="translate(-1047.458 -288.935)"  filter="url(#f1)">
    <g transform="translate(1047.458 288.935)">
      <g transform="translate(0 0)">
        <rect class="b" width="102.596" height="76.947" rx="10"/>
        <rect class="a" width="27.981" height="5.829" transform="translate(55.961 19.82)"/>
        <rect class="a" width="39.639" height="5.829" transform="translate(9.327 9.327)"/>
        <rect class="a" width="22.151" height="5.829" transform="translate(65.288 30.313)"/>
        <rect class="a" width="6.995" height="5.829" transform="translate(55.961 30.313)"/>
        <rect class="a" width="12.824" height="5.829" transform="translate(55.961 40.805)"/>
        <rect class="a" width="23.317" height="5.829" transform="translate(71.118 40.805)"/>
        <rect class="a" width="23.317" height="5.829" transform="translate(55.961 51.298)"/>
        <rect class="a" width="39.664" height="47.801" rx="5" transform="translate(9.327 18.654)"/>
        <g class="c" transform="translate(9.327 18.654)">
          <g transform="translate(-22.09 3.71)">
            <g transform="translate(0 0)">
              <path class="d"
                    d="M47.162,51.219l-44.7.756A325.71,325.71,0,0,1,.022,6.18,105.319,105.319,0,0,1,12.735,2.193,11.082,11.082,0,0,0,22.751,8.849c5.722.179,10.554-3.7,11.268-8.849,7.475.027,12.874.632,12.874.632L42.478,15.058A271.819,271.819,0,0,0,47.162,51.219Z"
                    transform="translate(18.558 32.085)"/>
              <path class="e"
                    d="M14.553,7.931A55.49,55.49,0,0,1,13.1,0L7.688.478A52.163,52.163,0,0,1,6.229,8.883a.911.911,0,0,1-.73.648c-1.881.321-3.736.715-5.5,1.143A11.083,11.083,0,0,0,10.017,17.33c5.722.179,10.554-3.7,11.268-8.849-1.83-.007-3.785.022-5.815.1A.915.915,0,0,1,14.553,7.931Z"
                    transform="translate(31.293 23.605)"/>
              <path class="e"
                    d="M19.77,5.321a1.565,1.565,0,0,0-.589-.064,35.408,35.408,0,0,0,0-5.257L.268.943C-2.306,21.994,14.388,25.014,18.416,9.9,20.382,10.5,22.291,6.1,19.77,5.321Z"
                    transform="translate(32.533 9.691)"/>
              <path class="f"
                    d="M23.413,2.384a11.481,11.481,0,0,0-9.8-2.007c-2.925.891-5.029,3.842-8.218,4.04C3.949,4.508,2.328,4,1.164,4.86A3.228,3.228,0,0,0,.038,7.151,7.25,7.25,0,0,0,4.1,14.172a9.553,9.553,0,0,0,8.336-.217c2-.991,3.849-2.619,6.078-2.6,1.779.015,3.906,1.646,5.192,3.7a1.639,1.639,0,0,1,.909-.068,8.753,8.753,0,0,0,1.96-4.749A9.007,9.007,0,0,0,23.413,2.384Z"
                    transform="translate(27.557 0)"/>
              <path class="d"
                    d="M29.209,8.06A7.806,7.806,0,0,0,16.4,1.819c-.061.045-.114.1-.17.145-.09.079-.18.159-.266.243A78.034,78.034,0,0,0,0,21.925,115.127,115.127,0,0,1,13.928,29.69q6.537-8.7,13.513-16.923A7.818,7.818,0,0,0,29.209,8.06Z"
                    transform="translate(0 37.744)"/>
              <path class="d"
                    d="M15.351,5.742a7.729,7.729,0,0,0-.606-1.531,7.813,7.813,0,0,0-14.2,6.466,189.165,189.165,0,0,0,5.734,19.5,92.83,92.83,0,0,1,15.106-4.4A132.574,132.574,0,0,0,15.351,5.742Z"
                    transform="translate(57.39 32.715)"/>
            </g>
          </g>
        </g>
      </g>
    </g>
  </g>
</svg>
