<svg xmlns="http://www.w3.org/2000/svg" xmlns:xlink="http://www.w3.org/1999/xlink" width="181" height="181" viewBox="0 0 181 181"><defs><style>.a{fill:#ececec;}.b{fill:#40384b;}.c{clip-path:url(#a);}.d{fill:#d6d6d6;}.e{clip-path:url(#b);}.f{fill:#fcfcfd;}.g{fill:#ddd;}.h{fill:#fff;}.i{fill:#aaa7a7;}.j{fill:#888;}.k{fill:#f5f5f5;}.l{filter:url(#c);}</style><clipPath id="a"><circle class="a" cx="90.5" cy="90.5" r="90.5" transform="translate(-12964 -1021)"/></clipPath><clipPath id="b"><rect class="b" width="48.627" height="58.602" rx="5" transform="translate(0 0)"/></clipPath><filter id="c" x="-14.936" y="30.899" width="113.011" height="114.17" filterUnits="userSpaceOnUse"><feOffset dy="3" input="SourceAlpha"/><feGaussianBlur stdDeviation="3" result="d"/><feFlood flood-opacity="0.161"/><feComposite operator="in" in2="d"/><feComposite in="SourceGraphic"/></filter></defs><g class="c" transform="translate(12964 1021)"><g transform="translate(39.515 -43.004)"><g transform="translate(-12964.766 -934.395)"><g transform="translate(0 0)"><rect class="d" width="125.78" height="94.335" rx="10"/><rect class="b" width="34.304" height="7.147" transform="translate(68.607 24.299)"/><rect class="b" width="48.597" height="7.147" transform="translate(11.435 11.435)"/><rect class="b" width="27.157" height="7.147" transform="translate(80.042 37.162)"/><rect class="b" width="8.576" height="7.147" transform="translate(68.607 37.162)"/><rect class="b" width="15.723" height="7.147" transform="translate(68.607 50.026)"/><rect class="b" width="28.586" height="7.147" transform="translate(87.189 50.026)"/><rect class="b" width="28.586" height="7.147" transform="translate(68.607 62.89)"/><rect class="b" width="48.627" height="58.602" rx="5" transform="translate(11.435 22.869)"/><g class="e" transform="translate(11.435 22.869)"><g transform="translate(-27.082 4.548)"><g transform="translate(0 0)"><path class="f" d="M57.819,62.793l-54.8.927A399.311,399.311,0,0,1,.027,7.577,129.12,129.12,0,0,1,15.612,2.689a13.587,13.587,0,0,0,12.28,8.16C34.908,11.069,40.832,6.307,41.707,0,50.871.033,57.49.775,57.49.775L52.076,18.461C53.264,34.755,55.047,49.8,57.819,62.793Z" transform="translate(22.752 39.336)"/><path class="g" d="M17.841,9.723A68.029,68.029,0,0,1,16.059,0L9.426.586a63.95,63.95,0,0,1-1.789,10.3,1.117,1.117,0,0,1-.895.795c-2.307.393-4.58.877-6.742,1.4a13.587,13.587,0,0,0,12.281,8.16C19.3,21.465,25.219,16.7,26.095,10.4c-2.243-.009-4.64.027-7.129.125A1.121,1.121,0,0,1,17.841,9.723Z" transform="translate(38.364 28.939)"/><path class="g" d="M24.238,6.523a1.918,1.918,0,0,0-.722-.078,43.409,43.409,0,0,0,0-6.445L.329,1.156c-3.156,25.807,17.31,29.51,22.248,10.979C24.988,12.875,27.328,7.473,24.238,6.523Z" transform="translate(39.885 11.881)"/><path class="h" d="M28.7,2.922A14.076,14.076,0,0,0,16.686.462C13.1,1.555,10.521,5.172,6.611,5.415c-1.769.111-3.757-.505-5.184.543A3.958,3.958,0,0,0,.047,8.767,8.889,8.889,0,0,0,5.03,17.375a11.712,11.712,0,0,0,10.219-.266c2.45-1.215,4.719-3.211,7.452-3.189,2.181.019,4.789,2.018,6.365,4.531a2.009,2.009,0,0,1,1.114-.083,10.731,10.731,0,0,0,2.4-5.822A11.042,11.042,0,0,0,28.7,2.922Z" transform="translate(33.784 0)"/><path class="f" d="M35.809,9.881A9.57,9.57,0,0,0,20.1,2.23c-.075.055-.14.117-.208.178-.11.1-.22.2-.326.3A95.668,95.668,0,0,0,0,26.879,141.144,141.144,0,0,1,17.076,36.4Q25.09,25.736,33.643,15.652A9.584,9.584,0,0,0,35.809,9.881Z" transform="translate(0 46.274)"/><path class="f" d="M18.82,7.039a9.476,9.476,0,0,0-.743-1.877A9.578,9.578,0,0,0,.666,13.089,231.911,231.911,0,0,0,7.7,37a113.808,113.808,0,0,1,18.52-5.388A162.532,162.532,0,0,0,18.82,7.039Z" transform="translate(70.359 40.108)"/></g></g></g></g></g><g transform="translate(-13009.451 -941.097)"><g transform="translate(0)"><g class="l" transform="matrix(1, 0, 0, 1, 5.94, -36.9)"><path class="i" d="M7644.677,1647.8s-19.937-10.819-27.327-5.747-28.441,28.55-36.932,39.438-13.11,35.326,3.713,47.212,30.092,7.294,30.092,7.294l45.811-17.534s10.5-4.472,7.066-15.629-8.729-9.783-10.62-10.137-37.145,8.77-37.145,8.77l-.906-38.12s-.529-8.383,4.572-12.184a18.442,18.442,0,0,1,11.2-3.364Z" transform="translate(-7578.72 -1603.8)"/></g><path class="j" d="M7609.905,1665.32s-8.328,12.157-8.14,20.688,9.03,6.829,9.03,6.829Z" transform="translate(-7564.254 -1631.999)"/></g><path class="k" d="M6.051.212,10.035,0a5.213,5.213,0,0,1,5.112,5.4l.844,5.395a5.33,5.33,0,0,1-5.33,5.33H5.33A5.33,5.33,0,0,1,0,10.8L.72,5.542A5.33,5.33,0,0,1,6.051.212Z" transform="matrix(0.358, 0.934, -0.934, 0.358, 87.644, 53.978)"/></g></g></g></svg>