<?xml version="1.0"?>
<svg xmlns="http://www.w3.org/2000/svg" xmlns:xlink="http://www.w3.org/1999/xlink" xmlns:svgjs="http://svgjs.com/svgjs" version="1.1" width="512" height="512" x="0" y="0" viewBox="0 0 512 512" style="enable-background:new 0 0 512 512" xml:space="preserve"><g><g xmlns="http://www.w3.org/2000/svg"><path d="m478 112.219c0-26.911-21.895-48.805-48.806-48.805h-83.874l-10-63.414h-158.64l-9.999 63.414h-83.875c-26.911 0-48.806 21.894-48.806 48.805v41.781h37.815l20 358h328.371l20-358h37.814zm-275.68-82.219h107.36l5.27 33.414h-117.899zm189.494 452h-271.628l-18.324-328h308.277zm56.186-358h-384v-11.781c0-10.369 8.437-18.805 18.806-18.805h346.389c10.369 0 18.806 8.436 18.806 18.805v11.781z" fill="#f50000" data-original="#000000" style=""/><path d="m160.5 200.648h30v234.196h-30z" transform="matrix(.998 -.06 .06 .998 -18.852 11.168)" fill="#f50000" data-original="#000000" style=""/><path d="m219.402 302.747h234.196v30h-234.196z" transform="matrix(.06 -.998 .998 .06 -.976 634.457)" fill="#f50000" data-original="#000000" style=""/><path d="m241 197.304h30v237.021h-30z" fill="#f50000" data-original="#000000" style=""/></g></g></svg>
