<svg xmlns="http://www.w3.org/2000/svg" width="115.427" height="118.802" viewBox="0 0 115.427 118.802">
  <defs>
    <filter id="f1" x="0" y="0">
      <feGaussianBlur in="SourceGraphic" stdDeviation="2" />
    </filter>
    <style>.a {
      fill: #f0f0f0;
    }

    .b {
      fill: #ddd;
    }

    .c {
      fill: #c3c4c6;
    }

    .d {
      fill: #40384b;
    }

    .e {
      fill: #fff;
    }</style>
  </defs>
  <g transform="translate(-9 12)" filter="url(#f1)">
    <g transform="translate(9 -12)">
      <rect class="a" width="115.427" height="118.802" rx="10"/>
      <g transform="translate(26.428 11.201)">
        <path class="b"
              d="M49,0,43.332,3.22H9.351L3.687,0S-5.752,11.272,5.575,41.866H16.9a3.531,3.531,0,0,0,3.776-3.22v-1.61H32v1.61a3.531,3.531,0,0,0,3.776,3.22H47.108C58.435,11.272,49,0,49,0Z"
              transform="translate(3.864 53.131)"/>
        <path class="c"
              d="M15.1,9.684V6.464C15.107,2.9,11.721,0,7.54,0H7.523C3.357.021-.005,2.91,0,6.464v9.661a11.417,11.417,0,0,0,3.776,8.051Z"
              transform="translate(1.888 1.603)"/>
        <path class="c"
              d="M.017,9.662,0,6.441C-.012,2.895,3.348.011,7.506,0h.08c4.161.014,7.527,2.892,7.534,6.441V16.1a11.428,11.428,0,0,1-3.762,8.051Z"
              transform="translate(43.403 1.603)"/>
        <path class="b"
              d="M51,14.492,39.671,0H13.16L1.914,14.492v6.441L.026,30.595A4.644,4.644,0,0,0,3.8,35.426l7.551,3.22H41.559l7.551-3.22a4.644,4.644,0,0,0,3.776-4.831L51,20.933Z"
              transform="translate(3.749 11.265)"/>
        <path class="d"
              d="M32.029,8.051C22.59,4.831,23.487,0,18.814,0S15.039,4.831,5.6,8.051-.064,19.323,7.487,19.323h5.664l5.664-6.441,5.664,6.441h5.664C37.693,19.323,41.469,11.272,32.029,8.051Z"
              transform="translate(11.391 30.588)"/>
        <path class="e" d="M37.757,3.22H7.551L0,0V6.441l5.664,3.22H39.645l5.664-3.22V0Z"
              transform="translate(7.551 46.69)"/>
        <path class="c" d="M0,0H7.551V6.441H0Z" transform="translate(26.43 49.911)"/>
        <ellipse class="c" cx="15.103" cy="12.882" rx="15.103" ry="12.882" transform="translate(15.103 56.352)"/>
        <path class="e"
              d="M8.987,2.648A4.837,4.837,0,0,0,3.13.216a4.824,4.824,0,0,0-1.615.822,4.18,4.18,0,0,0,0,6.441L9,12.31l7.621-4.831a4.18,4.18,0,0,0,0-6.441A5.353,5.353,0,0,0,9.9,1.364,4,4,0,0,0,8.987,2.648Z"
              transform="translate(21.139 63.365)"/>
        <path class="d"
              d="M2.267,10.387l7.482,4.831a2.153,2.153,0,0,0,2.265,0l7.767-4.934a5.629,5.629,0,0,0,0-8.821,7.262,7.262,0,0,0-8.863.093A6.745,6.745,0,0,0,7.707.1,7.25,7.25,0,0,0,2.14,1.463a5.613,5.613,0,0,0,0,8.822l.122.1ZM4.679,3.852a3.056,3.056,0,0,1,1.844-.62,2.886,2.886,0,0,1,.457.037,3.115,3.115,0,0,1,2.2,1.7,1.932,1.932,0,0,0,1.671.915,1.9,1.9,0,0,0,1.7-.866,3.409,3.409,0,0,1,2.39-1.75,3.027,3.027,0,0,1,2.294.586,2.545,2.545,0,0,1,.895,2.026,2.562,2.562,0,0,1-.755,1.932L10.89,11.916,4.672,7.909a2.739,2.739,0,0,1,0-4.061Z"
              transform="translate(19.255 61.745)"/>
        <path class="d"
              d="M16.154,2.394A10.625,10.625,0,0,0,2.806,2.324,7.509,7.509,0,0,0,0,8.068V17.73a12.679,12.679,0,0,0,3.776,8.653v5.681L1.9,41.66a5.908,5.908,0,0,0,3.761,6.048v4.966c-1.7,2.5-8.382,14.832,1.977,42.809a1.881,1.881,0,0,0,1.8,1.126H20.766c3.128,0,5.664-2.163,5.664-4.831h7.551c0,2.668,2.536,4.831,5.664,4.831H50.972a1.88,1.88,0,0,0,1.8-1.127c10.359-27.975,3.676-40.308,1.977-42.807V47.708A5.924,5.924,0,0,0,58.5,41.589l-1.861-9.525V26.372a12.7,12.7,0,0,0,3.776-8.666V8.044C60.395,3.588,56.147-.014,50.922,0a10.334,10.334,0,0,0-6.7,2.394,7.343,7.343,0,0,0-2.711,5.65l.017,1.61H18.879V8.081A7.379,7.379,0,0,0,16.154,2.394ZM3.776,17.73V8.068C3.766,5.4,6.293,3.231,9.421,3.222a6.189,6.189,0,0,1,4.052,1.44A4.415,4.415,0,0,1,15.1,8.068v2.607l-3.776,4.866v-7.5a1.766,1.766,0,0,0-1.888-1.61,1.766,1.766,0,0,0-1.888,1.61V20.406l-2,2.576A9.176,9.176,0,0,1,3.776,17.73ZM22.654,91.777a1.766,1.766,0,0,1-1.888,1.61H10.829C2.679,70.683,6.405,59.2,8.261,55.469l3.906,2.222a2.141,2.141,0,0,0,1.048.271h6.336c-6.281,4.3-8.142,11.772-4.448,17.874V86.946a1.762,1.762,0,0,0,1.877,1.619,2.158,2.158,0,0,0,.854-.17l3.3-1.409a1.7,1.7,0,0,1,1.516,1.57Zm7.551-53.138a5.827,5.827,0,0,0,5.012-2.628,21.641,21.641,0,0,0,7.5,4.124C45.873,41.21,47.5,43,47.062,44.912a5.358,5.358,0,0,1-5.53,3.388h-4.72l-5.1-5.8a2.194,2.194,0,0,0-2.753-.228,1.823,1.823,0,0,0-.268.228l-5.1,5.8h-4.72a5.36,5.36,0,0,1-5.531-3.382c-.432-1.916,1.191-3.7,4.342-4.778a21.641,21.641,0,0,0,7.5-4.124,5.83,5.83,0,0,0,5.014,2.621Zm-1.888-4.831a1.912,1.912,0,1,1,1.888,1.61A1.766,1.766,0,0,1,28.318,33.808Zm0,14.492,1.888-2.146L32.093,48.3Zm3.776,3.221v3.221H28.318V51.521Zm-1.888,6.441c7.3,0,13.215,5.047,13.215,11.272S37.5,80.505,30.206,80.505,16.991,75.459,16.991,69.234,22.911,57.969,30.206,57.962Zm5.664-3.22V51.521h9.439a2.161,2.161,0,0,0,.844-.161l4.82-2.064V52.27L46.63,54.741ZM14.259,51.36a2.161,2.161,0,0,0,.844.161h9.439v3.221H13.781L9.439,52.27V49.3Zm19.722,37.2H26.43c0-2.668-2.536-4.831-5.664-4.831a2.161,2.161,0,0,0-.844.161l-1.044.454V80a19.1,19.1,0,0,0,22.654,0v4.336l-1.044-.446a2.158,2.158,0,0,0-.844-.169C36.517,83.726,33.981,85.889,33.981,88.557Zm15.6,4.831H39.645a1.766,1.766,0,0,1-1.888-1.61V88.557a1.7,1.7,0,0,1,1.51-1.578l3.3,1.409a2.051,2.051,0,0,0,2.535-.713,1.422,1.422,0,0,0,.2-.728V75.836c3.694-6.1,1.833-13.578-4.448-17.874H47.2a2.141,2.141,0,0,0,1.048-.271l3.906-2.221C54.011,59.216,57.727,70.7,49.582,93.387ZM46.907,4.653a6.4,6.4,0,0,1,8.041-.036,4.527,4.527,0,0,1,1.687,3.427v9.662a9.251,9.251,0,0,1-1.79,5.259L52.86,20.427V8.044a1.912,1.912,0,0,0-3.776,0V15.6L45.308,10.77l-.015-2.737A4.379,4.379,0,0,1,46.907,4.653Zm-4.5,8.222L52.86,26.24V32.2a1.419,1.419,0,0,0,.026.266l1.877,9.6A3.076,3.076,0,0,1,52.2,45.181c-.062.021-1.531.644-1.531.644.028-.1.081-.2.106-.3.619-2.737-.8-6.381-6.651-8.373a17.383,17.383,0,0,1-7.976-5.119,7.309,7.309,0,0,0-11.878,0,17.383,17.383,0,0,1-7.976,5.119c-5.852,2-7.27,5.636-6.651,8.373.025.1.077.2.106.3,0,0-1.469-.623-1.531-.644a3.081,3.081,0,0,1-2.577-3.059l1.888-9.661a1.414,1.414,0,0,0,.026-.258V26.267L18.02,12.875Z"
              transform="translate(0 0)"/>
        <ellipse class="d" cx="3.776" cy="3.221" rx="3.776" ry="3.221" transform="translate(41.533 25.757)"/>
        <ellipse class="d" cx="3.776" cy="3.221" rx="3.776" ry="3.221" transform="translate(11.327 25.757)"/>
        <path class="d" d="M11.327,4.35l2.1-2.679A14.318,14.318,0,0,0,0,1.67L2.1,4.35A10.037,10.037,0,0,1,11.327,4.35Z"
              transform="translate(23.494 22.747)"/>
        <path class="d" d="M0,0H7.551V3.221H0Z" transform="translate(60.411 49.911)"/>
        <path class="d" d="M0,3.223,5.664,0l2.1,2.679L2.1,5.9Z" transform="translate(59.376 42.104)"/>
        <path class="d" d="M0,2.679,2.1,0,7.76,3.223,5.664,5.9Z" transform="translate(59.387 55.033)"/>
        <ellipse class="c" cx="3.776" cy="3.221" rx="3.776" ry="3.221" transform="translate(26.43 30.588)"/>
      </g>
    </g>
  </g>
</svg>
