<svg xmlns="http://www.w3.org/2000/svg" xmlns:xlink="http://www.w3.org/1999/xlink" width="181" height="181" viewBox="0 0 181 181"><defs><style>.a{fill:#ececec;}.b{clip-path:url(#a);}.c{fill:#f0f0f0;}.d{fill:#ddd;}.e{fill:#c3c4c6;}.f{fill:#40384b;}.g{fill:#fff;}</style><clipPath id="a"><circle class="a" cx="90.5" cy="90.5" r="90.5" transform="translate(384 262)"/></clipPath></defs><g class="b" transform="translate(-384 -262)"><g transform="translate(306.971 347.697) rotate(-17)"><g transform="translate(9 -12)"><rect class="c" width="205.842" height="211.86" rx="10"/><g transform="translate(47.13 19.975)"><path class="d" d="M87.374,0l-10.1,5.743h-60.6L6.575,0S-10.258,20.1,9.942,74.661h20.2c3.719,0,6.733-2.571,6.733-5.743V66.046h20.2v2.872c0,3.172,3.014,5.743,6.733,5.743h20.2C104.207,20.1,87.374,0,87.374,0Z" transform="translate(6.891 94.749)"/><path class="e" d="M26.933,17.27V11.526C26.94,5.167,20.9.006,13.446,0h-.03C5.987.038-.009,5.19,0,11.526V28.756A20.36,20.36,0,0,0,6.733,43.114Z" transform="translate(3.367 2.859)"/><path class="e" d="M.03,17.23,0,11.486C-.022,5.162,5.97.019,13.385,0h.142c7.42.025,13.423,5.157,13.436,11.486V28.716a20.38,20.38,0,0,1-6.71,14.358Z" transform="translate(77.402 2.859)"/><path class="d" d="M90.946,25.844,70.746,0H23.469L3.414,25.844V37.33L.047,54.56c-.45,3.873,2.368,7.479,6.733,8.615l13.467,5.743H74.113l13.466-5.743c4.365-1.135,7.184-4.741,6.733-8.615L90.946,37.33Z" transform="translate(6.686 20.088)"/><path class="f" d="M57.118,14.358C40.285,8.615,41.884,0,33.552,0S26.819,8.615,9.986,14.358s-10.1,20.1,3.367,20.1h10.1l10.1-11.486,10.1,11.486h10.1C67.218,34.459,73.951,20.1,57.118,14.358Z" transform="translate(20.314 54.547)"/><path class="g" d="M67.332,5.743H13.466L0,0V11.486l10.1,5.743H70.7l10.1-5.743V0Z" transform="translate(13.466 83.263)"/><path class="e" d="M0,0H13.466V11.486H0Z" transform="translate(47.133 89.006)"/><ellipse class="e" cx="26.933" cy="22.973" rx="26.933" ry="22.973" transform="translate(26.933 100.492)"/><path class="g" d="M16.027,4.722C14.547,1.064,9.871-.877,5.582.385A8.6,8.6,0,0,0,2.7,1.851a7.454,7.454,0,0,0,0,11.486l13.342,8.615,13.591-8.615a7.454,7.454,0,0,0,0-11.486,9.546,9.546,0,0,0-11.988.582A7.134,7.134,0,0,0,16.027,4.722Z" transform="translate(37.697 112.999)"/><path class="f" d="M4.042,18.523l13.342,8.615a3.84,3.84,0,0,0,4.04,0l13.85-8.8a10.039,10.039,0,0,0,0-15.73,12.951,12.951,0,0,0-15.806.166,12.029,12.029,0,0,0-5.723-2.6A12.929,12.929,0,0,0,3.816,2.608a10.009,10.009,0,0,0,.007,15.732q.108.092.218.182ZM8.344,6.87a5.45,5.45,0,0,1,3.289-1.106,5.147,5.147,0,0,1,.815.066,5.554,5.554,0,0,1,3.915,3.03,3.445,3.445,0,0,0,2.979,1.631,3.388,3.388,0,0,0,3.03-1.545,6.078,6.078,0,0,1,4.262-3.121,5.4,5.4,0,0,1,4.09,1.045,4.538,4.538,0,0,1,1.6,3.612,4.569,4.569,0,0,1-1.347,3.446L19.421,21.251,8.331,14.1a4.885,4.885,0,0,1,0-7.242Z" transform="translate(34.337 110.111)"/><path class="f" d="M28.808,4.269A18.947,18.947,0,0,0,5,4.145,13.39,13.39,0,0,0,0,14.388V31.618A22.61,22.61,0,0,0,6.733,47.049V57.18L3.394,74.292C2.812,78.722,5.474,83,10.1,85.078v8.856c-3.03,4.457-14.948,26.45,3.525,76.341a3.354,3.354,0,0,0,3.208,2.007h20.2c5.578,0,10.1-3.857,10.1-8.615H60.6c0,4.758,4.522,8.615,10.1,8.615H90.9a3.353,3.353,0,0,0,3.208-2.01c18.473-49.888,6.555-71.881,3.525-76.338V85.078c4.661-2.107,7.319-6.445,6.686-10.912L101,57.18V47.029a22.652,22.652,0,0,0,6.733-15.455V14.345C107.7,6.4,100.126-.024,90.809,0A18.429,18.429,0,0,0,78.87,4.269a13.094,13.094,0,0,0-4.834,10.076l.03,2.872h-40.4V14.411A13.159,13.159,0,0,0,28.808,4.269ZM6.733,31.618V14.388C6.716,9.63,11.223,5.761,16.8,5.746a11.038,11.038,0,0,1,7.226,2.569,7.873,7.873,0,0,1,2.905,6.073v4.649L20.2,27.715V14.345a3.149,3.149,0,0,0-3.367-2.872,3.149,3.149,0,0,0-3.367,2.872V36.39L9.9,40.985A16.363,16.363,0,0,1,6.733,31.618ZM40.4,163.667a3.149,3.149,0,0,1-3.367,2.872H19.311c-14.534-40.489-7.888-60.958-4.579-67.62l6.966,3.963a3.818,3.818,0,0,0,1.868.482h11.3c-11.2,7.661-14.519,20.994-7.932,31.874v19.814a3.142,3.142,0,0,0,3.348,2.887,3.848,3.848,0,0,0,1.523-.3l5.892-2.513a3.032,3.032,0,0,1,2.7,2.8ZM53.866,68.9A10.391,10.391,0,0,0,62.8,64.218a38.592,38.592,0,0,0,13.379,7.354c5.622,1.918,8.518,5.1,7.743,8.52-1.178,3.761-5.306,6.29-9.861,6.042H65.649L56.559,75.8a3.913,3.913,0,0,0-4.909-.407,3.251,3.251,0,0,0-.477.407l-9.09,10.338H33.666c-4.553.251-8.68-2.272-9.864-6.03-.771-3.417,2.124-6.6,7.743-8.52A38.592,38.592,0,0,0,44.924,64.23,10.4,10.4,0,0,0,53.866,68.9ZM50.5,60.29a3.409,3.409,0,1,1,3.367,2.872A3.149,3.149,0,0,1,50.5,60.29Zm0,25.844,3.367-3.828,3.367,3.828Zm6.733,5.743v5.743H50.5V91.877Zm-3.367,11.486c13.015,0,23.566,9,23.566,20.1s-10.551,20.1-23.566,20.1-23.566-9-23.566-20.1S40.857,103.376,53.866,103.364Zm10.1-5.743V91.877H80.8a3.853,3.853,0,0,0,1.5-.287L90.9,87.909v5.3l-7.743,4.408ZM25.428,91.59a3.853,3.853,0,0,0,1.5.287H43.766v5.743H24.576l-7.743-4.408v-5.3ZM60.6,157.924H47.133c0-4.758-4.522-8.615-10.1-8.615a3.852,3.852,0,0,0-1.5.287l-1.862.81v-7.733c11.468,8.849,28.931,8.849,40.4,0v7.733l-1.862-.8a3.849,3.849,0,0,0-1.5-.3C65.121,149.309,60.6,153.166,60.6,157.924Zm27.822,8.615H70.7a3.149,3.149,0,0,1-3.367-2.872v-5.743a3.026,3.026,0,0,1,2.693-2.814l5.892,2.513a3.658,3.658,0,0,0,4.521-1.272,2.537,2.537,0,0,0,.36-1.3V135.238c6.587-10.881,3.269-24.214-7.932-31.874h11.3a3.818,3.818,0,0,0,1.868-.482L93,98.921C96.319,105.6,102.944,126.072,88.421,166.538ZM83.65,8.3a11.414,11.414,0,0,1,14.34-.065A8.074,8.074,0,0,1,101,14.345V31.574a16.5,16.5,0,0,1-3.192,9.379l-3.542-4.526V14.345a3.409,3.409,0,0,0-6.733,0V27.821L80.8,19.207l-.027-4.882A7.81,7.81,0,0,1,83.65,8.3ZM75.631,22.96,94.265,46.794V57.419a2.53,2.53,0,0,0,.047.474L97.659,75c.228,2.549-1.688,4.881-4.575,5.568-.111.037-2.73,1.149-2.73,1.149.05-.184.145-.356.189-.543,1.1-4.882-1.431-11.38-11.861-14.932a31,31,0,0,1-14.224-9.129,13.034,13.034,0,0,0-21.183-.009,31,31,0,0,1-14.224,9.129C18.614,69.8,16.086,76.288,17.19,81.169c.044.187.138.359.189.543,0,0-2.619-1.111-2.73-1.149-2.848-.667-4.763-2.941-4.6-5.456l3.367-17.229a2.522,2.522,0,0,0,.047-.459V46.843L32.134,22.96Z" transform="translate(0 0)"/><ellipse class="f" cx="6.733" cy="5.743" rx="6.733" ry="5.743" transform="translate(74.066 45.932)"/><ellipse class="f" cx="6.733" cy="5.743" rx="6.733" ry="5.743" transform="translate(20.2 45.932)"/><path class="f" d="M20.2,7.757l3.737-4.778A25.533,25.533,0,0,0,0,2.979L3.737,7.757A17.9,17.9,0,0,1,20.2,7.757Z" transform="translate(41.898 40.564)"/><path class="f" d="M0,0H13.466V5.743H0Z" transform="translate(107.732 89.006)"/><path class="f" d="M0,5.747,10.1,0l3.737,4.778-10.1,5.747Z" transform="translate(105.886 75.084)"/><path class="f" d="M0,4.778,3.737,0l10.1,5.747L10.1,10.525Z" transform="translate(105.905 98.141)"/><ellipse class="e" cx="6.733" cy="5.743" rx="6.733" ry="5.743" transform="translate(47.133 54.547)"/></g></g></g></g></svg>