<svg xmlns="http://www.w3.org/2000/svg" xmlns:xlink="http://www.w3.org/1999/xlink" width="181" height="181" viewBox="0 0 181 181"><defs><style>.a{fill:#ececec;}.b{clip-path:url(#a);}.c{fill:#f0f0f0;}.d{fill:#ddd;}.e{fill:#c3c4c6;}.f{fill:#40384b;}.g{fill:#fff;}.h{fill:#aaa7a7;}.i{fill:#888;}.j{fill:#f5f5f5;}.k{filter:url(#b);}</style><clipPath id="a"><circle class="a" cx="90.5" cy="90.5" r="90.5" transform="translate(-12964 -1021)"/></clipPath><filter id="b" x="-14.936" y="27.941" width="113.011" height="114.17" filterUnits="userSpaceOnUse"><feOffset dy="3" input="SourceAlpha"/><feGaussianBlur stdDeviation="3" result="c"/><feFlood flood-opacity="0.161"/><feComposite operator="in" in2="c"/><feComposite in="SourceGraphic"/></filter></defs><g class="b" transform="translate(12964 1021)"><g transform="translate(39.515 -45.962)"><g transform="translate(-12972.584 -922.433)"><g transform="translate(9 -12)"><rect class="c" width="104.537" height="107.593" rx="10"/><g transform="translate(23.935 10.144)"><path class="d" d="M44.373,0,39.244,2.917H8.469L3.339,0s-8.549,10.208,1.71,37.917H15.308A3.2,3.2,0,0,0,18.727,35V33.542H28.985V35A3.2,3.2,0,0,0,32.4,37.917H42.663C52.922,10.208,44.373,0,44.373,0Z" transform="translate(3.5 48.118)"/><path class="e" d="M13.678,8.77V5.854C13.682,2.624,10.615,0,6.829,0H6.813C3.041.019,0,2.636,0,5.854V14.6A10.34,10.34,0,0,0,3.419,21.9Z" transform="translate(1.71 1.452)"/><path class="e" d="M.015,8.75,0,5.833C-.011,2.621,3.032.01,6.8,0H6.87c3.768.013,6.817,2.619,6.824,5.833v8.75a10.35,10.35,0,0,1-3.408,7.292Z" transform="translate(39.309 1.452)"/><path class="d" d="M46.187,13.125,35.928,0H11.919L1.734,13.125v5.833l-1.71,8.75a4.206,4.206,0,0,0,3.419,4.375L10.282,35H37.638l6.839-2.917A4.206,4.206,0,0,0,47.9,27.708l-1.71-8.75Z" transform="translate(3.396 10.202)"/><path class="f" d="M29.007,7.292C20.459,4.375,21.271,0,17.039,0S13.62,4.375,5.071,7.292-.058,17.5,6.781,17.5H11.91l5.129-5.833L22.169,17.5H27.3C34.137,17.5,37.556,10.208,29.007,7.292Z" transform="translate(10.316 27.702)"/><path class="g" d="M34.195,2.917H6.839L0,0V5.833L5.129,8.75H35.9l5.129-2.917V0Z" transform="translate(6.839 42.285)"/><path class="e" d="M0,0H6.839V5.833H0Z" transform="translate(23.936 45.202)"/><ellipse class="e" cx="13.678" cy="11.667" rx="13.678" ry="11.667" transform="translate(13.678 51.035)"/><path class="g" d="M8.14,2.4A4.381,4.381,0,0,0,2.835.2,4.369,4.369,0,0,0,1.372.94a3.786,3.786,0,0,0,0,5.833l6.776,4.375,6.9-4.375a3.786,3.786,0,0,0,0-5.833,4.848,4.848,0,0,0-6.088.3A3.623,3.623,0,0,0,8.14,2.4Z" transform="translate(19.145 57.387)"/><path class="f" d="M2.053,9.407l6.776,4.375a1.95,1.95,0,0,0,2.052,0l7.034-4.468a5.1,5.1,0,0,0,0-7.989,6.577,6.577,0,0,0-8.027.085A6.109,6.109,0,0,0,6.98.09,6.566,6.566,0,0,0,1.938,1.325a5.083,5.083,0,0,0,0,7.99l.111.092ZM4.238,3.489a2.768,2.768,0,0,1,1.67-.561,2.614,2.614,0,0,1,.414.034A2.821,2.821,0,0,1,8.31,4.5a1.75,1.75,0,0,0,1.513.828,1.721,1.721,0,0,0,1.539-.785,3.087,3.087,0,0,1,2.165-1.585,2.741,2.741,0,0,1,2.077.531,2.3,2.3,0,0,1,.81,1.835,2.32,2.32,0,0,1-.684,1.75L9.863,10.792,4.231,7.162a2.481,2.481,0,0,1,0-3.678Z" transform="translate(17.438 55.92)"/><path class="f" d="M14.63,2.168A9.622,9.622,0,0,0,2.541,2.1,6.8,6.8,0,0,0,0,7.307v8.75a11.483,11.483,0,0,0,3.419,7.837v5.145l-1.7,8.69a5.351,5.351,0,0,0,3.406,5.477v4.5c-1.539,2.263-7.591,13.433,1.79,38.77a1.7,1.7,0,0,0,1.629,1.019H18.807c2.833,0,5.129-1.959,5.129-4.375h6.839c0,2.416,2.3,4.375,5.129,4.375H46.163a1.7,1.7,0,0,0,1.629-1.021c9.381-25.336,3.329-36.5,1.79-38.768v-4.5a5.365,5.365,0,0,0,3.4-5.542l-1.686-8.626V23.884a11.5,11.5,0,0,0,3.419-7.849V7.285C54.7,3.249,50.849-.012,46.118,0a9.359,9.359,0,0,0-6.064,2.168A6.65,6.65,0,0,0,37.6,7.285l.015,1.458H17.1V7.319A6.683,6.683,0,0,0,14.63,2.168ZM3.419,16.057V7.307C3.411,4.891,5.7,2.926,8.532,2.918a5.605,5.605,0,0,1,3.67,1.3,4,4,0,0,1,1.475,3.084V9.668l-3.419,4.407V7.285a1.6,1.6,0,0,0-1.71-1.458,1.6,1.6,0,0,0-1.71,1.458v11.2L5.03,20.814A8.31,8.31,0,0,1,3.419,16.057Zm17.1,67.061a1.6,1.6,0,0,1-1.71,1.458h-9C2.426,64.014,5.8,53.619,7.482,50.236l3.537,2.012a1.939,1.939,0,0,0,.949.245h5.738c-5.688,3.89-7.373,10.662-4.028,16.187V78.743a1.6,1.6,0,0,0,1.7,1.466,1.954,1.954,0,0,0,.774-.154l2.992-1.276A1.54,1.54,0,0,1,20.517,80.2Zm6.839-48.125a5.277,5.277,0,0,0,4.539-2.38,19.6,19.6,0,0,0,6.795,3.735c2.855.974,4.326,2.591,3.932,4.327a4.853,4.853,0,0,1-5.008,3.068H33.34l-4.616-5.25a1.987,1.987,0,0,0-2.493-.207,1.651,1.651,0,0,0-.242.207l-4.616,5.25H17.1a4.855,4.855,0,0,1-5.01-3.062c-.392-1.735,1.079-3.354,3.932-4.327a19.6,19.6,0,0,0,6.795-3.735,5.28,5.28,0,0,0,4.541,2.374Zm-1.71-4.375a1.731,1.731,0,1,1,1.71,1.458A1.6,1.6,0,0,1,25.646,30.618Zm0,13.125,1.71-1.944,1.71,1.944Zm3.419,2.917v2.917H25.646V46.66Zm-1.71,5.833c6.61,0,11.968,4.57,11.968,10.208S33.966,72.91,27.356,72.91,15.388,68.34,15.388,62.7,20.749,52.5,27.356,52.493Zm5.129-2.917V46.66h8.549a1.957,1.957,0,0,0,.764-.146l4.365-1.87v2.694l-3.932,2.239ZM12.914,46.514a1.957,1.957,0,0,0,.764.146h8.549v2.917H12.481L8.549,47.338V44.645ZM30.775,80.2H23.936c0-2.416-2.3-4.375-5.129-4.375a1.957,1.957,0,0,0-.764.146l-.945.411V72.456a17.3,17.3,0,0,0,20.517,0v3.927l-.945-.4a1.955,1.955,0,0,0-.764-.153C33.072,75.827,30.775,77.785,30.775,80.2ZM44.9,84.577h-9a1.6,1.6,0,0,1-1.71-1.458V80.2a1.537,1.537,0,0,1,1.368-1.429l2.992,1.276a1.858,1.858,0,0,0,2.3-.646,1.288,1.288,0,0,0,.183-.659V68.681c3.345-5.526,1.66-12.3-4.028-16.187h5.738a1.939,1.939,0,0,0,.949-.245l3.537-2.011C48.916,53.629,52.28,64.026,44.9,84.577ZM42.482,4.214a5.8,5.8,0,0,1,7.283-.033,4.1,4.1,0,0,1,1.528,3.1v8.75A8.379,8.379,0,0,1,49.671,20.8l-1.8-2.3V7.285a1.731,1.731,0,0,0-3.419,0v6.844L41.034,9.754,41.02,7.275A3.966,3.966,0,0,1,42.482,4.214ZM38.409,11.66l9.463,12.1v5.4a1.285,1.285,0,0,0,.024.241l1.7,8.69a2.786,2.786,0,0,1-2.324,2.828c-.056.019-1.387.583-1.387.583.026-.093.073-.181.1-.276.561-2.479-.727-5.779-6.023-7.583a15.743,15.743,0,0,1-7.224-4.636,6.619,6.619,0,0,0-10.758,0,15.743,15.743,0,0,1-7.224,4.636c-5.3,1.808-6.584,5.1-6.023,7.583.022.095.07.182.1.276,0,0-1.33-.564-1.387-.583a2.791,2.791,0,0,1-2.334-2.771l1.71-8.75a1.281,1.281,0,0,0,.024-.233V23.789l9.48-12.129Z" transform="translate(0 0)"/><ellipse class="f" cx="3.419" cy="2.917" rx="3.419" ry="2.917" transform="translate(37.614 23.327)"/><ellipse class="f" cx="3.419" cy="2.917" rx="3.419" ry="2.917" transform="translate(10.258 23.327)"/><path class="f" d="M10.258,3.939l1.9-2.427A12.967,12.967,0,0,0,0,1.513L1.9,3.939A9.09,9.09,0,0,1,10.258,3.939Z" transform="translate(21.278 20.601)"/><path class="f" d="M0,0H6.839V2.917H0Z" transform="translate(54.712 45.202)"/><path class="f" d="M0,2.918,5.13,0l1.9,2.427L1.9,5.345Z" transform="translate(53.774 38.132)"/><path class="f" d="M0,2.427,1.9,0l5.13,2.918L5.13,5.345Z" transform="translate(53.784 49.841)"/><ellipse class="e" cx="3.419" cy="2.917" rx="3.419" ry="2.917" transform="translate(23.936 27.702)"/></g></g></g><g transform="translate(-13009.451 -941.097)"><g transform="translate(0)"><g class="k" transform="matrix(1, 0, 0, 1, 5.94, -33.94)"><path class="h" d="M7644.677,1647.8s-19.937-10.819-27.327-5.747-28.441,28.55-36.932,39.438-13.11,35.326,3.713,47.212,30.092,7.294,30.092,7.294l45.811-17.534s10.5-4.472,7.066-15.629-8.729-9.783-10.62-10.137-37.145,8.77-37.145,8.77l-.906-38.12s-.529-8.383,4.572-12.184a18.442,18.442,0,0,1,11.2-3.364Z" transform="translate(-7578.72 -1606.76)"/></g><path class="i" d="M7609.905,1665.32s-8.328,12.157-8.14,20.688,9.03,6.829,9.03,6.829Z" transform="translate(-7564.254 -1631.999)"/></g><path class="j" d="M6.051.212,10.035,0a5.213,5.213,0,0,1,5.112,5.4l.844,5.395a5.33,5.33,0,0,1-5.33,5.33H5.33A5.33,5.33,0,0,1,0,10.8L.72,5.542A5.33,5.33,0,0,1,6.051.212Z" transform="matrix(0.358, 0.934, -0.934, 0.358, 87.644, 53.978)"/></g></g></g></svg>