<svg xmlns="http://www.w3.org/2000/svg" width="90.001" height="79" viewBox="0 0 90.001 79">
  <defs>
    <style>.a {
      fill: #fff;
    }

    .b {
      clip-path: url(#a);
    }

    .c {
      fill: #ef463f;
    }

    .d {
      fill: #40384b;
      font-size: 8px;
      font-family: Roboto-Regular, Roboto;
    }

    .e {
      fill: none;
      stroke: #fff;
      stroke-linecap: round;
      stroke-width: 1.5px;
    }</style>
    <clipPath id="a">
      <rect class="a" width="90" height="62" rx="8" transform="translate(0 0.322)"/>
    </clipPath>
  </defs>
  <g transform="translate(-895 -298)">
    <g transform="translate(-4 -28)">
      <g transform="translate(898.095 325.446)">
        <rect class="a" width="90" height="62" rx="8" transform="translate(0.906 0.554)"/>
      </g>
      <g transform="translate(933.466 331.769)">
        <path class="c"
              d="M-82.377,2198.289c.006.17.016.349.028.537s.024.393.036.621l.007.119h.635l.006-.119q.018-.341.036-.621c.012-.188.021-.367.027-.537s.011-.335.016-.5.006-.337.006-.521v-3.613H-82.4v3.613c0,.184,0,.357.006.522S-82.383,2198.119-82.377,2198.289Z"
              transform="translate(92.669 -2187.197)"/>
        <path class="c"
              d="M-82.9,2225.227a.7.7,0,0,0,.268-.052.676.676,0,0,0,.221-.146.744.744,0,0,0,.148-.214.659.659,0,0,0,.057-.274.676.676,0,0,0-.056-.271.726.726,0,0,0-.148-.217.722.722,0,0,0-.217-.148.685.685,0,0,0-.545,0,.721.721,0,0,0-.214.147.686.686,0,0,0-.146.221.7.7,0,0,0-.052.267.667.667,0,0,0,.2.488A.668.668,0,0,0-82.9,2225.227Z"
              transform="translate(93.558 -2209.798)"/>
        <path class="c"
              d="M-102.091,2184.945l-9.457-16.381a1.19,1.19,0,0,0-1.041-.6,1.19,1.19,0,0,0-1.041.6l-9.457,16.381a1.188,1.188,0,0,0,0,1.2,1.19,1.19,0,0,0,1.041.6h18.914a1.19,1.19,0,0,0,1.041-.6A1.188,1.188,0,0,0-102.091,2184.945Zm-10.886-16a.442.442,0,0,1,.388-.224.442.442,0,0,1,.388.224l9.457,16.38a.442.442,0,0,1,0,.448.442.442,0,0,1-.388.224h-18.914a.442.442,0,0,1-.388-.224.442.442,0,0,1,0-.448Z"
              transform="translate(123.251 -2167.963)"/>
      </g>
      <text class="d" transform="translate(909 354)">
        <tspan x="8.564" y="7">Document size</tspan>
        <tspan x="6.166" y="17">limit 10 MB max</tspan>
      </text>
    </g>
  </g>
</svg>
