<svg xmlns="http://www.w3.org/2000/svg" xmlns:xlink="http://www.w3.org/1999/xlink" width="181" height="181" viewBox="0 0 181 181"><defs><style>.a{fill:#ececec;}.b{clip-path:url(#a);}.c{fill:#f0f0f0;}.d{fill:#40384b;}.e{fill:none;stroke:#40384b;stroke-linecap:round;}</style><clipPath id="a"><circle class="a" cx="90.5" cy="90.5" r="90.5" transform="translate(384 262)"/></clipPath></defs><g class="b" transform="translate(-384 -262)"><g transform="translate(311.713 338.141) rotate(-17)"><g transform="translate(0)"><rect class="c" width="218.554" height="163.916" rx="10"/><g transform="translate(68.723 62.06)"><rect class="d" width="9.497" height="12.418" transform="translate(0)"/><rect class="d" width="9.497" height="12.418" transform="translate(15.076)"/><rect class="d" width="9.497" height="12.418" transform="translate(30.153)"/><rect class="d" width="9.497" height="12.418" transform="translate(45.229)"/><rect class="d" width="9.497" height="12.418" transform="translate(60.306)"/><rect class="d" width="9.497" height="12.418" transform="translate(75.382)"/></g><g transform="translate(19.877 46.509)"><g transform="translate(149.86 0)"><rect class="d" width="27.487" height="6.043" transform="translate(4.667 8.217)"/><rect class="d" width="27.487" height="6.043" transform="translate(4.667 92.438)"/><rect class="d" width="32.154" height="6.043"/><rect class="d" width="74.25" height="4.532" transform="translate(12.712 16.433) rotate(90)"/><rect class="d" width="74.25" height="4.532" transform="translate(22.047 16.433) rotate(90)"/><rect class="d" width="74.25" height="4.532" transform="translate(31.381 16.433) rotate(90)"/></g><g transform="translate(0 0)"><rect class="d" width="28.172" height="6.043" transform="translate(0 8.217)"/><rect class="d" width="28.172" height="6.043" transform="translate(0 92.438)"/><rect class="d" width="32.669" height="6.043"/><rect class="d" width="74.25" height="4.367" transform="translate(24.287 16.433) rotate(90)"/><rect class="d" width="74.25" height="4.367" transform="translate(14.723 16.433) rotate(90)"/><rect class="d" width="74.25" height="4.367" transform="translate(5.112 16.433) rotate(90)"/></g></g><path class="d" d="M5.129,27.732V6.3H187.143V27.732S136.415,16.875,96.805,16.867,5.129,27.732,5.129,27.732Z" transform="translate(14.749 11.88)"/><path class="e" d="M27.849,84.4S50.692,81.726,55.277,61s-.536-29.078-3.949-25.713S46.7,50.02,47.765,63.543s9.015,14.67,13.185,9.312S71.839,55.529,72.753,61,66.665,74.935,69.864,77.01,98.351,57.94,98.351,57.94" transform="translate(49.667 52.283)"/></g></g></g></svg>