<svg xmlns="http://www.w3.org/2000/svg" xmlns:xlink="http://www.w3.org/1999/xlink" width="181" height="181" viewBox="0 0 181 181"><defs><style>.a{fill:#ececec;}.b{clip-path:url(#a);}.c{fill:#f0f0f0;}.d{fill:#40384b;}.e{fill:#aaa7a7;}.f{fill:#888;}.g{fill:#f5f5f5;}.h{filter:url(#b);}</style><clipPath id="a"><circle class="a" cx="90.5" cy="90.5" r="90.5" transform="translate(-12964 -1021)"/></clipPath><filter id="b" x="-14.936" y="27.941" width="113.011" height="114.17" filterUnits="userSpaceOnUse"><feOffset dy="3" input="SourceAlpha"/><feGaussianBlur stdDeviation="3" result="c"/><feFlood flood-opacity="0.161"/><feComposite operator="in" in2="c"/><feComposite in="SourceGraphic"/></filter></defs><g class="b" transform="translate(12964 1021)"><g transform="translate(39.515 -45.962)"><g transform="translate(-12964.668 -934.039)"><rect class="c" width="164" height="89" rx="7" transform="translate(0.153)"/><rect class="d" width="53" height="10" transform="translate(94.153 13)"/><rect class="d" width="53" height="11" transform="translate(94.153 29)"/><rect class="d" width="53" height="10" transform="translate(94.153 45)"/><rect class="d" width="53" height="10" transform="translate(94.153 62)"/><rect class="d" width="65" height="10" transform="translate(16.153 13)"/><rect class="d" width="65" height="9" transform="translate(16.153 44)"/></g><g transform="translate(-13009.451 -941.097)"><g transform="translate(0)"><g class="h" transform="matrix(1, 0, 0, 1, 5.94, -33.94)"><path class="e" d="M7644.677,1647.8s-19.937-10.819-27.327-5.747-28.441,28.55-36.932,39.438-13.11,35.326,3.713,47.212,30.092,7.294,30.092,7.294l45.811-17.534s10.5-4.472,7.066-15.629-8.729-9.783-10.62-10.137-37.145,8.77-37.145,8.77l-.906-38.12s-.529-8.383,4.572-12.184a18.442,18.442,0,0,1,11.2-3.364Z" transform="translate(-7578.72 -1606.76)"/></g><path class="f" d="M7609.905,1665.32s-8.328,12.157-8.14,20.688,9.03,6.829,9.03,6.829Z" transform="translate(-7564.254 -1631.999)"/></g><path class="g" d="M6.051.212,10.035,0a5.213,5.213,0,0,1,5.112,5.4l.844,5.395a5.33,5.33,0,0,1-5.33,5.33H5.33A5.33,5.33,0,0,1,0,10.8L.72,5.542A5.33,5.33,0,0,1,6.051.212Z" transform="matrix(0.358, 0.934, -0.934, 0.358, 87.644, 53.978)"/></g></g></g></svg>