<svg xmlns="http://www.w3.org/2000/svg" xmlns:xlink="http://www.w3.org/1999/xlink" width="121" height="91" viewBox="0 0 121 91"><defs><style>.a{fill:#fff;stroke:#707070;}.b{clip-path:url(#a);}.c{fill:#f0f0f0;}.d{fill:#40384b;}.e,.g,.i{fill:none;}.e{stroke:#49c000;}.e,.g{stroke-width:1.5px;}.f{fill:#49c000;}.g{stroke:#fff;stroke-linecap:round;}.h{stroke:none;}</style><clipPath id="a"><rect class="a" width="115" height="83" rx="8" transform="translate(498 334)"/></clipPath></defs><g transform="translate(-1008 -530)"><g class="b" transform="translate(510 204)"><g transform="translate(13985 -6222.421)"><rect class="c" width="101" height="54" rx="7" transform="translate(-13480 6569.421)"/><rect class="d" width="32" height="6" transform="translate(-13421 6576.421)"/><rect class="d" width="32" height="6" transform="translate(-13421 6587.421)"/><rect class="d" width="32" height="6" transform="translate(-13421 6596.421)"/><rect class="d" width="32" height="6" transform="translate(-13421 6607.421)"/><rect class="d" width="40" height="6" transform="translate(-13470 6576.421)"/><rect class="d" width="40" height="6" transform="translate(-13470 6595.421)"/></g></g><g class="e" transform="translate(1008 538)"><rect class="h" width="115" height="83" rx="8"/><rect class="i" x="0.75" y="0.75" width="113.5" height="81.5" rx="7.25"/></g><g transform="translate(510 204)"><circle class="f" cx="8.5" cy="8.5" r="8.5" transform="translate(602 326)"/><path class="g" d="M12825.384,327.334l2.417,2.392" transform="translate(-12218.329 8.166)"/><path class="g" d="M0,0,5.222,5.222" transform="translate(614.473 332.67) rotate(90)"/></g></g></svg>