<svg xmlns="http://www.w3.org/2000/svg" xmlns:xlink="http://www.w3.org/1999/xlink" width="121" height="91" viewBox="0 0 121 91"><defs><style>.a{fill:#fff;stroke:#707070;}.b{clip-path:url(#a);}.c{fill:#f0f0f0;}.d{fill:#40384b;}.e,.g,.i{fill:none;}.e{stroke:#eff0f0;}.e,.g{stroke-width:1.5px;}.f{fill:#ef463f;}.g{stroke:#fff;stroke-linecap:round;}.h{stroke:none;}</style><clipPath id="a"><rect class="a" width="115" height="83" rx="8" transform="translate(498 334)"/></clipPath></defs><g transform="translate(-469 -530)"><g class="b" transform="translate(-29 204)"><g transform="matrix(0.921, -0.391, 0.391, 0.921, 10280.4, -10928.787)"><rect class="c" width="187" height="100" rx="7" transform="translate(-13480 6569.482)"/><rect class="d" width="59" height="11" transform="translate(-13372 6583.482)"/><rect class="d" width="59" height="11" transform="translate(-13372 6602.482)"/><rect class="d" width="59" height="11" transform="translate(-13372 6620.482)"/><rect class="d" width="59" height="11" transform="translate(-13372 6639.482)"/><rect class="d" width="75" height="11" transform="translate(-13462 6583.482)"/><rect class="d" width="75" height="11" transform="translate(-13462 6618.482)"/></g></g><g class="e" transform="translate(469 538)"><rect class="h" width="115" height="83" rx="8"/><rect class="i" x="0.75" y="0.75" width="113.5" height="81.5" rx="7.25"/></g><g transform="translate(-29 204)"><circle class="f" cx="8.5" cy="8.5" r="8.5" transform="translate(602 326)"/><g transform="translate(-1.133 -1.133)"><path class="g" d="M12825.384,327.334l5.221,5.222" transform="translate(-12216 5.469)"/><path class="g" d="M0,0,5.222,5.222" transform="translate(614.606 332.803) rotate(90)"/></g></g></g></svg>