<svg xmlns="http://www.w3.org/2000/svg" width="23.588" height="30.259" viewBox="0 0 23.588 30.259"><defs><style>.a{fill:#fff;}</style></defs><g transform="translate(-61.978 -448.585)"><path class="a" d="M70.893,459.16c-2.57,0-4.66-2.371-4.66-5.287s2.09-5.288,4.66-5.288,4.657,2.373,4.657,5.288-2.089,5.287-4.657,5.287Zm0-9.491c-1.972,0-3.576,1.885-3.576,4.2s1.6,4.2,3.576,4.2,3.573-1.886,3.573-4.2-1.6-4.2-3.573-4.2Z"/><path class="a" d="M78.838,478.844a6.727,6.727,0,1,1,6.728-6.727,6.734,6.734,0,0,1-6.728,6.727Zm0-12.371a5.644,5.644,0,1,0,5.644,5.644,5.65,5.65,0,0,0-5.644-5.644Z"/><path class="a" d="M72.657,472.579H62.875a.543.543,0,0,1-.541-.505l-.349-5.114a4.555,4.555,0,0,1,2.839-4.195,17.776,17.776,0,0,1,11.95,0,4.609,4.609,0,0,1,2.7,3.025l-1.043.3a3.553,3.553,0,0,0-2.029-2.3,16.686,16.686,0,0,0-11.211,0,3.485,3.485,0,0,0-2.127,3.1l.314,4.608h9.276v1.084Z"/><path class="a" d="M78.838,475.653a.542.542,0,0,1-.542-.541v-5.99a.542.542,0,1,1,1.084,0v5.99a.541.541,0,0,1-.542.541Z"/><path class="a" d="M81.833,472.658h-5.99a.541.541,0,1,1,0-1.083h5.99a.541.541,0,1,1,0,1.083Z"/></g></svg>