<svg xmlns="http://www.w3.org/2000/svg" viewBox="0 0 87.83 87.84"><defs><style>.cls-1{fill:#ef463f;}</style></defs><title>alert-dialog</title><g id="Capa_2" data-name="Capa 2"><g id="Layer_1" data-name="Layer 1"><path class="cls-1" d="M43.92,87.84A43.92,43.92,0,1,1,87.83,43.92,44,44,0,0,1,43.92,87.84ZM43.92,2a42,42,0,1,0,42,42,42,42,0,0,0-42-42Z"/><path class="cls-1" d="M40.37,62.85a2.8,2.8,0,0,1,.21-1.07,2.65,2.65,0,0,1,.58-.88,3,3,0,0,1,.86-.59,2.59,2.59,0,0,1,1.09-.23,2.65,2.65,0,0,1,1.08.23,2.91,2.91,0,0,1,.87.59,2.86,2.86,0,0,1,.6.88,2.63,2.63,0,0,1,.22,1.07,2.56,2.56,0,0,1-.22,1.09,2.94,2.94,0,0,1-.6.87,2.71,2.71,0,0,1-.87.58,2.81,2.81,0,0,1-1.08.21,2.69,2.69,0,0,1-2-.79A2.65,2.65,0,0,1,40.37,62.85ZM44.6,23V40c0,.89,0,1.74,0,2.53s0,1.61-.07,2.43-.08,1.69-.14,2.61-.12,1.92-.17,3H42.25c-.06-1.12-.12-2.13-.18-3S42,45.82,41.93,45s0-1.63-.07-2.43,0-1.64,0-2.53V23Z"/></g></g></svg>