<?xml version="1.0" encoding="utf-8"?>
<!-- Generator: Adobe Illustrator 22.0.1, SVG Export Plug-In . SVG Version: 6.00 Build 0)  -->
<svg version="1.1" id="Capa_1" xmlns="http://www.w3.org/2000/svg" xmlns:xlink="http://www.w3.org/1999/xlink" x="0px" y="0px"
	 viewBox="0 0 39.6 39.6" style="enable-background:new 0 0 39.6 39.6;" xml:space="preserve">
<style type="text/css">
	.st0{fill:#383342;}
</style>
<g>
	<g>
		<g>
			<path class="st0" d="M19.8,39.6C8.9,39.6,0,30.7,0,19.8C0,8.9,8.9,0,19.8,0c10.9,0,19.8,8.9,19.8,19.8
				C39.6,30.7,30.7,39.6,19.8,39.6L19.8,39.6z M19.8,0.9C9.4,0.9,0.9,9.4,0.9,19.8c0,10.4,8.5,18.9,18.9,18.9s18.9-8.5,18.9-18.9
				C38.7,9.4,30.2,0.9,19.8,0.9L19.8,0.9z"/>
		</g>
	</g>
	<g>
		<g>
			<path class="st0" d="M28.9,18.2c-0.2,0-0.3,0-0.5-0.2l-8.1-5.9l-8.1,5.9c-0.4,0.3-0.9,0.2-1.1-0.2c-0.3-0.4-0.2-0.9,0.2-1.1
				l8.6-6.2c0.3-0.2,0.7-0.2,0.9,0l8.6,6.2c0.4,0.3,0.4,0.8,0.2,1.1C29.4,18.1,29.2,18.2,28.9,18.2L28.9,18.2z"/>
		</g>
		<g>
			<path class="st0" d="M20.4,29.2c-0.4,0-0.8-0.4-0.8-0.8V11.2c0-0.4,0.4-0.8,0.8-0.8c0.4,0,0.8,0.4,0.8,0.8v17.1
				C21.2,28.8,20.8,29.2,20.4,29.2L20.4,29.2z"/>
		</g>
	</g>
</g>
</svg>
