<svg xmlns="http://www.w3.org/2000/svg" xmlns:xlink="http://www.w3.org/1999/xlink" width="182.604" height="182.3" viewBox="0 0 182.604 182.3"><defs><style>.a{fill:none;}.b{fill:#fff;}.c{clip-path:url(#a);}.d{fill:#ebebeb;}.e{clip-path:url(#b);}.f{fill:#fefefe;}.g{fill:#fdfdfd;}.h{fill:#fcfcfc;}.i{fill:#fcfcfb;}.j{fill:#fbfbfb;}.k{fill:#fafafa;}.l{fill:#fafaf9;}.m{fill:#f9f9f9;}.n{fill:#f8f8f8;}.o{fill:#f7f7f7;}.p{fill:#f6f6f6;}.q{fill:#f6f6f5;}.r{fill:#f5f5f5;}.s{fill:#f4f4f4;}.t{fill:#f3f3f3;}.u{fill:#f2f2f2;}.v{fill:#f2f2f1;}.w{fill:#f1f1f0;}.x{fill:#f0f0ef;}.y{fill:#efefef;}.z{fill:#eee;}.aa{fill:#ededec;}.ab{fill:#ececeb;}.ac{fill:#ebebea;}.ad{fill:#e9e9e9;}.ae{fill:#e8e8e8;}.af{fill:#e7e7e7;}.ag{fill:#e6e6e6;}.ah{fill:#e5e5e4;}.ai{fill:#e3e3e3;}.aj{fill:#e2e2e2;}.ak{fill:#e1e1e0;}.al{fill:#e0e0df;}.am{fill:#dedede;}.an{fill:#dddddc;}.ao{fill:#dbdbdb;}.ap{fill:#dadad9;}.aq{fill:#d8d8d8;}.ar{fill:#d7d7d6;}.as{fill:#d5d5d5;}.at{fill:#d4d4d3;}.au{fill:#d2d2d1;}.av{fill:#d0d0d0;}.aw{fill:#cfcfce;}.ax{fill:#cdcdcc;}.ay{fill:#cbcbca;}.az{fill:#c9c9c9;}.ba{fill:#c8c8c7;}.bb{fill:#a8a8a8;}.bc{fill:#babab9;}</style><clipPath id="a"><rect class="a" width="182.604" height="182.3" rx="21.152"/></clipPath><clipPath id="b"><path class="a" d="M-625.313,280.87s.247,21.739,3.14,23.865,14.14,7.9,14.14,7.9l1.607-.608s-.964-.609,1.607,1.823,10.284,3.645,10.284,3.645l14.462,7.292s9,4.558,9,6.381v1.824h-158.76l14.783-11.85,11.248-2.431s3.856-4.253,5.785-3.645l1.928.608,13.819-8.743a14.511,14.511,0,0,0,3.535-10.1c-.321-6.077-.321-15.966-.321-15.966Z" transform="translate(729.835 -280.87)"/></clipPath></defs><g transform="translate(742.561 -149.543)"><rect class="b" width="182.604" height="182.3" rx="21.152" transform="translate(-742.561 149.543)"/><g transform="translate(-742.561 149.543)"><g class="c"><g transform="translate(9.147 27.449)"><g transform="translate(3.284 100.832)"><path class="d" d="M-625.313,280.87s.247,21.739,3.14,23.865,14.14,7.293,14.14,7.293l-1.286,1.519s.321-3.95,2.892-1.519,11.891,5.468,11.891,5.468l14.462,7.292s9,4.558,9,6.381v1.824h-158.76l14.783-11.85,11.248-2.431s3.856-4.253,5.785-3.645l1.928.608,13.819-8.743a14.511,14.511,0,0,0,3.535-10.1c-.321-6.077-.321-15.966-.321-15.966Z" transform="translate(729.835 -280.87)"/></g><g transform="translate(3.284 100.832)"><g class="e"><rect class="b" width="158.761" height="0.849" transform="translate(0 51.273)"/><rect class="b" width="158.761" height="0.899" transform="translate(0 50.374)"/><rect class="b" width="158.761" height="0.899" transform="translate(0 49.475)"/><rect class="f" width="158.761" height="0.899" transform="translate(0 48.576)"/><rect class="f" width="158.761" height="0.899" transform="translate(0 47.677)"/><rect class="f" width="158.761" height="0.899" transform="translate(0 46.778)"/><rect class="f" width="158.761" height="0.899" transform="translate(0 45.879)"/><rect class="g" width="158.761" height="0.899" transform="translate(0 44.98)"/><rect class="g" width="158.761" height="0.899" transform="translate(0 44.081)"/><rect class="g" width="158.761" height="0.899" transform="translate(0 43.182)"/><rect class="h" width="158.761" height="0.899" transform="translate(0 42.284)"/><rect class="h" width="158.761" height="0.899" transform="translate(0 41.385)"/><rect class="i" width="158.761" height="0.899" transform="translate(0 40.486)"/><rect class="j" width="158.761" height="0.899" transform="translate(0 39.587)"/><rect class="j" width="158.761" height="0.899" transform="translate(0 38.688)"/><rect class="k" width="158.761" height="0.899" transform="translate(0 37.789)"/><rect class="l" width="158.761" height="0.899" transform="translate(0 36.89)"/><rect class="m" width="158.761" height="0.899" transform="translate(0 35.991)"/><rect class="n" width="158.761" height="0.899" transform="translate(0 35.092)"/><rect class="n" width="158.761" height="0.899" transform="translate(0 34.193)"/><rect class="o" width="158.761" height="0.899" transform="translate(0 33.294)"/><rect class="p" width="158.761" height="0.899" transform="translate(0 32.395)"/><rect class="q" width="158.761" height="0.899" transform="translate(0 31.496)"/><rect class="r" width="158.761" height="0.899" transform="translate(0 30.597)"/><rect class="s" width="158.761" height="0.899" transform="translate(0 29.698)"/><rect class="t" width="158.761" height="0.899" transform="translate(0 28.799)"/><rect class="u" width="158.761" height="0.899" transform="translate(0 27.9)"/><rect class="v" width="158.761" height="0.899" transform="translate(0 27.001)"/><rect class="w" width="158.761" height="0.899" transform="translate(0 26.102)"/><rect class="x" width="158.761" height="0.899" transform="translate(0 25.203)"/><rect class="y" width="158.761" height="0.899" transform="translate(0 24.304)"/><rect class="z" width="158.761" height="0.899" transform="translate(0 23.405)"/><rect class="aa" width="158.761" height="0.899" transform="translate(0 22.506)"/><rect class="ab" width="158.761" height="0.899" transform="translate(0 21.607)"/><rect class="ac" width="158.761" height="0.899" transform="translate(0 20.708)"/><rect class="ad" width="158.761" height="0.899" transform="translate(0 19.809)"/><rect class="ae" width="158.761" height="0.899" transform="translate(0 18.91)"/><rect class="af" width="158.761" height="0.899" transform="translate(0 18.011)"/><rect class="ag" width="158.761" height="0.899" transform="translate(0 17.112)"/><rect class="ah" width="158.761" height="0.899" transform="translate(0 16.213)"/><rect class="ai" width="158.761" height="0.899" transform="translate(0 15.314)"/><rect class="aj" width="158.761" height="0.899" transform="translate(0 14.415)"/><rect class="ak" width="158.761" height="0.899" transform="translate(0 13.516)"/><rect class="al" width="158.761" height="0.899" transform="translate(0 12.617)"/><rect class="am" width="158.761" height="0.899" transform="translate(0 11.718)"/><rect class="an" width="158.761" height="0.899" transform="translate(0 10.819)"/><rect class="ao" width="158.761" height="0.899" transform="translate(0 9.92)"/><rect class="ap" width="158.761" height="0.899" transform="translate(0 9.021)"/><rect class="aq" width="158.761" height="0.899" transform="translate(0 8.122)"/><rect class="ar" width="158.761" height="0.899" transform="translate(0 7.223)"/><rect class="as" width="158.761" height="0.899" transform="translate(0 6.324)"/><rect class="at" width="158.761" height="0.899" transform="translate(0 5.425)"/><rect class="au" width="158.761" height="0.899" transform="translate(0 4.526)"/><rect class="av" width="158.761" height="0.899" transform="translate(0 3.627)"/><rect class="aw" width="158.761" height="0.899" transform="translate(0 2.728)"/><rect class="ax" width="158.761" height="0.899" transform="translate(0 1.829)"/><rect class="ay" width="158.761" height="0.899" transform="translate(0 0.93)"/><rect class="az" width="158.761" height="0.899" transform="translate(0 0.031)"/><rect class="ba" width="158.761" height="0.031" transform="translate(0)"/></g></g><g transform="translate(39.745)"><path class="bb" d="M-685.584,248.868s-5.142-13.369-6.427-15.5.964-9.418,0-10.937-1.286-23.7,6.427-30.384,12.213-8.507,12.213-8.507.321-2.735,7.392-2.735,1.029-4.557,12.566-2.734,13.787,1.823,13.787,1.823l2.571-.3s9.32,3.646,8.677,7.6,9.321,0,9.321,0v2.735s8.356.3,8.356,21.268c0,20.184-1.561,27.4-3.857,28.56s-4.82,5.469-4.82,5.469-.643-36.753-10.928-36.46-17.821,5.491-42.742,0C-678.514,207.558-688.477,241.575-685.584,248.868Z" transform="translate(692.508 -177.644)"/></g><g transform="translate(37.594 28.091)"><path class="s" d="M-685.957,262.9a35.354,35.354,0,0,0,16.391,28.56c16.711,10.634,29.888,1.823,29.888,1.823s17.676-13.065,18-20.053,2.892-10.33,2.892-10.33a4.569,4.569,0,0,0,3.214-1.52c1.285-1.519,1.607-11.241,2.571-13.976s1.607-7.292-1.607-6.988-4.821,5.469-4.821,5.469.643-8.507-1.286-13.976,1.607-17.623-6.107-22.18-17.534-3.039-22.265-1.52-14.693.608-20.8-1.519-11.249,7.9-12.213,12.457-4.179,23.091-3.856,26.737l.321,3.646s-2.25-9.723-4.178-10.331-5.463-.608-4.82,6.684,1.423,1.646,4.178,15.191C-688.849,268.98-685.957,262.9-685.957,262.9Z" transform="translate(694.711 -206.402)"/></g><g transform="translate(0 126.006)"><path class="bc" d="M-682.35,307.225a37.371,37.371,0,0,0,29.365,14.212c27.2,0,33.029-12.883,33.029-12.883l1.148-1.913s6.2,2.035,9.09,3.25,8.132,4.384,15.1,7.9,26.354,11.242,25.711,17.623l-164.225.186c-1.286,2.127,15.713-14.891,19.873-14.567,3.095.239,5.893-1.219,8.408-3.545S-688.469,308.974-682.35,307.225Z" transform="translate(733.197 -306.641)"/></g></g></g></g></g></svg>