<?xml version="1.0" encoding="utf-8"?>
<!-- Generator: Adobe Illustrator 22.0.1, SVG Export Plug-In . SVG Version: 6.00 Build 0)  -->
<svg version="1.1" id="Capa_1" xmlns="http://www.w3.org/2000/svg" xmlns:xlink="http://www.w3.org/1999/xlink" x="0px" y="0px"
	 viewBox="0 0 1287.4 538.5" style="enable-background:new 0 0 1287.4 538.5;" xml:space="preserve">
<style type="text/css">
	.st0{opacity:0.38;}
	.st1{clip-path:url(#SVGID_2_);}
	.st2{fill:none;stroke:#9788AB;stroke-miterlimit:10;}
	.st3{fill:#FFFFFF;stroke:#383342;stroke-width:2;stroke-miterlimit:10;}
</style>
<g>
	<g class="st0">
		<defs>
			<rect id="SVGID_1_" class="st0" width="1287.4" height="538.5"/>
		</defs>
		<clipPath id="SVGID_2_">
			<use xlink:href="#SVGID_1_"  style="overflow:visible;"/>
		</clipPath>
		<g class="st1">
			<path class="st2" d="M28,38.5c4.8,3.7,8.7,8,11.7,13.3c3.5,6.2,13.3,0.7,9.7-5.6c-3.7-6.5-8.7-11.9-14.8-16.2
				C29.8,26.4,23.1,34.7,28,38.5z"/>
			<path class="st2" d="M22.8,93.8c8.7,7.3,17,15,24.9,23.1c5,5.1,13.1-2.7,8-7.9c-7.9-8.1-16.3-15.7-25.1-22.9
				C25.3,81.7,17.3,89.2,22.8,93.8z"/>
			<path class="st2" d="M11.2,186.5c3.2-12.3,5.2-24.8,6.1-37.5c0.5-7-10.5-7-11.1,0c-1,11.7-3,23.2-6,34.5
				C-1.6,190.5,9.3,193.4,11.2,186.5z"/>
			<path class="st2" d="M73.2,151.5c-7.8,1.3-15.6,1.5-23.5,1c-7.4-0.5-7.3,10.7,0,11.3c8.9,0.7,17.7,0.2,26.5-1.2
				C83.6,161.3,80.4,150.3,73.2,151.5z"/>
			<path class="st2" d="M106.7,71c-2.9,3.2-6.3,4.9-10.4,5.8c-2.9,0.6-4.7,3.9-3.9,6.7c0.9,3.2,3.9,4.2,6.8,3.8
				c5.9-0.8,11.5-4.1,15.4-8.5C119.5,73.5,111.5,65.7,106.7,71z"/>
			<path class="st2" d="M92.7,15.1c-4.2,3.9-7.8,8.3-10.8,13.2c-3.7,6.1,5.9,11.5,9.6,5.5c2.5-4.1,5.6-7.6,9.2-10.8
				c2.3-2,2.1-5.8,0-7.9C98.5,12.9,95,13,92.7,15.1z"/>
			<path class="st2" d="M197.9,21.2c-6.8,3.9-13,8.9-18.2,14.8c-4.8,5.5,3.3,13.4,8.1,7.9c4.6-5.3,9.7-9.7,15.8-13.3
				C209.7,27,204,17.6,197.9,21.2z"/>
			<path class="st2" d="M159.6,78.1c-5-5.3-13.1,2.6-8.1,7.9c5.3,5.7,10.7,11.3,16,17c5,5.3,13.2-2.6,8.1-8
				C170.4,89.4,165,83.8,159.6,78.1z"/>
			<path class="st2" d="M127.6,124.1c-6.4-2.8-12.3,6.4-5.7,9.5c7.3,3.4,14.6,6.8,21.9,10.1c6.6,3,12.5-6.8,5.8-9.8
				C142.3,130.7,135,127.4,127.6,124.1z"/>
			<path class="st2" d="M230.5,71.6c-3.5,10.9-6.8,22-10.1,33c-2.1,6.9,8.8,9.8,10.9,3c3.4-11,6.8-22,10-33
				C243.2,67.6,232.6,64.9,230.5,71.6z"/>
			<path class="st2" d="M201.4,161.8c2.7-1.6,3.4-4.9,2-7.6c-1.7-3.3-3.4-6.6-5.2-9.9c-1.4-2.6-5.1-3.4-7.6-1.9
				c-2.7,1.6-3.3,4.8-2,7.4c1.7,3.3,3.3,6.7,5,10C195.1,162.6,198.9,163.3,201.4,161.8z"/>
			<path class="st2" d="M142.7,190.1c-3.3-3.7-6.7-7.3-10.1-10.9c-2.1-2.1-5.8-2-7.8,0c-2.3,2.2-1.9,5.4,0,7.7
				c3.2,3.8,6.6,7.4,9.9,11.1c2,2.3,5.9,2,8,0C145,195.7,144.8,192.3,142.7,190.1z"/>
			<path class="st2" d="M271.1,134c5.7-1.7,11.4-3.7,17.1-5.6c6.9-2.3,3.9-13.1-3-10.8c-5.7,2-11.4,3.8-17,6
				C261.6,126,264.2,136.1,271.1,134z"/>
			<path class="st2" d="M293.8,23.2c-4.3,2-8.6,4-12.9,6.1c-2.6,1.3-3.4,5-2,7.4c1.6,2.8,4.9,3.1,7.6,1.9c4.4-1.9,8.7-4,13-6
				c2.7-1.3,3.5-5.1,2-7.6C299.9,22.4,296.6,21.9,293.8,23.2z"/>
			<path class="st2" d="M388,31.3c-3.8,6.6-8.4,12-14.4,16.7c-2.4,1.9-2,6,0,7.9c2.4,2.3,5.7,1.9,8.1,0c6.5-5.2,12.1-11.7,16-19.1
				C401.1,30.5,391.6,25.1,388,31.3z"/>
			<path class="st2" d="M374.1,104.3c5,2.2,9.5,5.1,13.5,8.8c5.3,4.9,13.6-3.1,8.1-7.9c-4.8-4.2-10.1-7.7-16-10.2
				c-2.7-1.1-5.9-0.8-7.5,1.9C370.7,99.3,371.4,103.1,374.1,104.3z"/>
			<path class="st2" d="M348.9,128.3c-3.5,5.6-6.8,11.3-10.1,16.9c-3.7,6.3,6.1,11.8,9.8,5.6c3.3-5.7,6.7-11.3,9.9-17.1
				C361.9,127.5,352.6,122.4,348.9,128.3z"/>
			<path class="st2" d="M395.8,150.1c-1.7,2.8-0.5,6,2.1,7.7c3.6,2.4,7.3,4.8,10.9,7.2c2.6,1.7,6.4,0.5,7.9-2
				c1.7-2.8,0.5-6.1-2.1-7.8l-10.9-7.1C401.1,146.4,397.3,147.5,395.8,150.1z"/>
			<path class="st2" d="M429.6,63.3c-1.5-2.6-5.1-3.5-7.6-2c-3.4,2-6.7,3.9-10,6c-2.5,1.5-3.5,4.8-2,7.4c1.5,2.6,5,3.4,7.6,1.9
				c3.4-1.9,6.7-3.9,10.1-5.9C430.1,69.3,431.1,65.9,429.6,63.3z"/>
			<path class="st2" d="M483,69.3c-3.8,6.6-7.4,13.3-11.1,19.9c-3.5,6.3,6.3,11.9,9.8,5.6c3.7-6.7,7.3-13.3,10.9-20
				C496,68.5,486.5,63.2,483,69.3z"/>
			<path class="st2" d="M460.5,16.2c-2-2.3-5.9-2-7.9,0c-2.3,2.3-1.9,5.5,0,7.8c3.7,4.3,7.3,8.7,11,13c2,2.3,6,2,8,0
				c2.3-2.3,2-5.6,0-7.9C467.9,24.8,464.3,20.5,460.5,16.2z"/>
			<path class="st2" d="M471.6,138.1c-4.1-2.8-7.7-6.3-10.8-10.1c-2-2.4-6.1-2-8.1,0c-2.4,2.3-2,5.6,0,8c3.8,4.6,8.2,8.5,13.2,11.9
				c2.5,1.7,6.4,0.5,7.8-2C475.3,143,474.1,139.9,471.6,138.1z"/>
			<path class="st2" d="M511.7,112.9c6.5,5.4,14.1,9,22.4,10.6c7.3,1.3,10.4-9.7,3.1-11c-7-1.2-13-4-18.7-8.3
				C513.6,100.5,506.8,108.9,511.7,112.9z"/>
			<path class="st2" d="M286.7,180.1c-3.4-3.2-6-6.7-8.2-10.8c-3.3-6.2-12.9-0.8-9.6,5.5c2.5,4.9,5.9,9.3,9.8,13.2
				C283.9,192.9,292,185.1,286.7,180.1z"/>
			<path class="st2" d="M351.2,187.5c-1.7,5.7-3.4,11.3-5.1,17c-2.1,7.2,9.2,10.2,11.3,3.1c1.7-5.7,3.4-11.3,5-17
				C364.6,183.4,353.4,180.4,351.2,187.5z"/>
			<path class="st2" d="M473.9,207.9c5.6-8.3,11.2-16.6,16.8-24.9c4.1-6.1-5.8-11.8-9.9-5.8c-5.6,8.3-11.3,16.6-16.9,24.9
				C459.7,208.2,469.8,214,473.9,207.9z"/>
			<path class="st2" d="M331.6,624.1c9.4-3.5,18.8-7.1,28.1-10.6c6.8-2.6,2.1-13-4.7-10.5c-9.4,3.5-18.8,7-28.2,10.5
				C319.9,616.1,324.7,626.7,331.6,624.1z"/>
			<path class="st2" d="M553.6,162.1c-1.5-2.8-4.4-4.4-7.5-3.2c-2.7,1-4.6,4.7-3.2,7.4c3.8,7.3,8.1,14.2,13.1,20.7
				c4.6,5.9,14-0.9,9.4-6.8C560.9,174.5,556.9,168.5,553.6,162.1z"/>
			<path class="st2" d="M543.6,46.9c-4.7,4.7-9.4,9.3-14,14c-5.2,5.2,2.9,13.1,8.1,8c4.7-4.6,9.4-9.2,14.1-13.9
				C557.1,49.8,548.8,41.7,543.6,46.9z"/>
			<path class="st2" d="M327.6,82.2c-8.3-4.4-16.4-9.3-23.9-15.1c-5.5-4.3-13.6,3.3-7.9,7.8c8.2,6.5,16.8,12.2,26,17
				C328.3,95.2,334.1,85.6,327.6,82.2z"/>
			<path class="st2" d="M478.6,734.1c8.8-10.9,18.5-20.8,29-30c5.7-5-2.7-13-8.3-8.2c-10.9,9.4-20.7,20.1-29.6,31.5
				C465.9,732.4,474.7,739,478.6,734.1z"/>
			<path class="st2" d="M34.7,293c-4.9-3.6-11.7,4.7-6.7,8.5c4.8,3.7,8.7,8,11.7,13.3c3.5,6.2,13.3,0.7,9.7-5.6
				C45.8,302.8,40.8,297.4,34.7,293z"/>
			<path class="st2" d="M22.8,356.9c8.7,7.3,17,15,24.9,23.1c5,5.1,13.1-2.7,8-7.9c-7.9-8.1-16.3-15.7-25.1-22.9
				C25.3,344.8,17.3,352.3,22.8,356.9z"/>
			<path class="st2" d="M12.7,434.5c3.2-12.3,5.2-24.8,6.1-37.5c0.5-7-10.5-7-11.1,0c-1,11.7-3,23.2-6,34.5
				C-0.1,438.6,10.8,441.5,12.7,434.5z"/>
			<path class="st2" d="M76.2,425.5c7.3-1.2,4.2-12.2-3.1-11c-7.8,1.3-15.6,1.5-23.5,1c-7.4-0.5-7.3,10.7,0,11.3
				C58.6,427.4,67.4,426.9,76.2,425.5z"/>
			<path class="st2" d="M106.7,334.1c-2.9,3.2-6.3,4.9-10.4,5.8c-2.9,0.6-4.7,3.9-3.9,6.7c0.9,3.2,3.9,4.2,6.8,3.8
				c5.9-0.8,11.5-4.1,15.4-8.5C119.5,336.5,111.5,328.8,106.7,334.1z"/>
			<path class="st2" d="M91.5,296.8c2.5-4.1,5.6-7.6,9.2-10.8c2.3-2,2.1-5.8,0-7.9c-2.2-2.2-5.8-2.1-8,0c-4.2,3.9-7.8,8.3-10.8,13.2
				C78.2,297.4,87.8,302.7,91.5,296.8z"/>
			<path class="st2" d="M202.9,282.2c-6.8,3.9-13,8.9-18.2,14.8c-4.8,5.5,3.3,13.4,8.1,7.9c4.6-5.3,9.7-9.7,15.8-13.3
				C214.7,288.1,209,278.7,202.9,282.2z"/>
			<path class="st2" d="M167.6,366.1c5,5.3,13.2-2.6,8.1-8c-5.3-5.7-10.7-11.3-16.1-16.9c-5-5.3-13.1,2.6-8.1,7.9
				C156.9,354.8,162.2,360.4,167.6,366.1z"/>
			<path class="st2" d="M149.7,397c-7.4-3.3-14.7-6.6-22.1-9.9c-6.4-2.8-12.3,6.4-5.7,9.5c7.3,3.4,14.6,6.8,21.9,10.1
				C150.5,409.8,156.4,400,149.7,397z"/>
			<path class="st2" d="M231.2,370.5c3.4-11,6.8-22,10-33c2-6.9-8.6-9.6-10.8-2.9c-3.5,10.9-6.8,22-10.1,33
				C218.2,374.5,229.1,377.3,231.2,370.5z"/>
			<path class="st2" d="M163.4,754.9c8.8-7.4,17.7-14.7,26.3-22.3c5.4-4.7-2-12.8-7.5-8.3c-8.9,7.3-17.6,14.7-26.4,22.2
				C150.4,751.1,157.9,759.5,163.4,754.9z"/>
			<path class="st2" d="M144.7,446.1c-3.3-3.7-6.7-7.3-10.1-10.9c-2.1-2.1-5.8-2-7.8,0c-2.3,2.2-1.9,5.4,0,7.7
				c3.2,3.8,6.6,7.4,9.9,11.1c2,2.3,5.9,2,8,0C147,451.7,146.8,448.3,144.7,446.1z"/>
			<path class="st2" d="M271.1,397c5.7-1.7,11.4-3.7,17.1-5.6c6.9-2.3,3.9-13.1-3-10.8c-5.7,2-11.4,3.8-17,6
				C261.6,389,264.2,399.1,271.1,397z"/>
			<path class="st2" d="M286.5,301.7c4.4-1.9,8.7-4,13-6c2.7-1.3,3.5-5.1,2-7.6c-1.6-2.8-5-3.3-7.7-2c-4.3,2-8.6,4-12.9,6.1
				c-2.6,1.3-3.4,5-2,7.4C280.6,302.5,283.8,302.9,286.5,301.7z"/>
			<path class="st2" d="M367.7,322c2.4,2.3,5.7,1.9,8.1,0c6.5-5.2,12.1-11.7,16-19.1c3.4-6.3-6.2-11.8-9.7-5.6
				c-3.8,6.6-8.4,12-14.4,16.7C365.2,315.9,365.7,320,367.7,322z"/>
			<path class="st2" d="M395.6,368.2c-4.8-4.2-10.1-7.7-16-10.2c-2.7-1.1-5.9-0.8-7.5,1.9c-1.4,2.3-0.7,6.2,2,7.4
				c5,2.2,9.5,5.1,13.5,8.8C392.9,381.1,401.1,373.1,395.6,368.2z"/>
			<path class="st2" d="M348.6,413.8c3.3-5.7,6.7-11.3,9.9-17.1c3.4-6.2-5.9-11.4-9.5-5.5c-3.5,5.6-6.8,11.3-10.1,16.9
				C335.1,414.5,344.9,420,348.6,413.8z"/>
			<path class="st2" d="M397.9,420.8c3.6,2.4,7.3,4.8,10.9,7.2c2.6,1.7,6.4,0.5,7.9-2c1.7-2.8,0.5-6.1-2.1-7.8l-10.9-7.1
				c-2.6-1.7-6.3-0.5-7.8,2C394.2,415.9,395.3,419.1,397.9,420.8z"/>
			<path class="st2" d="M429.6,326.3c-1.5-2.6-5.1-3.5-7.6-2c-3.4,2-6.7,3.9-10,6c-2.5,1.5-3.5,4.8-2,7.4c1.5,2.6,5,3.4,7.6,1.9
				c3.4-1.9,6.7-3.9,10.1-5.9C430.1,332.3,431.1,328.9,429.6,326.3z"/>
			<path class="st2" d="M510,341.3c-3.8,6.6-7.4,13.3-11.1,19.9c-3.5,6.3,6.3,11.9,9.8,5.6c3.7-6.7,7.3-13.3,10.9-20
				C523,340.6,513.5,335.2,510,341.3z"/>
			<path class="st2" d="M159,656.7c6.6-3.7,13.3-7.5,19.9-11.3c6.1-3.6,0.9-13.1-5.3-9.7c-6.7,3.6-13.3,7.4-20,11.1
				C147.4,650.3,152.8,660.2,159,656.7z"/>
			<path class="st2" d="M471.6,308c2,2.3,6,2,8,0c2.3-2.3,2-5.6,0-7.9c-3.7-4.3-7.4-8.6-11.1-12.9c-2-2.3-5.9-2-7.9,0
				c-2.3,2.3-1.9,5.5,0,7.8C464.2,299.4,467.9,303.7,471.6,308z"/>
			<path class="st2" d="M445.6,375c-2.4,2.3-2,5.6,0,8c3.8,4.6,8.2,8.5,13.2,11.9c2.5,1.7,6.4,0.5,7.8-2c1.7-2.8,0.5-6-2.1-7.7
				c-4.1-2.8-7.7-6.3-10.8-10.1C451.8,372.6,447.7,373,445.6,375z"/>
			<path class="st2" d="M555.7,392.9c6.5,5.4,14.1,9,22.4,10.6c7.3,1.3,10.4-9.7,3.1-11c-7-1.2-13-4-18.7-8.3
				C557.6,380.5,550.8,388.9,555.7,392.9z"/>
			<path class="st2" d="M294.7,445.1c-3.4-3.2-6-6.7-8.2-10.8c-3.3-6.2-12.9-0.8-9.6,5.5c2.5,4.9,5.9,9.3,9.8,13.2
				C291.9,458,300,450.1,294.7,445.1z"/>
			<path class="st2" d="M357.4,470.6c1.7-5.7,3.4-11.3,5-17c2.1-7.1-9.1-10.1-11.2-3.1c-1.7,5.7-3.4,11.3-5.1,17
				C344,474.7,355.3,477.7,357.4,470.6z"/>
			<path class="st2" d="M480.8,440.2c-5.6,8.3-11.3,16.6-16.9,24.9c-4.1,6.1,5.9,11.9,10,5.8c5.6-8.3,11.2-16.6,16.8-24.9
				C494.8,439.9,484.8,434.2,480.8,440.2z"/>
			<path class="st2" d="M526.9,439.1c4.6,5.9,14-0.9,9.4-6.8c-4.4-5.7-8.4-11.7-11.7-18.1c-1.5-2.8-4.4-4.4-7.5-3.2
				c-2.7,1-4.6,4.7-3.2,7.4C517.6,425.6,521.9,432.6,526.9,439.1z"/>
			<path class="st2" d="M552.5,305.2c-5.2-4-10.4-8.1-15.7-12.1c-5.8-4.5-12.6,4.6-6.9,9.1c5.2,4.1,10.4,8.1,15.6,12.2
				C551.5,318.9,558.4,309.7,552.5,305.2z"/>
			<path class="st2" d="M327.6,345.2c-8.3-4.4-16.4-9.3-23.9-15.1c-5.5-4.3-13.6,3.3-7.9,7.8c8.2,6.5,16.8,12.2,26,17
				C328.3,358.2,334.1,348.6,327.6,345.2z"/>
			<path class="st2" d="M34.7,506.1c-4.9-3.6-11.7,4.7-6.7,8.5c4.8,3.7,8.7,8,11.7,13.3c3.5,6.2,13.3,0.7,9.7-5.6
				C45.8,515.8,40.8,510.4,34.7,506.1z"/>
			<path class="st2" d="M22.8,569.9c8.7,7.3,17,15,24.9,23.1c5,5.1,13.1-2.7,8-7.9c-7.9-8.1-16.3-15.7-25.1-22.9
				C25.3,557.8,17.3,565.3,22.8,569.9z"/>
			<path class="st2" d="M39.7,638.8c8.9,0.7,17.7,0.2,26.5-1.2c7.3-1.2,4.2-12.2-3.1-11c-7.8,1.3-15.6,1.5-23.5,1
				C32.3,627,32.4,638.2,39.7,638.8z"/>
			<path class="st2" d="M106.7,547.1c-2.9,3.2-6.3,4.9-10.4,5.8c-2.9,0.6-4.7,3.9-3.9,6.7c0.9,3.2,3.9,4.2,6.8,3.8
				c5.9-0.8,11.5-4.1,15.4-8.5C119.5,549.6,111.5,541.8,106.7,547.1z"/>
			<path class="st2" d="M87.5,497.8c2.5-4.1,5.6-7.6,9.2-10.8c2.3-2,2.1-5.8,0-7.9c-2.2-2.2-5.8-2.1-8,0c-4.2,3.9-7.8,8.3-10.8,13.2
				C74.2,498.4,83.8,503.8,87.5,497.8z"/>
			<path class="st2" d="M206.5,485.7c6.2-3.7,0.5-13.1-5.7-9.5c-6.8,3.9-13,8.9-18.2,14.8c-4.8,5.5,3.3,13.4,8.1,7.9
				C195.3,493.7,200.5,489.3,206.5,485.7z"/>
			<path class="st2" d="M167.6,579.1c5,5.3,13.2-2.6,8.1-8c-5.3-5.7-10.7-11.3-16.1-16.9c-5-5.3-13.1,2.6-8.1,7.9
				C156.9,567.8,162.2,573.5,167.6,579.1z"/>
			<path class="st2" d="M124.7,615c-7.4-3.3-14.7-6.6-22.1-9.9c-6.4-2.8-12.3,6.4-5.7,9.5c7.3,3.4,14.6,6.8,21.9,10.1
				C125.5,627.9,131.4,618.1,124.7,615z"/>
			<path class="st2" d="M231.2,524.6c-5.7,2-11.4,3.8-17,6c-6.5,2.5-3.9,12.5,2.9,10.4c5.7-1.7,11.4-3.7,17.1-5.6
				C241.1,533.1,238.1,522.3,231.2,524.6z"/>
			<path class="st2" d="M286.5,514.7c4.4-1.9,8.7-4,13-6c2.7-1.3,3.5-5.1,2-7.6c-1.6-2.8-5-3.3-7.7-2c-4.3,2-8.6,4-12.9,6.1
				c-2.6,1.3-3.4,5-2,7.4C280.6,515.5,283.8,515.9,286.5,514.7z"/>
			<path class="st2" d="M397.7,512.9c3.4-6.3-6.2-11.8-9.7-5.6c-3.8,6.6-8.4,12-14.4,16.7c-2.4,1.9-2,6,0,7.9c2.4,2.3,5.7,1.9,8.1,0
				C388.3,526.8,393.8,520.3,397.7,512.9z"/>
			<path class="st2" d="M401.1,564.4c5,2.2,9.5,5.1,13.5,8.8c5.3,4.9,13.6-3.1,8.1-7.9c-4.8-4.2-10.1-7.7-16-10.2
				c-2.7-1.1-5.9-0.8-7.5,1.9C397.7,559.3,398.4,563.2,401.1,564.4z"/>
			<path class="st2" d="M490.7,564.9c3.7-6.7,7.3-13.3,10.9-20c3.3-6.3-6.1-11.6-9.6-5.5c-3.8,6.6-7.4,13.3-11.1,19.9
				C477.4,565.6,487.2,571.2,490.7,564.9z"/>
			<path class="st2" d="M463.6,513.1c2,2.3,6,2,8,0c2.3-2.3,2-5.6,0-7.9c-3.7-4.3-7.4-8.6-11.1-12.9c-2-2.3-5.9-2-7.9,0
				c-2.3,2.3-1.9,5.5,0,7.8C456.2,504.4,459.9,508.7,463.6,513.1z"/>
			<path class="st2" d="M464.8,590c-2-2.4-6.1-2-8.1,0c-2.4,2.3-2,5.6,0,8c3.8,4.6,8.2,8.5,13.2,11.9c2.5,1.7,6.4,0.5,7.8-2
				c1.7-2.8,0.5-6-2.1-7.7C471.5,597.3,467.9,593.9,464.8,590z"/>
			<path class="st2" d="M569.2,602.5c-7-1.2-13-4-18.7-8.3c-5-3.8-11.8,4.6-6.8,8.7c6.5,5.4,14.1,9,22.4,10.6
				C573.4,614.9,576.6,603.8,569.2,602.5z"/>
			<path class="st2" d="M287.7,595.1c-3.4-3.2-6-6.7-8.2-10.8c-3.3-6.2-12.9-0.8-9.6,5.5c2.5,4.9,5.9,9.3,9.8,13.2
				C284.9,608,293,600.1,287.7,595.1z"/>
			<path class="st2" d="M363.7,678c-1.7,5.7-3.4,11.3-5.1,17c-2.1,7.2,9.2,10.2,11.3,3.1c1.7-5.7,3.4-11.3,5-17
				C377,673.9,365.8,670.9,363.7,678z"/>
			<path class="st2" d="M463.9,673.9c5.6-8.3,11.2-16.6,16.8-24.9c4.1-6.1-5.8-11.8-9.9-5.8c-5.6,8.3-11.3,16.6-16.9,24.9
				C449.7,674.2,459.8,680,463.9,673.9z"/>
			<path class="st2" d="M534.9,671.1c4.6,5.9,14-0.9,9.4-6.8c-4.4-5.7-8.4-11.7-11.7-18.1c-1.5-2.8-4.4-4.4-7.5-3.2
				c-2.7,1-4.6,4.7-3.2,7.4C525.6,657.7,529.9,664.6,534.9,671.1z"/>
			<path class="st2" d="M542.6,538c-4.7,4.7-9.4,9.3-14,14c-5.2,5.2,2.9,13.1,8.1,8c4.7-4.6,9.4-9.2,14.1-13.9
				C556.1,540.8,547.8,532.8,542.6,538z"/>
			<path class="st2" d="M341.5,555.4c-8.3-4.4-16.4-9.3-23.9-15.1c-5.5-4.3-13.6,3.3-7.9,7.8c8.2,6.5,16.8,12.2,26,17
				C342.1,568.4,348,558.8,341.5,555.4z"/>
			<path class="st2" d="M65.2,198.6c-4-1-8-2-12-3c-7-1.7-10.1,9-3,10.8c4,1,8,2,12,3C69.3,211.2,72.4,200.4,65.2,198.6z"/>
			<path class="st2" d="M54.3,253.5c0.5,3,4.3,4.6,7,3.9c3.2-0.9,4.5-3.9,4-6.9c-0.7-4.3-1.3-8.7-2-13c-0.5-3-4.3-4.6-6.9-3.9
				c-3.2,0.9-4.4,3.8-3.9,6.8C53,244.8,53.7,249.1,54.3,253.5z"/>
			<path class="st2" d="M100.7,226.3c-1.6,2.7-0.5,6,2,7.6c3.7,2.3,7.3,4.6,11,7c2.6,1.6,6.3,0.5,7.8-2c1.6-2.7,0.5-6.1-2.1-7.7
				c-3.7-2.3-7.4-4.6-11.1-6.9C105.9,222.7,102.2,223.7,100.7,226.3z"/>
			<path class="st2" d="M152.4,289.5c2.6-7.7,5.2-15.4,7.9-23c2.3-6.9-8.6-9.7-11-3c-2.7,7.7-5.3,15.3-8,23
				C138.9,293.5,150,296.4,152.4,289.5z"/>
			<path class="st2" d="M237,270.5c2.1,7,4.7,13.7,7.8,20.3c3.1,6.5,13.1,0.9,9.9-5.7c-2.8-5.7-5-11.5-6.9-17.5
				C245.8,260.9,235,263.7,237,270.5z"/>
			<path class="st2" d="M256.2,214.5c-6-1.1-11.5-3-16.8-6.1c-6.2-3.6-12,5.9-5.7,9.6c6,3.6,12.6,6.1,19.5,7.3
				C260.3,226.6,263.4,215.8,256.2,214.5z"/>
			<path class="st2" d="M317.2,238.5c1-4.3,2-8.7,3-13c1.6-7-9.3-9.9-10.9-3c-1,4.3-2,8.7-3,13C304.6,242.6,315.6,245.5,317.2,238.5
				z"/>
			<path class="st2" d="M338,292c0.8,7.1,12.2,7.1,11.3,0c-1.1-9-1.4-18-1-27c0.3-7-10.8-7-11.1,0C336.7,274,337,283,338,292z"/>
			<path class="st2" d="M416.6,220.1c-6-3.7-12-7.3-18-11c-6.2-3.8-12,5.9-5.8,9.7c6,3.7,12,7.4,18,11
				C417.1,233.6,422.9,224,416.6,220.1z"/>
			<path class="st2" d="M439.6,253.1c-1.5-2.5-5.2-3.7-7.8-2c-3.7,2.4-7.3,4.7-11,7.1c-2.5,1.7-3.7,4.9-2,7.7c1.5,2.5,5.2,3.7,7.8,2
				c3.7-2.4,7.3-4.7,10.9-7.1C440.1,259.1,441.2,255.8,439.6,253.1z"/>
			<path class="st2" d="M504.8,262.4c1.5-2.5,0.7-6.4-2.1-7.7c-4.7-2.2-8.4-5.5-10.9-10c-3.6-6.3-13.5-0.7-9.9,5.7
				c3.4,6.1,8.7,11.1,15,14C499.7,265.7,503.1,265.2,504.8,262.4z"/>
			<path class="st2" d="M535.7,225.9c2.7-1.7,3.6-4.9,2.1-7.7c-1.7-3-3.3-6-5-9c-1.4-2.6-5.3-3.6-7.9-2c-2.7,1.7-3.6,4.9-2.1,7.7
				c1.7,3,3.3,6,5,9C529.3,226.5,533.2,227.6,535.7,225.9z"/>
			<path class="st2" d="M174.6,213.9c2.6,6,5.4,12,8.1,18c1.3,2.8,5.3,3.4,7.7,2c2.8-1.6,3.3-4.8,2-7.6c-2.7-6-5.4-12-8.2-17.9
				c-1.3-2.7-5.2-3.4-7.6-2C173.8,208,173.4,211.1,174.6,213.9z"/>
			<path class="st2" d="M17.7,473.6c4.3,0.3,8.4,1.3,12.5,2.8c2.8,1.1,6.2-1.2,7-3.9c0.9-3.2-1.1-5.8-4-6.9
				c-5-1.9-10.2-2.8-15.5-3.2c-3-0.2-5.7,2.7-5.7,5.6C12,471.2,14.7,473.4,17.7,473.6z"/>
			<path class="st2" d="M143.7,509.9c2.1-2.1,2.3-5.8,0-7.9c-2.2-2-5.8-2.2-8,0c-1.7,1.7-3.3,3.3-5,5c-2.1,2.1-2.3,5.8,0,7.9
				c2.2,2,5.8,2.2,8,0C140.4,513.3,142,511.6,143.7,509.9z"/>
			<path class="st2" d="M194.7,425.8c4.7,1.4,9.3,2.7,14,4c7,2,10-8.7,3-10.8c-4.7-1.4-9.3-2.7-14-4
				C190.7,413,187.7,423.7,194.7,425.8z"/>
			<path class="st2" d="M256.2,488.5c1.7-5,3.5-10,5.2-14.9c2.4-6.9-8.7-9.8-11.1-3c-1.7,5-3.4,10-5.1,15
				C242.8,492.4,253.8,495.3,256.2,488.5z"/>
			<path class="st2" d="M426.2,467.5c-5.3-1.8-10.6-3.5-15.9-5.3c-7-2.3-10.1,8.6-3.1,11c5.3,1.8,10.6,3.5,15.9,5.2
				C430.2,480.7,433.2,469.9,426.2,467.5z"/>
			<path class="st2" d="M523.8,491.9c4.6,1.9,9,3.1,13.9,3.7c3,0.3,5.7-2.8,5.7-5.6c0-3.4-2.7-5.3-5.7-5.6c-2.7-0.3-5.6-1-8.2-2.1
				c-2.8-1.2-6.1-0.8-7.8,2C520.3,486.6,521,490.7,523.8,491.9z"/>
			<path class="st2" d="M78.6,702.7c5.3,5.1,12.4-4.1,7.1-9.2l-23.3-22.4c-5.3-5.1-12.2,4.1-7,9.1C63.1,687.7,70.9,695.2,78.6,702.7
				z"/>
			<path class="st2" d="M54.5,748c-0.9-8.3-1-16.7-0.3-25c0.6-7.2-10.7-7.1-11.4,0c-0.8,8.4-0.7,16.7,0.3,25
				C43.9,755.1,55.3,755.2,54.5,748z"/>
			<path class="st2" d="M82.8,781.2c5-3.2,9.7-7,14-11.2c5.2-5.2-2.9-13.1-8.1-8c-3.6,3.5-7.4,6.7-11.6,9.4
				C70.8,775.5,76.6,785.2,82.8,781.2z"/>
			<path class="st2" d="M125.3,721.3c2.8,0.5,6.3-1.5,6.5-4.5c0.6-6.6,1.8-13,3.6-19.4c0.9-2.9-1.7-6.1-4.5-6.7
				c-3.3-0.6-5.7,1.6-6.5,4.5c-1.9,6.3-3.1,12.8-3.6,19.4C120.5,717.6,122.1,720.6,125.3,721.3z"/>
			<path class="st2" d="M206,694c3.2-5.8,6.3-11.5,9.4-17.3c3.5-6.5-6.4-12.1-9.9-5.7c-3.2,5.8-6.3,11.5-9.4,17.3
				C192.5,694.8,202.4,700.4,206,694z"/>
			<path class="st2" d="M221.5,615c0.5-9.4,1.9-18.5,4.3-27.6c1.8-7.1-9.2-10-11-3c-2.6,10-4.1,20.3-4.6,30.6
				C209.8,622.2,221.1,622.2,221.5,615z"/>
			<path class="st2" d="M236.9,742.9c0.8,3,4.5,4.4,7.3,3.4c3.1-1.1,4.3-4.3,3.5-7.3c-1.3-4.8-2.6-9.6-3.9-14.3
				c-0.8-3-4.6-4.4-7.3-3.4c-3.1,1.1-4.3,4.3-3.5,7.3C234.3,733.4,235.6,738.1,236.9,742.9z"/>
			<path class="st2" d="M285.7,758c5.3,2.7,10.7,5.3,16,8c6.6,3.3,12.5-6.5,5.8-9.8c-5.3-2.7-10.7-5.3-16-8
				C285,745,279.1,754.7,285.7,758z"/>
			<path class="st2" d="M305.5,680.8c-5.7,5-11.3,10-17,15c-5.6,5,2.7,13,8.2,8.1c5.7-5,11.3-10,17-15
				C319.4,684,311,675.9,305.5,680.8z"/>
			<path class="st2" d="M394.6,634c4.7,3.7,9.3,7.3,14,11c2.4,1.9,5.8,2.4,8.2,0c2-2,2.5-6.1,0-8.1l-14-11c-2.4-1.9-5.8-2.4-8.2,0
				C392.6,628,392.2,632.1,394.6,634z"/>
			<path class="st2" d="M253.8,648.8c3.6,2.8,7.1,5.6,10.7,8.5c5.8,4.6,12.8-4.6,7-9.2c-3.6-2.8-7.1-5.6-10.7-8.4
				C255,635.1,248.1,644.3,253.8,648.8z"/>
			<path class="st2" d="M423.7,743c5.5,4.8,13.7-3.1,8.2-8c-5.8-5.1-10.5-11-14.3-17.7c-3.6-6.4-13.5-0.7-10,5.7
				C411.8,730.5,417.2,737.3,423.7,743z"/>
			<path class="st2" d="M550.5,747.7c4.3-7.3,8.6-14.7,12.9-22c3.7-6.3-5.8-12.7-9.5-6.5c-4.3,7.3-8.6,14.6-12.9,22
				C537.3,747.6,546.8,754.1,550.5,747.7z"/>
			<path class="st2" d="M374,776.1c3.8,6.4,13.6,0.6,9.8-5.8c-5.7-9.4-11.4-18.8-17.1-28.2c-3.7-6.1-13.1-0.6-9.5,5.6
				C362.8,757.2,368.4,766.7,374,776.1z"/>
			<path class="st2" d="M609.5,53.4c-10.9,9.4-20.7,20.1-29.6,31.5c-3.9,5,4.9,11.6,8.9,6.7c8.8-10.9,18.5-20.8,29-30
				C623.4,56.6,615.1,48.6,609.5,53.4z"/>
			<path class="st2" d="M678.1,39.1c-9.3-8.4-17.8-17.5-25.7-27.3c-3.9-4.8-12.7,1.6-8.8,6.7c7.9,10.3,16.7,19.9,26.3,28.6
				C675.4,52,683.6,44.1,678.1,39.1z"/>
			<path class="st2" d="M664.9,75c-2.9-1.7-5.9-0.4-7.8,2c-4.4,5.6-8.7,11.3-13.1,17c-1.9,2.4-0.4,6.3,2,7.7c2.9,1.7,5.9,0.4,7.8-2
				c4.4-5.6,8.8-11.2,13.1-16.9C668.8,80.3,667.4,76.4,664.9,75z"/>
			<path class="st2" d="M717.9,54.4c2.4,6.7,13.3,3.9,10.9-3c-2.4-7-4.8-14-7.3-20.9c-2.4-6.6-13.2-3.9-10.9,2.9
				C713,40.5,715.4,47.4,717.9,54.4z"/>
			<path class="st2" d="M708.4,102.8c1.5,2.5,5,3.5,7.5,1.9c3.7-2.3,7.4-4.6,11-6.9c2.5-1.6,3.6-4.8,2-7.5c-1.5-2.5-5.1-3.6-7.6-2
				c-3.7,2.4-7.3,4.7-11,7.1C707.9,97,706.8,100.1,708.4,102.8z"/>
			<path class="st2" d="M765.5,38.5c4.8,3.7,8.7,8,11.7,13.3c3.5,6.2,13.3,0.7,9.7-5.6c-3.7-6.5-8.7-11.9-14.8-16.2
				C767.2,26.4,760.5,34.7,765.5,38.5z"/>
			<path class="st2" d="M621,147.2c-2.7-5.4-4.6-11.2-5.4-17.2c-0.4-3-2.3-5.4-5.5-5.4c-2.7,0-5.9,2.5-5.5,5.4
				c0.9,8,3.1,15.5,6.7,22.8C614.5,159.2,624.3,153.6,621,147.2z"/>
			<path class="st2" d="M681.1,156c-2.3-2.3-5.6-1.9-7.9,0c-3.7,3-7.3,6-10.9,9.1c-2.3,1.9-2,5.7,0,7.7c2.3,2.3,5.5,1.8,7.8,0
				c3.7-2.9,7.4-5.9,11.1-8.9C683.4,161.9,683.1,158,681.1,156z"/>
			<path class="st2" d="M760.2,93.8c8.7,7.3,17,15,24.9,23.1c5,5.1,13.1-2.7,8-7.9c-7.9-8.1-16.3-15.7-25.1-22.9
				C762.7,81.7,754.7,89.2,760.2,93.8z"/>
			<path class="st2" d="M748.6,186.5c3.2-12.3,5.2-24.8,6.1-37.5c0.5-7-10.5-7-11.1,0c-1,11.7-3,23.2-6,34.5
				C735.8,190.5,746.8,193.4,748.6,186.5z"/>
			<path class="st2" d="M810.6,151.5c-7.8,1.3-15.6,1.5-23.5,1c-7.4-0.5-7.3,10.7,0,11.3c8.9,0.7,17.7,0.2,26.5-1.2
				C821,161.3,817.9,150.3,810.6,151.5z"/>
			<path class="st2" d="M844.1,71c-2.9,3.2-6.3,4.9-10.4,5.8c-2.9,0.6-4.7,3.9-3.9,6.7c0.9,3.2,3.9,4.2,6.8,3.8
				c5.9-0.8,11.5-4.1,15.4-8.5C856.9,73.5,849,65.7,844.1,71z"/>
			<path class="st2" d="M830.1,15.1c-4.2,3.9-7.8,8.3-10.8,13.2c-3.7,6.1,5.9,11.5,9.6,5.5c2.5-4.1,5.6-7.6,9.2-10.8
				c2.3-2,2.1-5.8,0-7.9C835.9,12.9,832.4,13,830.1,15.1z"/>
			<path class="st2" d="M935.3,21.2c-6.8,3.9-13,8.9-18.2,14.8c-4.8,5.5,3.3,13.4,8.1,7.9c4.6-5.3,9.7-9.7,15.8-13.3
				C947.2,27,941.5,17.6,935.3,21.2z"/>
			<path class="st2" d="M897.1,78.1c-5-5.3-13.1,2.6-8.1,7.9c5.3,5.7,10.7,11.3,16,17c5,5.3,13.2-2.6,8.1-8
				C907.8,89.4,902.4,83.8,897.1,78.1z"/>
			<path class="st2" d="M865,124.1c-6.4-2.8-12.3,6.4-5.7,9.5c7.3,3.4,14.6,6.8,21.9,10.1c6.6,3,12.5-6.8,5.8-9.8
				C879.7,130.7,872.4,127.4,865,124.1z"/>
			<path class="st2" d="M967.9,71.6c-3.5,10.9-6.8,22-10.1,33c-2.1,6.9,8.8,9.8,10.9,3c3.4-11,6.8-22,10-33
				C980.7,67.6,970,64.9,967.9,71.6z"/>
			<path class="st2" d="M938.8,161.8c2.7-1.6,3.4-4.9,2-7.6c-1.7-3.3-3.4-6.6-5.2-9.9c-1.4-2.6-5.1-3.4-7.6-1.9
				c-2.7,1.6-3.3,4.8-2,7.4c1.7,3.3,3.3,6.7,5,10C932.5,162.6,936.4,163.3,938.8,161.8z"/>
			<path class="st2" d="M880.2,190.1c-3.3-3.7-6.7-7.3-10.1-10.9c-2.1-2.1-5.8-2-7.8,0c-2.3,2.2-1.9,5.4,0,7.7
				c3.2,3.8,6.6,7.4,9.9,11.1c2,2.3,5.9,2,8,0C882.4,195.7,882.2,192.3,880.2,190.1z"/>
			<path class="st2" d="M1008.5,134c5.7-1.7,11.4-3.7,17.1-5.6c6.9-2.3,3.9-13.1-3-10.8c-5.7,2-11.4,3.8-17,6
				C999.1,126,1001.7,136.1,1008.5,134z"/>
			<path class="st2" d="M1031.3,23.2c-4.3,2-8.6,4-12.9,6.1c-2.6,1.3-3.4,5-2,7.4c1.6,2.8,4.9,3.1,7.6,1.9c4.4-1.9,8.7-4,13-6
				c2.7-1.3,3.5-5.1,2-7.6C1037.3,22.4,1034,21.9,1031.3,23.2z"/>
			<path class="st2" d="M1125.5,31.3c-3.8,6.6-8.4,12-14.4,16.7c-2.4,1.9-2,6,0,7.9c2.4,2.3,5.7,1.9,8.1,0
				c6.5-5.2,12.1-11.7,16-19.1C1138.5,30.5,1129,25.1,1125.5,31.3z"/>
			<path class="st2" d="M1111.5,104.3c5,2.2,9.5,5.1,13.5,8.8c5.3,4.9,13.6-3.1,8.1-7.9c-4.8-4.2-10.1-7.7-16-10.2
				c-2.7-1.1-5.9-0.8-7.5,1.9C1108.1,99.3,1108.8,103.1,1111.5,104.3z"/>
			<path class="st2" d="M1086.4,128.3c-3.5,5.6-6.8,11.3-10.1,16.9c-3.7,6.3,6.1,11.8,9.8,5.6c3.3-5.7,6.7-11.3,9.9-17.1
				C1099.3,127.5,1090,122.4,1086.4,128.3z"/>
			<path class="st2" d="M1133.3,150.1c-1.7,2.8-0.5,6,2.1,7.7c3.6,2.4,7.3,4.8,10.9,7.2c2.6,1.7,6.4,0.5,7.9-2
				c1.7-2.8,0.5-6.1-2.1-7.8l-10.9-7.1C1138.5,146.4,1134.8,147.5,1133.3,150.1z"/>
			<path class="st2" d="M1167,63.3c-1.5-2.6-5.1-3.5-7.6-2c-3.4,2-6.7,3.9-10,6c-2.5,1.5-3.5,4.8-2,7.4c1.5,2.6,5,3.4,7.6,1.9
				c3.4-1.9,6.7-3.9,10.1-5.9C1167.6,69.3,1168.5,65.9,1167,63.3z"/>
			<path class="st2" d="M1220.4,69.3c-3.8,6.6-7.4,13.3-11.1,19.9c-3.5,6.3,6.3,11.9,9.8,5.6c3.7-6.7,7.3-13.3,10.9-20
				C1233.4,68.5,1223.9,63.2,1220.4,69.3z"/>
			<path class="st2" d="M1198,16.2c-2-2.3-5.9-2-7.9,0c-2.3,2.3-1.9,5.5,0,7.8c3.7,4.3,7.3,8.7,11,13c2,2.3,6,2,8,0
				c2.3-2.3,2-5.6,0-7.9C1205.4,24.8,1201.7,20.5,1198,16.2z"/>
			<path class="st2" d="M1209,138.1c-4.1-2.8-7.7-6.3-10.8-10.1c-2-2.4-6.1-2-8.1,0c-2.4,2.3-2,5.6,0,8c3.8,4.6,8.2,8.5,13.2,11.9
				c2.5,1.7,6.4,0.5,7.8-2C1212.8,143,1211.6,139.9,1209,138.1z"/>
			<path class="st2" d="M1249.2,112.9c6.5,5.4,14.1,9,22.4,10.6c7.3,1.3,10.4-9.7,3.1-11c-7-1.2-13-4-18.7-8.3
				C1251,100.5,1244.2,108.9,1249.2,112.9z"/>
			<path class="st2" d="M606.2,214.9c2.3-4.7,4.6-9.4,6.8-14.1c1.3-2.7,0.8-5.9-2-7.5c-2.5-1.4-6.2-0.7-7.6,2c-2.4,4.6-4.7,9.3-7,14
				c-1.3,2.7-0.7,6,2,7.6C600.9,218.3,604.9,217.6,606.2,214.9z"/>
			<path class="st2" d="M1024.2,180.1c-3.4-3.2-6-6.7-8.2-10.8c-3.3-6.2-12.9-0.8-9.6,5.5c2.5,4.9,5.9,9.3,9.8,13.2
				C1021.3,192.9,1029.4,185.1,1024.2,180.1z"/>
			<path class="st2" d="M1088.7,187.5c-1.7,5.7-3.4,11.3-5.1,17c-2.1,7.2,9.2,10.2,11.3,3.1c1.7-5.7,3.4-11.3,5-17
				C1102,183.4,1090.8,180.4,1088.7,187.5z"/>
			<path class="st2" d="M1211.3,207.9c5.6-8.3,11.2-16.6,16.8-24.9c4.1-6.1-5.8-11.8-9.9-5.8c-5.6,8.3-11.3,16.6-16.9,24.9
				C1197.2,208.2,1207.2,214,1211.3,207.9z"/>
			<path class="st2" d="M1069.1,624.1c9.4-3.5,18.8-7.1,28.1-10.6c6.8-2.6,2.1-13-4.7-10.5c-9.4,3.5-18.8,7-28.2,10.5
				C1057.4,616.1,1062.2,626.7,1069.1,624.1z"/>
			<path class="st2" d="M1281,46.9c-4.7,4.7-9.4,9.3-14,14c-5.2,5.2,2.9,13.1,8.1,8c4.7-4.6,9.4-9.2,14.1-13.9
				C1294.5,49.8,1286.2,41.7,1281,46.9z"/>
			<path class="st2" d="M1065,82.2c-8.3-4.4-16.4-9.3-23.9-15.1c-5.5-4.3-13.6,3.3-7.9,7.8c8.2,6.5,16.8,12.2,26,17
				C1065.7,95.2,1071.6,85.6,1065,82.2z"/>
			<path class="st2" d="M607.5,304.5c-10.9,9.4-20.7,20.1-29.6,31.5c-3.9,5,4.9,11.6,8.9,6.7c8.8-10.9,18.5-20.8,29-30
				C621.4,307.6,613.1,299.6,607.5,304.5z"/>
			<path class="st2" d="M1216.1,734.1c8.8-10.9,18.5-20.8,29-30c5.7-5-2.7-13-8.3-8.2c-10.9,9.4-20.7,20.1-29.6,31.5
				C1203.3,732.4,1212.1,739,1216.1,734.1z"/>
			<path class="st2" d="M678.1,302.1c-9.3-8.4-17.8-17.5-25.7-27.3c-3.9-4.8-12.7,1.6-8.8,6.7c7.9,10.3,16.7,19.9,26.3,28.6
				C675.4,315.1,683.6,307.1,678.1,302.1z"/>
			<path class="st2" d="M653.9,362.7c4.4-5.6,8.8-11.2,13.1-16.9c1.9-2.4,0.4-6.3-2.1-7.7c-2.9-1.7-5.9-0.4-7.8,2
				c-4.4,5.6-8.7,11.3-13.1,17c-1.9,2.4-0.4,6.3,2,7.7C649,366.4,652,365.1,653.9,362.7z"/>
			<path class="st2" d="M717.9,317.4c2.4,6.7,13.3,3.9,10.9-3c-2.4-7-4.8-14-7.3-20.9c-2.4-6.6-13.2-3.9-10.9,2.9
				C713,303.5,715.4,310.5,717.9,317.4z"/>
			<path class="st2" d="M729,353.3c-1.5-2.5-5.1-3.6-7.6-2c-3.7,2.4-7.3,4.7-11,7.1c-2.5,1.6-3.5,4.8-2,7.4c1.5,2.5,5,3.5,7.5,1.9
				c3.7-2.3,7.4-4.6,11-6.9C729.5,359.2,730.6,355.9,729,353.3z"/>
			<path class="st2" d="M772.2,293c-4.9-3.6-11.7,4.7-6.7,8.5c4.8,3.7,8.7,8,11.7,13.3c3.5,6.2,13.3,0.7,9.7-5.6
				C783.2,302.8,778.2,297.4,772.2,293z"/>
			<path class="st2" d="M608,403.2c-2.7-5.4-4.6-11.2-5.4-17.2c-0.4-3-2.3-5.4-5.5-5.4c-2.7,0-5.9,2.5-5.5,5.4
				c0.9,8,3.1,15.5,6.7,22.8C601.5,415.2,611.3,409.7,608,403.2z"/>
			<path class="st2" d="M659,433.8c3.7-2.9,7.4-5.9,11.1-8.9c2.3-1.9,2-5.8,0-7.8c-2.3-2.3-5.6-1.9-7.9,0c-3.7,3-7.3,6-10.9,9.1
				c-2.3,1.9-2,5.7,0,7.7C653.5,436,656.7,435.6,659,433.8z"/>
			<path class="st2" d="M760.2,356.9c8.7,7.3,17,15,24.9,23.1c5,5.1,13.1-2.7,8-7.9c-7.9-8.1-16.3-15.7-25.1-22.9
				C762.7,344.8,754.7,352.3,760.2,356.9z"/>
			<path class="st2" d="M750.1,434.5c3.2-12.3,5.2-24.8,6.1-37.5c0.5-7-10.5-7-11.1,0c-1,11.7-3,23.2-6,34.5
				C737.3,438.6,748.3,441.5,750.1,434.5z"/>
			<path class="st2" d="M813.7,425.5c7.3-1.2,4.2-12.2-3.1-11c-7.8,1.3-15.6,1.5-23.5,1c-7.4-0.5-7.3,10.7,0,11.3
				C796.1,427.4,804.8,426.9,813.7,425.5z"/>
			<path class="st2" d="M844.1,334.1c-2.9,3.2-6.3,4.9-10.4,5.8c-2.9,0.6-4.7,3.9-3.9,6.7c0.9,3.2,3.9,4.2,6.8,3.8
				c5.9-0.8,11.5-4.1,15.4-8.5C856.9,336.5,849,328.8,844.1,334.1z"/>
			<path class="st2" d="M829,296.8c2.5-4.1,5.6-7.6,9.2-10.8c2.3-2,2.1-5.8,0-7.9c-2.2-2.2-5.8-2.1-8,0c-4.2,3.9-7.8,8.3-10.8,13.2
				C815.6,297.4,825.2,302.7,829,296.8z"/>
			<path class="st2" d="M940.3,282.2c-6.8,3.9-13,8.9-18.2,14.8c-4.8,5.5,3.3,13.4,8.1,7.9c4.6-5.3,9.7-9.7,15.8-13.3
				C952.2,288.1,946.5,278.7,940.3,282.2z"/>
			<path class="st2" d="M905,366.1c5,5.3,13.2-2.6,8.1-8c-5.3-5.7-10.7-11.3-16.1-16.9c-5-5.3-13.1,2.6-8.1,7.9
				C894.3,354.8,899.7,360.4,905,366.1z"/>
			<path class="st2" d="M887.1,397c-7.4-3.3-14.7-6.6-22.1-9.9c-6.4-2.8-12.3,6.4-5.7,9.5c7.3,3.4,14.6,6.8,21.9,10.1
				C887.9,409.8,893.8,400,887.1,397z"/>
			<path class="st2" d="M968.7,370.5c3.4-11,6.8-22,10-33c2-6.9-8.6-9.6-10.8-2.9c-3.5,10.9-6.8,22-10.1,33
				C955.7,374.5,966.6,377.3,968.7,370.5z"/>
			<path class="st2" d="M900.9,754.9c8.8-7.4,17.7-14.7,26.3-22.3c5.4-4.7-2-12.8-7.5-8.3c-8.9,7.3-17.6,14.7-26.4,22.2
				C887.8,751.1,895.4,759.5,900.9,754.9z"/>
			<path class="st2" d="M882.2,446.1c-3.3-3.7-6.7-7.3-10.1-10.9c-2.1-2.1-5.8-2-7.8,0c-2.3,2.2-1.9,5.4,0,7.7
				c3.2,3.8,6.6,7.4,9.9,11.1c2,2.3,5.9,2,8,0C884.4,451.7,884.2,448.3,882.2,446.1z"/>
			<path class="st2" d="M1008.5,397c5.7-1.7,11.4-3.7,17.1-5.6c6.9-2.3,3.9-13.1-3-10.8c-5.7,2-11.4,3.8-17,6
				C999.1,389,1001.7,399.1,1008.5,397z"/>
			<path class="st2" d="M1023.9,301.7c4.4-1.9,8.7-4,13-6c2.7-1.3,3.5-5.1,2-7.6c-1.6-2.8-5-3.3-7.7-2c-4.3,2-8.6,4-12.9,6.1
				c-2.6,1.3-3.4,5-2,7.4C1018,302.5,1021.2,302.9,1023.9,301.7z"/>
			<path class="st2" d="M1105.1,322c2.4,2.3,5.7,1.9,8.1,0c6.5-5.2,12.1-11.7,16-19.1c3.4-6.3-6.2-11.8-9.7-5.6
				c-3.8,6.6-8.4,12-14.4,16.7C1102.7,315.9,1103.1,320,1105.1,322z"/>
			<path class="st2" d="M1133,368.2c-4.8-4.2-10.1-7.7-16-10.2c-2.7-1.1-5.9-0.8-7.5,1.9c-1.4,2.3-0.7,6.2,2,7.4
				c5,2.2,9.5,5.1,13.5,8.8C1130.3,381.1,1138.5,373.1,1133,368.2z"/>
			<path class="st2" d="M1086,413.8c3.3-5.7,6.7-11.3,9.9-17.1c3.4-6.2-5.9-11.4-9.5-5.5c-3.5,5.6-6.8,11.3-10.1,16.9
				C1072.6,414.5,1082.4,420,1086,413.8z"/>
			<path class="st2" d="M1135.3,420.8c3.6,2.4,7.3,4.8,10.9,7.2c2.6,1.7,6.4,0.5,7.9-2c1.7-2.8,0.5-6.1-2.1-7.8l-10.9-7.1
				c-2.6-1.7-6.3-0.5-7.8,2C1131.6,415.9,1132.8,419.1,1135.3,420.8z"/>
			<path class="st2" d="M1167,326.3c-1.5-2.6-5.1-3.5-7.6-2c-3.4,2-6.7,3.9-10,6c-2.5,1.5-3.5,4.8-2,7.4c1.5,2.6,5,3.4,7.6,1.9
				c3.4-1.9,6.7-3.9,10.1-5.9C1167.6,332.3,1168.5,328.9,1167,326.3z"/>
			<path class="st2" d="M1247.4,341.3c-3.8,6.6-7.4,13.3-11.1,19.9c-3.5,6.3,6.3,11.9,9.8,5.6c3.7-6.7,7.3-13.3,10.9-20
				C1260.4,340.6,1250.9,335.2,1247.4,341.3z"/>
			<path class="st2" d="M896.5,656.7c6.6-3.7,13.3-7.5,19.9-11.3c6.1-3.6,0.9-13.1-5.3-9.7c-6.7,3.6-13.3,7.4-20,11.1
				C884.8,650.3,890.2,660.2,896.5,656.7z"/>
			<path class="st2" d="M1209,308c2,2.3,6,2,8,0c2.3-2.3,2-5.6,0-7.9c-3.7-4.3-7.4-8.6-11.1-12.9c-2-2.3-5.9-2-7.9,0
				c-2.3,2.3-1.9,5.5,0,7.8C1201.7,299.4,1205.4,303.7,1209,308z"/>
			<path class="st2" d="M1183.1,375c-2.4,2.3-2,5.6,0,8c3.8,4.6,8.2,8.5,13.2,11.9c2.5,1.7,6.4,0.5,7.8-2c1.7-2.8,0.5-6-2.1-7.7
				c-4.1-2.8-7.7-6.3-10.8-10.1C1189.2,372.6,1185.1,373,1183.1,375z"/>
			<path class="st2" d="M591.4,468.3c-2.4,4.6-4.7,9.3-7,14c-1.3,2.7-0.7,6,2,7.6c2.5,1.4,6.4,0.7,7.7-2c2.3-4.7,4.6-9.4,6.8-14.1
				c1.3-2.7,0.8-5.9-2-7.5C596.6,464.9,592.8,465.6,591.4,468.3z"/>
			<path class="st2" d="M1032.2,445.1c-3.4-3.2-6-6.7-8.2-10.8c-3.3-6.2-12.9-0.8-9.6,5.5c2.5,4.9,5.9,9.3,9.8,13.2
				C1029.3,458,1037.4,450.1,1032.2,445.1z"/>
			<path class="st2" d="M1094.9,470.6c1.7-5.7,3.4-11.3,5-17c2.1-7.1-9.1-10.1-11.2-3.1c-1.7,5.7-3.4,11.3-5.1,17
				C1081.5,474.7,1092.8,477.7,1094.9,470.6z"/>
			<path class="st2" d="M1218.2,440.2c-5.6,8.3-11.3,16.6-16.9,24.9c-4.1,6.1,5.9,11.9,10,5.8c5.6-8.3,11.2-16.6,16.8-24.9
				C1232.2,439.9,1222.3,434.2,1218.2,440.2z"/>
			<path class="st2" d="M1264.4,439.1c4.6,5.9,14-0.9,9.4-6.8c-4.4-5.7-8.4-11.7-11.7-18.1c-1.5-2.8-4.4-4.4-7.5-3.2
				c-2.7,1-4.6,4.7-3.2,7.4C1255.1,425.6,1259.4,432.6,1264.4,439.1z"/>
			<path class="st2" d="M1290,305.2c-5.2-4-10.4-8.1-15.7-12.1c-5.8-4.5-12.6,4.6-6.9,9.1c5.2,4.1,10.4,8.1,15.6,12.2
				C1288.9,318.9,1295.8,309.7,1290,305.2z"/>
			<path class="st2" d="M1065,345.2c-8.3-4.4-16.4-9.3-23.9-15.1c-5.5-4.3-13.6,3.3-7.9,7.8c8.2,6.5,16.8,12.2,26,17
				C1065.7,358.2,1071.6,348.6,1065,345.2z"/>
			<path class="st2" d="M606.7,537.7c5.7-5-2.7-13-8.3-8.2c-10.9,9.4-20.7,20.1-29.6,31.5c-3.9,5,4.9,11.6,8.9,6.7
				C586.5,556.8,596.3,546.9,606.7,537.7z"/>
			<path class="st2" d="M678.1,515.2c-9.3-8.4-17.8-17.5-25.7-27.3c-3.9-4.8-12.7,1.6-8.8,6.7c7.9,10.3,16.7,19.9,26.3,28.6
				C675.4,528.1,683.6,520.1,678.1,515.2z"/>
			<path class="st2" d="M651.9,604.7c4.4-5.6,8.8-11.2,13.1-16.9c1.9-2.4,0.4-6.3-2.1-7.7c-2.9-1.7-5.9-0.4-7.8,2
				c-4.4,5.6-8.7,11.3-13.1,17c-1.9,2.4-0.4,6.3,2,7.7C647,608.4,650,607.1,651.9,604.7z"/>
			<path class="st2" d="M717.9,530.4c2.4,6.7,13.3,3.9,10.9-3c-2.4-7-4.8-14-7.3-20.9c-2.4-6.6-13.2-3.9-10.9,2.9
				C713,516.5,715.4,523.5,717.9,530.4z"/>
			<path class="st2" d="M708.4,578.8c1.5,2.5,5,3.5,7.5,1.9c3.7-2.3,7.4-4.6,11-6.9c2.5-1.6,3.6-4.8,2-7.5c-1.5-2.5-5.1-3.6-7.6-2
				c-3.7,2.4-7.3,4.7-11,7.1C707.9,573,706.8,576.2,708.4,578.8z"/>
			<path class="st2" d="M772.2,506.1c-4.9-3.6-11.7,4.7-6.7,8.5c4.8,3.7,8.7,8,11.7,13.3c3.5,6.2,13.3,0.7,9.7-5.6
				C783.2,515.8,778.2,510.4,772.2,506.1z"/>
			<path class="st2" d="M603.1,603.6c-2.7,0-5.9,2.5-5.5,5.4c0.9,8,3.1,15.5,6.7,22.8c3.2,6.4,13,0.8,9.7-5.6
				c-2.7-5.4-4.6-11.2-5.4-17.2C608.3,606.1,606.3,603.7,603.1,603.6z"/>
			<path class="st2" d="M639.1,689.9c-3.7,3-7.3,6-10.9,9.1c-2.3,1.9-2,5.7,0,7.7c2.3,2.3,5.5,1.8,7.8,0c3.7-2.9,7.4-5.9,11.1-8.9
				c2.3-1.9,2-5.8,0-7.8C644.8,687.6,641.5,687.9,639.1,689.9z"/>
			<path class="st2" d="M760.2,569.9c8.7,7.3,17,15,24.9,23.1c5,5.1,13.1-2.7,8-7.9c-7.9-8.1-16.3-15.7-25.1-22.9
				C762.7,557.8,754.7,565.3,760.2,569.9z"/>
			<path class="st2" d="M685,650.7c9-7.5,18.6-14.1,28.7-20c6.3-3.6,0.6-13.5-5.6-9.9c-11,6.4-21.3,13.7-31,22
				C671.8,647.3,679.6,655.1,685,650.7z"/>
			<path class="st2" d="M777.1,638.8c8.9,0.7,17.7,0.2,26.5-1.2c7.3-1.2,4.2-12.2-3.1-11c-7.8,1.3-15.6,1.5-23.5,1
				C769.8,627,769.9,638.2,777.1,638.8z"/>
			<path class="st2" d="M844.1,547.1c-2.9,3.2-6.3,4.9-10.4,5.8c-2.9,0.6-4.7,3.9-3.9,6.7c0.9,3.2,3.9,4.2,6.8,3.8
				c5.9-0.8,11.5-4.1,15.4-8.5C856.9,549.6,849,541.8,844.1,547.1z"/>
			<path class="st2" d="M825,497.8c2.5-4.1,5.6-7.6,9.2-10.8c2.3-2,2.1-5.8,0-7.9c-2.2-2.2-5.8-2.1-8,0c-4.2,3.9-7.8,8.3-10.8,13.2
				C811.6,498.4,821.2,503.8,825,497.8z"/>
			<path class="st2" d="M943.9,485.7c6.2-3.7,0.5-13.1-5.7-9.5c-6.8,3.9-13,8.9-18.2,14.8c-4.8,5.5,3.3,13.4,8.1,7.9
				C932.7,493.7,937.9,489.3,943.9,485.7z"/>
			<path class="st2" d="M905,579.1c5,5.3,13.2-2.6,8.1-8c-5.3-5.7-10.7-11.3-16.1-16.9c-5-5.3-13.1,2.6-8.1,7.9
				C894.3,567.8,899.7,573.5,905,579.1z"/>
			<path class="st2" d="M862.1,615c-7.4-3.3-14.7-6.6-22.1-9.9c-6.4-2.8-12.3,6.4-5.7,9.5c7.3,3.4,14.6,6.8,21.9,10.1
				C862.9,627.9,868.8,618.1,862.1,615z"/>
			<path class="st2" d="M968.6,524.6c-5.7,2-11.4,3.8-17,6c-6.5,2.5-3.9,12.5,2.9,10.4c5.7-1.7,11.4-3.7,17.1-5.6
				C978.5,533.1,975.5,522.3,968.6,524.6z"/>
			<path class="st2" d="M1023.9,514.7c4.4-1.9,8.7-4,13-6c2.7-1.3,3.5-5.1,2-7.6c-1.6-2.8-5-3.3-7.7-2c-4.3,2-8.6,4-12.9,6.1
				c-2.6,1.3-3.4,5-2,7.4C1018,515.5,1021.2,515.9,1023.9,514.7z"/>
			<path class="st2" d="M1135.2,512.9c3.4-6.3-6.2-11.8-9.7-5.6c-3.8,6.6-8.4,12-14.4,16.7c-2.4,1.9-2,6,0,7.9
				c2.4,2.3,5.7,1.9,8.1,0C1125.7,526.8,1131.3,520.3,1135.2,512.9z"/>
			<path class="st2" d="M1138.5,564.4c5,2.2,9.5,5.1,13.5,8.8c5.3,4.9,13.6-3.1,8.1-7.9c-4.8-4.2-10.1-7.7-16-10.2
				c-2.7-1.1-5.9-0.8-7.5,1.9C1135.1,559.3,1135.8,563.2,1138.5,564.4z"/>
			<path class="st2" d="M1228.1,564.9c3.7-6.7,7.3-13.3,10.9-20c3.3-6.3-6.1-11.6-9.6-5.5c-3.8,6.6-7.4,13.3-11.1,19.9
				C1214.8,565.6,1224.7,571.2,1228.1,564.9z"/>
			<path class="st2" d="M1201,513.1c2,2.3,6,2,8,0c2.3-2.3,2-5.6,0-7.9c-3.7-4.3-7.4-8.6-11.1-12.9c-2-2.3-5.9-2-7.9,0
				c-2.3,2.3-1.9,5.5,0,7.8C1193.7,504.4,1197.4,508.7,1201,513.1z"/>
			<path class="st2" d="M1202.2,590c-2-2.4-6.1-2-8.1,0c-2.4,2.3-2,5.6,0,8c3.8,4.6,8.2,8.5,13.2,11.9c2.5,1.7,6.4,0.5,7.8-2
				c1.7-2.8,0.5-6-2.1-7.7C1209,597.3,1205.4,593.9,1202.2,590z"/>
			<path class="st2" d="M582.4,667.3c-2.4,4.6-4.7,9.3-7,14c-1.3,2.7-0.7,6,2,7.6c2.5,1.4,6.4,0.7,7.7-2c2.3-4.7,4.6-9.4,6.8-14.1
				c1.3-2.7,0.8-5.9-2-7.5C587.6,663.9,583.8,664.7,582.4,667.3z"/>
			<path class="st2" d="M1025.2,595.1c-3.4-3.2-6-6.7-8.2-10.8c-3.3-6.2-12.9-0.8-9.6,5.5c2.5,4.9,5.9,9.3,9.8,13.2
				C1022.3,608,1030.4,600.1,1025.2,595.1z"/>
			<path class="st2" d="M1101.1,678c-1.7,5.7-3.4,11.3-5.1,17c-2.1,7.2,9.2,10.2,11.3,3.1c1.7-5.7,3.4-11.3,5-17
				C1114.5,673.9,1103.3,670.9,1101.1,678z"/>
			<path class="st2" d="M1201.3,673.9c5.6-8.3,11.2-16.6,16.8-24.9c4.1-6.1-5.8-11.8-9.9-5.8c-5.6,8.3-11.3,16.6-16.9,24.9
				C1187.2,674.2,1197.2,680,1201.3,673.9z"/>
			<path class="st2" d="M1272.4,671.1c4.6,5.9,14-0.9,9.4-6.8c-4.4-5.7-8.4-11.7-11.7-18.1c-1.5-2.8-4.4-4.4-7.5-3.2
				c-2.7,1-4.6,4.7-3.2,7.4C1263.1,657.7,1267.4,664.6,1272.4,671.1z"/>
			<path class="st2" d="M1280,538c-4.7,4.7-9.4,9.3-14,14c-5.2,5.2,2.9,13.1,8.1,8c4.7-4.6,9.4-9.2,14.1-13.9
				C1293.5,540.8,1285.2,532.8,1280,538z"/>
			<path class="st2" d="M1078.9,555.4c-8.3-4.4-16.4-9.3-23.9-15.1c-5.5-4.3-13.6,3.3-7.9,7.8c8.2,6.5,16.8,12.2,26,17
				C1079.6,568.4,1085.4,558.8,1078.9,555.4z"/>
			<path class="st2" d="M577.1,258c5.2,5,13.3-2.8,8-7.9c-4.6-4.4-9.2-8.8-13.8-13.2c-5.1-4.9-13.1,2.7-7.9,7.8
				C568,249.1,572.5,253.5,577.1,258z"/>
			<path class="st2" d="M641.2,236.8c1.6,2.8,5.1,3.4,7.8,2c3.3-1.7,6.7-3.3,10-5c2.7-1.4,3.6-5.2,2.1-7.7c-1.6-2.8-5.1-3.4-7.8-2
				c-3.3,1.7-6.7,3.4-10,5C640.6,230.5,639.7,234.3,641.2,236.8z"/>
			<path class="st2" d="M699.4,206.7c4,2.4,7.9,4.8,11.9,7.2c6.3,3.7,12.1-5.9,5.8-9.7c-4-2.4-7.9-4.8-11.9-7.1
				C698.9,193.2,693.1,202.9,699.4,206.7z"/>
			<path class="st2" d="M734.5,238.2c-7.9,2.2-15.4,5.5-22.2,10c-6.2,4-0.4,13.9,5.8,9.8c6.1-3.9,12.5-6.9,19.4-9
				C744.6,247,741.6,236.2,734.5,238.2z"/>
			<path class="st2" d="M802.7,198.6c-4-1-8-2-12-3c-7-1.7-10.1,9-3,10.8c4,1,8,2,12,3C806.7,211.2,809.8,200.4,802.7,198.6z"/>
			<path class="st2" d="M791.7,253.5c0.5,3,4.3,4.6,7,3.9c3.2-0.9,4.5-3.9,4-6.9c-0.7-4.3-1.3-8.7-2-13c-0.5-3-4.3-4.6-6.9-3.9
				c-3.2,0.9-4.4,3.8-3.9,6.8C790.4,244.8,791.1,249.1,791.7,253.5z"/>
			<path class="st2" d="M838.2,226.3c-1.6,2.7-0.5,6,2,7.6c3.7,2.3,7.3,4.6,11,7c2.6,1.6,6.3,0.5,7.8-2c1.6-2.7,0.5-6.1-2.1-7.7
				c-3.7-2.3-7.4-4.6-11.1-6.9C843.4,222.7,839.7,223.7,838.2,226.3z"/>
			<path class="st2" d="M889.8,289.5c2.6-7.7,5.2-15.4,7.9-23c2.3-6.9-8.6-9.7-11-3c-2.7,7.7-5.3,15.3-8,23
				C876.3,293.5,887.5,296.4,889.8,289.5z"/>
			<path class="st2" d="M974.5,270.5c2.1,7,4.7,13.7,7.8,20.3c3.1,6.5,13.1,0.9,9.9-5.7c-2.8-5.7-5-11.5-6.9-17.5
				C983.2,260.9,972.5,263.7,974.5,270.5z"/>
			<path class="st2" d="M993.7,214.5c-6-1.1-11.5-3-16.8-6.1c-6.2-3.6-12,5.9-5.7,9.6c6,3.6,12.6,6.1,19.5,7.3
				C997.7,226.6,1000.9,215.8,993.7,214.5z"/>
			<path class="st2" d="M1054.7,238.5c1-4.3,2-8.7,3-13c1.6-7-9.3-9.9-10.9-3c-1,4.3-2,8.7-3,13
				C1042.1,242.6,1053,245.5,1054.7,238.5z"/>
			<path class="st2" d="M1075.4,292c0.8,7.1,12.2,7.1,11.3,0c-1.1-9-1.4-18-1-27c0.3-7-10.8-7-11.1,0
				C1074.2,274,1074.4,283,1075.4,292z"/>
			<path class="st2" d="M1154,220.1c-6-3.7-12-7.3-18-11c-6.2-3.8-12,5.9-5.8,9.7c6,3.7,12,7.4,18,11
				C1154.5,233.6,1160.3,224,1154,220.1z"/>
			<path class="st2" d="M1177,253.1c-1.5-2.5-5.2-3.7-7.8-2c-3.7,2.4-7.3,4.7-11,7.1c-2.5,1.7-3.7,4.9-2,7.7c1.5,2.5,5.2,3.7,7.8,2
				c3.7-2.4,7.3-4.7,10.9-7.1C1177.5,259.1,1178.6,255.8,1177,253.1z"/>
			<path class="st2" d="M1242.2,262.4c1.5-2.5,0.7-6.4-2.1-7.7c-4.7-2.2-8.4-5.5-10.9-10c-3.6-6.3-13.5-0.7-9.9,5.7
				c3.4,6.1,8.7,11.1,15,14C1237.2,265.7,1240.5,265.2,1242.2,262.4z"/>
			<path class="st2" d="M1273.2,225.9c2.7-1.7,3.6-4.9,2.1-7.7c-1.7-3-3.3-6-5-9c-1.4-2.6-5.3-3.6-7.9-2c-2.7,1.7-3.6,4.9-2.1,7.7
				c1.7,3,3.3,6,5,9C1266.8,226.5,1270.6,227.6,1273.2,225.9z"/>
			<path class="st2" d="M912.1,213.9c2.6,6,5.4,12,8.1,18c1.3,2.8,5.3,3.4,7.7,2c2.8-1.6,3.3-4.8,2-7.6c-2.7-6-5.4-12-8.2-17.9
				c-1.3-2.7-5.2-3.4-7.6-2C911.2,208,910.9,211.1,912.1,213.9z"/>
			<path class="st2" d="M694.9,432.6c-0.8,5.5-1.5,11-2.3,16.5c-0.8,6.1,10.2,7.6,11,1.5c0.8-5.5,1.5-11,2.3-16.5
				C706.8,427.9,695.8,426.4,694.9,432.6z"/>
			<path class="st2" d="M755.1,473.6c4.3,0.3,8.4,1.3,12.5,2.8c2.8,1.1,6.2-1.2,7-3.9c0.9-3.2-1.1-5.8-4-6.9
				c-5-1.9-10.2-2.8-15.5-3.2c-3-0.2-5.7,2.7-5.7,5.6C749.5,471.2,752.1,473.4,755.1,473.6z"/>
			<path class="st2" d="M881.2,509.9c2.1-2.1,2.3-5.8,0-7.9c-2.2-2-5.8-2.2-8,0c-1.7,1.7-3.3,3.3-5,5c-2.1,2.1-2.3,5.8,0,7.9
				c2.2,2,5.8,2.2,8,0C877.8,513.3,879.5,511.6,881.2,509.9z"/>
			<path class="st2" d="M932.1,425.8c4.7,1.4,9.3,2.7,14,4c7,2,10-8.7,3-10.8c-4.7-1.4-9.3-2.7-14-4
				C928.1,413,925.1,423.7,932.1,425.8z"/>
			<path class="st2" d="M993.6,488.5c1.7-5,3.5-10,5.2-14.9c2.4-6.9-8.7-9.8-11.1-3c-1.7,5-3.4,10-5.1,15
				C980.3,492.4,991.3,495.3,993.6,488.5z"/>
			<path class="st2" d="M1163.7,467.5c-5.3-1.8-10.6-3.5-15.9-5.3c-7-2.3-10.1,8.6-3.1,11c5.3,1.8,10.6,3.5,15.9,5.2
				C1167.7,480.7,1170.6,469.9,1163.7,467.5z"/>
			<path class="st2" d="M1261.2,491.9c4.6,1.9,9,3.1,13.9,3.7c3,0.3,5.7-2.8,5.7-5.6c0-3.4-2.7-5.3-5.7-5.6c-2.7-0.3-5.6-1-8.2-2.1
				c-2.8-1.2-6.1-0.8-7.8,2C1257.8,486.6,1258.4,490.7,1261.2,491.9z"/>
			<path class="st2" d="M599.4,745.5c5.9,3.2,11.7,6.5,17.6,9.7c6.4,3.5,12.3-6.2,5.8-9.8c-5.9-3.2-11.8-6.4-17.7-9.6
				C598.8,732.5,593,742,599.4,745.5z"/>
			<path class="st2" d="M692.3,744.5c8.7,3.7,17.5,5.9,26.9,6.8c7.3,0.7,7.3-10.7,0-11.3c-7.8-0.7-15.3-2.7-22.5-5.6
				C690.8,732,686.4,742,692.3,744.5z"/>
			<path class="st2" d="M741,685.2c-6.3-3-12.7-6-19-8.9c-6.3-2.9-12.1,6.2-5.6,9.4c6.3,3.1,12.6,6.1,18.9,9.2
				C741.8,698,747.6,688.3,741,685.2z"/>
			<path class="st2" d="M816,702.7c5.3,5.1,12.4-4.1,7.1-9.2l-23.3-22.4c-5.3-5.1-12.2,4.1-7,9.1C800.5,687.7,808.3,695.2,816,702.7
				z"/>
			<path class="st2" d="M792,748c-0.9-8.3-1-16.7-0.3-25c0.6-7.2-10.7-7.1-11.4,0c-0.8,8.4-0.7,16.7,0.3,25
				C781.3,755.1,792.7,755.2,792,748z"/>
			<path class="st2" d="M862.7,721.3c2.8,0.5,6.3-1.5,6.5-4.5c0.6-6.6,1.8-13,3.6-19.4c0.9-2.9-1.7-6.1-4.5-6.7
				c-3.3-0.6-5.7,1.6-6.5,4.5c-1.9,6.3-3.1,12.8-3.6,19.4C858,717.6,859.5,720.6,862.7,721.3z"/>
			<path class="st2" d="M943.4,694c3.2-5.8,6.3-11.5,9.4-17.3c3.5-6.5-6.4-12.1-9.9-5.7c-3.2,5.8-6.3,11.5-9.4,17.3
				C929.9,694.8,939.9,700.4,943.4,694z"/>
			<path class="st2" d="M959,615c0.5-9.4,1.9-18.5,4.3-27.6c1.8-7.1-9.2-10-11-3c-2.6,10-4.1,20.3-4.6,30.6
				C947.2,622.2,958.6,622.2,959,615z"/>
			<path class="st2" d="M974.4,742.9c0.8,3,4.5,4.4,7.3,3.4c3.1-1.1,4.3-4.3,3.5-7.3c-1.3-4.8-2.6-9.6-3.9-14.3
				c-0.8-3-4.6-4.4-7.3-3.4c-3.1,1.1-4.3,4.3-3.5,7.3C971.7,733.4,973.1,738.1,974.4,742.9z"/>
			<path class="st2" d="M1023.2,758c5.3,2.7,10.7,5.3,16,8c6.6,3.3,12.5-6.5,5.8-9.8c-5.3-2.7-10.7-5.3-16-8
				C1022.4,745,1016.5,754.7,1023.2,758z"/>
			<path class="st2" d="M1042.9,680.8c-5.7,5-11.3,10-17,15c-5.6,5,2.7,13,8.2,8.1c5.7-5,11.3-10,17-15
				C1056.8,684,1048.5,675.9,1042.9,680.8z"/>
			<path class="st2" d="M1132.1,634c4.7,3.7,9.3,7.3,14,11c2.4,1.9,5.8,2.4,8.2,0c2-2,2.5-6.1,0-8.1l-14-11c-2.4-1.9-5.8-2.4-8.2,0
				C1130,628,1129.6,632.1,1132.1,634z"/>
			<path class="st2" d="M991.3,648.8c3.6,2.8,7.1,5.6,10.7,8.5c5.8,4.6,12.8-4.6,7-9.2c-3.6-2.8-7.1-5.6-10.7-8.4
				C992.5,635.1,985.5,644.3,991.3,648.8z"/>
			<path class="st2" d="M1161.1,743c5.5,4.8,13.7-3.1,8.2-8c-5.8-5.1-10.5-11-14.3-17.7c-3.6-6.4-13.5-0.7-10,5.7
				C1149.2,730.5,1154.6,737.3,1161.1,743z"/>
			<path class="st2" d="M1111.4,776.1c3.8,6.4,13.6,0.6,9.8-5.8c-5.7-9.4-11.4-18.8-17.1-28.2c-3.7-6.1-13.1-0.6-9.5,5.6
				C1100.2,757.2,1105.8,766.7,1111.4,776.1z"/>
		</g>
	</g>
	<g>
		<path class="st3" d="M853.9,205.6c8.5,0.4,19.5,1.8,19.5,1.8c4.2,9.5,18.9,18.2,22.2,21c8.8,7.3,26.7,8.6,33.6,13.8
			c9.9,7.5,18.1,16.4,30.9,16.5c15,0.2,16.3-9.9,14.7-15.4c-1.5-5.1-2.9-10.7-13.9-16.3c-7.4-3.8-16.1-6.8-20.1-15.6
			c-2.3-4.9-4-10-3.1-14.3c1.4-7.2,8.7-8.2,12.6-7.6c6.2,0.9,23.3,18.2,27.5,22c-1.1,3.7-4.3,11.1-4.5,17.7
			c-0.5,18,8.2,30.2,14.2,30.2c10.7,0,9.7-13,12-23.1c1.7-7.4,9.3-35.5,6.6-39.9c-2.7-4.4-29.4-35.9-36.6-38.2
			c-7.3-2.2-50.9-16.9-67.2-16.9s-48.1,0-48.1,0"/>
		<rect x="821.8" y="136.1" class="st3" width="32.1" height="80.2"/>
		<path class="st3" d="M971.6,275.2c-14.8,0-26.7,12-26.7,26.7c0,11,6.6,20.4,16,24.5v7.6l5.3,5.3l-5.3,5.3v10.7l5.3,5.3l-5.3,5.3
			v16h10.7l10.7-10.7v-45c9.4-4.1,16-13.5,16-24.5C998.3,287.1,986.3,275.2,971.6,275.2z"/>
		<path class="st3" d="M939.5,282.6c-6.8,0-13.7,2.6-18.9,7.8c-7.7,7.7-9.7,19.1-6,28.7L896.7,337v7.7l-10.7,3l-10.8,10.8l7.6,7.6
			h13.9l32.1-32.1c6.6,2.6,14.6,2.6,21.4-0.3"/>
		<line class="st3" x1="971.6" y1="296.5" x2="971.6" y2="253.8"/>
	</g>
</g>
</svg>
