<svg id="download-circular-button" xmlns="http://www.w3.org/2000/svg" width="27.859" height="27.859" viewBox="0 0 27.859 27.859">
  <g id="_x37__43_">
    <g id="Group_1553" data-name="Group 1553">
      <path id="Path_1977" data-name="Path 1977" d="M18.388,13.463,14.8,17.052V7.835a.871.871,0,0,0-1.741,0v9.216L9.471,13.464A.87.87,0,1,0,8.24,14.695l4.925,4.925a.854.854,0,0,0,.765.225.857.857,0,0,0,.765-.225l4.925-4.925a.871.871,0,0,0-1.233-1.232ZM13.93,0a13.93,13.93,0,1,0,13.93,13.93A13.93,13.93,0,0,0,13.93,0Zm0,26.118A12.188,12.188,0,1,1,26.118,13.93,12.188,12.188,0,0,1,13.93,26.118Z" fill="#009cdc"/>
    </g>
  </g>
</svg>
