<svg xmlns="http://www.w3.org/2000/svg" width="174.783" height="49.332" viewBox="0 0 174.783 49.332"><defs><style>.a{fill:#bcbec0;}.b{fill:#0098d1;}.c{fill:#0076a3;}.d{fill:#58595b;}</style></defs><g transform="translate(-893.074 -43.729)"><g transform="translate(893.075 43.729)"><path class="a" d="M922.934,43.729V57.071l7.286,4.828,10.709-6.145Z" transform="translate(-898.97 -43.729)"/><path class="b" d="M893.075,84.188V97.53l41.958-23.964-10.709-7.2Z" transform="translate(-893.075 -48.199)"/><path class="c" d="M932.012,64.857l10.709,7.2V58.713Z" transform="translate(-900.762 -46.687)"/></g><g transform="translate(942.845 53.735)"><path class="d" d="M958.162,59.444v4.477h7.549v2.721h-7.549v6.672H955.09V56.635h11.5v2.721h-8.426Z" transform="translate(-955.09 -56.283)"/><path class="d" d="M971.6,59.379V56.307h3.16v3.072Zm.088,13.956V61.047h2.985v12.2h-2.985Z" transform="translate(-958.351 -56.219)"/><path class="d" d="M984.64,64.8c-2.107,0-3.16,1.492-3.16,3.424v6.144H978.5V62.17h2.457l.263,1.843a3.491,3.491,0,0,1,3.424-2.019,2.992,2.992,0,0,1,.877.087V64.89A2.45,2.45,0,0,0,984.64,64.8Z" transform="translate(-959.711 -57.342)"/><path class="d" d="M997.491,73.3a5.97,5.97,0,0,1-4.214,1.4,5.45,5.45,0,0,1-3.949-1.4,4.054,4.054,0,0,1-1.317-2.809h2.721a1.91,1.91,0,0,0,.614,1.4,2.879,2.879,0,0,0,1.844.527c.965,0,2.458-.176,2.458-1.58,0-.7-.439-1.141-1.229-1.317-1.053-.176-2.282-.263-3.423-.439a3.433,3.433,0,0,1-2.809-3.247,3.482,3.482,0,0,1,1.229-2.721,5.492,5.492,0,0,1,3.687-1.229,5.377,5.377,0,0,1,3.862,1.4,3.666,3.666,0,0,1,1.054,2.546h-2.809a1.415,1.415,0,0,0-.527-1.141,2.288,2.288,0,0,0-1.579-.527,2.987,2.987,0,0,0-1.229.176,1.427,1.427,0,0,0-.965,1.317c0,.878.79,1.141,1.4,1.229,1.141.176,1.4.176,2.634.352a3.466,3.466,0,0,1,3.335,3.423A2.535,2.535,0,0,1,997.491,73.3Z" transform="translate(-961.59 -57.32)"/><path class="d" d="M1007.892,73.64c-2.458,0-3.687-1.4-3.687-3.775V63.633h-2.194V61.174h2.194V58.1l2.985-.7v3.863h3.072V63.72h-3.072V69.69c0,.965.439,1.316,1.4,1.316a15.611,15.611,0,0,0,1.931-.087v2.457A13.381,13.381,0,0,1,1007.892,73.64Z" transform="translate(-964.354 -56.435)"/><path class="d" d="M1025.74,71.822a7.507,7.507,0,0,1-5.266,1.755,7.154,7.154,0,0,1-5-1.755,5.341,5.341,0,0,1-1.755-3.863h3.072a2.707,2.707,0,0,0,.878,2.019,4,4,0,0,0,2.809.878,4.234,4.234,0,0,0,2.9-.878,2.223,2.223,0,0,0,.7-1.58c0-1.229-.965-1.755-2.019-2.018-1.141-.176-2.545-.263-3.686-.439a4.553,4.553,0,0,1-4.214-4.652,4.72,4.72,0,0,1,1.492-3.335,7.434,7.434,0,0,1,4.916-1.756,6.951,6.951,0,0,1,4.652,1.58,5.143,5.143,0,0,1,1.668,3.6h-3.072a2.864,2.864,0,0,0-.7-1.668,4.055,4.055,0,0,0-2.546-.878,3.779,3.779,0,0,0-2.721.878,1.856,1.856,0,0,0-.526,1.4,1.823,1.823,0,0,0,1.668,1.843c1.054.176,2.546.263,3.6.439,2.457.351,4.564,2.019,4.564,4.827A5.018,5.018,0,0,1,1025.74,71.822Z" transform="translate(-966.665 -56.197)"/><path class="d" d="M1043.017,69.149h-8.163a3.05,3.05,0,0,0,.877,2.37,2.569,2.569,0,0,0,1.843.79,2.038,2.038,0,0,0,1.756-.614,3.033,3.033,0,0,0,.614-1.054h2.809a4.916,4.916,0,0,1-1.053,2.282,5.264,5.264,0,0,1-4.126,1.755,5.511,5.511,0,0,1-3.862-1.492,6.553,6.553,0,0,1-1.844-4.916,7.167,7.167,0,0,1,1.755-4.916,5.522,5.522,0,0,1,8.339.7,6.717,6.717,0,0,1,1.053,4.3Zm-3.686-4.213a2.515,2.515,0,0,0-1.843-.7,2.274,2.274,0,0,0-2.019.965,2.836,2.836,0,0,0-.614,1.931h5.266A3.4,3.4,0,0,0,1039.331,64.935Z" transform="translate(-970.25 -57.298)"/><path class="d" d="M1054.092,64.8c-2.107,0-3.16,1.492-3.16,3.424v6.144h-2.985V62.17h2.457l.264,1.843a3.49,3.49,0,0,1,3.423-2.019,3,3,0,0,1,.878.087V64.89A2.455,2.455,0,0,0,1054.092,64.8Z" transform="translate(-973.424 -57.342)"/><path class="d" d="M1065.845,74.523h-3.16l-4.564-12.2h3.072l3.072,8.6,2.9-8.6h3.072Z" transform="translate(-975.433 -57.406)"/><path class="d" d="M1075.182,59.379V56.307h3.16v3.072Zm.088,13.956V61.047h2.985v12.2h-2.985Z" transform="translate(-978.801 -56.219)"/><path class="d" d="M1091.466,72.769a5.5,5.5,0,0,1-4.213,1.931,5.688,5.688,0,0,1-4.3-1.931,8.267,8.267,0,0,1,0-8.953,5.658,5.658,0,0,1,8.514,0,5.3,5.3,0,0,1,.965,2.633h-2.9a2.489,2.489,0,0,0-.352-1.141,2.1,2.1,0,0,0-1.844-.877,2.222,2.222,0,0,0-1.755.79,4.507,4.507,0,0,0-.79,3.072,4.507,4.507,0,0,0,.79,3.072,2.365,2.365,0,0,0,1.755.79,2.1,2.1,0,0,0,1.844-.877,2.489,2.489,0,0,0,.352-1.141h2.9A4.425,4.425,0,0,1,1091.466,72.769Z" transform="translate(-980.076 -57.32)"/><path class="d" d="M1107.986,69.149h-8.164a3.048,3.048,0,0,0,.878,2.37,2.566,2.566,0,0,0,1.843.79,2.038,2.038,0,0,0,1.756-.614,3.035,3.035,0,0,0,.614-1.054h2.809a4.916,4.916,0,0,1-1.053,2.282,5.264,5.264,0,0,1-4.126,1.755,5.512,5.512,0,0,1-3.862-1.492,6.554,6.554,0,0,1-1.843-4.916,7.164,7.164,0,0,1,1.756-4.916,5.617,5.617,0,0,1,8.426.7,6.721,6.721,0,0,1,1.054,4.3C1107.986,68.358,1107.986,68.886,1107.986,69.149Zm-3.687-4.213a2.515,2.515,0,0,0-1.843-.7,2.273,2.273,0,0,0-2.019.965,2.84,2.84,0,0,0-.614,1.931h5.266A3.4,3.4,0,0,0,1104.3,64.935Z" transform="translate(-983.077 -57.298)"/></g><g transform="translate(994.108 78.226)"><path class="d" d="M1023.441,94.458l-1.4-3.16h-2.107v3.16h-.965V86.822h2.985a2.587,2.587,0,0,1,1.931.7,2.179,2.179,0,0,1,.614,1.58,1.7,1.7,0,0,1-.614,1.492,1.818,1.818,0,0,1-.878.526l1.492,3.335Zm-1.492-6.758h-2.019v2.721h2.019c.877,0,1.579-.351,1.579-1.316C1023.528,88.051,1022.826,87.7,1021.949,87.7Z" transform="translate(-1018.964 -86.735)"/><path class="d" d="M1028.808,94.458V86.822h5.091V87.7h-4.125v2.37h3.6v.878h-3.6v2.633h4.125v.877Z" transform="translate(-1020.908 -86.735)"/><path class="d" d="M1042.518,93.823a3.062,3.062,0,0,1-2.2.79,3.283,3.283,0,0,1-2.194-.7,2.391,2.391,0,0,1-.79-1.843h.965a2.209,2.209,0,0,0,.526,1.23,2.159,2.159,0,0,0,1.492.438,1.814,1.814,0,0,0,1.4-.438,1.017,1.017,0,0,0,.351-.878c0-.615-.351-1.054-1.317-1.229l-1.229-.176c-1.141-.176-2.019-.79-2.019-2.019a1.877,1.877,0,0,1,.7-1.492,2.783,2.783,0,0,1,2.019-.79,3.315,3.315,0,0,1,2.019.7,2.246,2.246,0,0,1,.7,1.668h-.965a1.837,1.837,0,0,0-.352-.965,1.907,1.907,0,0,0-2.633,0,1.575,1.575,0,0,0-.352.79c0,.7.527.965,1.141,1.053.439.088.878.088,1.317.176a2.211,2.211,0,0,1,2.107,2.195A2.653,2.653,0,0,1,1042.518,93.823Z" transform="translate(-1022.592 -86.713)"/><path class="d" d="M1047.51,94.458V86.822h.966v7.636Z" transform="translate(-1024.6 -86.735)"/><path class="d" d="M1056.975,93.669a2.784,2.784,0,0,1-2.019.79h-2.633V86.822h2.633a2.932,2.932,0,0,1,2.019.79,3.846,3.846,0,0,1,.965,3.072A3.47,3.47,0,0,1,1056.975,93.669Zm-.615-5.442a1.933,1.933,0,0,0-1.317-.526h-1.668v5.881h1.668a1.785,1.785,0,0,0,1.317-.527,3.245,3.245,0,0,0,.615-2.37A3.01,3.01,0,0,0,1056.361,88.226Z" transform="translate(-1025.551 -86.735)"/><path class="d" d="M1062.385,94.458V86.822h5.091V87.7h-4.126v2.37h3.6v.878h-3.6v2.633h4.126v.877Z" transform="translate(-1027.537 -86.735)"/><path class="d" d="M1076.422,94.458l-3.774-6.144v6.144h-.965V86.822h1.054l3.774,6.144V86.822h.966v7.636Z" transform="translate(-1029.373 -86.735)"/><path class="d" d="M1084.555,87.7v6.758h-.965V87.7h-2.282v-.878h5.53V87.7Z" transform="translate(-1031.273 -86.735)"/><path class="d" d="M1090.713,94.458V86.822h.965v7.636Z" transform="translate(-1033.13 -86.735)"/><path class="d" d="M1099.852,94.458l-.615-1.843H1095.9l-.614,1.843h-.966l2.721-7.636h1.141l2.722,7.636Zm-2.282-6.671-1.316,3.95h2.721Z" transform="translate(-1033.843 -86.735)"/><path class="d" d="M1104.822,94.458V86.822h.966v6.759h3.686v.877Z" transform="translate(-1035.916 -86.735)"/></g></g></svg>