<?xml version="1.0" encoding="utf-8"?>
<!-- Generator: Adobe Illustrator 22.0.1, SVG Export Plug-In . SVG Version: 6.00 Build 0)  -->
<svg version="1.1" id="Capa_1" xmlns="http://www.w3.org/2000/svg" xmlns:xlink="http://www.w3.org/1999/xlink" x="0px" y="0px"
	 viewBox="0 0 37.9 42.9" style="enable-background:new 0 0 37.9 42.9;" xml:space="preserve">
<style type="text/css">
	.st0{fill:#BDBCC0;}
</style>
<g>
	<g>
		<path class="st0" d="M36.9,42.9H4.3c-0.5,0-0.9-0.4-0.9-0.9v-41C3.3,0.4,3.8,0,4.3,0h32.6c0.5,0,0.9,0.4,0.9,0.9v41
			C37.9,42.5,37.4,42.9,36.9,42.9L36.9,42.9z M5.2,41H36V1.9H5.2V41L5.2,41z"/>
	</g>
	<g>
		<path class="st0" d="M7.6,9.6H0.9C0.4,9.6,0,9.1,0,8.6c0-0.5,0.4-0.9,0.9-0.9h6.7c0.5,0,0.9,0.4,0.9,0.9C8.6,9.1,8.1,9.6,7.6,9.6
			L7.6,9.6z"/>
	</g>
	<g>
		<path class="st0" d="M7.6,18.1H0.9c-0.5,0-0.9-0.4-0.9-0.9c0-0.5,0.4-0.9,0.9-0.9h6.7c0.5,0,0.9,0.4,0.9,0.9
			C8.6,17.6,8.1,18.1,7.6,18.1L7.6,18.1z"/>
	</g>
	<g>
		<path class="st0" d="M7.6,26.5H0.9c-0.5,0-0.9-0.4-0.9-0.9c0-0.5,0.4-0.9,0.9-0.9h6.7c0.5,0,0.9,0.4,0.9,0.9
			C8.6,26.1,8.1,26.5,7.6,26.5L7.6,26.5z"/>
	</g>
	<g>
		<path class="st0" d="M7.6,35H0.9C0.4,35,0,34.6,0,34.1c0-0.5,0.4-0.9,0.9-0.9h6.7c0.5,0,0.9,0.4,0.9,0.9C8.6,34.6,8.1,35,7.6,35
			L7.6,35z"/>
	</g>
	<g>
		<path class="st0" d="M21.8,20.9c-2.9,0-5.3-2.7-5.3-6c0-3.3,2.4-6,5.3-6c2.9,0,5.3,2.7,5.3,6C27.1,18.2,24.8,20.9,21.8,20.9
			L21.8,20.9z M21.8,10.8c-1.9,0-3.4,1.8-3.4,4.1c0,2.3,1.5,4.1,3.4,4.1c1.9,0,3.4-1.8,3.4-4.1C25.2,12.6,23.7,10.8,21.8,10.8
			L21.8,10.8z"/>
	</g>
	<g>
		<path class="st0" d="M30.2,35.7H13.4c-0.5,0-0.9-0.4-0.9-0.9l-0.4-5.4c-0.1-1.9,1.4-4.1,3.3-4.8c4.2-1.5,8.8-1.5,12.9,0
			c1.9,0.7,3.4,2.9,3.3,4.8l-0.4,5.4C31.1,35.4,30.7,35.7,30.2,35.7L30.2,35.7z M14.3,33.9h15l0.3-4.5c0.1-1-0.8-2.5-2-2.9
			c-3.7-1.3-7.9-1.3-11.6,0c-1.2,0.4-2.1,1.9-2,2.9L14.3,33.9L14.3,33.9z"/>
	</g>
</g>
</svg>
