<svg xmlns="http://www.w3.org/2000/svg" viewBox="0 0 82 106"><style type="text/css"> .st0{fill:#FFFFFF;} </style><path class="st0" d="M31.9 37.5c-9 0-16.2-8.3-16.2-18.4C15.7 8.9 23 0.6 31.9 0.6c8.9 0 16.2 8.3 16.2 18.4C48.1 29.2 40.9 37.5 31.9 37.5L31.9 37.5zM31.9 4.4C25 4.4 19.4 11 19.4 19.1c0 8.1 5.6 14.7 12.5 14.7 6.9 0 12.5-6.6 12.5-14.7C44.4 11 38.8 4.4 31.9 4.4L31.9 4.4z"/><path class="st0" d="M59.6 106.1c-12.9 0-23.4-10.5-23.4-23.4 0-12.9 10.5-23.4 23.4-23.4C72.5 59.2 83 69.7 83 82.7 83 95.6 72.5 106.1 59.6 106.1L59.6 106.1zM59.6 63c-10.8 0-19.7 8.8-19.7 19.7 0 10.8 8.8 19.7 19.7 19.7 10.8 0 19.7-8.8 19.7-19.7C79.3 71.8 70.4 63 59.6 63L59.6 63z"/><path class="st0" d="M38.1 84.3H4c-1 0-1.8-0.8-1.9-1.8L0.9 64.7C0.5 58.9 5 52.2 10.8 50.1c13.4-4.8 28.2-4.8 41.6 0 4.4 1.6 8.1 5.7 9.4 10.5l-3.6 1c-0.9-3-3.4-6.7-7.1-8 -12.6-4.5-26.5-4.5-39.1 0 -4.5 1.7-7.7 7.1-7.4 10.8l1.1 16.1h32.3V84.3L38.1 84.3z"/><path class="st0" d="M59.6 95c-1 0-1.9-0.8-1.9-1.9V72.2c0-1 0.8-1.9 1.9-1.9 1 0 1.9 0.8 1.9 1.9v20.9C61.5 94.1 60.6 95 59.6 95L59.6 95z"/><path class="st0" d="M70 84.5H49.2c-1 0-1.9-0.8-1.9-1.9 0-1 0.8-1.9 1.9-1.9H70c1 0 1.9 0.8 1.9 1.9C71.9 83.7 71.1 84.5 70 84.5L70 84.5z"/></svg>