<?xml version="1.0" encoding="utf-8"?>
<!-- Generator: Adobe Illustrator 22.0.1, SVG Export Plug-In . SVG Version: 6.00 Build 0)  -->
<svg version="1.1" id="Capa_1" xmlns="http://www.w3.org/2000/svg" xmlns:xlink="http://www.w3.org/1999/xlink" x="0px" y="0px"
	 viewBox="0 0 82 83.1" style="enable-background:new 0 0 82 83.1;" xml:space="preserve">
<style type="text/css">
	.st0{fill:#78757D;}
</style>
<g>
	<path class="st0" d="M49.5,73.5l0-0.1c-0.2-0.5-0.6-0.9-1.1-1c-0.5-0.1-1.1,0.1-1.4,0.5c-3.7,4.7-7.5,6.8-10.5,5.9
		c-2.5-0.7-3.8-3.4-4.6-5.5c-0.2-0.5-0.6-0.9-1.1-1c-0.5-0.1-1.1,0.1-1.4,0.5c-3.7,4.7-7.5,6.8-10.5,5.9c-2.7-0.8-4.6-4.1-5.4-9
		c-0.3-1.9-0.4-4-0.3-6.2c8.2-2.1,14.5-5.7,19.2-10.8c3.5-3.9,8.9-14,7.1-20.6c-0.7-2.6-2.5-4.4-5.2-5.2c-3.8-1.1-8.2,0.8-12.4,5.5
		c-3.9,4.4-7.2,10.7-9.3,17.8c-1.1,3.7-1.8,7.5-2.1,11c-2.9,0.6-6,1.1-9.3,1.4l0.3,2.9c3.2-0.3,6.1-0.7,8.9-1.3c0,2.1,0.1,4.1,0.4,6
		c1,6.2,3.6,10.2,7.4,11.3c3.7,1.1,8-0.7,12-5.1c1.3,2.7,3.2,4.4,5.5,5.1c0.7,0.2,1.4,0.3,2.2,0.3c3.2,0,6.7-1.9,9.9-5.5
		c1.9,3.2,5.4,5.2,9.2,5.2h2.9v-2.9h-2.9C53.5,78.8,50.6,76.6,49.5,73.5z M15.2,51.1c2-6.7,5.1-12.7,8.7-16.7
		c2.8-3.1,5.6-4.8,8.1-4.8c0.5,0,0.9,0.1,1.3,0.2c1.7,0.5,2.8,1.6,3.3,3.2c1.4,5-3,14-6.5,17.8c-4.1,4.5-9.7,7.7-16.8,9.7
		C13.6,57.5,14.3,54.3,15.2,51.1z"/>
	<path class="st0" d="M78.4,9.6L79,4.4c0.1-0.4,0-1.3-1-2c-1.6-1.2-5.8-1.8-7.7-0.9C69.3,1.9,69,2.7,69,3.2l-0.6,5.2
		c-1.1,0.3-1.9,1.1-2.2,2.2c-2.9-0.1-5.5,2-5.8,4.9l-2,16.2c-0.1,0.9,0.1,1.8,0.7,2.6c0.6,0.7,1.4,1.2,2.3,1.3l0.4-2.9
		c-0.2,0-0.3-0.1-0.4-0.2c-0.1-0.1-0.1-0.2-0.1-0.4l2-16.2c0.2-1.3,1.3-2.3,2.6-2.4l-5.7,46.4c-0.7,5.4,0,10.9,1.9,15.9l0.5,1.4
		l1.3,0.2l0.6,4.3l1.6-4l1.3,0.2l0.9-1.2c3.1-4.4,5.1-9.6,5.7-15l6-49C80.1,11.4,79.5,10.2,78.4,9.6z M76.1,4.6l-0.6,4.5l-4.3-0.5
		L71.8,4C72.8,3.8,75.2,4.1,76.1,4.6z M65.9,74.7l-1.3-0.2c-1.4-3.7-2-7.6-1.9-11.6l7.8,1C69.7,67.8,68.2,71.5,65.9,74.7z
		 M71.1,61.1l-8.1-1l6-48.8c0-0.1,0.1-0.1,0.1-0.1l7.9,1c0.1,0,0.1,0.1,0.1,0.1L71.1,61.1z"/>
</g>
</svg>
