<?xml version="1.0" encoding="utf-8"?>
<!-- Generator: Adobe Illustrator 23.0.4, SVG Export Plug-In . SVG Version: 6.00 Build 0)  -->
<svg version="1.1" id="Layer_1" xmlns="http://www.w3.org/2000/svg" xmlns:xlink="http://www.w3.org/1999/xlink" x="0px" y="0px"
	 viewBox="0 0 72 72" style="enable-background:new 0 0 72 72;" xml:space="preserve">
<g>
	<g>
		<g>
			<path d="M10.5,61.5c-0.3,0-0.6-0.1-0.8-0.4c-0.2-0.2-0.4-0.6-0.3-0.9L10,48c0-0.3,0.1-0.6,0.3-0.8l36.4-36.4
				c0.2-0.2,0.5-0.4,0.8-0.4l0,0c0.3,0,0.6,0.1,0.8,0.4l11.5,11.5c0.2,0.2,0.4,0.5,0.4,0.8s-0.1,0.6-0.4,0.8L23.6,60.4
				c-0.2,0.2-0.5,0.3-0.8,0.3L10.5,61.5C10.6,61.5,10.5,61.5,10.5,61.5L10.5,61.5z M12.4,48.6L11.8,59l10.4-0.6l35.2-35.2l-9.8-9.8
				L12.4,48.6L12.4,48.6z"/>
		</g>
		<g>
			<path d="M52.6,29.7c-0.3,0-0.6-0.1-0.8-0.4L41.4,19c-0.5-0.5-0.5-1.2,0-1.7c0.5-0.5,1.2-0.5,1.7,0l10.3,10.3
				c0.5,0.5,0.5,1.2,0,1.7C53.2,29.6,52.9,29.7,52.6,29.7L52.6,29.7z"/>
		</g>
		<g>
			<path d="M18.9,53.1c-0.3,0-0.6-0.1-0.8-0.4c-0.5-0.5-0.5-1.2,0-1.7l28.4-28.4c0.5-0.5,1.2-0.5,1.7,0c0.5,0.5,0.5,1.2,0,1.7
				L19.7,52.8C19.5,53,19.2,53.1,18.9,53.1L18.9,53.1z"/>
		</g>
		<path d="M11.9,54.3c-0.2,0-0.3,0-0.5,0c-0.2,0-0.3,0.1-0.5,0.1l-0.4,5.9l5.7-0.3c0-0.2,0.1-0.4,0.1-0.7
			C16.7,56.5,14.7,54.3,11.9,54.3L11.9,54.3z"/>
	</g>
	<g>
		<path d="M61.5,61.1H34.6c-0.7,0-1.2-0.5-1.2-1.2c0-0.7,0.5-1.2,1.2-1.2h26.8c0.7,0,1.2,0.5,1.2,1.2C62.7,60.6,62.1,61.1,61.5,61.1
			L61.5,61.1z"/>
	</g>
</g>
</svg>
