<svg xmlns="http://www.w3.org/2000/svg" width="27.702" height="24.404" viewBox="0 0 27.702 24.404"><defs><style>.a{fill:#fff;}</style></defs><g transform="translate(123.251 -2167.963)"><path class="a" d="M-82.371,2199.674q.012.331.036.7t.047.807l.008.154h.824l.008-.154q.023-.443.047-.806t.036-.7c.008-.22.014-.436.02-.647s.008-.438.008-.677v-4.693H-82.4v4.693c0,.239,0,.465.008.678S-82.378,2199.454-82.371,2199.674Z" transform="translate(-27.51 -17.301)"/><path class="a" d="M-82.694,2225.639a.909.909,0,0,0,.348-.068.872.872,0,0,0,.287-.19.963.963,0,0,0,.192-.278.857.857,0,0,0,.073-.356.878.878,0,0,0-.073-.352.945.945,0,0,0-.193-.282.927.927,0,0,0-.283-.192.89.89,0,0,0-.708,0,.939.939,0,0,0-.278.192.882.882,0,0,0-.19.287.91.91,0,0,0-.067.347.867.867,0,0,0,.257.634A.867.867,0,0,0-82.694,2225.639Z" transform="translate(-26.71 -37.632)"/><path class="a" d="M-95.761,2190.024l-12.286-21.281a1.546,1.546,0,0,0-1.353-.781,1.546,1.546,0,0,0-1.353.781l-12.286,21.281a1.544,1.544,0,0,0,0,1.562,1.546,1.546,0,0,0,1.353.781h24.572a1.546,1.546,0,0,0,1.353-.781A1.544,1.544,0,0,0-95.761,2190.024Zm-14.143-20.791a.575.575,0,0,1,.5-.291.575.575,0,0,1,.5.291l12.286,21.281a.574.574,0,0,1,0,.582.575.575,0,0,1-.5.291h-24.572a.575.575,0,0,1-.5-.291.574.574,0,0,1,0-.582Z"/></g></svg>