<?xml version="1.0" encoding="utf-8"?>
<!-- Generator: Adobe Illustrator 22.0.1, SVG Export Plug-In . SVG Version: 6.00 Build 0)  -->
<svg version="1.1" id="Capa_1" xmlns="http://www.w3.org/2000/svg" xmlns:xlink="http://www.w3.org/1999/xlink" x="0px" y="0px"
	 viewBox="0 0 118.9 55.4" style="enable-background:new 0 0 118.9 55.4;" xml:space="preserve">
<style type="text/css">
	.st0{fill:#919295;}
</style>
<g>
	<path class="st0" d="M88.6,16.9h-9.1V0.5h9.1v2.8h-5.9v3.7h5.7v2.8h-5.7v4.4h5.9V16.9z M93.9,16.9h-3.2V0.5h4.8
		c3.7,0,5.8,1.8,5.8,4.9c0,2.5-1.3,4.2-3.8,4.7l5.2,6.9h-4l-4.4-6.6h-0.4V16.9z M93.9,8.1h0.9c2,0,3.1-0.9,3.1-2.5
		c0-1.6-1.1-2.4-3.1-2.4h-1V8.1z M70.9,17.4L78,0.5h-3.5l-4.5,11.1L65.7,0.5h-3.5l7,16.9H70.9z M102.6,2.1h-0.4V0.7h0.5
		c0.4,0,0.6,0.2,0.6,0.4c0,0.2-0.1,0.4-0.3,0.4l0.5,0.6H103l-0.4-0.6L102.6,2.1L102.6,2.1z M102.6,1.3L102.6,1.3
		c0.2,0,0.3-0.1,0.3-0.2c0-0.1-0.1-0.2-0.3-0.2h-0.1V1.3z M15,16.9h3.2V0.5H15V16.9z M13.6,8.7c0,2.4-1.1,4.8-3,6.3
		C9,16.4,7.2,17,4.7,17H0V0.5h4.7C9.9,0.5,13.6,3.9,13.6,8.7L13.6,8.7z M10.2,8.7c0-1.6-0.7-3.1-1.8-4.1c-1.1-1-2.3-1.3-4.4-1.3H3.2
		v10.9h0.9c2.1,0,3.4-0.4,4.4-1.3C9.6,11.9,10.2,10.3,10.2,8.7L10.2,8.7z M54.4,17.5c3.9,0,7.3-2.6,8.4-6.2c0-0.1,0.1-0.3,0.1-0.5
		c0-0.1,0.1-0.3,0.1-0.4c0.1-0.6,0.2-1.2,0.2-1.8c0-4.8-3.9-8.8-8.8-8.8c-3.6,0-6.7,2.2-8.1,5.4c-0.4,1.1-0.7,2.2-0.7,3.4
		C45.7,13.6,49.6,17.5,54.4,17.5L54.4,17.5z M40.6,17.3c1.4,0,2.6-0.3,4-1v-3.8c-1.3,1.3-2.4,1.8-3.9,1.8c-3.2,0-5.5-2.4-5.5-5.7
		c0-3.2,2.4-5.7,5.4-5.7c1.5,0,2.7,0.6,4,1.9V1.1c-1.4-0.7-2.6-1-4-1c-4.9,0-8.8,3.8-8.8,8.6C31.9,13.6,35.7,17.3,40.6,17.3
		L40.6,17.3z M101.5,1.4c0-0.7,0.6-1.3,1.3-1.3c0.7,0,1.2,0.6,1.2,1.3c0,0.7-0.6,1.3-1.2,1.3C102.1,2.7,101.5,2.1,101.5,1.4
		L101.5,1.4z M101.7,1.4c0,0.6,0.5,1,1,1c0.5,0,1-0.5,1-1c0-0.6-0.4-1-1-1C102.2,0.4,101.7,0.8,101.7,1.4L101.7,1.4z M118.9,55.4
		V23.8c0,0-30.9,21.8-87.5,31.6H118.9z M26.1,6.8c-1.9-0.7-2.5-1.2-2.5-2.1c0-1,1-1.8,2.4-1.8c1,0,1.8,0.4,2.6,1.3L30.3,2
		c-1.4-1.2-3-1.8-4.8-1.8c-2.9,0-5.1,2-5.1,4.7c0,2.3,1,3.4,4.1,4.5c1.3,0.4,1.9,0.7,2.2,0.9c0.6,0.4,1,1,1,1.7
		c0,1.3-1.1,2.3-2.5,2.3c-1.5,0-2.8-0.8-3.5-2.2l-2.1,2c1.5,2.2,3.3,3.1,5.7,3.1c3.3,0,5.7-2.2,5.7-5.4C30.9,9.3,29.8,8.1,26.1,6.8
		L26.1,6.8z M26.1,6.8"/>
</g>
</svg>
