<?xml version="1.0" encoding="utf-8"?>
<!-- Generator: Adobe Illustrator 22.0.1, SVG Export Plug-In . SVG Version: 6.00 Build 0)  -->
<svg version="1.1" id="Capa_1" xmlns="http://www.w3.org/2000/svg" xmlns:xlink="http://www.w3.org/1999/xlink" x="0px" y="0px"
	 viewBox="0 0 33.4 30.2" style="enable-background:new 0 0 33.4 30.2;" xml:space="preserve">
<style type="text/css">
	.st0{fill:none;stroke:#969499;stroke-miterlimit:10;}
</style>
<g>
	<path class="st0" d="M30.3,15.9H7.2c-2.9-0.1-5.1-2.5-5-5.3c0.1-2.3,2-4.1,4.3-4c1.8,0.1,3.3,1.6,3.2,3.4c0,1.5-1.3,2.6-2.7,2.6
		c-1.2,0-2.1-1-2.1-2.2c0-0.9,0.8-1.7,1.7-1.6C7.4,8.7,8,9.3,8,10.1c0,0.6-0.5,1.1-1.1,1.1"/>
	<path class="st0" d="M29.2,12.9H15c-1.8-0.1-3.2-1.5-3.1-3.3c0-1.4,1.2-2.5,2.6-2.5c1.1,0,2,1,2,2.1c0,0.9-0.8,1.6-1.7,1.6
		c-0.7,0-1.3-0.6-1.3-1.3c0-0.6,0.5-1,1.1-1c0.5,0,0.8,0.4,0.8,0.9c0,0.4-0.3,0.7-0.7,0.6"/>
	<path class="st0" d="M3.2,18.4h14.2c1.8,0.1,3.2,1.5,3.1,3.3c0,1.4-1.2,2.5-2.6,2.5c-1.1,0-2-1-2-2.1c0-0.9,0.8-1.6,1.7-1.6
		c0.7,0,1.3,0.6,1.3,1.3c0,0.6-0.5,1-1.1,1c-0.5,0-0.8-0.4-0.8-0.9c0-0.4,0.3-0.7,0.7-0.6"/>
</g>
</svg>
