<?xml version="1.0" encoding="utf-8"?>
<!-- Generator: Adobe Illustrator 22.0.1, SVG Export Plug-In . SVG Version: 6.00 Build 0)  -->
<svg version="1.1" id="Capa_1" xmlns="http://www.w3.org/2000/svg" xmlns:xlink="http://www.w3.org/1999/xlink" x="0px" y="0px"
	 viewBox="0 0 42.2 54.1" style="enable-background:new 0 0 42.2 54.1;" xml:space="preserve">
<style type="text/css">
	.st0{fill:#383342;}
</style>
<g>
	<g>
		<path class="st0" d="M15.9,18.9c-4.6,0-8.3-4.2-8.3-9.4c0-5.2,3.7-9.5,8.3-9.5c4.6,0,8.3,4.2,8.3,9.5
			C24.3,14.7,20.5,18.9,15.9,18.9L15.9,18.9z M15.9,1.9c-3.5,0-6.4,3.4-6.4,7.5c0,4.1,2.9,7.5,6.4,7.5c3.5,0,6.4-3.4,6.4-7.5
			C22.3,5.3,19.5,1.9,15.9,1.9L15.9,1.9z"/>
	</g>
	<g>
		<path class="st0" d="M30.1,54.1c-6.6,0-12-5.4-12-12c0-6.6,5.4-12,12-12c6.6,0,12,5.4,12,12C42.2,48.7,36.8,54.1,30.1,54.1
			L30.1,54.1z M30.1,32C24.6,32,20,36.5,20,42.1c0,5.6,4.5,10.1,10.1,10.1c5.6,0,10.1-4.5,10.1-10.1C40.2,36.5,35.7,32,30.1,32
			L30.1,32z"/>
	</g>
	<g>
		<path class="st0" d="M19.1,42.9H1.6c-0.5,0-0.9-0.4-1-0.9L0,32.8c-0.2-3,2.1-6.4,5.1-7.5c6.9-2.5,14.5-2.5,21.4,0
			c2.2,0.8,4.1,2.9,4.8,5.4l-1.9,0.5c-0.4-1.5-1.7-3.4-3.6-4.1c-6.5-2.3-13.6-2.3-20,0c-2.3,0.9-3.9,3.6-3.8,5.5l0.6,8.2h16.6V42.9
			L19.1,42.9z"/>
	</g>
	<g>
		<path class="st0" d="M30.1,48.4c-0.5,0-1-0.4-1-1V36.7c0-0.5,0.4-1,1-1c0.5,0,1,0.4,1,1v10.7C31.1,47.9,30.7,48.4,30.1,48.4
			L30.1,48.4z"/>
	</g>
	<g>
		<path class="st0" d="M35.5,43H24.8c-0.5,0-1-0.4-1-1c0-0.5,0.4-1,1-1h10.7c0.5,0,1,0.4,1,1C36.5,42.6,36,43,35.5,43L35.5,43z"/>
	</g>
</g>
</svg>
