<svg xmlns="http://www.w3.org/2000/svg" width="20.114" height="19.215" viewBox="0 0 20.114 19.215"><defs><style>.a{fill:#adadad;}</style></defs><g transform="translate(-764.554 -1592.868)"><g transform="translate(764.554 1592.868)"><path class="a" d="M765.008,1612.083a.453.453,0,0,1-.453-.479l.272-4.6a.452.452,0,0,1,.132-.293L778.668,1593a.45.45,0,0,1,.32-.133h0a.453.453,0,0,1,.321.133l4.327,4.327a.454.454,0,0,1,0,.64l-13.71,13.712a.445.445,0,0,1-.293.131l-4.6.271Zm.714-4.855-.232,3.92,3.917-.231,13.267-13.269-3.686-3.687-13.266,13.267Z" transform="translate(-764.554 -1592.868)"/><g transform="translate(11.976 2.442)"><path class="a" d="M782.121,1600.362a.448.448,0,0,1-.32-.133l-3.891-3.891a.453.453,0,0,1,.64-.64l3.891,3.891a.453.453,0,0,1-.321.774Z" transform="translate(-777.777 -1595.565)"/></g><g transform="translate(3.151 4.456)"><path class="a" d="M768.486,1609.4a.453.453,0,0,1-.32-.774l10.7-10.7a.453.453,0,0,1,.64.64l-10.7,10.7a.452.452,0,0,1-.321.133Z" transform="translate(-768.033 -1597.788)"/></g><path class="a" d="M765.568,1611.1c-.061,0-.124,0-.187.009s-.112.024-.17.033l-.132,2.233,2.142-.13c.018-.081.039-.162.05-.247a1.667,1.667,0,0,0-1.7-1.9Z" transform="translate(-764.604 -1594.587)"/></g><g transform="translate(773.648 1611.031)"><path class="a" d="M785.162,1613.828H775.047a.453.453,0,0,1,0-.906h10.115a.453.453,0,0,1,0,.906Z" transform="translate(-774.594 -1612.922)"/></g></g></svg>