<?xml version="1.0" encoding="utf-8"?>
<!-- Generator: Adobe Illustrator 22.0.1, SVG Export Plug-In . SVG Version: 6.00 Build 0)  -->
<svg version="1.1" id="Capa_1" xmlns="http://www.w3.org/2000/svg" xmlns:xlink="http://www.w3.org/1999/xlink" x="0px" y="0px"
	 viewBox="0 0 227.2 227.2" style="enable-background:new 0 0 227.2 227.2;" xml:space="preserve">
<style type="text/css">
	.st0{fill:#FFFFFF;stroke:#CFD0D2;stroke-width:3;stroke-miterlimit:10;}
	.st1{fill:#CFD0D2;}
	.st2{fill:#78757D;}
</style>
<g>
	<g>
		<circle class="st0" cx="113.6" cy="113.6" r="112.1"/>
		<g>
			<path class="st1" d="M145.4,87.1h-10.9l-2.2-4.6c-1.8-3.7-5.5-6-9.6-6h-18.3c-4.1,0-7.8,2.3-9.6,6l-2.2,4.6H81.8
				c-5.8,0-10.6,4.8-10.6,10.6v37.1c0,5.8,4.8,10.6,10.6,10.6h63.6c5.8,0,10.6-4.8,10.6-10.6V97.7C156,91.9,151.3,87.1,145.4,87.1z
				 M113.6,137.5c-11.7,0-21.2-9.5-21.2-21.2c0-11.7,9.5-21.2,21.2-21.2s21.2,9.5,21.2,21.2C134.8,128,125.3,137.5,113.6,137.5z"/>
			<circle class="st1" cx="113.6" cy="116.3" r="13.8"/>
		</g>
	</g>
	<g>
		<path class="st2" d="M79.9,181.8c-0.2,2-1,3.6-2.2,4.7c-1.3,1.1-2.9,1.7-5,1.7c-2.3,0-4.1-0.8-5.5-2.4c-1.4-1.6-2.1-3.8-2.1-6.5
			v-1.8c0-1.8,0.3-3.4,1-4.7c0.6-1.4,1.5-2.4,2.7-3.1c1.2-0.7,2.5-1.1,4.1-1.1c2,0,3.7,0.6,4.9,1.7c1.2,1.1,1.9,2.7,2.1,4.7h-2.5
			c-0.2-1.5-0.7-2.6-1.4-3.3c-0.7-0.7-1.8-1-3.1-1c-1.6,0-2.9,0.6-3.8,1.8c-0.9,1.2-1.4,2.9-1.4,5.1v1.9c0,2.1,0.4,3.7,1.3,5
			s2.1,1.8,3.7,1.8c1.4,0,2.5-0.3,3.2-1c0.8-0.6,1.3-1.7,1.5-3.3H79.9z"/>
		<path class="st2" d="M91.7,187.9c-0.1-0.3-0.3-0.8-0.3-1.5c-1.1,1.2-2.5,1.8-4.1,1.8c-1.4,0-2.6-0.4-3.5-1.2
			c-0.9-0.8-1.4-1.8-1.4-3c0-1.5,0.6-2.6,1.7-3.5c1.1-0.8,2.7-1.2,4.8-1.2h2.4v-1.1c0-0.9-0.3-1.5-0.8-2c-0.5-0.5-1.3-0.8-2.3-0.8
			c-0.9,0-1.6,0.2-2.2,0.7s-0.9,1-0.9,1.6h-2.5c0-0.7,0.3-1.4,0.8-2.1c0.5-0.7,1.2-1.2,2.1-1.6c0.9-0.4,1.8-0.6,2.9-0.6
			c1.6,0,2.9,0.4,3.9,1.2c0.9,0.8,1.4,2,1.5,3.4v6.6c0,1.3,0.2,2.4,0.5,3.1v0.2H91.7z M87.7,186c0.8,0,1.5-0.2,2.2-0.6
			s1.2-0.9,1.5-1.5v-2.9h-1.9c-3,0-4.5,0.9-4.5,2.6c0,0.8,0.3,1.4,0.8,1.8S86.9,186,87.7,186z"/>
		<path class="st2" d="M99.9,173.6l0.1,1.6c1-1.2,2.5-1.8,4.2-1.8c2,0,3.4,0.8,4.1,2.3c0.5-0.7,1.1-1.2,1.9-1.7s1.7-0.6,2.7-0.6
			c3.1,0,4.7,1.7,4.8,5v9.6h-2.4v-9.4c0-1-0.2-1.8-0.7-2.3c-0.5-0.5-1.2-0.8-2.3-0.8c-0.9,0-1.7,0.3-2.3,0.8c-0.6,0.5-0.9,1.3-1,2.2
			v9.5h-2.5v-9.3c0-2.1-1-3.1-3-3.1c-1.6,0-2.7,0.7-3.3,2v10.4h-2.4v-14.3H99.9z"/>
		<path class="st2" d="M127.2,188.1c-1.9,0-3.5-0.6-4.7-1.9c-1.2-1.3-1.8-3-1.8-5.1v-0.4c0-1.4,0.3-2.7,0.8-3.8
			c0.5-1.1,1.3-2,2.3-2.6c1-0.6,2-0.9,3.2-0.9c1.9,0,3.3,0.6,4.3,1.8s1.5,3,1.5,5.2v1h-9.7c0,1.4,0.4,2.5,1.2,3.4
			c0.8,0.9,1.8,1.3,3,1.3c0.9,0,1.6-0.2,2.2-0.5s1.1-0.8,1.6-1.4l1.5,1.2C131.4,187.2,129.6,188.1,127.2,188.1z M126.9,175.3
			c-1,0-1.8,0.4-2.5,1.1c-0.7,0.7-1.1,1.7-1.2,3h7.1v-0.2c-0.1-1.2-0.4-2.2-1-2.9C128.7,175.7,127.9,175.3,126.9,175.3z"/>
		<path class="st2" d="M142.5,175.8c-0.4-0.1-0.8-0.1-1.2-0.1c-1.6,0-2.7,0.7-3.3,2v10.1h-2.4v-14.3h2.4l0,1.6
			c0.8-1.3,1.9-1.9,3.4-1.9c0.5,0,0.8,0.1,1.1,0.2V175.8z"/>
		<path class="st2" d="M153,187.9c-0.1-0.3-0.3-0.8-0.3-1.5c-1.1,1.2-2.5,1.8-4.1,1.8c-1.4,0-2.6-0.4-3.5-1.2
			c-0.9-0.8-1.4-1.8-1.4-3c0-1.5,0.6-2.6,1.7-3.5c1.1-0.8,2.7-1.2,4.8-1.2h2.4v-1.1c0-0.9-0.3-1.5-0.8-2c-0.5-0.5-1.3-0.8-2.3-0.8
			c-0.9,0-1.6,0.2-2.2,0.7s-0.9,1-0.9,1.6h-2.5c0-0.7,0.3-1.4,0.8-2.1c0.5-0.7,1.2-1.2,2.1-1.6c0.9-0.4,1.8-0.6,2.9-0.6
			c1.6,0,2.9,0.4,3.9,1.2c0.9,0.8,1.4,2,1.5,3.4v6.6c0,1.3,0.2,2.4,0.5,3.1v0.2H153z M149,186c0.8,0,1.5-0.2,2.2-0.6
			s1.2-0.9,1.5-1.5v-2.9h-1.9c-3,0-4.5,0.9-4.5,2.6c0,0.8,0.3,1.4,0.8,1.8S148.2,186,149,186z"/>
	</g>
</g>
</svg>
