<svg xmlns="http://www.w3.org/2000/svg" viewBox="0 0 45 45"><defs><style>.cls-1{fill:#fff;}</style></defs><title>icon-add-user-white</title><g id="Capa_2" data-name="Capa 2"><g id="Layer_1" data-name="Layer 1"><path class="cls-1" d="M22.5,45A22.5,22.5,0,1,1,45,22.5,22.52,22.52,0,0,1,22.5,45Zm0-44A21.5,21.5,0,1,0,44,22.5,21.53,21.53,0,0,0,22.5,1Z"/><path class="cls-1" d="M20.3,18.21A4.62,4.62,0,0,1,16,13.33a4.62,4.62,0,0,1,4.3-4.88,4.62,4.62,0,0,1,4.3,4.88,4.62,4.62,0,0,1-4.3,4.88Zm0-8.76A3.63,3.63,0,0,0,17,13.33a3.63,3.63,0,0,0,3.3,3.88,3.63,3.63,0,0,0,3.3-3.88,3.63,3.63,0,0,0-3.3-3.88Z"/><path class="cls-1" d="M27.63,36.37a6.21,6.21,0,1,1,6.21-6.21,6.22,6.22,0,0,1-6.21,6.21Zm0-11.41a5.21,5.21,0,1,0,5.21,5.2A5.21,5.21,0,0,0,27.63,25Z"/><path class="cls-1" d="M21.93,30.59h-9a.5.5,0,0,1-.5-.47l-.32-4.72a4.19,4.19,0,0,1,2.62-3.87,16.44,16.44,0,0,1,11,0,4.27,4.27,0,0,1,2.49,2.79l-1,.28a3.31,3.31,0,0,0-1.88-2.13,15.42,15.42,0,0,0-10.34,0,3.22,3.22,0,0,0-2,2.87l.29,4.25h8.56v1Z"/><path class="cls-1" d="M27.63,33.43a.5.5,0,0,1-.5-.5V27.4a.5.5,0,0,1,1,0v5.53a.5.5,0,0,1-.5.5Z"/><path class="cls-1" d="M30.39,30.66H24.87a.5.5,0,0,1-.5-.5.5.5,0,0,1,.5-.5h5.52a.5.5,0,0,1,.5.5.5.5,0,0,1-.5.5Z"/></g></g></svg>