<svg xmlns="http://www.w3.org/2000/svg" width="17.332" height="21.528" viewBox="0 0 17.332 21.528"><defs><style>.a{fill:#adadad;}</style></defs><g transform="translate(-399.342 -2235.635)"><path class="a" d="M410.174,2257.163a.5.5,0,0,1-.5-.5v-6a.5.5,0,0,1,.5-.5h6a.5.5,0,0,1,0,1h-5.5v5.5a.5.5,0,0,1-.5.5Z"/><path class="a" d="M410.174,2257.163H399.842a.5.5,0,0,1-.5-.5v-20.528a.5.5,0,0,1,.5-.5h16.332a.5.5,0,0,1,.5.5v14.528a.5.5,0,0,1-.147.354l-6,6a.5.5,0,0,1-.353.146Zm-9.832-1h9.625l5.707-5.707v-13.821H400.342v19.528Z"/><path class="a" d="M409.092,2240.428h-5.875a.5.5,0,0,1,0-1h5.875a.5.5,0,0,1,0,1Z"/><path class="a" d="M412.967,2242.845h-9.75a.5.5,0,0,1,0-1h9.75a.5.5,0,0,1,0,1Z"/><path class="a" d="M412.967,2245.262h-9.75a.5.5,0,0,1,0-1h9.75a.5.5,0,0,1,0,1Z"/><path class="a" d="M407.3,2247.679h-4.082a.5.5,0,0,1,0-1H407.3a.5.5,0,0,1,0,1Z"/></g></svg>