<?xml version="1.0" encoding="utf-8"?>
<!-- Generator: Adobe Illustrator 22.0.1, SVG Export Plug-In . SVG Version: 6.00 Build 0)  -->
<svg version="1.1" id="Capa_1" xmlns="http://www.w3.org/2000/svg" xmlns:xlink="http://www.w3.org/1999/xlink" x="0px" y="0px"
	 viewBox="0 0 66.9 66.9" style="enable-background:new 0 0 66.9 66.9;" xml:space="preserve">
<style type="text/css">
	.st0{fill:#9DC44C;}
	.st1{fill:#FFFFFF;}
</style>
<g>
	<circle class="st0" cx="33.4" cy="33.4" r="33.4"/>
	<g>
		<g>
			<path class="st1" d="M28,46.1c-0.2,0-0.4-0.1-0.5-0.2l-8.9-9.4c-0.3-0.3-0.2-0.7,0-1c0.3-0.3,0.7-0.2,1,0l8.4,8.8L47.3,21
				c0.2-0.3,0.7-0.3,0.9-0.1c0.3,0.2,0.3,0.7,0.1,0.9L28.6,45.9C28.4,46,28.3,46.1,28,46.1C28.1,46.1,28.1,46.1,28,46.1L28,46.1z"/>
			<path class="st1" d="M28.1,46.6L28.1,46.6c-0.4,0-0.7-0.1-0.9-0.4l-8.9-9.4c-0.2-0.2-0.3-0.5-0.3-0.8c0-0.3,0.1-0.6,0.4-0.8
				c0.5-0.4,1.2-0.4,1.7,0l8,8.4l18.9-23c0.4-0.5,1.2-0.6,1.7-0.2c0.5,0.4,0.6,1.2,0.2,1.7L29,46.2C28.7,46.5,28.4,46.6,28.1,46.6
				L28.1,46.6z M19.1,35.9c0,0-0.1,0-0.1,0c-0.1,0.1-0.1,0.2,0,0.2l8.9,9.4c0,0,0.1,0.1,0.1,0.1h0c0,0,0.1,0,0.1-0.1l19.7-24.1
				c0.1-0.1,0-0.2,0-0.2c-0.1-0.1-0.2-0.1-0.2,0L28,45.2L19.2,36C19.2,35.9,19.2,35.9,19.1,35.9z"/>
		</g>
	</g>
</g>
</svg>
