<svg xmlns="http://www.w3.org/2000/svg" width="759.753" height="748.086" viewBox="0 0 759.753 748.086"><defs><style>.a{fill:none;stroke:#645a71;}</style></defs><g transform="translate(0.512 0.5)"><path class="a" d="M255.471,111.867H143.036a18.541,18.541,0,0,0-18.524,18.524v183.66a18.545,18.545,0,0,0,18.524,18.524H255.471a18.545,18.545,0,0,0,18.524-18.524V130.391A18.541,18.541,0,0,0,255.471,111.867ZM188.136,310.346h-41.4V264.893h41.4Zm0-67.682h-41.4V201.772h41.4Zm0-63.121h-41.4V134.1h41.4Zm63.63,130.8h-41.4V264.893h41.4Zm0-67.682h-41.4V201.772h41.4Zm0-63.121h-41.4V134.1h41.4Zm0,0" transform="translate(60.005 53.911)"/><path class="a" d="M317.087,411.3a11.114,11.114,0,0,0-11.114,11.114V449.1a11.114,11.114,0,1,0,22.229,0V422.411A11.114,11.114,0,0,0,317.087,411.3Zm0,0" transform="translate(147.455 198.213)"/><path class="a" d="M758.64,497.266a14.753,14.753,0,0,0-5.621-9.789L517.549,305.288a29.488,29.488,0,0,0-36.11.006l-35.612,27.555V300.929a11.114,11.114,0,1,0-22.229,0v49.118L245.987,487.471A14.83,14.83,0,0,0,243.3,508.23l18.02,23.439a14.8,14.8,0,0,0,20.776,2.674l217.4-168.21L663.826,493.277V724.851H574.308v-20.84a11.114,11.114,0,1,0-22.229,0v20.84H446.9V554.58H552.079v97.193a11.114,11.114,0,1,0,22.229,0v-100.9a18.549,18.549,0,0,0-18.524-18.524H443.2a18.55,18.55,0,0,0-18.53,18.524V724.851H340.217V694.535a18.541,18.541,0,0,0-18.524-18.524h-10.64A69.683,69.683,0,0,0,189.17,617.7a52.168,52.168,0,0,0-27.421-1.077,68.867,68.867,0,0,0-59.109-34.073,66.6,66.6,0,0,0-7.7.457V210.965L259.267,83.81,423.6,210.965v38.09a11.114,11.114,0,1,0,22.229,0V228.164l30.843,23.861a14.79,14.79,0,0,0,20.776-2.686c.041-.052.081-.11.122-.162l17.262-23.317.11-.139a14.059,14.059,0,0,0,3.462-10.773,14.7,14.7,0,0,0-5.621-9.789L277.322,22.97a29.5,29.5,0,0,0-36.116.006L176.557,73V58.987a18.536,18.536,0,0,0,15.421-18.24V18.524A18.545,18.545,0,0,0,173.454,0H83.387A18.545,18.545,0,0,0,64.863,18.524V40.741A18.542,18.542,0,0,0,80.284,58.987v88.5L5.771,205.142a14.857,14.857,0,0,0-5.644,9.835,14.71,14.71,0,0,0,2.941,10.929l18.02,23.439a14.69,14.69,0,0,0,11.728,5.771,14.9,14.9,0,0,0,9.054-3.091l30.837-23.861V589.545A68.83,68.83,0,0,0,36.428,633.95,44.252,44.252,0,0,0,8.156,675.166a44.764,44.764,0,0,0,.411,6.009,18.44,18.44,0,0,0-5.725,13.361v34.026a18.545,18.545,0,0,0,18.524,18.524h696.9a11.114,11.114,0,0,0,0-22.229H686.054V510.476L716.9,534.343a14.866,14.866,0,0,0,9.042,3.091,14.679,14.679,0,0,0,11.734-5.783l.122-.156,17.268-23.323.116-.145A14.075,14.075,0,0,0,758.64,497.266ZM242.653,614.813a47.494,47.494,0,0,1,45.517,61.2h-63.4a51.794,51.794,0,0,0-15.983-46.883A47.7,47.7,0,0,1,242.653,614.813ZM87.092,22.229h82.658V37.036H87.092Zm67.236,37.036V90.195l-51.815,40.093V59.265ZM34.165,229.883,25.2,218.219,254.8,40.556a7.284,7.284,0,0,1,8.921-.006L493.017,217.97,484.264,229.8,266.068,60.967a11.12,11.12,0,0,0-13.6,0ZM317.988,724.857H25.071V698.24h102.38a11.114,11.114,0,0,0,0-22.229H30.414c-.012-.284-.029-.561-.029-.845A21.952,21.952,0,0,1,48.11,653.632,11.116,11.116,0,0,0,57,644.3a46.122,46.122,0,0,1,88.684-9.974,11.1,11.1,0,0,0,15.12,6.044,29.746,29.746,0,0,1,41.17,35.641H180.8a11.114,11.114,0,0,0,0,22.229H317.988ZM724.5,512.114,506.3,343.291a11.1,11.1,0,0,0-13.6,0L274.393,512.2l-8.967-11.664L495.037,322.88a7.262,7.262,0,0,1,8.92-.006L733.25,500.288Zm0,0" transform="translate(0)"/></g></svg>