<?xml version="1.0" encoding="utf-8"?>
<!-- Generator: Adobe Illustrator 22.0.1, SVG Export Plug-In . SVG Version: 6.00 Build 0)  -->
<svg version="1.1" id="Capa_1" xmlns="http://www.w3.org/2000/svg" xmlns:xlink="http://www.w3.org/1999/xlink" x="0px" y="0px"
	 viewBox="0 0 33.4 30.2" style="enable-background:new 0 0 33.4 30.2;" xml:space="preserve">
<style type="text/css">
	.st0{fill:none;stroke:#969499;stroke-miterlimit:10;}
</style>
<g>
	<g>
		<path class="st0" d="M23.4,17.8c2.6-0.7,4.6-3.2,4.6-6c0-3.5-2.8-6.3-6.3-6.3c-3.1,0-5.7,2.3-6.2,5.3"/>
		<line class="st0" x1="21.7" y1="0" x2="21.7" y2="3.6"/>
		<line class="st0" x1="15.3" y1="1.9" x2="17.3" y2="4.9"/>
		<line class="st0" x1="11" y1="7" x2="14.3" y2="8.4"/>
		<line class="st0" x1="30.8" y1="19.1" x2="28" y2="16.8"/>
		<line class="st0" x1="33.4" y1="12.9" x2="29.7" y2="12.6"/>
		<line class="st0" x1="32.1" y1="6.4" x2="28.9" y2="8"/>
		<line class="st0" x1="27.6" y1="1.6" x2="25.7" y2="4.7"/>
	</g>
	<g>
		<path class="st0" d="M22.3,19.1c0.1-0.5,0.2-0.9,0.2-1.4c0-3.4-2.8-6.1-6.3-6.1c-2.2,0-4.2,1.1-5.3,2.8h0c0,0,0,0,0,0l-0.2-0.2
			c-0.8-0.7-1.7-1-2.9-1c-2.5,0-4.6,2-4.6,4.5c0,0.5,0,0.8,0.2,1.3l0.1,0.2c-0.8,0-1.5,0.3-2,0.8c-0.5,0.5-0.9,1.3-0.9,2.1
			c0,1.6,1.3,2.9,3,2.9h19.4c0.8,0,1.6-0.3,2.1-0.9c0.5-0.5,0.9-1.3,0.9-2.1c0-1.6-1.3-2.9-3-2.9L22.3,19.1L22.3,19.1z"/>
	</g>
	<g>
		<line class="st0" x1="20.7" y1="27.2" x2="19" y2="29.9"/>
		<line class="st0" x1="16.3" y1="27.2" x2="14.6" y2="29.9"/>
		<line class="st0" x1="11.9" y1="27.2" x2="10.1" y2="29.9"/>
		<line class="st0" x1="7.4" y1="27.2" x2="5.7" y2="29.9"/>
	</g>
</g>
</svg>
