<?xml version="1.0" encoding="utf-8"?>
<!-- Generator: Adobe Illustrator 22.0.1, SVG Export Plug-In . SVG Version: 6.00 Build 0)  -->
<svg version="1.1" id="Capa_1" xmlns="http://www.w3.org/2000/svg" xmlns:xlink="http://www.w3.org/1999/xlink" x="0px" y="0px"
	 viewBox="0 0 42.7 58" style="enable-background:new 0 0 42.7 58;" xml:space="preserve">
<style type="text/css">
	.st0{fill:#BDBCC0;}
</style>
<g>
	<g>
		<path class="st0" d="M21.6,25.6c-6.2,0-11.3-5.7-11.3-12.8C10.3,5.7,15.3,0,21.6,0c6.2,0,11.3,5.7,11.3,12.8
			C32.8,19.8,27.8,25.6,21.6,25.6L21.6,25.6z M21.6,2.6c-4.8,0-8.6,4.6-8.6,10.2c0,5.6,3.9,10.2,8.6,10.2c4.8,0,8.6-4.6,8.6-10.2
			C30.2,7.2,26.3,2.6,21.6,2.6L21.6,2.6z"/>
	</g>
	<g>
		<path class="st0" d="M40.5,58H2.2c-0.7,0-1.3-0.5-1.3-1.2L0,44.4c-0.3-4,2.9-8.7,6.9-10.1c9.3-3.3,19.6-3.3,28.9,0
			c4.4,1.6,7.1,6.6,6.9,10.2l-0.8,12.4C41.8,57.5,41.2,58,40.5,58L40.5,58z M3.4,55.4h35.9L40,44.3c0.2-2.6-2-6.3-5.2-7.5
			c-8.7-3.1-18.4-3.1-27.1,0c-3.2,1.2-5.3,4.9-5.1,7.5L3.4,55.4L3.4,55.4z"/>
	</g>
</g>
</svg>
