<?xml version="1.0" encoding="utf-8"?>
<!-- Generator: Adobe Illustrator 22.0.1, SVG Export Plug-In . SVG Version: 6.00 Build 0)  -->
<svg version="1.1" id="Capa_1" xmlns="http://www.w3.org/2000/svg" xmlns:xlink="http://www.w3.org/1999/xlink" x="0px" y="0px"
	 viewBox="0 0 119 70.7" style="enable-background:new 0 0 119 70.7;" xml:space="preserve">
<style type="text/css">
	.st0{fill:#919295;}
	.st1{fill:#FFFFFF;}
</style>
<g>
	<path class="st0" d="M119,35.3C119,15.9,103.3,0,83.7,0c-8.4,0-16.1,2.9-22.3,7.9c4.6,4.4,8.3,10,10,16.3h-2.9
		c-1.9-5.6-5-10.6-9.2-14.6c-4.2,4-7.3,9-9.2,14.6h-2.9c1.9-6.3,5.4-11.9,10-16.3C51.1,2.9,43.6,0,35.1,0C15.7,0,0,15.9,0,35.3
		c0,19.4,15.7,35.3,35.3,35.3c8.4,0,16.1-3.1,22.1-7.9c-4.6-4.4-8.1-10-10-16.3h2.9c1.9,5.6,5,10.6,9.2,14.6c4.2-4,7.5-9,9.2-14.6
		h2.9c-1.9,6.3-5.4,11.9-10,16.3c6.1,5,13.8,7.9,22.3,7.9C103.3,70.7,119,54.7,119,35.3"/>
	<path class="st1" d="M93.1,43.6l2.5-13.1h3.1l0.4,1.3c0.6-0.6,1.5-1.3,3.5-1.3l-1,3.5c-1,0-2.5-0.2-3.6,3.6l-1.2,6H93.1"/>
	<path class="st1" d="M46.1,27.3h3.5l-0.8,3.5h1.9l-0.6,2.7h-1.7l-1,5.2c-0.2,1,0,1.9,1.9,1.5L49,43c-0.8,0.6-1.7,0.6-2.7,0.6
		c-0.8,0-3.5-0.6-2.9-4L46.1,27.3"/>
	<path class="st1" d="M61.4,37.8c0.4-2.1,1.3-7.3-4.8-7.3c-5.8,0-6.5,5.8-6.5,6.5c-0.2,0.8-0.2,6.5,6,6.5c1.5,0,3.6-0.2,4.6-0.6
		l0.6-2.7c-0.6,0.2-2.5,0.4-4,0.4c-1.3,0-3.6,0-3.3-2.9H61.4"/>
	<path class="st1" d="M42.6,33.6l0.8-2.7c-1.7-0.6-3.1-0.6-3.5-0.6c-0.6,0-4.8,0-5.4,3.1c-0.6,2.5,0.4,3.5,1.2,3.8
		c1.3,0.6,2.1,1.2,2.9,1.5c1,0.4,0.8,1.9-0.4,1.9c-0.6,0-2.9,0.2-4.6-0.4L33,43c1.7,0.4,2.9,0.4,4.2,0.4c1,0,5.2,0.2,5.8-3.6
		c0.4-1.9-0.6-2.7-1.2-3.3c-0.8-0.4-1.7-1.2-2.5-1.3c-0.8-0.4-1.3-1.5,0-1.9C39.9,33.4,41.7,33.4,42.6,33.6"/>
	<polyline class="st1" points="19.6,43.6 22.7,27.8 16.7,27.8 12.5,37.4 11.7,27.8 6.1,27.8 3.1,43.6 6.5,43.6 8.8,32.3 9.8,43.6 
		13.1,43.6 18,32.4 15.9,43.6 19.6,43.6 	"/>
	<path class="st1" d="M23.6,30.9L23,33.8c1,0,3.3-0.4,4.4-0.4c1.2,0,2.7-0.2,2.1,1.7c-1,0-7.3-1-8.3,4.6c-0.4,2.7,1.9,4,3.6,4
		c1.7,0,2.3-0.4,2.9-0.8l0.4,0.8h3.3l1.3-7.1c0.4-1.7,1-6-5-6C27.1,30.5,25.9,30.5,23.6,30.9"/>
	<path class="st1" d="M81,31.5c-1-0.6-1.5-0.6-2.7-0.6c-1.2,0-3.8,1.2-4.2,4.2c-0.6,3.8,1.9,5.6,5.6,4.4l1,3.3
		c-1.2,0.6-2.3,0.8-4.2,0.8c-3.6,0-7.7-3.3-6-10c1.3-4.8,5.6-6.7,8.1-6.5c2.9,0.2,4,1.2,4.8,2.1L81,31.5"/>
	<path class="st1" d="M111.2,32.1c-0.8-0.6-1.2-1.5-2.7-1.5c-1.9,0-5-0.4-6.7,5.6c-1.2,4,1.2,7.5,3.6,7.5c1.2,0,2.3-0.6,3.1-1l0.4,1
		h3.8l3.1-16.5h-3.6L111.2,32.1"/>
	<path class="st1" d="M83.5,30.9l-0.6,2.9c1,0,3.3-0.4,4.4-0.4s2.5-0.2,2.1,1.7c-1,0-7.3-1-8.3,4.6c-0.4,2.7,1.9,4,3.6,4
		c1.7,0,2.3-0.4,2.9-0.8l0.4,0.8h3.3l1.3-7.1c0.4-1.7,1-6-5-6C87.2,30.5,85.8,30.5,83.5,30.9"/>
	<path class="st0" d="M54,35.3h4.4c0.2-1.3-0.2-2.3-1.5-2.3C55.3,33,54.3,33.8,54,35.3"/>
	<path class="st0" d="M29,37.8c-0.6,0-1.9-0.4-3.1,0.4c-1.2,0.8-1.5,2.1-0.2,2.5c1.2,0.4,2.7-0.4,3.1-1.5L29,37.8"/>
	<path class="st0" d="M110,37.4c0.4-1.2,0.2-2.7-0.2-3.3c-1.2-1.5-3.6-0.4-4.4,2.5c-0.6,1.9,0.6,3.3,1.7,3.3
		C108.5,39.9,109.2,39,110,37.4"/>
	<path class="st0" d="M89.1,37.8c-0.6,0-1.9-0.4-3.1,0.4c-1.2,0.8-1.5,2.1-0.2,2.5c1.2,0.4,2.9-0.4,3.1-1.5L89.1,37.8"/>
	<path class="st1" d="M61.4,43.6l2.5-12.9H67l0.4,1.3c0.6-0.6,1.5-1.3,3.5-1.3l-1,3.5c-0.8,0-2.5-0.2-3.6,3.6l-1.2,6h-3.6"/>
</g>
</svg>
