<?xml version="1.0" encoding="utf-8"?>
<!-- Generator: Adobe Illustrator 22.0.1, SVG Export Plug-In . SVG Version: 6.00 Build 0)  -->
<svg version="1.1" id="Capa_1" xmlns="http://www.w3.org/2000/svg" xmlns:xlink="http://www.w3.org/1999/xlink" x="0px" y="0px"
	 viewBox="0 0 49.1 36.4" style="enable-background:new 0 0 49.1 36.4;" xml:space="preserve">
<style type="text/css">
	.st0{fill:#BDBCC0;}
</style>
<g>
	<g>
		<path class="st0" d="M42.2,36.4H29.7c-0.5,0-1-0.4-1-1V22.1h-8.3v13.4c0,0.5-0.4,1-1,1H6.9c-0.5,0-1-0.4-1-1V14.3c0-0.5,0.4-1,1-1
			c0.5,0,1,0.4,1,1v20.2h10.6V21.1c0-0.5,0.4-1,1-1h10.2c0.5,0,1,0.4,1,1v13.4h10.6V14.3c0-0.5,0.4-1,1-1c0.5,0,1,0.4,1,1v21.2
			C43.2,36,42.8,36.4,42.2,36.4L42.2,36.4z"/>
	</g>
	<g>
		<path class="st0" d="M1,18.9c-0.3,0-0.6-0.1-0.8-0.4C-0.1,18,0,17.4,0.4,17.1L24,0.2c0.3-0.2,0.8-0.2,1.1,0l23.6,16.9
			c0.4,0.3,0.5,0.9,0.2,1.4c-0.3,0.4-0.9,0.5-1.4,0.2l-23-16.5l-23,16.5C1.4,18.8,1.2,18.9,1,18.9L1,18.9z"/>
	</g>
</g>
</svg>
