<?xml version="1.0" encoding="utf-8"?>
<!-- Generator: Adobe Illustrator 22.0.1, SVG Export Plug-In . SVG Version: 6.00 Build 0)  -->
<svg version="1.1" id="Capa_1" xmlns="http://www.w3.org/2000/svg" xmlns:xlink="http://www.w3.org/1999/xlink" x="0px" y="0px"
	 viewBox="0 0 27.4 31.6" style="enable-background:new 0 0 27.4 31.6;" xml:space="preserve">
<style type="text/css">
	.st0{fill:#FFFFFF;}
</style>
<g>
	<path class="st0" d="M27.2,25.5c-0.3-1.2-0.9-2.4-1.8-3.2c-1.5-1.5-2-3.4-2.4-5.4c-0.3-1.8-0.5-3.6-0.7-5.3c-0.1-1-0.1-2-0.3-3
		c-0.4-2-1.6-3.8-3.2-5c-0.9-0.7-1.9-1.2-3-1.4c0,0,0,0,0,0c0-1.1-0.9-2.1-2.1-2.1s-2.1,0.9-2.1,2.1c0,0,0,0,0,0
		c-1,0.3-2,0.7-2.8,1.3C7.2,4.6,6,6.4,5.5,8.4c-0.2,1-0.3,2-0.4,3.1c-0.1,1.7-0.3,3.4-0.7,5.2c-0.4,1.9-0.8,4-2.2,5.4
		c-0.9,0.9-1.6,1.9-2,3.2C0,26-0.3,27.6,0.6,28c0.3,0.1,0.6,0.1,0.9,0.1c0.6,0,1.2,0,1.8,0c2.3,0,4.6,0,6.9,0c0,1.9,1.6,3.5,3.5,3.5
		s3.5-1.6,3.5-3.5c1.5,0,3,0,4.4,0c1.4,0,2.7,0,4.1,0c0.3,0,0.6,0,0.9,0C27.7,27.9,27.4,26.4,27.2,25.5z"/>
</g>
</svg>
