<svg xmlns="http://www.w3.org/2000/svg" width="16.283" height="22.142" viewBox="0 0 16.283 22.142"><defs><style>.a{fill:#adadad;}</style></defs><g transform="translate(-93.714 -1591.746)"><path class="a" d="M101.94,1601.505a4.919,4.919,0,1,1,4.3-4.879,4.621,4.621,0,0,1-4.3,4.879Zm0-8.759a3.931,3.931,0,1,0,3.3,3.88,3.63,3.63,0,0,0-3.3-3.88Z"/><path class="a" d="M109.172,1613.888H94.541a.5.5,0,0,1-.5-.466l-.322-4.719a4.2,4.2,0,0,1,2.621-3.872,16.44,16.44,0,0,1,11.027,0,4.189,4.189,0,0,1,2.623,3.874l-.32,4.718a.5.5,0,0,1-.5.466Zm-14.164-1h13.7l.288-4.252a3.205,3.205,0,0,0-1.966-2.866,15.435,15.435,0,0,0-10.345,0,3.221,3.221,0,0,0-1.964,2.865l.29,4.252Z"/></g></svg>