<?xml version="1.0" encoding="utf-8"?>
<!-- Generator: Adobe Illustrator 22.0.1, SVG Export Plug-In . SVG Version: 6.00 Build 0)  -->
<svg version="1.1" id="Capa_1" xmlns="http://www.w3.org/2000/svg" xmlns:xlink="http://www.w3.org/1999/xlink" x="0px" y="0px"
	 viewBox="0 0 29.9 30" style="enable-background:new 0 0 29.9 30;" xml:space="preserve">
<style type="text/css">
	.st0{fill:#FFFFFF;}
</style>
<g>
	<g>
		<path class="st0" d="M28.7,12.5c-0.3,0-0.5-0.1-0.7-0.2L15,2.9L2,12.3c-0.6,0.4-1.4,0.3-1.8-0.3c-0.4-0.6-0.3-1.4,0.3-1.8l13.7-10
			c0.4-0.3,1.1-0.3,1.5,0l13.7,10c0.6,0.4,0.7,1.2,0.3,1.8C29.4,12.3,29.1,12.5,28.7,12.5L28.7,12.5z"/>
	</g>
	<g>
		<path class="st0" d="M15,30c-0.7,0-1.3-0.6-1.3-1.3V1.3C13.7,0.6,14.3,0,15,0c0.7,0,1.3,0.6,1.3,1.3v27.4C16.2,29.4,15.7,30,15,30
			L15,30z"/>
	</g>
</g>
</svg>
