<?xml version="1.0" encoding="utf-8"?>
<!-- Generator: Adobe Illustrator 22.0.1, SVG Export Plug-In . SVG Version: 6.00 Build 0)  -->
<svg version="1.1" id="Capa_1" xmlns="http://www.w3.org/2000/svg" xmlns:xlink="http://www.w3.org/1999/xlink" x="0px" y="0px"
	 viewBox="0 0 39.6 39.6" style="enable-background:new 0 0 39.6 39.6;" xml:space="preserve">
<style type="text/css">
	.st0{fill:#FFFFFF;}
</style>
<g>
	<g>
		<g>
			<path class="st0" d="M19.8,39.6C8.9,39.6,0,30.7,0,19.8C0,8.9,8.9,0,19.8,0s19.8,8.9,19.8,19.8C39.6,30.7,30.7,39.6,19.8,39.6
				L19.8,39.6z M19.8,0.9C9.4,0.9,0.9,9.4,0.9,19.8c0,10.4,8.5,18.9,18.9,18.9s18.9-8.5,18.9-18.9C38.7,9.4,30.2,0.9,19.8,0.9
				L19.8,0.9z"/>
		</g>
	</g>
	<g>
		<path class="st0" d="M16.8,28c-0.1,0-0.2,0-0.3-0.1l-5.8-6.1c-0.2-0.2-0.2-0.5,0-0.6c0.2-0.2,0.5-0.2,0.6,0l5.5,5.8l12.5-15.3
			c0.2-0.2,0.4-0.2,0.6-0.1c0.2,0.2,0.2,0.4,0.1,0.6L17.2,27.8C17.1,27.9,17,28,16.8,28C16.9,28,16.9,28,16.8,28L16.8,28z"/>
	</g>
</g>
</svg>
