<?xml version="1.0" encoding="utf-8"?>
<!-- Generator: Adobe Illustrator 22.0.1, SVG Export Plug-In . SVG Version: 6.00 Build 0)  -->
<svg version="1.1" id="Capa_1" xmlns="http://www.w3.org/2000/svg" xmlns:xlink="http://www.w3.org/1999/xlink" x="0px" y="0px"
	 viewBox="0 0 64.5 64.5" style="enable-background:new 0 0 64.5 64.5;" xml:space="preserve">
<style type="text/css">
	.st0{fill:#C74F3C;}
</style>
<g>
	<g>
		<g>
			<path class="st0" d="M32.3,64.5C14.5,64.5,0,50.1,0,32.3C0,14.5,14.5,0,32.3,0s32.3,14.5,32.3,32.3
				C64.5,50.1,50.1,64.5,32.3,64.5L32.3,64.5z M32.3,1.4c-17,0-30.8,13.8-30.8,30.8c0,17,13.8,30.8,30.8,30.8s30.8-13.8,30.8-30.8
				C63.1,15.3,49.3,1.4,32.3,1.4L32.3,1.4z"/>
		</g>
	</g>
	<path class="st0" d="M29.7,46.2c0-0.3,0.1-0.5,0.2-0.8c0.1-0.2,0.2-0.5,0.4-0.6c0.2-0.2,0.4-0.3,0.6-0.4c0.2-0.1,0.5-0.2,0.8-0.2
		c0.3,0,0.5,0.1,0.8,0.2c0.2,0.1,0.5,0.3,0.6,0.4c0.2,0.2,0.3,0.4,0.4,0.6c0.1,0.2,0.2,0.5,0.2,0.8c0,0.3-0.1,0.6-0.2,0.8
		c-0.1,0.2-0.3,0.5-0.4,0.6c-0.2,0.2-0.4,0.3-0.6,0.4c-0.2,0.1-0.5,0.2-0.8,0.2c-0.6,0-1-0.2-1.4-0.6C29.9,47.2,29.7,46.8,29.7,46.2
		z M32.8,16.9v12.5c0,0.7,0,1.3,0,1.9c0,0.6,0,1.2-0.1,1.8c0,0.6-0.1,1.2-0.1,1.9c0,0.7-0.1,1.4-0.1,2.2H31c0-0.8-0.1-1.6-0.1-2.2
		c0-0.7-0.1-1.3-0.1-1.9c0-0.6,0-1.2-0.1-1.8c0-0.6,0-1.2,0-1.9V16.9H32.8z"/>
</g>
</svg>
