<?xml version="1.0" encoding="utf-8"?>
<!-- Generator: Adobe Illustrator 22.0.1, SVG Export Plug-In . SVG Version: 6.00 Build 0)  -->
<svg version="1.1" id="Capa_1" xmlns="http://www.w3.org/2000/svg" xmlns:xlink="http://www.w3.org/1999/xlink" x="0px" y="0px"
	 viewBox="0 0 39.6 39.6" style="enable-background:new 0 0 39.6 39.6;" xml:space="preserve">
<style type="text/css">
	.st0{fill:#CFD0D2;}
</style>
<g>
	<g>
		<g>
			<path class="st0" d="M28.5,10.3c-0.2,0-0.3,0-0.5-0.1l-7.9-5.8l-7.9,5.8c-0.3,0.3-0.8,0.2-1.1-0.2c-0.3-0.3-0.2-0.8,0.2-1.1
				l8.4-6.1c0.3-0.2,0.6-0.2,0.9,0l8.4,6.1c0.3,0.3,0.4,0.7,0.2,1.1C29,10.2,28.7,10.3,28.5,10.3L28.5,10.3z"/>
		</g>
		<g>
			<path class="st0" d="M20.1,21c-0.4,0-0.8-0.3-0.8-0.8V3.4c0-0.4,0.3-0.8,0.8-0.8c0.4,0,0.8,0.3,0.8,0.8v16.8
				C20.9,20.6,20.5,21,20.1,21L20.1,21z"/>
		</g>
	</g>
	<g>
		<path class="st0" d="M36.5,37.9H3.7c-0.4,0-0.8-0.3-0.8-0.8V26.1c0-0.4,0.3-0.8,0.8-0.8h10.2c0.4,0,0.8,0.3,0.8,0.8v2.2
			c0,0.4,0.4,0.8,0.8,0.8h9.4c0.4,0,0.8-0.4,0.8-0.8v-2.2c0-0.4,0.3-0.8,0.8-0.8h10.2c0.4,0,0.8,0.3,0.8,0.8v11.1
			C37.3,37.6,36.9,37.9,36.5,37.9L36.5,37.9z M4.5,36.4h31.2v-9.5h-8.6v1.4c0,1.3-1.1,2.3-2.3,2.3h-9.4c-1.3,0-2.3-1.1-2.3-2.3v-1.4
			H4.5V36.4L4.5,36.4z"/>
	</g>
	<g>
		<g>
			<g>
				<path class="st0" d="M3.7,26.9c-0.2,0-0.4-0.1-0.5-0.2c-0.3-0.3-0.3-0.8,0-1.1L9.5,19c0.3-0.3,0.8-0.3,1.1,0
					c0.3,0.3,0.3,0.8,0,1.1l-6.3,6.5C4.1,26.8,3.9,26.9,3.7,26.9L3.7,26.9z"/>
			</g>
		</g>
		<g>
			<g>
				<path class="st0" d="M36.5,26.9c-0.2,0-0.4-0.1-0.6-0.2l-6.3-6.5c-0.3-0.3-0.3-0.8,0-1.1c0.3-0.3,0.8-0.3,1.1,0l6.3,6.5
					c0.3,0.3,0.3,0.8,0,1.1C36.9,26.8,36.7,26.9,36.5,26.9L36.5,26.9z"/>
			</g>
		</g>
	</g>
</g>
</svg>
