<svg xmlns="http://www.w3.org/2000/svg" width="125.009" height="47.52" viewBox="0 0 125.009 47.52"><defs><style>.a{fill:#fff;}</style></defs><path class="a" d="M8.37-2.34a12.979,12.979,0,0,0-2.1,1.02c-1.02.57-1.56.84-1.59.84a1.7,1.7,0,0,1-.63-.18V-2.4A58.533,58.533,0,0,1,5.1-11.16c.51-2.85,1.14-6.12,1.95-9.78.69-3.21,1.05-4.74,1.05-4.65a1.1,1.1,0,0,0-1.14-1.05c-.72,0-1.14.24-1.23.69Q1.545-7.86,1.56-.48c0,1.89.54,2.82,1.59,2.82.84,0,1.95-.6,3.36-1.77S8.61-1.5,8.64-2.07ZM9.39-5.1a6,6,0,0,0,1.23,3.48A4.818,4.818,0,0,0,13.23.27,7.474,7.474,0,0,0,15.6.48a6.516,6.516,0,0,0,3.69-1.74c.54-.54.78-.93.75-1.17a.608.608,0,0,0-.57-.24c.03,0-.45.24-1.38.69a5.92,5.92,0,0,1-2.52.69A2.919,2.919,0,0,1,12.6-3.18a6.851,6.851,0,0,0,1.77-.12,4.273,4.273,0,0,0,3.48-2.4A9.463,9.463,0,0,0,19.2-9.84a3.462,3.462,0,0,0-.69-2.31,2.609,2.609,0,0,0-2.19-1.11,6.145,6.145,0,0,0-5.04,2.94A8.73,8.73,0,0,0,9.39-5.1Zm7.32-5.55a7.841,7.841,0,0,1-.57,2.79c-.54,1.47-1.32,2.22-2.37,2.28a6.062,6.062,0,0,1-1.68-.03l.03-.57A5.541,5.541,0,0,1,13.8-9.21c1.08-1.23,1.95-1.83,2.58-1.77C16.59-10.89,16.71-10.8,16.71-10.65ZM32.7-13.71a25.4,25.4,0,0,0-2.55-.03c.27-1.95.54-3.57.84-4.86.84-3.15,1.26-4.74,1.23-4.77a1.555,1.555,0,0,0-.57-.87,1.6,1.6,0,0,0-1.2-.48q-.855.135-1.8,5.22c-.33,1.95-.6,3.9-.84,5.79-1.08.27-1.68.39-1.83.42a11.6,11.6,0,0,0-3.09.99c-1.68.81-2.43,1.77-2.25,2.94.15.9,1.38,3.06,3.72,6.48l3.6,5.13a.18.18,0,0,0,.12.03,1.037,1.037,0,0,0,.36.09c.24-.03.39-.06.45-.06.33-6.48.66-11.19,1.05-14.13a5.57,5.57,0,0,1,1.02-.15q.945-.135,5.22-.18c.15,0,.27-.27.3-.27a4.954,4.954,0,0,0-2.31-1.02C33.24-13.62,32.73-13.71,32.7-13.71ZM26.97-2.58c-.39-.51-1.08-1.5-2.07-3.03a13.554,13.554,0,0,1-1.65-3.12c-.18-1.11,1.26-2.01,4.32-2.73ZM38-14.824v-1.084a1.611,1.611,0,0,0,1.055-1.018,6.02,6.02,0,0,0,.352-2.292v-.293H38V-23.13h3.618V-20a6.391,6.391,0,0,1-.908,3.706A3.549,3.549,0,0,1,38-14.824ZM56.382-12.45a2.452,2.452,0,0,0-1.8-2.25,6.687,6.687,0,0,0-2.73-.6c-2.25,0-3.39,1.02-3.36,3.03a8.142,8.142,0,0,0,1.02,3.78c.09.21.72,1.23,1.86,3.06a5.3,5.3,0,0,1,1.02,2.58c0,.69-.51,1.29-1.56,1.86a4.95,4.95,0,0,1-2.28.72q-.585.045-.72-.27c-.12-.69.48-1.68,1.83-3.03a1.908,1.908,0,0,0-1.23-.42,3.048,3.048,0,0,0-2.28,1.5A4.592,4.592,0,0,0,45.072.09a1.859,1.859,0,0,0,.99,1.68,4,4,0,0,0,1.68.57l1.08.03a7.766,7.766,0,0,0,3.72-1.32,3.951,3.951,0,0,0,2.19-3.33,9.756,9.756,0,0,0-1.95-4.86c-1.29-1.98-1.95-3.54-1.95-4.68,0-.93.69-1.44,2.04-1.53,1.02.24,1.44.69,1.29,1.38.54,1.05,1.2,1.14,2.01.33A1.486,1.486,0,0,0,56.382-12.45ZM65.262-.66a1.485,1.485,0,0,0,.6,1.17,2.238,2.238,0,0,0,1.11.66q3.375.135,6.21-3.15a7.815,7.815,0,0,0,1.59-2.61,12.733,12.733,0,0,0,.45-2.52,6.922,6.922,0,0,0-.9-3.81,4.182,4.182,0,0,0-3.48-2.55,4,4,0,0,0-2.64,1.23c.24-4.92.36-7.8.33-8.61a2.345,2.345,0,0,0-.48-1.08,1.3,1.3,0,0,0-.93-.69,1.548,1.548,0,0,0-1.47.45c.12,4.23.18,7.41.21,9.54l-.15,3.84a42.092,42.092,0,0,1-.87,4.38,1.54,1.54,0,0,0,.57,1.5,1.737,1.737,0,0,1,.78-.18l.18.18c-.21.33-.39.63-.6.96A2.988,2.988,0,0,0,65.262-.66Zm7.83-7.02a6.683,6.683,0,0,1-1.8,4.26,4.336,4.336,0,0,1-3.54,1.8,7.3,7.3,0,0,1-.72-1.47,13.285,13.285,0,0,0,.87-2.82,15.617,15.617,0,0,1,1.02-3.21,4.485,4.485,0,0,1,2.28-2.25c.57.09,1.05.63,1.44,1.56A4.951,4.951,0,0,1,73.092-7.68Zm3.84,2.58a6,6,0,0,0,1.23,3.48A4.818,4.818,0,0,0,80.772.27a7.474,7.474,0,0,0,2.37.21,6.516,6.516,0,0,0,3.69-1.74c.54-.54.78-.93.75-1.17a.608.608,0,0,0-.57-.24c.03,0-.45.24-1.38.69a5.92,5.92,0,0,1-2.52.69,2.919,2.919,0,0,1-2.97-1.89,6.851,6.851,0,0,0,1.77-.12,4.273,4.273,0,0,0,3.48-2.4,9.463,9.463,0,0,0,1.35-4.14,3.462,3.462,0,0,0-.69-2.31,2.609,2.609,0,0,0-2.19-1.11,6.145,6.145,0,0,0-5.04,2.94A8.73,8.73,0,0,0,76.932-5.1Zm7.32-5.55a7.841,7.841,0,0,1-.57,2.79c-.54,1.47-1.32,2.22-2.37,2.28a6.062,6.062,0,0,1-1.68-.03l.03-.57a5.541,5.541,0,0,1,1.68-3.03c1.08-1.23,1.95-1.83,2.58-1.77C84.132-10.89,84.252-10.8,84.252-10.65Zm10.74-6.42a3.918,3.918,0,0,0-2.82,1.23,4.679,4.679,0,0,0-1.38,3.48,8.011,8.011,0,0,0,.93,3.57,7.354,7.354,0,0,0-2.01,5.16q0,3.06,2.43,3.06c1.44,0,3.03-1.2,4.74-3.6,1.74-2.43,2.55-4.62,2.43-6.63a1.812,1.812,0,0,1,.9-.21c1.29,0,2.22.75,2.82,2.25a13.658,13.658,0,0,1,.54,3.99,5.573,5.573,0,0,1-.03.78,26.038,26.038,0,0,1-.99,5.28c-1.5,4.44-2.91,7.5-4.2,9.21a26.843,26.843,0,0,1-4.38,5.04c-2.46,2.13-4.53,3.21-6.21,3.21-1.83,0-2.76-1.83-2.76-5.49a18.276,18.276,0,0,1,.24-1.92,16.114,16.114,0,0,0,.24-2.13q0-1.3-.9-.72a28.394,28.394,0,0,0-.96,2.85,16.227,16.227,0,0,0-.54,4.17c0,3.21,1.86,5.37,5.07,5.37,2.34,0,5.1-1.44,8.25-4.29a30.507,30.507,0,0,0,5.91-8.19,46.006,46.006,0,0,0,2.4-6.24,25.588,25.588,0,0,0,1.2-6.84,14.171,14.171,0,0,0-.66-5.01,5.477,5.477,0,0,0-4.53-3.45,5.212,5.212,0,0,0-1.71,0c-.09-.45-.18-.81-.24-1.08A3.718,3.718,0,0,0,94.992-17.07ZM97-12.72a5.79,5.79,0,0,0-1.71.78,15.343,15.343,0,0,0-1.95,1.5,4.841,4.841,0,0,1-.36-1.23,3.382,3.382,0,0,1,.69-2.28,2.216,2.216,0,0,1,1.74-.99C96.222-14.91,96.762-14.16,97-12.72Zm-4.71,9.15c-.27-1.14.27-2.46,1.62-3.93a7.377,7.377,0,0,1,3.06-2.46c.03.93-.54,2.25-1.71,3.93s-2.07,2.58-2.73,2.73Zm24.15-14.73c-.24-.39-1.05-.6-2.4-.6a5.856,5.856,0,0,0-1.74.42c-.93.33-1.38.66-1.38,1.02a1.743,1.743,0,0,0,1.65,1.59,12.729,12.729,0,0,0,1.35-.54,19.509,19.509,0,0,1,1.92-.78A1.843,1.843,0,0,0,116.442-18.3Zm-5.07,19.41a.684.684,0,0,0,.03-.9,4.005,4.005,0,0,1-.81-2.94,24.192,24.192,0,0,1,.45-4.17c.33-1.65.48-2.43.48-2.34q0-.315-.63-.72a1.876,1.876,0,0,0-.84-.39,1.092,1.092,0,0,0-1.2.39,24.258,24.258,0,0,1-.36,2.46,24.665,24.665,0,0,0-.36,3.66,10.541,10.541,0,0,0,.3,2.67,3.194,3.194,0,0,0,2.16,2.28Zm11.28-4.59a4.766,4.766,0,0,0,.21,2.85A2.975,2.975,0,0,0,124,.54c.72.24,1.14.12,1.29-.39a5.289,5.289,0,0,1-.42-1.77,16.311,16.311,0,0,1,.87-4.08,14.174,14.174,0,0,0,.81-4.71,2.124,2.124,0,0,0-2.28-2.16c-.87.09-2.07.84-3.6,2.31-1.08,1.05-2.16,2.13-3.27,3.21q.045-.315.18-.9a2.383,2.383,0,0,0,.03-.66,1.591,1.591,0,0,0-1.62-1.29,1.535,1.535,0,0,0-1.26.78,11.877,11.877,0,0,1-.42,3.24c-.36,1.77-.54,2.64-.54,2.64a2.172,2.172,0,0,0,.33.84c.27.48.6.72.93.69.3-.09.51-.15.66-.18a33.075,33.075,0,0,0,3.99-4.2c2.31-2.64,3.63-3.9,3.93-3.81C124-9.51,123.7-7.38,122.652-3.48Z" transform="translate(-1.56 26.64)"/></svg>