<?xml version="1.0" encoding="utf-8"?>
<!-- Generator: Adobe Illustrator 22.0.1, SVG Export Plug-In . SVG Version: 6.00 Build 0)  -->
<svg version="1.1" id="Capa_1" xmlns="http://www.w3.org/2000/svg" xmlns:xlink="http://www.w3.org/1999/xlink" x="0px" y="0px"
	 viewBox="0 0 26.9 15.6" style="enable-background:new 0 0 26.9 15.6;" xml:space="preserve">
<style type="text/css">
	.st0{fill:#FFFFFF;}
</style>
<g>
	<path class="st0" d="M11.7,15.4h-2L2,3.7v11.7H0V0.2h2L9.7,12V0.2h2V15.4z"/>
	<path class="st0" d="M26.9,8.3c0,1.5-0.3,2.8-0.8,3.9c-0.5,1.1-1.2,2-2.1,2.5c-0.9,0.6-2,0.9-3.2,0.9c-1.2,0-2.3-0.3-3.2-0.9
		s-1.6-1.4-2.2-2.5c-0.5-1.1-0.8-2.3-0.8-3.8V7.3c0-1.5,0.3-2.8,0.8-3.9c0.5-1.1,1.2-2,2.2-2.6c0.9-0.6,2-0.9,3.2-0.9
		C22,0,23.1,0.3,24,0.9c0.9,0.6,1.6,1.4,2.1,2.6c0.5,1.1,0.8,2.4,0.8,3.9V8.3z M24.9,7.3c0-1.8-0.4-3.2-1.1-4.1
		c-0.7-1-1.7-1.4-3-1.4c-1.3,0-2.3,0.5-3,1.4c-0.7,1-1.1,2.3-1.1,4v1.1c0,1.7,0.4,3.1,1.1,4.1c0.7,1,1.7,1.5,3,1.5
		c1.3,0,2.3-0.5,3-1.4c0.7-0.9,1.1-2.3,1.1-4.1V7.3z"/>
</g>
</svg>
