<svg xmlns="http://www.w3.org/2000/svg" xmlns:xlink="http://www.w3.org/1999/xlink" width="105" height="124.937" viewBox="0 0 105 124.937">
  <defs>
    <clipPath id="clip-path">
      <path id="Path_131" data-name="Path 131" d="M52.5-19.937c28.995,0,52.5,43.442,52.5,72.437a52.5,52.5,0,0,1-105,0C0,23.505,23.505-19.937,52.5-19.937Z" transform="translate(350 499)" fill="#f2f2f2"/>
    </clipPath>
  </defs>
  <g id="Group_2604" data-name="Group 2604" transform="translate(-17559 2518.937)">
    <g id="Group_2602" data-name="Group 2602" transform="translate(17209 -2959)">
      <path id="Path_130" data-name="Path 130" d="M52.5,0A52.5,52.5,0,1,1,0,52.5,52.5,52.5,0,0,1,52.5,0Z" transform="translate(350 460)" fill="#4d445a"/>
      <g id="Mask_Group_1" data-name="Mask Group 1" transform="translate(0 -39)" clip-path="url(#clip-path)">
        <g id="Group_82" data-name="Group 82" transform="translate(339.054 487.113)">
          <path id="Path_84" data-name="Path 84" d="M1244.728,937.507c-.456,0-27.345-1.823-25.523-15.04,0,0,.456-4.1,5.469-6.836,0,0-8.2-9.571,2.279-18.23,0,0-6.836-18.685,12.761-24.154,0,0-1.367-25.978,23.243-27.8,0,0,24.611-4.1,27.8,28.257,0,0,16.807,11.9,4.557,24.154-.455.456,8.2,7.748,0,15.5,0,0,8.2,9.114,0,17.774Z" transform="translate(-1200.608 -845.279)" fill="#c7c1e0"/>
          <path id="Path_85" data-name="Path 85" d="M1277.451,931.207V909.332s11.716,1.823,12.172-24.611l-.911-14.583-17.318-9.115-17.774,13.217s-1.367,26.433,7.747,30.99V930.3Z" transform="translate(-1206.765 -848.094)" fill="#fff"/>
          <path id="Path_86" data-name="Path 86" d="M1267.163,866.249s-4.557,12.761-16.406,12.305c0,0-4.1-21.42,11.849-25.522s28.257,4.557,30.08,20.053v9.57S1273.544,882.2,1267.163,866.249Z" transform="translate(-1206.182 -846.484)" fill="#c7c1e0"/>
          <path id="Path_87" data-name="Path 87" d="M1251.452,883.223v21.42h-3.817a6.209,6.209,0,0,1-6.21-6.21v-9a6.209,6.209,0,0,1,6.21-6.209Z" transform="translate(-1204.597 -852.064)" fill="#ec453f"/>
          <path id="Path_88" data-name="Path 88" d="M1296.924,883.223v21.42h3.817a6.21,6.21,0,0,0,6.21-6.21v-9a6.21,6.21,0,0,0-6.21-6.209Z" transform="translate(-1214.522 -852.064)" fill="#ec453f"/>
          <path id="Path_89" data-name="Path 89" d="M1270.24,847.724V847.7l-.088.011-.088-.011v.021c-27.6,2.841-22.611,31.881-22.611,31.881h2.279c.438-24.114,19.01-25.873,20.42-25.971,1.41.1,19.982,1.858,20.421,25.971h2.279S1297.841,850.565,1270.24,847.724Z" transform="translate(-1205.613 -845.712)" fill="#ec453f"/>
          <path id="Path_90" data-name="Path 90" d="M1403.319,963.938l10.214-5.407s10.215-5.407,18.626,0c0,0,10.15,2.256,16.793-.334a4.171,4.171,0,0,1,1.521-.266h7.242a1.754,1.754,0,0,1,1.281,2.956c-3.324,3.513-9.372,9.053-15.421,10.262H1432.76l-14.72-1.7-9.914,7.71Z" transform="translate(-1233.548 -865.101)" fill="#e6e6e6"/>
          <path id="Path_91" data-name="Path 91" d="M1383.025,974.453l-41.842,16.739a13.822,13.822,0,0,1-12.029-.865l-21.233-12.269-7.21,27.037,4.909,52.573h-72.906l7.313-48.367-4.807-41.457-2.4-29.441,6.014-3.184,14.415-7.631,10.815,7.211,10.214-1.2s9.012-5.408,9.012-6.009c0-.252,3.93,1.724,8.49,4.1,6.279,3.274,13.741,7.312,13.741,7.312l31.243,27.038,39.054-10.215C1375.815,956.428,1383.025,974.453,1383.025,974.453Z" transform="translate(-1203.04 -859.994)" fill="#373041"/>
          <path id="Path_92" data-name="Path 92" d="M1279.273,1031.228l8.411,1.8,13.219-3,19.227,3a21.067,21.067,0,0,1-10.155,3.891s16.764.315,16.764,3.319-1.8,2.4-1.8,2.4,4.807,1.8.6,4.806c0,0,1.8,2.4-2.4,3.6,0,0,1.2,1.2-1.2,2.4s-16.823,0-16.823,0l-10.215-3.6-17.424-5.407Z" transform="translate(-1211.043 -878.316)" fill="#e6e6e6"/>
          <path id="Path_93" data-name="Path 93" d="M1248.886,925.032l-22.832,13.218-27.6,56.274a18.2,18.2,0,0,0,13.953,26.051l54.505,7.2,2.4-17.424-47.465-10.214,9.613-20.428Z" transform="translate(-1196.578 -859.54)" fill="#373041"/>
          <path id="Path_94" data-name="Path 94" d="M1274.1,963.938c-16.409-.8-28.017-17.593-33.941-28.72l14.414-7.631,10.815,7.211,10.214-1.2s9.012-5.408,9.012-6.009c0-.252,3.93,1.724,8.49,4.1C1293.715,961.817,1274.1,963.938,1274.1,963.938Z" transform="translate(-1204.372 -859.994)" fill="#fff"/>
          <path id="Path_95" data-name="Path 95" d="M1274.233,964.433l-.047,0c-16.931-.926-28.709-18.7-34.223-29.207l-.279-.533,15.291-7.977,10.871,7.341,9.861-1.1a91.916,91.916,0,0,0,8.634-5.545v-.161l.3-.19c.4-.235.554-.339,9.033,4.15l.314.167.006.355c.428,30.291-19.512,32.676-19.713,32.7ZM1241.307,935.2c5.5,10.329,16.861,27.118,32.892,28.032,1-.134,18.846-2.976,18.6-31.126-5.27-2.785-7.043-3.617-7.637-3.855-.723.7-2.826,2.179-8.954,5.8l-.111.067L1265.54,935.3l-10.644-7.188Z" transform="translate(-1204.286 -859.841)" fill="#373041"/>
          <g id="Group_77" data-name="Group 77" transform="translate(42.606 64.486)">
            <path id="Path_96" data-name="Path 96" d="M1278.527,924.666l-7.21,7.811-13.219-7.811-8.321,5.292,17.333,12.133,4.206-7.21,8.412,6.008,6.609-14.42Z" transform="translate(-1248.697 -923.961)" fill="#75707c"/>
            <path id="Path_97" data-name="Path 97" d="M1267.066,942.8l-18.6-13.024,9.391-5.972,13.117,7.751,7.118-7.711,8.868,2.047-7.22,15.751-8.468-6.048Zm-16.441-12.975,16.061,11.242,4.209-7.215,8.355,5.968,6-13.09-6.753-1.557-7.3,7.911-13.32-7.87Z" transform="translate(-1248.461 -923.808)" fill="#75707c"/>
          </g>
          <g id="Group_79" data-name="Group 79" transform="translate(40.317 46.69)">
            <g id="Group_78" data-name="Group 78">
              <path id="Path_98" data-name="Path 98" d="M1257.92,910.107a13.11,13.11,0,0,1-12.246-7.412l1.392-.559c.156.382,3.941,9.313,16.595,5.562l.426,1.439A21.72,21.72,0,0,1,1257.92,910.107Z" transform="translate(-1245.674 -902.136)" fill="#373041"/>
            </g>
          </g>
          <g id="Group_80" data-name="Group 80" transform="translate(57.324 49.521)">
            <rect id="Rectangle_33" data-name="Rectangle 33" width="6.574" height="3.835" rx="1.917" transform="matrix(0.965, -0.263, 0.263, 0.965, 0, 1.727)" fill="#373041"/>
          </g>
          <line id="Line_19" data-name="Line 19" x1="36.651" y1="7.887" transform="translate(36.086 142.923)" fill="none" stroke="#6d6874" stroke-width="1.463"/>
          <line id="Line_20" data-name="Line 20" x1="35.311" y1="4.106" transform="translate(35.247 163.596)" fill="none" stroke="#6d6874" stroke-width="1.463"/>
          <g id="Group_81" data-name="Group 81" transform="translate(84.579 93.482)">
            <path id="Path_99" data-name="Path 99" d="M1306.923,967.781c.112,0,.132-.057.045-.128l-1.371-1.11a.28.28,0,0,0-.323-.009l-1.555,1.128c-.091.066-.073.119.038.119Z" transform="translate(-1298.289 -966.487)" fill="#ec453f"/>
            <path id="Path_100" data-name="Path 100" d="M1308.108,969.648c-.087-.07-.158-.036-.158.076v1.237a.438.438,0,0,1-.167.32l-3.01,2.1a.328.328,0,0,1-.338.006l-2.919-1.884a.419.419,0,0,1-.17-.314v-1.522c0-.112-.075-.15-.165-.084l-.972.705a.448.448,0,0,0-.165.323v5.4a.2.2,0,0,0,.2.2h3.327a.2.2,0,0,0,.2-.2v-.977a.2.2,0,0,1,.2-.2h.943a.2.2,0,0,1,.2.2v.977a.2.2,0,0,0,.2.2h3.508a.2.2,0,0,0,.2-.2v-5.4a.487.487,0,0,0-.158-.332Z" transform="translate(-1297.642 -967.034)" fill="#ec453f"/>
            <path id="Path_101" data-name="Path 101" d="M1299.575,970.308" transform="translate(-1299.575 -961.119)" fill="#ec453f"/>
            <path id="Path_102" data-name="Path 102" d="M1303.114,969.631l1.9,2.2,3.561-4.394-3.666,2.831Z" transform="translate(-1298.191 -966.656)" fill="#ec453f"/>
          </g>
        </g>
      </g>
    </g>
  </g>
</svg>
