<svg xmlns="http://www.w3.org/2000/svg" width="105" height="114" viewBox="0 0 105 114"><defs><style>.a{fill:#f2f2f2;}.b{fill:#c7c1e0;}.c{fill:#a09cb5;}.d{fill:#fff;}.e{fill:#373041;}.f{fill:#fd919e;}.g{fill:#4c4372;}</style></defs><g transform="translate(-931 -456)"><circle class="a" cx="52.5" cy="52.5" r="52.5" transform="translate(931 460)"/><g transform="translate(831.136 461.992)"><g transform="translate(124.169 -4.687)"><path class="b" d="M128.727,19.451V7.86a8.012,8.012,0,0,1,7.989-7.989H177.3a8.012,8.012,0,0,1,7.989,7.989v95.411a8.012,8.012,0,0,1-7.989,7.989H136.716a8.012,8.012,0,0,1-7.989-7.989V19.451Z" transform="translate(-128.727 0.129)"/></g><g transform="translate(175.078 89.298)"><path class="c" d="M357.368,421.978v17.054a8.02,8.02,0,0,0,5.657-7.639v-9.415Z" transform="translate(-357.368 -421.978)"/></g><g transform="translate(175.078 -4.336)"><path class="c" d="M357.368,1.444V16.758h5.657V9.083A8.02,8.02,0,0,0,357.368,1.444Z" transform="translate(-357.368 -1.444)"/></g><g transform="translate(124.169 10.977)"><rect class="d" width="56.782" height="78.321"/></g><g transform="translate(175.078 10.977)"><rect class="b" width="5.874" height="78.321"/></g><g transform="translate(147.557 93.214)"><circle class="e" cx="4.895" cy="4.895" r="4.895"/></g><g transform="translate(133.959 32.516)"><path class="f" d="M209.681,188.127v-5.36h-4.733a13.941,13.941,0,0,0-2.134-5.155l3.345-3.345-3.79-3.79-3.345,3.345a13.939,13.939,0,0,0-5.156-2.134v-4.733h-5.36v4.733a13.941,13.941,0,0,0-5.155,2.134l-3.346-3.345-3.79,3.79,3.345,3.345a13.942,13.942,0,0,0-2.134,5.155H172.7v5.36h4.733a13.945,13.945,0,0,0,2.134,5.156l-3.345,3.345,3.79,3.79,3.346-3.346a13.942,13.942,0,0,0,5.155,2.134v4.733h5.36v-4.733a13.944,13.944,0,0,0,5.156-2.134l3.345,3.346,3.79-3.79-3.345-3.345a13.943,13.943,0,0,0,2.134-5.156Zm-18.582,4.18a6.86,6.86,0,1,1,6.86-6.86A6.86,6.86,0,0,1,191.1,192.308Z" transform="translate(-172.696 -166.955)"/></g><g transform="translate(132.654 31.21)"><g transform="translate(11.543 11.632)"><path class="e" d="M226.841,229.666a8.165,8.165,0,1,1,8.165-8.165A8.175,8.175,0,0,1,226.841,229.666Zm0-13.72A5.555,5.555,0,1,0,232.4,221.5,5.561,5.561,0,0,0,226.841,215.946Z" transform="translate(-218.676 -213.335)"/></g><path class="e" d="M189.311,200.687h-5.36a1.305,1.305,0,0,1-1.305-1.305v-3.694a15.13,15.13,0,0,1-3.661-1.515l-2.612,2.612a1.306,1.306,0,0,1-1.846,0l-3.79-3.79a1.305,1.305,0,0,1,0-1.846l2.612-2.612a15.124,15.124,0,0,1-1.515-3.661h-3.695a1.305,1.305,0,0,1-1.305-1.305v-5.36a1.305,1.305,0,0,1,1.305-1.305h3.695a15.118,15.118,0,0,1,1.515-3.661l-2.612-2.612a1.305,1.305,0,0,1,0-1.846l3.79-3.79a1.305,1.305,0,0,1,1.846,0l2.612,2.612a15.131,15.131,0,0,1,3.661-1.515V162.4a1.305,1.305,0,0,1,1.305-1.305h5.36a1.305,1.305,0,0,1,1.305,1.305v3.695a15.124,15.124,0,0,1,3.661,1.515L196.889,165a1.306,1.306,0,0,1,1.846,0l3.79,3.79a1.305,1.305,0,0,1,0,1.846l-2.612,2.612a15.117,15.117,0,0,1,1.515,3.661h3.695a1.305,1.305,0,0,1,1.305,1.305v5.36a1.305,1.305,0,0,1-1.305,1.305h-3.695a15.124,15.124,0,0,1-1.515,3.661l2.612,2.612a1.305,1.305,0,0,1,0,1.846l-3.79,3.79a1.306,1.306,0,0,1-1.846,0l-2.612-2.612a15.138,15.138,0,0,1-3.661,1.515v3.694A1.305,1.305,0,0,1,189.311,200.687Zm-4.055-2.611h2.749v-3.427a1.305,1.305,0,0,1,1.057-1.281,12.578,12.578,0,0,0,4.673-1.934,1.305,1.305,0,0,1,1.654.159l2.422,2.423,1.944-1.944-2.423-2.422a1.305,1.305,0,0,1-.159-1.653,12.58,12.58,0,0,0,1.934-4.673,1.305,1.305,0,0,1,1.282-1.057h3.427v-2.75h-3.427a1.305,1.305,0,0,1-1.282-1.057,12.577,12.577,0,0,0-1.934-4.673,1.306,1.306,0,0,1,.159-1.654l2.423-2.422-1.944-1.944-2.422,2.423a1.306,1.306,0,0,1-1.653.159,12.577,12.577,0,0,0-4.673-1.934,1.305,1.305,0,0,1-1.057-1.282V163.7h-2.749v3.428a1.305,1.305,0,0,1-1.057,1.281,12.579,12.579,0,0,0-4.673,1.934,1.306,1.306,0,0,1-1.654-.159l-2.423-2.423-1.944,1.944,2.422,2.422a1.305,1.305,0,0,1,.159,1.653,12.577,12.577,0,0,0-1.934,4.673,1.305,1.305,0,0,1-1.282,1.057h-3.427v2.75h3.427a1.305,1.305,0,0,1,1.282,1.057,12.579,12.579,0,0,0,1.934,4.673,1.305,1.305,0,0,1-.159,1.653l-2.422,2.422,1.944,1.944,2.423-2.423a1.305,1.305,0,0,1,1.654-.159,12.579,12.579,0,0,0,4.673,1.934,1.305,1.305,0,0,1,1.057,1.281Z" transform="translate(-166.833 -161.092)"/></g><g transform="translate(123.201 9.672)"><path class="g" d="M182.018,66.97H125.236c-.721,0-.86-.584-.86-1.305s.139-1.305.86-1.305h56.782c.721,0,.61.537.61,1.258S182.739,66.97,182.018,66.97Z" transform="translate(-124.376 -64.359)"/></g><g transform="translate(123.34 87.993)"><path class="g" d="M182.5,418.726H125.721c-.721,0-.721-.355-.721-1.076s0-1.535.721-1.535H182.5c.721,0,.86.584.86,1.305S183.224,418.726,182.5,418.726Z" transform="translate(-125 -416.115)"/></g><g transform="translate(122.864 -5.992)"><path class="g" d="M172.745,108.008H132.159a9.305,9.305,0,0,1-9.295-9.294V3.3a9.305,9.305,0,0,1,9.295-9.294h40.587A9.305,9.305,0,0,1,182.04,3.3V98.714A9.305,9.305,0,0,1,172.745,108.008ZM132.159-3.381A6.691,6.691,0,0,0,125.475,3.3V98.714a6.691,6.691,0,0,0,6.684,6.684h40.587a6.691,6.691,0,0,0,6.684-6.684V3.3a6.691,6.691,0,0,0-6.684-6.684Z" transform="translate(-122.864 5.992)"/></g></g></g></svg>