<svg xmlns="http://www.w3.org/2000/svg" xmlns:xlink="http://www.w3.org/1999/xlink" version="1.1" width="21" height="21" viewBox="0 0 21 21">

  <g transform="matrix(1.0384615384615385 0 0 1.0384615384615385 10.5 10.5)">
    <path style="stroke: rgb(0,0,0); stroke-width: 0; stroke-dasharray: none; stroke-linecap: butt; stroke-dashoffset: 0; stroke-linejoin: miter; stroke-miterlimit: 4; fill: rgb(0,144,212); fill-rule: nonzero; opacity: 1;" vector-effect="non-scaling-stroke"  transform=" translate(-12, -12)" d="M 12 2.5 L 8.42 8.06 L 2 9.74 L 6.2 14.88 L 5.82 21.5 L 12 19.09 L 18.18 21.5 L 17.8 14.88 L 22 9.74 L 15.58 8.06 L 12 2.5 M 9.38 10.5 C 10 10.5 10.5 11 10.5 11.63 C 10.5 12.248558919810488 9.998558919810488 12.75 9.38 12.75 C 8.75 12.75 8.25 12.25 8.25 11.63 C 8.25 11 8.75 10.5 9.38 10.5 M 14.63 10.5 C 15.25 10.5 15.75 11 15.75 11.63 C 15.75 12.248558919810488 15.248558919810488 12.75 14.63 12.75 C 14 12.75 13.5 12.25 13.5 11.63 C 13.5 11 14 10.5 14.63 10.5 M 9 15 L 15 15 C 14.5 16.21 13.31 17 12 17 C 10.69 17 9.5 16.21 9 15 Z" stroke-linecap="round" />
  </g>

  <g transform="matrix(1.5384615384615385 0 0 1.5384615384615385 10.5 10.5)">
    <circle cx="0" cy="0" r="3.5" fill="rgb(0,144,212)" />
  </g>
</svg>
