<svg xmlns="http://www.w3.org/2000/svg" xmlns:xlink="http://www.w3.org/1999/xlink" width="233.629" height="191.657" viewBox="0 0 233.629 191.657"><defs><style>.a{fill:#40384b;}.b{fill:#ddd;}.c{fill:#c6c6c6;}.d{fill:#c3c4c6;}.e{fill:#d6d6d6;}.f{fill:#fff;}.g{clip-path:url(#a);}.h{fill:#fcfcfd;}.i{fill:#373041;}</style><clipPath id="a"><path class="a" d="M1.192.018,20.942,0a1.167,1.167,0,0,1,1.167,1.171L22.087,25.53A1.173,1.173,0,0,1,20.918,26.7l-19.75.018A1.167,1.167,0,0,1,0,25.55L.022,1.191A1.173,1.173,0,0,1,1.192.018Z" transform="translate(0 0)"/></clipPath></defs><g transform="translate(-42 -295.563)"><circle class="a" cx="95.828" cy="95.828" r="95.828" transform="translate(83.972 295.563)"/><path class="b" d="M197.711,200.691a59.809,59.809,0,0,1-7.294,13.954c-16.007,22.837-44.159,31.09-68.98,23.835a63.233,63.233,0,0,1-27.058-16.06l-23.7-23.7L68.052,196.2l-15.81-15.18a14.383,14.383,0,1,1,0-28.765,14.38,14.38,0,0,1,0-28.761V106.571a14.378,14.378,0,1,1,0-28.757l91.9,44.558,3.56,1.72,4.006,1.944a68.071,68.071,0,0,1,1.786-10.762,15.83,15.83,0,1,1,30.727,7.627,36.3,36.3,0,0,0,4.173,27.7S206.31,176.829,197.711,200.691Z" transform="translate(42.463 229.344)"/><g transform="translate(87.145 307.156)"><path class="c" d="M163.3,402.623a63.232,63.232,0,0,1-27.058-16.06l-23.7-23.7-2.631-2.526,41.073,8.472C126.019,368.814,146.089,391.923,163.3,402.623Z" transform="translate(-86.545 -241.956)"/><path class="c" d="M315.307,208.052a4.159,4.159,0,0,1-5.729-1.426,71.8,71.8,0,0,1-10.164-43.269c.006-.293.03-.884.1-1.731l4,1.94a68.216,68.216,0,0,1,1.791-10.76,15.765,15.765,0,0,1,8.385-10.391,52.73,52.73,0,0,0-5.92,21.187l-.018.322c-.048.549-.084,1.1-.114,1.641a63.141,63.141,0,0,0,5.992,30.956,65.251,65.251,0,0,0,3.1,5.795A4.177,4.177,0,0,1,315.307,208.052Z" transform="translate(-196.494 -115.344)"/><path class="c" d="M153.6,122.367v69.445c0,7.1-6.726,12.855-15.034,12.855H86.089l-5.945-5.945L61.7,181.015a14.31,14.31,0,0,1-7.561-2.148l.154-.207a20.155,20.155,0,0,0-.154-24.263h0a14.307,14.307,0,0,1,7.561-2.148,14.31,14.31,0,0,1-7.561-2.148l.977-1.216a17.422,17.422,0,0,0,.621-21l-1.6-2.249a14.307,14.307,0,0,1,7.561-2.148V106.57a14.3,14.3,0,0,1-7.561-2.143l2.5-4.218a16.038,16.038,0,0,0-.322-16.876l-2.178-3.375A14.307,14.307,0,0,1,61.7,77.809Z" transform="translate(-54.142 -77.809)"/></g><path class="d" d="M361.427,331.059c-10.481,24.195-24.687,38.346-44.1,49.458-10.214,5.849-22.382,8.453-34.348,10.681l-13.5-13.388,69.348-69.348Z" transform="translate(-92.106 95.341)"/><path class="e" d="M317.573,444.538c-10.214,5.85-21.817,9.455-34.763,11.118l-13.328-13.4,22.872-22.872Z" transform="translate(-92.106 30.9)"/><g transform="translate(42 316.694)"><g transform="translate(0 0)"><path class="d" d="M6.45.132,148.983,0a6.344,6.344,0,0,1,6.342,6.363l-.1,104.058a6.373,6.373,0,0,1-6.354,6.375l-142.533.132A6.344,6.344,0,0,1,0,110.564L.1,6.506A6.373,6.373,0,0,1,6.45.132Z"/><path class="f" d="M5.918.12,136.683,0A5.8,5.8,0,0,1,142.5,5.788l-.088,94.652a5.822,5.822,0,0,1-5.83,5.8l-130.766.12A5.8,5.8,0,0,1,0,100.57L.088,5.918A5.822,5.822,0,0,1,5.918.12Z" transform="translate(6.287 4.904)"/><g transform="translate(15.839 25.22)"><path class="a" d="M.014.037,71.268,0l-.014,8.34L0,8.377Z" transform="translate(34.344 51.795)"/><path class="a" d="M.014.029,58.186,0l-.014,8.34L0,8.37Z" transform="translate(40.885 63.518)"/><path class="a" d="M1.192.018,20.942,0a1.167,1.167,0,0,1,1.167,1.171L22.087,25.53A1.173,1.173,0,0,1,20.918,26.7l-19.75.018A1.167,1.167,0,0,1,0,25.55L.022,1.191A1.173,1.173,0,0,1,1.192.018Z" transform="translate(1.925 46.812)"/><g class="g" transform="translate(1.925 46.812)"><g transform="translate(-12.31 2.08)"><g transform="translate(0 0)"><path class="h" d="M26.241,28.605,1.35,29.051A182.471,182.471,0,0,1,.015,3.47,58.61,58.61,0,0,1,7.1,1.236,6.157,6.157,0,0,0,12.67,4.949,6.007,6.007,0,0,0,18.949,0c4.163.011,7.168.347,7.168.347L23.651,8.408A152.2,152.2,0,0,0,26.241,28.605Z" transform="translate(10.343 17.919)"/><path class="b" d="M8.105,4.43A31.056,31.056,0,0,1,7.3,0L4.286.27a29.251,29.251,0,0,1-.817,4.7.509.509,0,0,1-.407.362c-1.048.18-2.081.4-3.063.641A6.157,6.157,0,0,0,5.574,9.682a6.007,6.007,0,0,0,6.279-4.949c-1.019,0-2.108.014-3.238.06A.508.508,0,0,1,8.105,4.43Z" transform="translate(17.438 13.186)"/><path class="b" d="M11.009,2.972a.869.869,0,0,0-.328-.035,19.842,19.842,0,0,0,0-2.937L.152.537C-1.293,12.3,8,13.976,10.252,5.53,11.347,5.866,12.412,3.4,11.009,2.972Z" transform="translate(18.139 5.409)"/><path class="f" d="M13.041,1.328A6.371,6.371,0,0,0,7.583.212C5.953.711,4.781,2.361,3,2.473,2.2,2.525,1.3,2.244.65,2.723A1.809,1.809,0,0,0,.022,4a4.044,4.044,0,0,0,2.26,3.92A5.3,5.3,0,0,0,6.923,7.8c1.113-.555,2.145-1.465,3.386-1.456A4.044,4.044,0,0,1,13.2,8.4a.91.91,0,0,1,.506-.038A4.907,4.907,0,0,0,14.8,5.711,5.03,5.03,0,0,0,13.041,1.328Z" transform="translate(15.372)"/><path class="h" d="M16.272,4.5a4.34,4.34,0,0,0-7.13-3.48c-.034.025-.064.053-.095.081-.05.044-.1.089-.148.136A43.684,43.684,0,0,0,0,12.259,63.9,63.9,0,0,1,7.752,16.59q3.644-4.862,7.533-9.461A4.383,4.383,0,0,0,16.272,4.5Z" transform="translate(0 21.097)"/><path class="h" d="M8.549,3.2A4.368,4.368,0,0,0,4.492,0,4.373,4.373,0,0,0,.3,5.968,105.774,105.774,0,0,0,3.484,16.86,51.643,51.643,0,0,1,11.9,14.4,74.122,74.122,0,0,0,8.549,3.2Z" transform="translate(31.967 18.265)"/></g></g></g><g transform="translate(0 0)"><path class="i" d="M0,0H3.742V24.688H0ZM6.033,24.688H8.139V0H6.033Zm3.625,0h2.1V0h-2.1Zm4.869,0h4.606V0H14.527Zm8.294,0h2.3V0h-2.3Zm5.874,0h9.545V0H28.694Zm24.873,0H56.7V0H53.567ZM59.441,0V24.688h4.276V0ZM42.069,24.688h2.053V0H42.069Zm4.994,0h2.053V0H47.063Z" transform="translate(0 0)"/><path class="i" d="M0,0H3.742V24.688H0ZM6.033,24.688H8.139V0H6.033Zm3.625,0h2.1V0h-2.1Zm4.869,0h4.606V0H14.527Zm8.294,0h2.3V0h-2.3Zm5.874,0h9.545V0H28.694Zm24.873,0H56.7V0H53.567ZM59.441,0V24.688h4.276V0ZM42.069,24.688h2.053V0H42.069Zm4.994,0h2.053V0H47.063Z" transform="translate(123.459 24.688) rotate(180)"/></g></g></g></g></g></svg>