<svg xmlns="http://www.w3.org/2000/svg" width="54.287" height="59.672" viewBox="0 0 54.287 59.672">
  <g id="Group_2744" data-name="Group 2744" transform="translate(-375 -489.944)">
    <circle id="Ellipse_544" data-name="Ellipse 544" cx="16.658" cy="16.658" r="16.658" transform="translate(395.971 516.021)" fill="#d7cce6"/>
    <g id="surface1" transform="translate(375 489.944)">
      <path id="Path_2304" data-name="Path 2304" d="M40.669,25.832V14.539a1.307,1.307,0,0,0-.361-.858L27.647.386A1.262,1.262,0,0,0,26.739,0H6.666A6.688,6.688,0,0,0,0,6.728V44.686a6.646,6.646,0,0,0,6.666,6.679H22.511A17.1,17.1,0,1,0,40.669,25.832ZM27.983,4.366l8.494,8.942h-5.51a3,3,0,0,1-2.985-3ZM6.666,48.877a4.167,4.167,0,0,1-4.178-4.191V6.728A4.2,4.2,0,0,1,6.666,2.488H25.5V10.31a5.483,5.483,0,0,0,5.472,5.485h7.213v9.713c-.373-.012-.672-.05-.995-.05a17.354,17.354,0,0,0-11.342,4.279H10.049a1.244,1.244,0,1,0,0,2.487H23.531a19.788,19.788,0,0,0-2.189,3.856H10.049a1.244,1.244,0,1,0,0,2.488H20.533A17.069,17.069,0,0,0,21.28,48.89H6.666ZM37.174,57.2A14.614,14.614,0,1,1,51.787,42.584,14.629,14.629,0,0,1,37.174,57.2Zm0,0" fill="#4d445a"/>
      <path id="Path_2305" data-name="Path 2305" d="M76.795,204.171h12.6a1.244,1.244,0,1,0,0-2.488h-12.6a1.244,1.244,0,1,0,0,2.488Zm0,0" transform="translate(-66.746 -178.178)" fill="#4d445a"/>
      <path id="Path_2306" data-name="Path 2306" d="M255,283.609a1.235,1.235,0,0,0-1.816,0l-7.288,7.823a1.239,1.239,0,0,0,.062,1.754,1.27,1.27,0,0,0,1.778-.062l5.149-5.51v13.581a1.244,1.244,0,0,0,2.488,0V287.614l5.111,5.51a1.241,1.241,0,0,0,1.816-1.692Zm0,0" transform="translate(-216.94 -250.203)" fill="#4d445a"/>
    </g>
  </g>
</svg>
