<svg xmlns="http://www.w3.org/2000/svg" xmlns:xlink="http://www.w3.org/1999/xlink" width="105" height="106" viewBox="0 0 105 106"><defs><style>.a{fill:#40384b;}.b{fill:#f0f0f0;}.c{clip-path:url(#a);}.d{fill:#fcfcfd;}.e{fill:#ddd;}.f{fill:#fff;}</style><clipPath id="a"><rect class="a" width="29" height="35" rx="5" transform="translate(0 0)"/></clipPath></defs><g transform="translate(-743 -473)"><circle class="a" cx="52.5" cy="52.5" r="52.5" transform="translate(743 474)"/><g transform="translate(-5.222 -23)"><rect class="b" width="88" height="66" rx="10" transform="translate(757.222 496)"/><rect class="a" width="37" height="7" transform="translate(801.222 520)"/><rect class="a" width="37" height="7" transform="translate(801.222 533)"/><rect class="a" width="72" height="7" transform="translate(766.222 546)"/><g transform="translate(-32 -15)"><rect class="a" width="29" height="35" rx="5" transform="translate(798.222 520)"/><g class="c" transform="translate(798.222 520)"><g transform="translate(-16.194 2.677)"><g transform="translate(0 0)"><path class="d" d="M-227.37,476.157l-32.769.554a238.773,238.773,0,0,1-1.789-33.571,77.214,77.214,0,0,1,9.32-2.923,8.124,8.124,0,0,0,7.343,4.879,7.885,7.885,0,0,0,8.26-6.487c5.48.02,9.438.464,9.438.464l-3.237,10.575A199.263,199.263,0,0,0-227.37,476.157Z" transform="translate(275.549 -415.088)"/><path class="e" d="M-227.892,428.851a40.68,40.68,0,0,1-1.066-5.814l-3.966.35a38.238,38.238,0,0,1-1.07,6.162.668.668,0,0,1-.535.475c-1.379.235-2.739.524-4.031.838a8.125,8.125,0,0,0,7.343,4.879,7.885,7.885,0,0,0,8.26-6.487c-1.341-.005-2.775.016-4.263.075A.671.671,0,0,1-227.892,428.851Z" transform="translate(261.501 -405.732)"/><path class="e" d="M-221.788,401.387a1.146,1.146,0,0,0-.432-.047,25.956,25.956,0,0,0,0-3.854l-13.862.691c-1.887,15.432,10.351,17.646,13.3,6.565C-221.34,405.185-219.94,401.955-221.788,401.387Z" transform="translate(260.132 -390.382)"/><path class="f" d="M-228.257,381.438a8.417,8.417,0,0,0-7.186-1.471c-2.145.654-3.686,2.816-6.025,2.962-1.058.067-2.247-.3-3.1.325a2.367,2.367,0,0,0-.825,1.68,5.315,5.315,0,0,0,2.98,5.147,7,7,0,0,0,6.111-.159c1.465-.727,2.822-1.92,4.456-1.907,1.3.011,2.864,1.207,3.806,2.709a1.2,1.2,0,0,1,.666-.05,6.417,6.417,0,0,0,1.437-3.481A6.6,6.6,0,0,0-228.257,381.438Z" transform="translate(265.622 -379.691)"/><path class="d" d="M-274.61,454.909A5.729,5.729,0,0,0-280.157,449,5.7,5.7,0,0,0-284,450.334c-.045.033-.084.07-.125.106-.066.058-.132.117-.2.178a57.208,57.208,0,0,0-11.7,14.455,84.408,84.408,0,0,1,10.211,5.693q4.792-6.376,9.906-12.406A5.731,5.731,0,0,0-274.61,454.909Z" transform="translate(296.023 -421.331)"/><path class="d" d="M-179.384,443.975a5.665,5.665,0,0,0-.444-1.122,5.732,5.732,0,0,0-4.9-3.084,5.729,5.729,0,0,0-5.906,5.546,5.7,5.7,0,0,0,.4,2.277,138.681,138.681,0,0,0,4.2,14.3,68.061,68.061,0,0,1,11.074-3.222A97.187,97.187,0,0,0-179.384,443.975Z" transform="translate(232.71 -415.783)"/></g></g></g></g><path class="a" d="M10.947,4a6.947,6.947,0,1,0,6.947,6.947A6.955,6.955,0,0,0,10.947,4Zm6.235,6.6H15.106a8.6,8.6,0,0,0-1.837-5.453A6.256,6.256,0,0,1,17.182,10.6ZM10.6,4.726V10.6H7.483C7.578,7.523,8.911,5.03,10.6,4.726Zm0,6.568v5.874c-1.689-.3-3.022-2.8-3.117-5.874Zm.695,5.874V11.295h3.117C14.317,14.372,12.984,16.865,11.295,17.168Zm0-6.568V4.726c1.689.3,3.022,2.8,3.117,5.874ZM8.626,5.147A8.6,8.6,0,0,0,6.789,10.6H4.712A6.256,6.256,0,0,1,8.626,5.147ZM4.712,11.295H6.789a8.6,8.6,0,0,0,1.837,5.453A6.256,6.256,0,0,1,4.712,11.295Zm8.557,5.453a8.6,8.6,0,0,0,1.837-5.453h2.077A6.256,6.256,0,0,1,13.269,16.748Z" transform="translate(820.222 498.105)"/></g><g transform="translate(67 13)"><g transform="translate(5.837 -751.648)"><g transform="translate(711.163 1285.648)"><path class="f" d="M732.978,1299.272a1.816,1.816,0,0,1-1.287-.535l-8.711-8.7-8.715,8.7a1.817,1.817,0,0,1-2.57-2.57l10-9.988a1.82,1.82,0,0,1,2.571,0l10,9.988a1.82,1.82,0,0,1-1.283,3.1Z" transform="translate(-711.163 -1285.648)"/></g><g transform="translate(721.162 1288.368)"><path class="f" d="M715.731,1307.941a1.819,1.819,0,0,1-1.818-1.818v-17.91a1.818,1.818,0,0,1,3.636,0v17.91a1.819,1.819,0,0,1-1.818,1.818Z" transform="translate(-713.913 -1286.396)"/></g></g></g></g></svg>