<svg id="exclamation-mark" xmlns="http://www.w3.org/2000/svg" width="68.325" height="68.325" viewBox="0 0 68.325 68.325">
  <path id="Path_3047" data-name="Path 3047" d="M34.162,0A34.162,34.162,0,1,0,68.325,34.162,34.164,34.164,0,0,0,34.162,0Zm0,61.919A27.757,27.757,0,1,1,61.919,34.162,27.756,27.756,0,0,1,34.162,61.919Zm0-46.937c-2.447,0-4.3,1.277-4.3,3.339V37.239c0,2.065,1.851,3.337,4.3,3.337,2.387,0,4.3-1.326,4.3-3.337V18.322C38.462,16.308,36.552,14.982,34.165,14.982Zm0,29.856A4.264,4.264,0,1,0,38.426,49.1,4.27,4.27,0,0,0,34.165,44.838Z" fill="#e4e2e6"/>
</svg>
