<?xml version="1.0" encoding="utf-8"?>
<!-- Generator: Adobe Illustrator 22.0.1, SVG Export Plug-In . SVG Version: 6.00 Build 0)  -->
<svg version="1.1" id="Capa_1" xmlns="http://www.w3.org/2000/svg" xmlns:xlink="http://www.w3.org/1999/xlink" x="0px" y="0px"
	 viewBox="0 0 36.7 15.6" style="enable-background:new 0 0 36.7 15.6;" xml:space="preserve">
<style type="text/css">
	.st0{fill:#FFFFFF;}
</style>
<g>
	<path class="st0" d="M6.2,7.8l4-7.6h2.3L7.2,9.7v5.7h-2V9.7L0,0.2h2.3L6.2,7.8z"/>
	<path class="st0" d="M23,8.4h-6.6v5.4h7.6v1.6h-9.6V0.2H24v1.6h-7.5v4.9H23V8.4z"/>
	<path class="st0" d="M31.1,8.6c-1.7-0.5-3-1.1-3.8-1.8c-0.8-0.7-1.2-1.6-1.2-2.7c0-1.2,0.5-2.2,1.4-3c1-0.8,2.2-1.2,3.7-1.2
		c1,0,2,0.2,2.8,0.6s1.5,1,1.9,1.7c0.4,0.7,0.7,1.5,0.7,2.3h-2c0-0.9-0.3-1.6-0.9-2.2c-0.6-0.5-1.4-0.8-2.5-0.8
		c-1,0-1.8,0.2-2.3,0.7c-0.6,0.4-0.8,1-0.8,1.8c0,0.6,0.3,1.1,0.8,1.6c0.5,0.4,1.4,0.8,2.7,1.2c1.3,0.4,2.3,0.7,3,1.2
		s1.2,0.9,1.6,1.5c0.3,0.6,0.5,1.2,0.5,2c0,1.2-0.5,2.2-1.4,3c-1,0.7-2.2,1.1-3.8,1.1c-1,0-2-0.2-2.9-0.6c-0.9-0.4-1.6-0.9-2.1-1.6
		c-0.5-0.7-0.7-1.5-0.7-2.4h2c0,0.9,0.3,1.6,1,2.2c0.7,0.5,1.6,0.8,2.7,0.8c1.1,0,1.9-0.2,2.4-0.6c0.6-0.4,0.8-1,0.8-1.8
		s-0.3-1.3-0.8-1.7C33.4,9.4,32.4,9,31.1,8.6z"/>
</g>
</svg>
