<svg xmlns="http://www.w3.org/2000/svg" width="84.435" height="61.889" viewBox="0 0 84.435 61.889">
  <g id="Group_1774" data-name="Group 1774" transform="translate(-661.491 -221.147)">
    <g id="smartphone_3_" data-name="smartphone (3)" transform="translate(684.037 221.147)">
      <g id="Group_1761" data-name="Group 1761">
        <g id="Group_1760" data-name="Group 1760">
          <path id="Path_2024" data-name="Path 2024" d="M27.076,0H9.025A9.035,9.035,0,0,0,0,9.025V52.863a9.035,9.035,0,0,0,9.025,9.025H11.6a1.289,1.289,0,0,0,0-2.579H9.025a6.456,6.456,0,0,1-6.447-6.447V9.025A6.456,6.456,0,0,1,9.025,2.579H27.076a6.456,6.456,0,0,1,6.447,6.447V21.919a1.289,1.289,0,1,0,2.579,0V9.025A9.035,9.035,0,0,0,27.076,0Z" fill="#373041"/>
        </g>
      </g>
      <g id="Group_1763" data-name="Group 1763" transform="translate(0 10.315)">
        <g id="Group_1762" data-name="Group 1762">
          <path id="Path_2025" data-name="Path 2025" d="M34.812,85.333H1.289a1.289,1.289,0,0,0,0,2.579H34.812a1.289,1.289,0,0,0,0-2.579Z" transform="translate(0 -85.333)" fill="#373041"/>
        </g>
      </g>
      <g id="Group_1765" data-name="Group 1765" transform="translate(0 46.417)">
        <g id="Group_1764" data-name="Group 1764">
          <path id="Path_2026" data-name="Path 2026" d="M23.208,384H1.289a1.289,1.289,0,1,0,0,2.579H23.208a1.289,1.289,0,1,0,0-2.579Z" transform="translate(0 -384)" fill="#373041"/>
        </g>
      </g>
      <g id="Group_1767" data-name="Group 1767" transform="translate(12.893 5.157)">
        <g id="Group_1766" data-name="Group 1766">
          <path id="Path_2027" data-name="Path 2027" d="M115.691,42.667h-7.736a1.289,1.289,0,1,0,0,2.579h7.736a1.289,1.289,0,1,0,0-2.579Z" transform="translate(-106.666 -42.667)" fill="#373041"/>
        </g>
      </g>
      <g id="Group_1769" data-name="Group 1769" transform="translate(25.826 5.157)">
        <g id="Group_1768" data-name="Group 1768">
          <path id="Path_2028" data-name="Path 2028" d="M214.956,42.667h-.026a1.279,1.279,0,0,0-1.276,1.289,1.3,1.3,0,1,0,1.3-1.289Z" transform="translate(-213.654 -42.667)" fill="#373041"/>
        </g>
      </g>
      <g id="Group_1771" data-name="Group 1771" transform="translate(11.824 22.036)">
        <g id="Group_1770" data-name="Group 1770">
          <path id="Path_2029" data-name="Path 2029" d="M144.2,194.4l-9.7-10.655a4.936,4.936,0,0,0-6.981.015,4.826,4.826,0,0,0-1.248,2.133,4.94,4.94,0,0,0-7.739,2.576,4.943,4.943,0,0,0-7.723,2.53l-4.569-4.569a4.936,4.936,0,0,0-6.98,6.98l17.556,17.556L106.4,212.6a5.776,5.776,0,0,0-4.936,5.691,3.873,3.873,0,0,0,3.868,3.868H129.65A14.089,14.089,0,0,0,139.679,218l4.056-4.056A14.165,14.165,0,0,0,144.2,194.4Zm-2.285,17.726-4.056,4.056a11.528,11.528,0,0,1-8.205,3.4H105.335a1.29,1.29,0,0,1-1.289-1.289,3.2,3.2,0,0,1,2.739-3.143l12.932-2.032a1.288,1.288,0,0,0,.712-2.184l-19.348-19.348a2.358,2.358,0,0,1,3.337-3.332l12.9,12.9a1.289,1.289,0,0,0,1.823-1.823l-5.268-5.268a2.358,2.358,0,0,1,3.334-3.334l5.268,5.268a1.288,1.288,0,0,0,2.2-.913,1.276,1.276,0,0,0-.366-.9l-2.69-2.69a2.358,2.358,0,0,1,3.334-3.334l2.69,2.69,0,0,0,0,0,0,0,0h0a0,0,0,0,1,0,0,1.289,1.289,0,0,0,1.8-1.849l-.111-.111a2.358,2.358,0,0,1,3.29-3.378l9.655,10.611a11.589,11.589,0,0,1-.379,15.991Z" transform="translate(-97.819 -182.302)" fill="#373041"/>
        </g>
      </g>
    </g>
    <g id="Group_1602" data-name="Group 1602" transform="translate(661.491 242.711)">
      <g id="Group_1602-2" data-name="Group 1602" transform="translate(0)">
        <circle id="Ellipse_515" data-name="Ellipse 515" cx="16.956" cy="16.956" r="16.956" transform="translate(0 0)" fill="#73c422"/>
        <g id="Group_1575" data-name="Group 1575" transform="translate(10.938 12.78)">
          <path id="Path_1988" data-name="Path 1988" d="M0,9.951,8.237,0l4.148,3.573" transform="translate(12.385 9.951) rotate(180)" fill="none" stroke="#fff" stroke-linecap="round" stroke-linejoin="round" stroke-width="2"/>
        </g>
      </g>
    </g>
  </g>
</svg>
