<svg xmlns="http://www.w3.org/2000/svg" xmlns:xlink="http://www.w3.org/1999/xlink" width="121" height="91" viewBox="0 0 121 91"><defs><style>.a{fill:#fff;stroke:#707070;}.b{clip-path:url(#a);}.c{fill:#f0f0f0;}.d{fill:#40384b;}.e,.i,.k,.m{fill:none;}.e{stroke:#40384b;}.e,.k{stroke-linecap:round;}.f{fill:#aaa7a7;}.g{fill:#888;}.h{fill:#f5f5f5;}.i{stroke:#eff0f0;}.i,.k{stroke-width:1.5px;}.j{fill:#ef463f;}.k{stroke:#fff;}.l{stroke:none;}.n{filter:url(#b);}</style><clipPath id="a"><rect class="a" width="114" height="83" rx="8" transform="translate(497.666 334)"/></clipPath><filter id="b" x="-18.539" y="6.658" width="82.939" height="84.502" filterUnits="userSpaceOnUse"><feOffset dy="3" input="SourceAlpha"/><feGaussianBlur stdDeviation="3" result="c"/><feFlood flood-opacity="0.161"/><feComposite operator="in" in2="c"/><feComposite in="SourceGraphic"/></filter></defs><g transform="translate(-648 -530)"><g class="b" transform="translate(151.334 204)"><g transform="translate(517.669 343.292)"><rect class="c" width="85.969" height="65.234" rx="10"/><g transform="translate(27.032 24.698)"><rect class="d" width="3.735" height="4.942"/><rect class="d" width="3.735" height="4.942" transform="translate(5.93 0)"/><rect class="d" width="3.735" height="4.942" transform="translate(11.861 0)"/><rect class="d" width="3.735" height="4.942" transform="translate(17.791 0)"/><rect class="d" width="3.735" height="4.942" transform="translate(23.722 0)"/><rect class="d" width="3.735" height="4.942" transform="translate(29.652 0)"/></g><g transform="translate(7.819 18.509)"><g transform="translate(58.948 0)"><rect class="d" width="10.812" height="2.405" transform="translate(1.836 3.27)"/><rect class="d" width="10.812" height="2.405" transform="translate(1.836 36.787)"/><rect class="d" width="12.648" height="2.405"/><rect class="d" width="29.549" height="1.783" transform="translate(5 6.54) rotate(90)"/><rect class="d" width="29.549" height="1.783" transform="translate(8.672 6.54) rotate(90)"/><rect class="d" width="29.549" height="1.783" transform="translate(12.344 6.54) rotate(90)"/></g><rect class="d" width="11.082" height="2.405" transform="translate(0 3.27)"/><rect class="d" width="11.082" height="2.405" transform="translate(0 36.787)"/><rect class="d" width="12.851" height="2.405"/><rect class="d" width="29.549" height="1.718" transform="translate(9.553 6.54) rotate(90)"/><rect class="d" width="29.549" height="1.718" transform="translate(5.791 6.54) rotate(90)"/><rect class="d" width="29.549" height="1.718" transform="translate(2.011 6.54) rotate(90)"/></g><path class="d" d="M0,8.531V0H71.6V8.531S51.642,4.21,36.061,4.207,0,8.531,0,8.531Z" transform="translate(7.819 7.233)"/><path class="e" d="M0,19.834s8.985-1.063,10.789-9.313S10.578-1.051,9.235.288s-1.821,5.864-1.4,11.246,3.546,5.838,5.186,3.706,4.284-6.9,4.643-4.719-2.395,5.547-1.137,6.373S27.732,9.3,27.732,9.3" transform="translate(30.491 34.561)"/></g><g transform="translate(487.128 338.658)"><g class="n" transform="matrix(1, 0, 0, 1, 9.54, -12.66)"><path class="f" d="M7621.919,1645.614s-13.625-7.482-18.677-3.974-19.438,19.742-25.242,27.272-8.96,24.428,2.538,32.647,20.567,5.044,20.567,5.044l31.312-12.125s7.175-3.092,4.83-10.808-5.967-6.765-7.259-7.01-25.388,6.064-25.388,6.064l-.619-26.36s-.362-5.8,3.125-8.425a12.494,12.494,0,0,1,7.658-2.326Z" transform="translate(-7582.32 -1628.05)"/></g><path class="g" d="M7607.327,1665.32s-5.692,8.407-5.563,14.306,6.172,4.723,6.172,4.723Z" transform="translate(-7576.125 -1642.278)"/><path class="h" d="M4.178.161,6.929.027A3.616,3.616,0,0,1,10.473,3.74l.6,3.695A3.63,3.63,0,0,1,7.4,11.07l-3.68-.014A3.7,3.7,0,0,1,.029,7.392L.512,3.8A3.63,3.63,0,0,1,4.178.161Z" transform="matrix(0.358, 0.934, -0.934, 0.358, 59.903, 37.326)"/></g></g><g class="i" transform="translate(648 538)"><rect class="l" width="115" height="83" rx="8"/><rect class="m" x="0.75" y="0.75" width="113.5" height="81.5" rx="7.25"/></g><g transform="translate(150 204)"><circle class="j" cx="8.5" cy="8.5" r="8.5" transform="translate(602 326)"/><g transform="translate(-1.133 -1.133)"><path class="k" d="M12825.384,327.334l5.221,5.222" transform="translate(-12216 5.469)"/><path class="k" d="M0,0,5.222,5.222" transform="translate(614.606 332.803) rotate(90)"/></g></g></g></svg>