<svg xmlns="http://www.w3.org/2000/svg" xmlns:xlink="http://www.w3.org/1999/xlink" width="121" height="91" viewBox="0 0 121 91"><defs><style>.a{fill:#fff;stroke:#707070;}.b{clip-path:url(#a);}.c{fill:#f0f0f0;}.d{fill:#40384b;}.e,.f,.h,.j{fill:none;}.e{stroke:#40384b;}.e,.h{stroke-linecap:round;}.f{stroke:#eff0f0;}.f,.h{stroke-width:1.5px;}.g{fill:#ef463f;}.h{stroke:#fff;}.i{stroke:none;}</style><clipPath id="a"><rect class="a" width="114" height="83" rx="8" transform="translate(497.939 334)"/></clipPath></defs><g transform="translate(-469 -530)"><g class="b" transform="translate(-27.939 204)"><g transform="translate(472.029 358.65) rotate(-25)"><g transform="translate(0 0)"><path class="c" d="M9.924-.035l97.953-.349a9.869,9.869,0,0,1,9.889,9.948l-.244,68.912a10.04,10.04,0,0,1-9.96,10.019L9.61,88.844A9.869,9.869,0,0,1-.279,78.9L-.035,9.984A10.04,10.04,0,0,1,9.924-.035Z"/><g transform="translate(36.923 33.518)"><path class="d" d="M0,0,5.119-.018,5.095,6.715l-5.119.018Z" transform="translate(0 0)"/><path class="d" d="M0,0,5.119-.018,5.095,6.715l-5.119.018Z" transform="translate(8.126 -0.029)"/><path class="d" d="M0,0,5.119-.018,5.095,6.715l-5.119.018Z" transform="translate(16.253 -0.058)"/><path class="d" d="M0,0,5.119-.018,5.095,6.715l-5.119.018Z" transform="translate(24.379 -0.087)"/><path class="d" d="M0,0,5.119-.018,5.095,6.715l-5.119.018Z" transform="translate(32.505 -0.116)"/><path class="d" d="M0,0,5.119-.018,5.095,6.715l-5.119.018Z" transform="translate(40.631 -0.145)"/></g><g transform="translate(10.625 25.18)"><g transform="translate(80.775 -0.287)"><path class="d" d="M0,0,14.816-.053,14.8,3.224-.012,3.277Z" transform="translate(2.5 4.446)"/><path class="d" d="M0,0,14.816-.053,14.8,3.224-.012,3.277Z" transform="translate(2.338 50.113)"/><path class="d" d="M0,0,17.331-.062,17.32,3.215-.012,3.277Z"/><path class="d" d="M0,0,40.26.142l.009,2.443L.009,2.443Z" transform="translate(6.821 8.886) rotate(90)"/><path class="d" d="M0,0,40.26.142l.009,2.443L.009,2.443Z" transform="translate(11.852 8.868) rotate(90)"/><path class="d" d="M0,0,40.26.142l.009,2.443L.009,2.443Z" transform="translate(16.883 8.85) rotate(90)"/></g><g transform="translate(0 0)"><path class="d" d="M0,0,15.185-.054l-.012,3.277L-.012,3.277Z" transform="translate(-0.016 4.455)"/><path class="d" d="M0,0,15.185-.054l-.012,3.277L-.012,3.277Z" transform="translate(-0.177 50.122)"/><path class="d" d="M0,0,17.609-.063,17.6,3.214-.012,3.277Z"/><path class="d" d="M0,0,40.26.142,40.268,2.5.008,2.354Z" transform="translate(13.059 8.864) rotate(90)"/><path class="d" d="M0,0,40.26.142,40.268,2.5.008,2.354Z" transform="translate(7.904 8.882) rotate(90)"/><path class="d" d="M0,0,40.26.142,40.268,2.5.008,2.354Z" transform="translate(2.724 8.901) rotate(90)"/></g></g><path class="d" d="M-.041,11.624,0,0,49.414-.176,98.106-.349l-.041,11.624S70.744,5.485,49.394,5.556-.041,11.624-.041,11.624Z" transform="translate(10.679 9.817)"/><path class="e" d="M-.1,27.023S12.222,25.53,14.733,14.281,14.5-1.484,12.654.347s-2.524,8-1.975,15.329,4.831,7.937,7.089,5.024,5.9-9.415,6.385-6.452-3.308,7.569-1.588,8.688S37.956,12.541,37.956,12.541" transform="translate(41.615 46.94)"/></g></g></g><g class="f" transform="translate(469 538)"><rect class="i" width="115" height="83" rx="8"/><rect class="j" x="0.75" y="0.75" width="113.5" height="81.5" rx="7.25"/></g><g transform="translate(-29 204)"><circle class="g" cx="8.5" cy="8.5" r="8.5" transform="translate(602 326)"/><g transform="translate(-1.133 -1.133)"><path class="h" d="M12825.384,327.334l5.221,5.222" transform="translate(-12216 5.469)"/><path class="h" d="M0,0,5.222,5.222" transform="translate(614.606 332.803) rotate(90)"/></g></g></g></svg>