<?xml version="1.0" encoding="utf-8"?>
<!-- Generator: Adobe Illustrator 24.2.0, SVG Export Plug-In . SVG Version: 6.00 Build 0)  -->
<svg version="1.1" id="Capa_1" xmlns="http://www.w3.org/2000/svg" xmlns:xlink="http://www.w3.org/1999/xlink" x="0px" y="0px"
	 viewBox="0 0 144 144" style="enable-background:new 0 0 144 144;" xml:space="preserve">
<style type="text/css">
	.st0{fill:#40384B;}
	.st1{fill:#FFFFFF;}
	.st2{fill:#F0F0F0;}
	.st3{fill:none;stroke:#40384B;stroke-linecap:round;}
</style>
<g id="Group_284" transform="translate(-743 -474)">
	<circle id="Ellipse_245_1_" class="st0" cx="815" cy="546.5" r="52.5"/>
	<g id="Group_275" transform="translate(67 13)">
		<g id="Group_274" transform="translate(5.837 -751.648)">
			<g id="Group_272" transform="translate(711.163 1285.648)">
				<path id="Path_481" class="st1" d="M41.3,33.6c-0.5,0-0.9-0.2-1.3-0.5l-8.7-8.7l-8.7,8.7c-0.7,0.7-1.9,0.7-2.6,0
					c-0.7-0.7-0.7-1.9,0-2.6l0,0l10-10c0.7-0.7,1.9-0.7,2.6,0l10,10c0.7,0.7,0.7,1.9,0,2.6C42.3,33.4,41.8,33.6,41.3,33.6L41.3,33.6
					z"/>
			</g>
			<g id="Group_273" transform="translate(721.162 1288.368)">
				<path id="Path_482" class="st1" d="M21.3,41.5c-1,0-1.8-0.8-1.8-1.8V21.8c0-1,0.8-1.8,1.8-1.8c1,0,1.8,0.8,1.8,1.8v17.9
					C23.1,40.7,22.3,41.5,21.3,41.5z"/>
			</g>
		</g>
	</g>
	<g id="Group_674" transform="translate(751.9 474.292)">
		<g id="Group_673" transform="translate(0)">
			<path id="Rectangle_1793" class="st2" d="M29.5,19h67c5.5,0,10,4.5,10,10v45.2c0,5.5-4.5,10-10,10h-67c-5.5,0-10-4.5-10-10V29
				C19.5,23.5,24,19,29.5,19z"/>
			<g id="Group_718" transform="translate(3 0)">
				<rect id="Rectangle_1855" x="43.9" y="43.7" class="st0" width="3.8" height="4.9"/>
				<rect id="Rectangle_1864" x="49.9" y="43.7" class="st0" width="3.8" height="4.9"/>
				<rect id="Rectangle_1865" x="55.8" y="43.7" class="st0" width="3.8" height="4.9"/>
				<rect id="Rectangle_1866" x="61.8" y="43.7" class="st0" width="3.8" height="4.9"/>
				<rect id="Rectangle_1867" x="67.8" y="43.7" class="st0" width="3.8" height="4.9"/>
				<rect id="Rectangle_1868" x="73.8" y="43.7" class="st0" width="3.8" height="4.9"/>
			</g>
			<g id="Group_717" transform="translate(7.911 18.509)">
				<g id="Group_715" transform="translate(59.64 0)">
					<rect id="Rectangle_1861" x="21.4" y="22.3" class="st0" width="10.9" height="2.4"/>
					<rect id="Rectangle_1863" x="21.4" y="55.8" class="st0" width="10.9" height="2.4"/>
					<rect id="Rectangle_1862" x="19.5" y="19" class="st0" width="12.8" height="2.4"/>
					<rect id="Rectangle_1800" x="22.8" y="25.5" class="st0" width="1.8" height="29.5"/>
					<rect id="Rectangle_1859" x="26.5" y="25.5" class="st0" width="1.8" height="29.5"/>
					<rect id="Rectangle_1860" x="30.2" y="25.5" class="st0" width="1.8" height="29.5"/>
				</g>
				<g id="Group_716" transform="translate(0 0)">
					<rect id="Rectangle_1861-2" x="19.5" y="22.3" class="st0" width="11.2" height="2.4"/>
					<rect id="Rectangle_1863-2" x="19.5" y="55.8" class="st0" width="11.2" height="2.4"/>
					<rect id="Rectangle_1862-2" x="19.5" y="19" class="st0" width="13" height="2.4"/>
					<rect id="Rectangle_1800-2" x="27.4" y="25.5" class="st0" width="1.7" height="29.5"/>
					<rect id="Rectangle_1859-2" x="23.6" y="25.5" class="st0" width="1.7" height="29.5"/>
					<rect id="Rectangle_1860-2" x="19.8" y="25.5" class="st0" width="1.7" height="29.5"/>
				</g>
			</g>
			<path id="Path_586" class="st0" d="M27.4,34.8v-8.5h72.4v8.5c0,0-20.2-4.3-36-4.3C48.1,30.4,27.4,34.8,27.4,34.8z"/>
			<path id="Path_587" class="st3" d="M50.3,73.4c0,0,9.1-1.1,10.9-9.3s-0.2-11.6-1.6-10.2s-1.8,5.9-1.4,11.2s3.6,5.8,5.2,3.7
				c1.7-2.1,4.3-6.9,4.7-4.7c0.4,2.2-2.4,5.5-1.2,6.4c1.3,0.8,11.3-7.6,11.3-7.6"/>
		</g>
	</g>
</g>
</svg>
