<svg xmlns="http://www.w3.org/2000/svg" xmlns:xlink="http://www.w3.org/1999/xlink" width="121" height="91" viewBox="0 0 121 91"><defs><style>.a,.h{fill:#fff;}.a{stroke:#707070;}.b{fill:#40384b;}.c{clip-path:url(#a);}.d{fill:#f0f0f0;}.e{clip-path:url(#b);}.f{fill:#fcfcfd;}.g{fill:#ddd;}.i{fill:#aaa7a7;}.j{fill:#888;}.k{fill:#f5f5f5;}.l,.n,.p{fill:none;}.l{stroke:#eff0f0;}.l,.n{stroke-width:1.5px;}.m{fill:#ef463f;}.n{stroke:#fff;stroke-linecap:round;}.o{stroke:none;}.q{filter:url(#c);}</style><clipPath id="a"><rect class="a" width="115" height="83" rx="8" transform="translate(498 334)"/></clipPath><clipPath id="b"><rect class="b" width="33.626" height="40.524" rx="5" transform="translate(0 0)"/></clipPath><filter id="c" x="-20" y="6.658" width="83.701" height="84.502" filterUnits="userSpaceOnUse"><feOffset dy="3" input="SourceAlpha"/><feGaussianBlur stdDeviation="3" result="d"/><feFlood flood-opacity="0.161"/><feComposite operator="in" in2="d"/><feComposite in="SourceGraphic"/></filter></defs><g transform="translate(-648 -530)"><g class="c" transform="translate(150 204)"><g transform="translate(517.9 343.292)"><g transform="translate(0)"><rect class="d" width="86.978" height="65.234" rx="10"/><rect class="b" width="23.721" height="4.942" transform="translate(47.443 16.803)"/><rect class="b" width="33.605" height="4.942" transform="translate(7.907 7.907)"/><rect class="b" width="18.779" height="4.942" transform="translate(55.35 25.698)"/><rect class="b" width="5.93" height="4.942" transform="translate(47.443 25.698)"/><rect class="b" width="10.872" height="4.942" transform="translate(47.443 34.594)"/><rect class="b" width="19.768" height="4.942" transform="translate(60.292 34.594)"/><rect class="b" width="19.768" height="4.942" transform="translate(47.443 43.489)"/><rect class="b" width="33.626" height="40.524" rx="5" transform="translate(7.907 15.814)"/><g class="e" transform="translate(7.907 15.814)"><g transform="translate(-18.727 3.145)"><path class="f" d="M39.983,43.422l-37.9.641A276.126,276.126,0,0,1,.019,5.24,89.287,89.287,0,0,1,10.8,1.86,9.4,9.4,0,0,0,19.288,7.5c4.851.152,8.947-3.141,9.553-7.5,6.337.023,10.914.536,10.914.536l-3.743,12.23A230.44,230.44,0,0,0,39.983,43.422Z" transform="translate(15.733 27.201)"/><path class="g" d="M12.337,6.723A47.043,47.043,0,0,1,11.1,0L6.518.4A44.222,44.222,0,0,1,5.281,7.53a.772.772,0,0,1-.619.549c-1.6.272-3.167.606-4.662.969a9.4,9.4,0,0,0,8.492,5.643c4.851.152,8.947-3.141,9.553-7.5-1.551-.006-3.209.019-4.93.086A.776.776,0,0,1,12.337,6.723Z" transform="translate(26.529 20.012)"/><path class="g" d="M16.761,4.511a1.326,1.326,0,0,0-.5-.054,30.018,30.018,0,0,0,0-4.457L.227.8C-1.955,18.646,12.2,21.206,15.612,8.391,17.279,8.9,18.9,5.168,16.761,4.511Z" transform="translate(27.581 8.215)"/><path class="h" d="M19.849,2.021a9.733,9.733,0,0,0-8.311-1.7c-2.48.756-4.263,3.257-6.967,3.425-1.223.077-2.6-.35-3.585.375A2.737,2.737,0,0,0,.032,6.063a6.147,6.147,0,0,0,3.446,5.952,8.1,8.1,0,0,0,7.067-.184c1.694-.84,3.263-2.22,5.153-2.205,1.508.013,3.312,1.4,4.4,3.133a1.389,1.389,0,0,1,.771-.058,7.42,7.42,0,0,0,1.662-4.026A7.636,7.636,0,0,0,19.849,2.021Z" transform="translate(23.362 0)"/><path class="f" d="M24.762,6.833A6.618,6.618,0,0,0,13.9,1.542c-.052.038-.1.081-.144.123-.076.067-.152.135-.226.206A66.155,66.155,0,0,0,0,18.587a97.6,97.6,0,0,1,11.808,6.584Q17.35,17.8,23.264,10.824A6.628,6.628,0,0,0,24.762,6.833Z" transform="translate(0 31.999)"/><path class="f" d="M13.014,4.868a6.553,6.553,0,0,0-.514-1.3A6.624,6.624,0,0,0,.46,9.051,160.369,160.369,0,0,0,5.321,25.585a78.7,78.7,0,0,1,12.806-3.726A112.392,112.392,0,0,0,13.014,4.868Z" transform="translate(48.654 27.735)"/></g></g></g></g><g transform="translate(487 338.658)"><g transform="translate(0)"><g class="q" transform="matrix(1, 0, 0, 1, 11, -12.66)"><path class="i" d="M7622.5,1645.614s-13.786-7.482-18.9-3.974-19.667,19.742-25.539,27.272-9.065,24.428,2.568,32.647,20.808,5.044,20.808,5.044l31.679-12.125s7.259-3.092,4.887-10.808-6.037-6.765-7.344-7.01-25.687,6.064-25.687,6.064l-.626-26.36s-.366-5.8,3.162-8.425a12.753,12.753,0,0,1,7.748-2.326Z" transform="translate(-7583.78 -1628.05)"/></g><path class="j" d="M7607.392,1665.32s-5.759,8.407-5.629,14.306,6.245,4.723,6.245,4.723Z" transform="translate(-7575.824 -1642.278)"/></g><path class="k" d="M4.184.146,6.939,0a3.6,3.6,0,0,1,3.535,3.737l.584,3.73a3.686,3.686,0,0,1-3.686,3.686H3.686A3.686,3.686,0,0,1,0,7.468L.5,3.832A3.686,3.686,0,0,1,4.184.146Z" transform="matrix(0.358, 0.934, -0.934, 0.358, 60.606, 37.326)"/></g></g><g class="l" transform="translate(648 538)"><rect class="o" width="115" height="83" rx="8"/><rect class="p" x="0.75" y="0.75" width="113.5" height="81.5" rx="7.25"/></g><g transform="translate(150 204)"><circle class="m" cx="8.5" cy="8.5" r="8.5" transform="translate(602 326)"/><g transform="translate(-1.133 -1.133)"><path class="n" d="M12825.384,327.334l5.221,5.222" transform="translate(-12216 5.469)"/><path class="n" d="M0,0,5.222,5.222" transform="translate(614.606 332.803) rotate(90)"/></g></g></g></svg>