<svg xmlns="http://www.w3.org/2000/svg" width="34.904" height="46.539" viewBox="0 0 34.904 46.539">
  <g id="passport_1_" data-name="passport (1)" transform="translate(-64.001 0)">
    <g id="Group_873" data-name="Group 873" transform="translate(64.001 0)">
      <g id="Group_872" data-name="Group 872" transform="translate(0 0)">
        <path id="Path_645" data-name="Path 645" d="M156.573,384.568l-19.394,0a.97.97,0,1,0,0,1.939l19.394,0a.97.97,0,0,0,0-1.939Z" transform="translate(-129.646 -349.609)" fill="#009cdc"/>
        <path id="Path_646" data-name="Path 646" d="M191.48,427.263H179.846a.97.97,0,1,0,0,1.939H191.48a.97.97,0,1,0,0-1.939Z" transform="translate(-168.434 -388.426)" fill="#009cdc"/>
        <path id="Path_647" data-name="Path 647" d="M149.333,128A10.665,10.665,0,1,0,160,138.667,10.677,10.677,0,0,0,149.333,128Zm-8.628,11.635h3.8a18.026,18.026,0,0,0,1.6,7.121A8.707,8.707,0,0,1,140.705,139.637Zm3.8-1.939h-3.8a8.707,8.707,0,0,1,5.4-7.121A18.026,18.026,0,0,0,144.505,137.7Zm4.828,9.7c-1.111,0-2.673-3-2.87-7.756h5.74C152.006,144.389,150.444,147.393,149.333,147.393Zm-2.87-9.7c.2-4.753,1.759-7.756,2.87-7.756s2.673,3,2.87,7.756Zm6.1,9.06a18.027,18.027,0,0,0,1.6-7.121h3.8A8.707,8.707,0,0,1,152.561,146.758Zm1.6-9.06a18.026,18.026,0,0,0-1.6-7.121,8.707,8.707,0,0,1,5.4,7.121Z" transform="translate(-131.881 -116.367)" fill="#009cdc"/>
        <path id="Path_648" data-name="Path 648" d="M95.027,5.817H93.088v-2A3.861,3.861,0,0,0,89.21,0a3.525,3.525,0,0,0-.866.122L67.672,5.838A3.872,3.872,0,0,0,64,9.7V42.661a3.882,3.882,0,0,0,3.878,3.878H95.027a3.882,3.882,0,0,0,3.878-3.878V9.7A3.882,3.882,0,0,0,95.027,5.817ZM88.841,2a1.894,1.894,0,0,1,2.307,1.818v2H75.023Zm8.125,40.665A1.942,1.942,0,0,1,95.027,44.6H67.879a1.942,1.942,0,0,1-1.939-1.939V9.7a1.942,1.942,0,0,1,1.939-1.939H95.027A1.942,1.942,0,0,1,96.966,9.7Z" transform="translate(-64.001 0)" fill="#009cdc"/>
      </g>
    </g>
  </g>
</svg>
