<svg xmlns="http://www.w3.org/2000/svg" xmlns:xlink="http://www.w3.org/1999/xlink" width="181" height="181" viewBox="0 0 181 181"><defs><style>.a{fill:#ececec;}.b{fill:#40384b;}.c{clip-path:url(#a);}.d{fill:#d6d6d6;}.e{clip-path:url(#b);}.f{fill:#fcfcfd;}.g{fill:#ddd;}.h{fill:#fff;}</style><clipPath id="a"><circle class="a" cx="90.5" cy="90.5" r="90.5" transform="translate(384 262)"/></clipPath><clipPath id="b"><path class="b" d="M3.9-.021,70.133-.083a3.915,3.915,0,0,1,3.914,3.927l-.075,81.692A3.933,3.933,0,0,1,70.05,89.47l-66.237.061A3.915,3.915,0,0,1-.1,85.6L-.025,3.913A3.933,3.933,0,0,1,3.9-.021Z" transform="translate(0.1 0.083)"/></clipPath></defs><g class="c" transform="translate(-384 -262)"><g transform="matrix(0.966, -0.259, 0.259, 0.966, 352.451, 330.929)"><g transform="translate(-0.16 -0.216)"><path class="d" d="M7.8-.053,183.727-.216a7.831,7.831,0,0,1,7.828,7.853l-.118,128.437a7.866,7.866,0,0,1-7.843,7.868L7.668,144.1A7.831,7.831,0,0,1-.16,136.251L-.041,7.814A7.866,7.866,0,0,1,7.8-.053Z" transform="translate(0.16 0.216)"/><path class="b" d="M0-.013,52.251-.061l-.01,10.921-52.254.048Z" transform="translate(104.601 37.218)"/><path class="b" d="M0-.019,74.023-.087l-.01,10.921L-.013,10.9Z" transform="translate(17.53 17.646)"/><path class="b" d="M0-.01,41.365-.049l-.01,10.921-41.367.038Z" transform="translate(122.001 56.857)"/><path class="b" d="M0,0,13.061-.015l-.01,10.921-13.063.012Z" transform="translate(104.583 56.866)"/><path class="b" d="M0-.006l23.95-.022-.01,10.921-23.95.022Z" transform="translate(104.565 76.527)"/><path class="b" d="M0-.011l43.545-.04-.01,10.921-43.545.04Z" transform="translate(132.869 76.506)"/><path class="b" d="M0-.011l43.545-.04-.01,10.921-43.545.04Z" transform="translate(104.547 96.19)"/><path class="b" d="M3.9-.021,70.133-.083a3.915,3.915,0,0,1,3.914,3.927l-.075,81.692A3.933,3.933,0,0,1,70.05,89.47l-66.237.061A3.915,3.915,0,0,1-.1,85.6L-.025,3.913A3.933,3.933,0,0,1,3.9-.021Z" transform="translate(17.533 35.119)"/><g class="e" transform="translate(17.432 35.036)"><g transform="translate(-41.284 6.977)"><g transform="translate(0 0)"><path class="f" d="M87.981,95.859,4.5,97.352C1.39,74.087-.343,44.79.025,11.563A196.56,196.56,0,0,1,23.773,4.071,20.649,20.649,0,0,0,42.468,16.524c10.686.326,19.716-6.959,21.058-16.6,13.96.038,24.04,1.162,24.04,1.162L79.3,28.121C81.082,53.02,83.776,76.006,87.981,95.859Z" transform="translate(34.71 60.17)"/><path class="g" d="M27.158,14.826a104.152,104.152,0,0,1-2.7-14.855l-10.1.9a98.1,98.1,0,0,1-2.74,15.749,1.707,1.707,0,0,1-1.364,1.215c-3.514.6-6.978,1.346-10.272,2.151A20.649,20.649,0,0,0,18.672,32.443c10.686.326,19.716-6.959,21.058-16.6-3.417-.01-7.068.047-10.86.2A1.7,1.7,0,0,1,27.158,14.826Z" transform="translate(58.506 44.251)"/><path class="g" d="M36.909,9.926a2.914,2.914,0,0,0-1.1-.118,66.544,66.544,0,0,0,0-9.849L.5,1.758C-4.347,41.2,26.824,46.829,34.372,18.5,38.043,19.631,41.615,11.373,36.909,9.926Z" transform="translate(60.845 18.184)"/><path class="h" d="M43.716,4.417C39.1.6,31.227-1.114,25.413.675c-5.465,1.675-9.4,7.206-15.354,7.583-2.7.173-5.723-.767-7.9.837a6.068,6.068,0,0,0-2.106,4.3C-.56,18.751,2.816,24.143,7.634,26.536A17.791,17.791,0,0,0,23.2,26.115c3.733-1.86,7.192-4.913,11.356-4.884,3.321.026,7.292,3.077,9.69,6.914a3.052,3.052,0,0,1,1.7-.129,16.457,16.457,0,0,0,3.669-8.9A16.871,16.871,0,0,0,43.716,4.417Z" transform="translate(51.568 0.036)"/><path class="f" d="M54.523,15.039A14.554,14.554,0,0,0,30.611,3.369c-.114.084-.214.179-.317.272-.168.149-.336.3-.5.455A146.5,146.5,0,0,0-.048,41.065a214.308,214.308,0,0,1,26,14.525Q38.172,39.283,51.214,23.861A14.7,14.7,0,0,0,54.523,15.039Z" transform="translate(0.048 70.799)"/><path class="f" d="M28.654,10.726A14.649,14.649,0,0,0,15.048-.01,14.666,14.666,0,0,0,.992,20,354.731,354.731,0,0,0,11.666,56.526a173.194,173.194,0,0,1,28.218-8.26A248.581,248.581,0,0,0,28.654,10.726Z" transform="translate(107.225 61.271)"/></g></g></g></g></g></g></svg>