<svg xmlns="http://www.w3.org/2000/svg" width="71.943" height="59.393" viewBox="0 0 71.943 59.393">
  <g id="Group_2784" data-name="Group 2784" transform="translate(-299.56 -623.297)">
    <g id="Group_2767" data-name="Group 2767" transform="translate(299.56 623.297)">
      <g id="Group_2766" data-name="Group 2766" transform="translate(0)">
        <path id="Path_2309" data-name="Path 2309" d="M48.032,17.255a1.16,1.16,0,0,0,1.16-1.16V3.48A3.484,3.484,0,0,0,45.712,0H3.487A3.484,3.484,0,0,0,.007,3.48V55.913a3.484,3.484,0,0,0,3.48,3.48H45.712a3.484,3.484,0,0,0,3.48-3.48V47.367a1.16,1.16,0,0,0-2.32,0v8.546a1.161,1.161,0,0,1-1.16,1.16H3.487a1.161,1.161,0,0,1-1.16-1.16V3.48a1.161,1.161,0,0,1,1.16-1.16H45.712a1.161,1.161,0,0,1,1.16,1.16V16.1A1.16,1.16,0,0,0,48.032,17.255Z" transform="translate(-0.007)" fill="#4d445a"/>
      </g>
    </g>
    <g id="Group_2769" data-name="Group 2769" transform="translate(313.479 629.562)">
      <g id="Group_2768" data-name="Group 2768">
        <path id="Path_2310" data-name="Path 2310" d="M130.679,54a10.667,10.667,0,0,0-7.322,18.429,1.145,1.145,0,0,0,.125.116,10.652,10.652,0,0,0,14.394,0,1.161,1.161,0,0,0,.125-.116A10.667,10.667,0,0,0,130.679,54Zm0,19.024a8.308,8.308,0,0,1-5.045-1.7,5.8,5.8,0,0,1,10.09,0A8.308,8.308,0,0,1,130.679,73.024Zm-1.856-8.816v-.754a1.856,1.856,0,1,1,3.712,0v.754a1.856,1.856,0,1,1-3.712,0Zm8.577,5.415a8.048,8.048,0,0,0-3.418-2.865,4.154,4.154,0,0,0,.873-2.55v-.754a4.176,4.176,0,0,0-8.352,0v.754a4.154,4.154,0,0,0,.873,2.55,8.048,8.048,0,0,0-3.418,2.865,8.352,8.352,0,1,1,13.442,0Z" transform="translate(-120.007 -54)" fill="#4d445a"/>
      </g>
    </g>
    <g id="Group_2773" data-name="Group 2773" transform="translate(312.784 667.61)">
      <g id="Group_2772" data-name="Group 2772">
        <path id="Path_2312" data-name="Path 2312" d="M131.639,382H115.167a1.16,1.16,0,1,0,0,2.32h16.472a1.16,1.16,0,0,0,0-2.32Z" transform="translate(-114.007 -382)" fill="#4d445a"/>
      </g>
    </g>
    <g id="Group_2775" data-name="Group 2775" transform="translate(312.784 661.114)">
      <g id="Group_2774" data-name="Group 2774">
        <path id="Path_2313" data-name="Path 2313" d="M131.639,326H115.167a1.16,1.16,0,1,0,0,2.32h16.472a1.16,1.16,0,0,0,0-2.32Z" transform="translate(-114.007 -326)" fill="#4d445a"/>
      </g>
    </g>
    <g id="Group_2777" data-name="Group 2777" transform="translate(307.828 654.618)">
      <g id="Group_2776" data-name="Group 2776">
        <path id="Path_2314" data-name="Path 2314" d="M73.268,270.34a1.159,1.159,0,1,0,.34.82A1.169,1.169,0,0,0,73.268,270.34Z" transform="translate(-71.287 -270)" fill="#4d445a"/>
      </g>
    </g>
    <g id="Group_2779" data-name="Group 2779" transform="translate(307.828 661.114)">
      <g id="Group_2778" data-name="Group 2778">
        <path id="Path_2315" data-name="Path 2315" d="M73.268,326.34a1.159,1.159,0,1,0,.34.82A1.171,1.171,0,0,0,73.268,326.34Z" transform="translate(-71.287 -326)" fill="#4d445a"/>
      </g>
    </g>
    <g id="Group_2781" data-name="Group 2781" transform="translate(307.828 667.61)">
      <g id="Group_2780" data-name="Group 2780">
        <path id="Path_2316" data-name="Path 2316" d="M73.268,382.34a1.159,1.159,0,1,0,.34.82A1.171,1.171,0,0,0,73.268,382.34Z" transform="translate(-71.287 -382)" fill="#4d445a"/>
      </g>
    </g>
    <g id="Group_2783" data-name="Group 2783" transform="translate(312.784 654.618)">
      <g id="Group_2782" data-name="Group 2782">
        <path id="Path_2317" data-name="Path 2317" d="M131.639,270H115.167a1.16,1.16,0,1,0,0,2.32h16.472a1.16,1.16,0,0,0,0-2.32Z" transform="translate(-114.007 -270)" fill="#4d445a"/>
      </g>
    </g>
    <g id="correct" transform="translate(337.459 637.76)">
      <path id="Path_2319" data-name="Path 2319" d="M17.022,0A17.022,17.022,0,1,0,34.044,17.022,17.038,17.038,0,0,0,17.022,0Z" fill="#8bc53f" fill-rule="evenodd"/>
      <path id="Path_2320" data-name="Path 2320" d="M144.323,165.289a1.068,1.068,0,0,1,0,1.5l-9.974,9.974a1.06,1.06,0,0,1-1.5,0l-4.987-4.987a1.063,1.063,0,0,1,1.5-1.5l4.236,4.236,9.222-9.222A1.056,1.056,0,0,1,144.323,165.289Z" transform="translate(-119.069 -154.005)" fill="#fff" fill-rule="evenodd"/>
    </g>
  </g>
</svg>
