<?xml version="1.0" encoding="utf-8"?>
<!-- Generator: Adobe Illustrator 22.0.1, SVG Export Plug-In . SVG Version: 6.00 Build 0)  -->
<svg version="1.1" id="Capa_1" xmlns="http://www.w3.org/2000/svg" xmlns:xlink="http://www.w3.org/1999/xlink" x="0px" y="0px"
	 viewBox="0 0 153.1 114.5" style="enable-background:new 0 0 153.1 114.5;" xml:space="preserve">
<style type="text/css">
	.st0{fill:#969499;}
	.st1{fill:#E5E6E7;stroke:#E1E2E3;stroke-miterlimit:10;}
	.st2{fill:#BABCBE;}
</style>
<g>
	<g>
		<path class="st0" d="M118.1,189.2H87.9c-4.7,0-8.6-3.8-8.6-8.6c0-4.7,3.8-8.6,8.6-8.6H89c0-0.5-0.1-0.9-0.1-1.4
			c0-7.3,5.9-13.3,13.3-13.3c6.4,0,11.9,4.6,13,10.8c0.7-0.1,1.4-0.2,2.1-0.2c5.9,0,10.6,4.8,10.6,10.6c0,3-1.3,5.8-3.5,7.9
			C122.8,188.2,120.5,189.2,118.1,189.2L118.1,189.2z M87.9,174.1c-3.6,0-6.5,2.9-6.5,6.5c0,3.6,2.9,6.5,6.5,6.5h30.2
			c1.8,0,3.6-0.8,4.8-2.2c1.9-1.7,2.9-4,2.9-6.4c0-4.7-3.8-8.6-8.6-8.6c-0.9,0-1.8,0.1-2.6,0.4c-0.3,0.1-0.6,0.1-0.9-0.1
			c-0.3-0.2-0.4-0.4-0.5-0.8c-0.6-5.8-5.4-10.1-11.2-10.1c-6.2,0-11.2,5-11.2,11.2c0,0.7,0.1,1.5,0.2,2.2c0.1,0.3,0,0.6-0.2,0.8
			c-0.2,0.2-0.5,0.4-0.8,0.4H87.9L87.9,174.1z"/>
	</g>
</g>
<g>
	<rect x="0.5" y="0.5" class="st1" width="152.1" height="113.5"/>
	<g>
		<path class="st2" d="M46,56.8v4.4h-2.1V49.4h4.5c1.3,0,2.4,0.3,3.2,1s1.2,1.6,1.2,2.7c0,1.2-0.4,2.1-1.1,2.7c-0.8,0.6-1.8,1-3.2,1
			H46z M46,55.2h2.5c0.7,0,1.3-0.2,1.7-0.5s0.6-0.8,0.6-1.5c0-0.6-0.2-1.2-0.6-1.5c-0.4-0.4-0.9-0.6-1.6-0.6H46V55.2z"/>
		<path class="st2" d="M56.8,61.3h-2.1V49.4h2.1V61.3z"/>
		<path class="st2" d="M68.4,57.4c-0.1,1.3-0.6,2.3-1.4,3c-0.8,0.7-1.9,1.1-3.3,1.1c-0.9,0-1.8-0.2-2.5-0.7s-1.3-1.1-1.7-1.9
			C59.2,58,59,57,59,55.9v-1.1c0-1.1,0.2-2.1,0.6-3c0.4-0.9,1-1.5,1.7-2s1.6-0.7,2.6-0.7c1.3,0,2.4,0.4,3.2,1.1
			c0.8,0.7,1.3,1.7,1.4,3h-2.1c-0.1-0.9-0.3-1.5-0.7-1.8c-0.4-0.4-1-0.6-1.8-0.6c-0.9,0-1.6,0.3-2.1,1c-0.5,0.7-0.7,1.6-0.7,2.9v1.1
			c0,1.3,0.2,2.3,0.7,2.9c0.5,0.7,1.1,1,2,1c0.8,0,1.4-0.2,1.8-0.5c0.4-0.4,0.7-1,0.8-1.8H68.4z"/>
		<path class="st2" d="M78.6,51h-3.7v10.2h-2.1V51h-3.7v-1.7h9.4V51z"/>
		<path class="st2" d="M88.9,49.4v7.9c0,1.3-0.4,2.3-1.2,3s-1.9,1.1-3.2,1.1c-1.4,0-2.4-0.4-3.2-1.1c-0.8-0.7-1.2-1.7-1.2-3v-7.9
			h2.1v8c0,0.8,0.2,1.4,0.6,1.8c0.4,0.4,1,0.6,1.8,0.6c1.6,0,2.4-0.8,2.4-2.5v-7.9H88.9z"/>
		<path class="st2" d="M95.5,56.7h-2.3v4.6h-2.1V49.4h4.2c1.4,0,2.4,0.3,3.2,0.9c0.7,0.6,1.1,1.5,1.1,2.7c0,0.8-0.2,1.5-0.6,2
			c-0.4,0.5-0.9,0.9-1.6,1.2l2.7,5v0.1h-2.2L95.5,56.7z M93.2,55h2.1c0.7,0,1.2-0.2,1.6-0.5c0.4-0.4,0.6-0.8,0.6-1.4
			c0-0.6-0.2-1.1-0.5-1.5S96.1,51,95.3,51h-2.2V55z"/>
		<path class="st2" d="M108.5,55.9h-4.9v3.7h5.7v1.7h-7.8V49.4h7.7V51h-5.7v3.3h4.9V55.9z"/>
	</g>
</g>
</svg>
