<?xml version="1.0" encoding="utf-8"?>
<!-- Generator: Adobe Illustrator 22.0.1, SVG Export Plug-In . SVG Version: 6.00 Build 0)  -->
<svg version="1.1" id="Capa_1" xmlns="http://www.w3.org/2000/svg" xmlns:xlink="http://www.w3.org/1999/xlink" x="0px" y="0px"
	 viewBox="0 0 86 88" style="enable-background:new 0 0 86 88;" xml:space="preserve">
<style type="text/css">
	.st0{fill:#FFFFFF;}
</style>
<g>
	<path class="st0" d="M52.8,78.8l0-0.1c-0.2-0.6-0.7-1-1.2-1.1c-0.6-0.1-1.2,0.1-1.5,0.6c-4,5.1-8.2,7.4-11.4,6.5
		c-2.7-0.8-4.2-3.7-5-6c-0.2-0.6-0.7-1-1.2-1.1c-0.6-0.1-1.2,0.1-1.5,0.6c-4,5.1-8.2,7.4-11.4,6.5c-2.9-0.9-5-4.4-5.9-9.8
		c-0.3-2.1-0.4-4.4-0.4-6.8c8.9-2.3,15.8-6.2,20.9-11.8c3.8-4.2,9.7-15.3,7.7-22.4c-0.8-2.9-2.8-4.8-5.7-5.7
		c-4.2-1.2-9,0.9-13.5,5.9c-4.2,4.8-7.9,11.6-10.2,19.4c-1.2,4.1-2,8.1-2.3,12C7,66.3,3.6,66.8,0,67.1l0.3,3.2
		c3.5-0.3,6.7-0.8,9.7-1.4c0,2.3,0.1,4.5,0.4,6.5c1,6.7,3.9,11.1,8.1,12.3c4,1.2,8.7-0.8,13.1-5.5c1.5,2.9,3.5,4.8,6,5.5
		c0.8,0.2,1.6,0.3,2.4,0.3c3.5,0,7.3-2.1,10.8-5.9c2.1,3.5,5.9,5.7,10.1,5.7H64v-3.2h-3.1C57.2,84.6,54,82.3,52.8,78.8z M15.5,54.5
		c2.2-7.3,5.5-13.8,9.5-18.2c3-3.4,6.1-5.2,8.8-5.2c0.5,0,1,0.1,1.5,0.2c1.9,0.6,3.1,1.7,3.6,3.5c1.5,5.4-3.2,15.3-7,19.4
		c-4.5,4.9-10.5,8.4-18.3,10.6C13.8,61.4,14.5,58,15.5,54.5z"/>
	<path class="st0" d="M84.3,9.3L85,3.7c0.1-0.5,0-1.4-1-2.2c-1.8-1.3-6.3-1.9-8.4-1C74.3,0.9,74,1.8,74,2.3L73.3,8
		c-1.1,0.3-2.1,1.2-2.3,2.4c-3.2-0.2-6,2.2-6.4,5.3l-2.2,17.6c-0.1,1,0.2,2,0.8,2.8c0.6,0.8,1.5,1.3,2.5,1.4l0.4-3.1
		c-0.2,0-0.3-0.2-0.4-0.2c-0.1-0.1-0.1-0.2-0.1-0.4l2.2-17.6c0.2-1.4,1.4-2.5,2.8-2.6L64.3,64c-0.7,5.8,0,11.8,2.1,17.3l0.6,1.5
		l1.4,0.2l0.6,4.7l1.7-4.4l1.4,0.2l1-1.4c3.4-4.8,5.5-10.4,6.3-16.3L86,12.6C86.1,11.2,85.4,9.9,84.3,9.3z M81.8,3.8l-0.6,4.9
		l-4.7-0.6l0.6-4.9C78.1,3,80.8,3.3,81.8,3.8z M70.7,80.2L69.3,80c-1.5-4-2.2-8.3-2.1-12.6l8.5,1C74.8,72.6,73.1,76.6,70.7,80.2z
		 M76.3,65.3l-8.8-1.1L74,11.1c0-0.1,0.1-0.1,0.1-0.1l8.6,1.1c0.1,0,0.1,0.1,0.1,0.1L76.3,65.3z"/>
</g>
</svg>
