<svg xmlns="http://www.w3.org/2000/svg" width="52" height="52" viewBox="0 0 52 52"><defs><style>.a{fill:#009cdc;}.b{fill:#fff;}</style></defs><g transform="translate(-771 -568)"><circle class="a" cx="26" cy="26" r="26" transform="translate(771 568)"/><g transform="translate(785 584)"><path class="b" d="M170.184,578.189h-2.375a.5.5,0,0,1,0-1h2.375a3.216,3.216,0,0,0,2.377-1.061,4.208,4.208,0,0,0-2.79-7.361,4.163,4.163,0,0,0-1.287.2.5.5,0,0,1-.651-.427,5.507,5.507,0,1,0-10.878,1.626.5.5,0,0,1-.49.6h-1.119a3.21,3.21,0,0,0,0,6.42h2.963a.5.5,0,0,1,0,1h-2.963a4.21,4.21,0,0,1,0-8.42h.536a6.507,6.507,0,0,1,12.863-1.9,5.206,5.206,0,0,1,4.523,8.964,4.181,4.181,0,0,1-3.084,1.355Z" transform="translate(-151.137 -562.585)"/><g transform="translate(5.638 6.619)"><g transform="translate(0 0.001)"><path class="b" d="M168.843,574.413a.5.5,0,0,1-.294-.1l-5.489-3.995-5.491,3.995a.5.5,0,0,1-.588-.808l5.786-4.209a.5.5,0,0,1,.588,0l5.783,4.209a.5.5,0,0,1-.295.9Z" transform="translate(-156.775 -569.205)"/></g><g transform="translate(5.785)"><path class="b" d="M163.06,583.015a.5.5,0,0,1-.5-.5V569.7a.5.5,0,0,1,1,0v12.811a.5.5,0,0,1-.5.5Z" transform="translate(-162.56 -569.204)"/></g></g></g></g></svg>