<svg xmlns="http://www.w3.org/2000/svg" width="56.824" height="50.061" viewBox="0 0 56.824 50.061"><defs><style>.a{fill:#ef463f;}.b{fill:#fff;}</style></defs><g transform="translate(-260 -701)"><path class="a" d="M-66.861,2213.217l-25.2-43.653a3.172,3.172,0,0,0-2.774-1.6,3.172,3.172,0,0,0-2.775,1.6l-25.2,43.653a3.169,3.169,0,0,0,0,3.2,3.172,3.172,0,0,0,2.775,1.6h50.4a3.172,3.172,0,0,0,2.775-1.6A3.169,3.169,0,0,0-66.861,2213.217Z" transform="translate(383.251 -1466.963)"/><path class="b" d="M-82.342,2206q.025.679.074,1.431t.1,1.654l.017.316h1.691l.017-.316q.047-.91.1-1.654t.073-1.431c.017-.451.029-.894.042-1.329s.016-.9.016-1.39v-9.627H-82.4v9.627q0,.735.015,1.391T-82.342,2206Z" transform="translate(369.769 -1475.442)"/><path class="b" d="M-81.757,2227.522a1.862,1.862,0,0,0,.713-.14,1.794,1.794,0,0,0,.588-.389,1.985,1.985,0,0,0,.394-.571,1.76,1.76,0,0,0,.151-.731,1.8,1.8,0,0,0-.15-.722,1.938,1.938,0,0,0-.4-.579,1.905,1.905,0,0,0-.58-.394,1.826,1.826,0,0,0-1.453,0,1.927,1.927,0,0,0-.57.393,1.824,1.824,0,0,0-.389.589,1.864,1.864,0,0,0-.138.711,1.781,1.781,0,0,0,.528,1.3A1.779,1.779,0,0,0-81.757,2227.522Z" transform="translate(370.161 -1485.405)"/></g></svg>