<svg xmlns="http://www.w3.org/2000/svg" viewBox="0 0 82 83.1"><style type="text/css"> .st0{fill:#FFFFFF;} </style><path class="st0" d="M37.6 60c-0.4 0-0.7-0.1-1-0.4L28.5 53c-0.7-0.6-0.8-1.6-0.2-2.3 0.6-0.7 1.6-0.8 2.3-0.2l6.9 5.6L51.3 39c0.6-0.7 1.6-0.8 2.3-0.2 0.7 0.6 0.8 1.6 0.2 2.3L38.9 59.4c-0.3 0.3-0.7 0.5-1.1 0.6C37.7 60 37.7 60 37.6 60L37.6 60z"/><path class="st0" d="M76.4 79.5H5.6c-0.9 0-1.6-0.7-1.6-1.6V7.1c0-0.9 0.7-1.6 1.6-1.6h70.8c0.9 0 1.6 0.7 1.6 1.6v70.8C78 78.7 77.3 79.5 76.4 79.5L76.4 79.5zM7.2 76.2h67.5V8.7H7.2V76.2L7.2 76.2z"/><path class="st0" d="M75.2 27.6H6.8c-0.9 0-1.6-0.7-1.6-1.6 0-0.9 0.7-1.6 1.6-1.6h68.4c0.9 0 1.6 0.7 1.6 1.6C76.8 26.9 76.1 27.6 75.2 27.6L75.2 27.6z"/><path class="st0" d="M15.1 13c-2 0-3.6 1.6-3.6 3.6 0 2 1.6 3.6 3.6 3.6s3.6-1.6 3.6-3.6C18.7 14.6 17.1 13 15.1 13L15.1 13z"/><path class="st0" d="M25.5 13c-2 0-3.6 1.6-3.6 3.6 0 2 1.6 3.6 3.6 3.6 2 0 3.6-1.6 3.6-3.6C29.1 14.6 27.5 13 25.5 13L25.5 13z"/><path class="st0" d="M35.8 13c-2 0-3.6 1.6-3.6 3.6 0 2 1.6 3.6 3.6 3.6 2 0 3.6-1.6 3.6-3.6C39.4 14.6 37.8 13 35.8 13L35.8 13z"/></svg>