<svg xmlns="http://www.w3.org/2000/svg" width="20" height="20.528" viewBox="0 0 20 20.528"><defs><style>.a{fill:#adadad;}</style></defs><g transform="translate(-519.344 -2296.595)"><g transform="translate(524.01 2296.595)"><g transform="translate(0 0.001)"><path class="a" d="M534.692,2301.054a.449.449,0,0,1-.267-.087l-4.612-3.355-4.615,3.355a.454.454,0,1,1-.534-.735l4.882-3.55a.456.456,0,0,1,.535,0l4.879,3.55a.454.454,0,0,1-.267.822Z" transform="translate(-524.477 -2296.596)"/></g><g transform="translate(4.882)"><path class="a" d="M530.3,2307.279a.454.454,0,0,1-.455-.455v-9.774a.455.455,0,1,1,.909,0v9.774a.455.455,0,0,1-.455.455Z" transform="translate(-529.847 -2296.595)"/></g></g><g transform="translate(519.344 2309.779)"><path class="a" d="M538.889,2318.441H519.8a.454.454,0,0,1-.455-.454v-6.436a.454.454,0,0,1,.455-.455h5.909a.454.454,0,0,1,.455.455v1.285a.455.455,0,0,0,.455.455h5.455a.456.456,0,0,0,.455-.455v-1.285a.454.454,0,0,1,.455-.455h5.909a.454.454,0,0,1,.455.455v6.436a.455.455,0,0,1-.455.454Zm-18.636-.909h18.182v-5.527h-5v.831a1.365,1.365,0,0,1-1.364,1.364h-5.455a1.365,1.365,0,0,1-1.364-1.364v-.831h-5v5.527Z" transform="translate(-519.344 -2311.097)"/></g><g transform="translate(519.344 2305.988)"><g transform="translate(0)"><path class="a" d="M519.8,2311.627a.455.455,0,0,1-.327-.771l3.676-3.791a.455.455,0,0,1,.654.633l-3.676,3.79a.453.453,0,0,1-.326.139Z" transform="translate(-519.344 -2306.927)"/></g><g transform="translate(15.418)"><path class="a" d="M540.431,2311.627a.454.454,0,0,1-.327-.139l-3.673-3.79a.455.455,0,0,1,.654-.633l3.673,3.791a.455.455,0,0,1-.011.643.45.45,0,0,1-.315.128Z" transform="translate(-536.304 -2306.927)"/></g></g></g></svg>