<svg xmlns="http://www.w3.org/2000/svg" viewBox="0 0 51.6 70.2"><style type="text/css"> .st0{fill:#FFFFFF;} </style><path class="st0" d="M26.1 30.9c-7.5 0-13.6-6.9-13.6-15.5C12.4 6.9 18.6 0 26.1 0c7.5 0 13.6 6.9 13.6 15.5C39.7 24 33.6 30.9 26.1 30.9L26.1 30.9zM26.1 3.2c-5.8 0-10.5 5.5-10.5 12.3 0 6.8 4.7 12.3 10.5 12.3 5.8 0 10.5-5.5 10.5-12.3C36.5 8.7 31.8 3.2 26.1 3.2L26.1 3.2z"/><path class="st0" d="M49 70.2H2.6c-0.8 0-1.5-0.6-1.6-1.5l-1-15c-0.3-4.9 3.5-10.5 8.3-12.3 11.3-4 23.7-4 35 0 5.4 2 8.6 7.9 8.3 12.3l-1 15C50.5 69.5 49.8 70.2 49 70.2L49 70.2zM4.1 67h43.4l0.9-13.5c0.2-3.1-2.4-7.7-6.2-9.1 -10.5-3.8-22.2-3.8-32.8 0 -3.8 1.4-6.4 6-6.2 9.1L4.1 67 4.1 67z"/></svg>