<?xml version="1.0" encoding="utf-8"?>
<!-- Generator: Adobe Illustrator 22.0.1, SVG Export Plug-In . SVG Version: 6.00 Build 0)  -->
<svg version="1.1" id="Capa_1" xmlns="http://www.w3.org/2000/svg" xmlns:xlink="http://www.w3.org/1999/xlink" x="0px" y="0px"
	 viewBox="0 0 227.2 227.2" style="enable-background:new 0 0 227.2 227.2;" xml:space="preserve">
<style type="text/css">
	.st0{fill:#FFFFFF;stroke:#CFD0D2;stroke-width:3;stroke-miterlimit:10;}
	.st1{fill:#CFD0D2;}
	.st2{fill:#78757D;}
</style>
<g>
	<circle class="st0" cx="113" cy="113.3" r="112.1"/>
	<g>
		<path class="st1" d="M131.4,102.4l0.2,0.4h0.5l23.5-0.1l1.5,0l-0.7-1.3l-27.8-47.9l-0.2-0.4h-0.5l-23.5,0.1l-1.5,0l0.7,1.3
			L131.4,102.4z M131.4,102.4"/>
		<path class="st1" d="M110.8,78.2l-0.2-0.4L98.5,57l-0.7-1.3L97,57l-27.8,48.1l-0.2,0.4l0.2,0.4l12.1,20.7l0.7,1.2l0.7-1.3
			l27.8-48.1L110.8,78.2z M110.8,78.2"/>
		<path class="st1" d="M100.3,108.2h-0.5l-0.2,0.4l-11.9,20.5l-0.7,1.3h57.3l0.2-0.4l11.9-20.5l0.7-1.2H100.3z M100.3,108.2"/>
	</g>
	<g>
		<path class="st2" d="M86.8,168c-0.7,0.9-1.6,1.6-2.7,2.1c-1.2,0.5-2.5,0.7-4.1,0.7c-1.6,0-3-0.4-4.2-1.1c-1.2-0.7-2.2-1.8-2.8-3.1
			c-0.7-1.4-1-2.9-1-4.7v-1.7c0-2.9,0.7-5.1,2-6.7s3.2-2.4,5.7-2.4c2,0,3.6,0.5,4.8,1.5c1.2,1,2,2.5,2.2,4.4h-2.5
			c-0.5-2.5-2-3.8-4.5-3.8c-1.7,0-3,0.6-3.9,1.8c-0.9,1.2-1.3,2.9-1.3,5.2v1.6c0,2.2,0.5,3.9,1.5,5.1c1,1.3,2.3,1.9,4,1.9
			c0.9,0,1.8-0.1,2.5-0.3c0.7-0.2,1.3-0.6,1.8-1.1V163h-4.4V161h7V168z"/>
		<path class="st2" d="M90,163.3c0-1.4,0.3-2.7,0.8-3.8c0.5-1.1,1.3-2,2.3-2.6c1-0.6,2.1-0.9,3.4-0.9c1.9,0,3.5,0.7,4.7,2
			c1.2,1.3,1.8,3.1,1.8,5.4v0.2c0,1.4-0.3,2.6-0.8,3.7c-0.5,1.1-1.3,2-2.3,2.6c-1,0.6-2.1,0.9-3.4,0.9c-1.9,0-3.5-0.7-4.7-2
			c-1.2-1.3-1.8-3.1-1.8-5.3V163.3z M92.4,163.6c0,1.6,0.4,2.9,1.1,3.8c0.7,1,1.7,1.4,2.9,1.4c1.2,0,2.2-0.5,3-1.5
			c0.7-1,1.1-2.3,1.1-4.1c0-1.6-0.4-2.8-1.1-3.8c-0.7-1-1.7-1.5-3-1.5c-1.2,0-2.2,0.5-2.9,1.4C92.8,160.4,92.4,161.8,92.4,163.6z"/>
		<path class="st2" d="M105.4,163.3c0-1.4,0.3-2.7,0.8-3.8c0.5-1.1,1.3-2,2.3-2.6c1-0.6,2.1-0.9,3.4-0.9c1.9,0,3.5,0.7,4.7,2
			c1.2,1.3,1.8,3.1,1.8,5.4v0.2c0,1.4-0.3,2.6-0.8,3.7c-0.5,1.1-1.3,2-2.3,2.6c-1,0.6-2.1,0.9-3.4,0.9c-1.9,0-3.5-0.7-4.7-2
			c-1.2-1.3-1.8-3.1-1.8-5.3V163.3z M107.8,163.6c0,1.6,0.4,2.9,1.1,3.8c0.7,1,1.7,1.4,2.9,1.4c1.2,0,2.2-0.5,3-1.5
			c0.7-1,1.1-2.3,1.1-4.1c0-1.6-0.4-2.8-1.1-3.8c-0.7-1-1.7-1.5-3-1.5c-1.2,0-2.2,0.5-2.9,1.4C108.2,160.4,107.8,161.8,107.8,163.6z
			"/>
		<path class="st2" d="M120.9,163.3c0-2.2,0.5-4,1.5-5.3c1-1.3,2.4-2,4.1-2c1.7,0,3.1,0.6,4.1,1.8l0.1-1.6h2.2v13.9
			c0,1.8-0.5,3.3-1.6,4.4c-1.1,1.1-2.6,1.6-4.4,1.6c-1,0-2-0.2-3-0.7s-1.7-1-2.3-1.8l1.3-1.5c1,1.3,2.3,1.9,3.8,1.9
			c1.2,0,2.1-0.3,2.8-1c0.7-0.7,1-1.6,1-2.8v-1.2c-1,1.1-2.3,1.7-4,1.7c-1.7,0-3-0.7-4.1-2C121.4,167.4,120.9,165.6,120.9,163.3z
			 M123.3,163.6c0,1.6,0.3,2.9,1,3.8c0.7,0.9,1.6,1.4,2.8,1.4c1.5,0,2.7-0.7,3.4-2.1v-6.5c-0.7-1.4-1.9-2-3.4-2
			c-1.2,0-2.1,0.5-2.8,1.4S123.3,161.8,123.3,163.6z"/>
		<path class="st2" d="M139.2,170.5h-2.4v-20.3h2.4V170.5z"/>
		<path class="st2" d="M149.1,170.8c-1.9,0-3.5-0.6-4.7-1.9c-1.2-1.3-1.8-3-1.8-5.1v-0.4c0-1.4,0.3-2.7,0.8-3.8
			c0.5-1.1,1.3-2,2.3-2.6c1-0.6,2-0.9,3.2-0.9c1.9,0,3.3,0.6,4.3,1.8s1.5,3,1.5,5.2v1H145c0,1.4,0.4,2.5,1.2,3.4
			c0.8,0.9,1.8,1.3,3,1.3c0.9,0,1.6-0.2,2.2-0.5s1.1-0.8,1.6-1.4l1.5,1.2C153.2,169.9,151.4,170.8,149.1,170.8z M148.8,158
			c-1,0-1.8,0.4-2.5,1.1c-0.7,0.7-1.1,1.7-1.2,3h7.1v-0.2c-0.1-1.2-0.4-2.2-1-2.9C150.6,158.4,149.8,158,148.8,158z"/>
		<path class="st2" d="M84.9,201.5v-19.2h5.4c1.7,0,3.1,0.4,4.4,1.1s2.3,1.8,3,3.2c0.7,1.4,1.1,2.9,1.1,4.7v1.2c0,1.8-0.3,3.4-1,4.8
			c-0.7,1.4-1.7,2.4-3,3.1c-1.3,0.7-2.8,1.1-4.5,1.1H84.9z M87.5,184.4v15.1h2.7c2,0,3.5-0.6,4.6-1.8c1.1-1.2,1.6-2.9,1.6-5.2v-1.1
			c0-2.2-0.5-3.9-1.5-5.1c-1-1.2-2.5-1.8-4.4-1.8H87.5z"/>
		<path class="st2" d="M109.1,189.5c-0.4-0.1-0.8-0.1-1.2-0.1c-1.6,0-2.7,0.7-3.3,2v10.1h-2.4v-14.3h2.4l0,1.6
			c0.8-1.3,1.9-1.9,3.4-1.9c0.5,0,0.8,0.1,1.1,0.2V189.5z"/>
		<path class="st2" d="M111.4,183.5c0-0.4,0.1-0.7,0.4-1c0.2-0.3,0.6-0.4,1.1-0.4s0.8,0.1,1.1,0.4c0.2,0.3,0.4,0.6,0.4,1
			c0,0.4-0.1,0.7-0.4,1s-0.6,0.4-1.1,0.4s-0.8-0.1-1.1-0.4C111.5,184.2,111.4,183.9,111.4,183.5z M114,201.5h-2.4v-14.3h2.4V201.5z"
			/>
		<path class="st2" d="M122.6,198.2l3.5-11h2.5l-5.1,14.3h-1.9l-5.2-14.3h2.5L122.6,198.2z"/>
		<path class="st2" d="M136.8,201.8c-1.9,0-3.5-0.6-4.7-1.9c-1.2-1.3-1.8-3-1.8-5.1v-0.4c0-1.4,0.3-2.7,0.8-3.8
			c0.5-1.1,1.3-2,2.3-2.6c1-0.6,2-0.9,3.2-0.9c1.9,0,3.3,0.6,4.3,1.8s1.5,3,1.5,5.2v1h-9.7c0,1.4,0.4,2.5,1.2,3.4
			c0.8,0.9,1.8,1.3,3,1.3c0.9,0,1.6-0.2,2.2-0.5s1.1-0.8,1.6-1.4l1.5,1.2C140.9,200.9,139.2,201.8,136.8,201.8z M136.5,189
			c-1,0-1.8,0.4-2.5,1.1c-0.7,0.7-1.1,1.7-1.2,3h7.1v-0.2c-0.1-1.2-0.4-2.2-1-2.9C138.3,189.4,137.5,189,136.5,189z"/>
	</g>
</g>
</svg>
