<?xml version="1.0" encoding="utf-8"?>
<!-- Generator: Adobe Illustrator 22.0.1, SVG Export Plug-In . SVG Version: 6.00 Build 0)  -->
<svg version="1.1" id="Capa_1" xmlns="http://www.w3.org/2000/svg" xmlns:xlink="http://www.w3.org/1999/xlink" x="0px" y="0px"
	 viewBox="0 0 66.9 66.9" style="enable-background:new 0 0 66.9 66.9;" xml:space="preserve">
<style type="text/css">
	.st0{fill:#383342;}
	.st1{fill:#FFFFFF;}
</style>
<g>
	<circle class="st0" cx="33.4" cy="33.4" r="33.4"/>
	<g>
		<g>
			<path class="st1" d="M47.1,31c-0.3,0-0.5-0.1-0.7-0.2l-12.9-9.4l-12.9,9.4c-0.6,0.4-1.4,0.3-1.8-0.3c-0.4-0.6-0.3-1.4,0.3-1.8
				l13.7-10c0.4-0.3,1.1-0.3,1.5,0l13.7,10c0.6,0.4,0.7,1.2,0.3,1.8C47.9,30.8,47.5,31,47.1,31L47.1,31z"/>
		</g>
		<g>
			<path class="st1" d="M33.4,48.4c-0.7,0-1.3-0.6-1.3-1.3V19.7c0-0.7,0.6-1.3,1.3-1.3c0.7,0,1.3,0.6,1.3,1.3v27.4
				C34.7,47.9,34.2,48.4,33.4,48.4L33.4,48.4z"/>
		</g>
	</g>
</g>
</svg>
