<svg xmlns="http://www.w3.org/2000/svg" width="24.033" height="24.035" viewBox="0 0 24.033 24.035">
  <g id="profit_1_" data-name="profit (1)" transform="translate(-0.5)">
    <path id="Path_1994" data-name="Path 1994" d="M206.969,346.939a.469.469,0,1,0-.469-.469A.47.47,0,0,0,206.969,346.939Zm0,0" transform="translate(-196.33 -329.758)" fill="#adadad"/>
    <path id="Path_1995" data-name="Path 1995" d="M.638,18.264,6.271,23.9a.469.469,0,0,0,.664,0l3.1-3.1a.469.469,0,0,0,0-.664L9.9,20h6.767a2.342,2.342,0,0,0,1.6-.629l5.695-5.337a1.812,1.812,0,0,0-2.194-2.865L20.5,12a7.893,7.893,0,0,0-3.664-6.48,1.411,1.411,0,0,0-.622-2.265l-.069-.022,1.208-2.171A.469.469,0,0,0,17.072.38a9.625,9.625,0,0,0-5.353,0,.469.469,0,0,0-.279.679L12.648,3.23l-.07.022a1.408,1.408,0,0,0-.62,2.265,7.894,7.894,0,0,0-3.665,6.5c0,.069,0,.137,0,.2a5.768,5.768,0,0,0-2.28,1.223L4.59,14.692,4.4,14.5a.469.469,0,0,0-.664,0l-3.1,3.1A.469.469,0,0,0,.638,18.264ZM12.556,1.135a8.706,8.706,0,0,1,3.677,0L15.188,3.014a5.723,5.723,0,0,0-1.585,0Zm.314,3.008a4.858,4.858,0,0,1,3.048,0,.47.47,0,0,1-.117.915,4.592,4.592,0,0,0-2.812,0h0a.469.469,0,0,1-.118-.914ZM13.13,6A3.663,3.663,0,0,1,15.6,5.98a6.667,6.667,0,0,1,3.955,6.037,4.518,4.518,0,0,1-.041.622l-2.256,1.48a1.867,1.867,0,0,0-1.458-.694h-.939v-.55A1.408,1.408,0,0,0,14.4,10.14a.469.469,0,0,1,0-.939.754.754,0,0,1,.508.245.469.469,0,1,0,.653-.675,1.811,1.811,0,0,0-.691-.432V7.792a.469.469,0,0,0-.939,0v.55a1.408,1.408,0,0,0,.469,2.736.469.469,0,0,1,0,.939.849.849,0,0,1-.61-.355.469.469,0,0,0-.719.6,1.946,1.946,0,0,0,.859.611v.548h-.156c-.231,0-.334-.15-.5-.255a5.759,5.759,0,0,0-4.041-1.123c0-.01,0-.02,0-.03A6.71,6.71,0,0,1,13.13,6Zm-6.5,8.15a4.827,4.827,0,0,1,6.074-.229,1.665,1.665,0,0,0,1.06.443H15.8a.939.939,0,1,1,0,1.878H12.517a.469.469,0,1,0,0,.939H15.8a1.876,1.876,0,0,0,1.85-2.2l4.61-3.025a.873.873,0,0,1,1.052,1.385L17.62,18.682a1.4,1.4,0,0,1-.958.376H8.956l-3.7-3.7ZM4.068,15.5l4.969,4.969L6.6,22.9,1.633,17.932Zm0,0" fill="#adadad"/>
  </g>
</svg>
