<?xml version="1.0" encoding="utf-8"?>
<!-- Generator: Adobe Illustrator 22.0.1, SVG Export Plug-In . SVG Version: 6.00 Build 0)  -->
<svg version="1.1" id="Capa_1" xmlns="http://www.w3.org/2000/svg" xmlns:xlink="http://www.w3.org/1999/xlink" x="0px" y="0px"
	 viewBox="0 0 57.1 54.3" style="enable-background:new 0 0 57.1 54.3;" xml:space="preserve">
<style type="text/css">
	.st0{fill:#BDBCC0;}
</style>
<g>
	<g>
		<path class="st0" d="M28.7,33c-0.2,0-0.4-0.1-0.6-0.1L0.6,17.5c-0.4-0.2-0.6-0.6-0.6-1c0-0.4,0.2-0.8,0.6-1L27.9,0.1
			C28.3,0,28.7,0,29,0.1l27.5,15.4c0.4,0.2,0.6,0.6,0.6,1c0,0.4-0.2,0.8-0.6,1L29.2,32.9C29.1,33,28.9,33,28.7,33L28.7,33z
			 M3.6,16.5l25.1,14l24.9-13.9l-25.1-14L3.6,16.5L3.6,16.5z"/>
	</g>
	<g>
		<path class="st0" d="M28.7,43.7c-0.2,0-0.4-0.1-0.6-0.1L0.6,28.1c-0.6-0.3-0.8-1-0.5-1.6c0.3-0.6,1-0.8,1.6-0.5l26.9,15.1l26.7-15
			c0.6-0.3,1.3-0.1,1.6,0.5c0.3,0.6,0.1,1.3-0.5,1.6L29.2,43.5C29.1,43.6,28.9,43.7,28.7,43.7L28.7,43.7z"/>
	</g>
	<g>
		<path class="st0" d="M28.7,54.3c-0.2,0-0.4-0.1-0.6-0.1L0.6,38.7c-0.6-0.3-0.8-1-0.5-1.6c0.3-0.6,1-0.8,1.6-0.5l26.9,15.1l26.7-15
			c0.6-0.3,1.3-0.1,1.6,0.5c0.3,0.6,0.1,1.3-0.5,1.6L29.2,54.1C29.1,54.2,28.9,54.3,28.7,54.3L28.7,54.3z"/>
	</g>
</g>
</svg>
