<svg xmlns="http://www.w3.org/2000/svg" width="57.796" height="56.247" viewBox="0 0 57.796 56.247"><defs><style>.a{fill:#4d445a;}</style></defs><g transform="translate(0 -6.859)"><g transform="translate(20.427 29.952)"><path class="a" d="M211.91,211.438H181.8a.847.847,0,0,0-.847.847V229.9a.847.847,0,0,0,.847.847H211.91a.847.847,0,0,0,.847-.847V212.285A.847.847,0,0,0,211.91,211.438Zm-.847,17.612H182.648V213.131h28.415Z" transform="translate(-180.955 -211.438)"/></g><g transform="translate(22.994 35.529)"><path class="a" d="M209.579,268.88l-1.616-3a2.318,2.318,0,0,0,1.616-2.467c0-1.961-1.307-2.578-2.923-2.578h-2.442a.5.5,0,0,0-.518.493v8.017c0,.333.407.506.8.506s.8-.173.8-.506v-3.219h1.036l1.751,3.4a.631.631,0,0,0,.555.382,1.038,1.038,0,0,0,1-.839A.333.333,0,0,0,209.579,268.88Zm-2.923-4.009H205.3v-2.627h1.357a1.314,1.314,0,1,1,0,2.627Z" transform="translate(-203.696 -260.838)"/></g><g transform="translate(30.024 35.529)"><path class="a" d="M271.072,268.45h-3.49v-2.479h1.875a.558.558,0,0,0,.506-.617c0-.333-.185-.641-.506-.641h-1.875v-2.467h3.49c.321,0,.506-.333.506-.715,0-.333-.16-.691-.506-.691h-4.391c-.358,0-.7.173-.7.506v8c0,.333.345.505.7.505h4.391c.345,0,.506-.358.506-.691C271.578,268.783,271.393,268.45,271.072,268.45Z" transform="translate(-265.978 -260.84)"/></g><g transform="translate(36.562 35.529)"><path class="a" d="M329.071,260.839c-.407,0-.8.148-.8.493v4.958l-2.38-4.6c-.382-.728-.617-.851-1.2-.851-.407,0-.8.16-.8.506v8c0,.333.395.506.8.506s.8-.173.8-.506v-4.958l2.652,4.958a.963.963,0,0,0,.925.506c.395,0,.8-.173.8-.506v-8.017C329.873,260.987,329.466,260.839,329.071,260.839Z" transform="translate(-323.891 -260.839)"/></g><g transform="translate(43.432 35.529)"><path class="a" d="M390.478,260.838h-5.217c-.345,0-.506.37-.506.715,0,.395.185.728.506.728h1.813v7.067c0,.333.395.506.8.506s.8-.173.8-.506v-7.067h1.8c.321,0,.506-.345.506-.728C390.984,261.208,390.823,260.838,390.478,260.838Z" transform="translate(-384.755 -260.838)"/></g><g transform="translate(0 6.859)"><g transform="translate(0 0)"><path class="a" d="M55.368,11.5H12.4V9.287A2.431,2.431,0,0,0,9.975,6.859H6.944A2.431,2.431,0,0,0,4.516,9.287V11.5H.847A.847.847,0,0,0,0,12.351v6.194a.847.847,0,0,0,.847.847H4.516V62.26a.847.847,0,0,0,.847.847h6.194a.847.847,0,0,0,.847-.847V19.392h8.5v5.8h-.717a4.53,4.53,0,0,0-4.525,4.525V49.5a4.53,4.53,0,0,0,4.525,4.525h24.8a.847.847,0,1,0,0-1.693h-24.8A2.835,2.835,0,0,1,17.355,49.5V29.713a2.835,2.835,0,0,1,2.832-2.832h6.967a.847.847,0,1,0,0-1.693H22.6v-5.8H50.057v5.8H30.541a.847.847,0,1,0,0,1.693H52.467A2.835,2.835,0,0,1,55.3,29.713V49.5a2.835,2.835,0,0,1-2.832,2.832H48.376a.847.847,0,0,0,0,1.693h4.091A4.53,4.53,0,0,0,56.992,49.5V29.713a4.53,4.53,0,0,0-4.525-4.525h-.717v-5.8h3.617A2.431,2.431,0,0,0,57.8,16.964V13.932A2.43,2.43,0,0,0,55.368,11.5ZM4.516,17.7H1.693V13.2H4.516ZM10.71,61.413h-4.5V9.287a.735.735,0,0,1,.735-.735H9.975a.735.735,0,0,1,.735.735ZM56.1,16.964a.735.735,0,0,1-.735.735H12.4V13.2H55.368a.735.735,0,0,1,.735.735Z" transform="translate(0 -6.859)"/></g></g></g></svg>