<svg xmlns="http://www.w3.org/2000/svg" width="33.833" height="62.611" viewBox="0 0 33.833 62.611"><defs><style>.a{fill:#4d445a;}.b{fill:none;stroke:#4d445a;stroke-linecap:round;stroke-width:3px;}</style></defs><g transform="translate(-932.191 -569.948)"><g transform="translate(-33.061 6.596)"><path class="a" d="M359.363,35.564a7.119,7.119,0,1,1,7.366-7.115A7.254,7.254,0,0,1,359.363,35.564Zm0-11.384a4.271,4.271,0,1,0,4.419,4.269A4.351,4.351,0,0,0,359.363,24.18Z" transform="translate(618.755 542.019)"/><path class="a" d="M343.641,170.17l1.889-14.583a7.289,7.289,0,0,1,7.307-6.233h7.274a7.524,7.524,0,0,1,2.454.418,1.411,1.411,0,0,1,.9,1.816,1.486,1.486,0,0,1-1.88.865,4.552,4.552,0,0,0-1.47-.253h-7.274a4.376,4.376,0,0,0-4.384,3.74l-1.889,14.583a1.377,1.377,0,0,0,.356,1.118,1.475,1.475,0,0,0,1.1.481h1.081a1.451,1.451,0,0,1,1.47,1.321l1.376,18.6h9.042l1.061-14.335a1.473,1.473,0,0,1,2.937.2l-1.158,15.656a1.46,1.46,0,0,1-1.47,1.321H350.58a1.451,1.451,0,0,1-1.467-1.318l-1.376-18.61a4.478,4.478,0,0,1-3.023-1.434A4.167,4.167,0,0,1,343.641,170.17Z" transform="translate(621.645 431.076)"/></g><g transform="translate(949.852 593.917)"><line class="b" y2="14.673" transform="translate(7.337)"/><line class="b" x1="14.673" transform="translate(0 7.337)"/></g></g></svg>