<svg xmlns="http://www.w3.org/2000/svg" viewBox="0 0 64.5 63.1"><style type="text/css"> .st0{fill:#FFFFFF;} </style><path class="st0" d="M20.7 45.2c-0.4 0-0.7-0.1-1-0.4 -0.3-0.3-0.4-0.7-0.4-1.1L20 33.1c0-0.3 0.2-0.7 0.4-0.9L52.1 0.4c0.3-0.3 0.6-0.4 1-0.4l0 0c0.4 0 0.7 0.1 1 0.4l10 10c0.3 0.3 0.4 0.6 0.4 1 0 0.4-0.1 0.7-0.4 1L32.3 44.2c-0.2 0.2-0.6 0.4-0.9 0.4L20.7 45.2C20.8 45.2 20.7 45.2 20.7 45.2L20.7 45.2zM22.7 33.8l-0.5 8.6 8.6-0.5 30.5-30.5 -8.1-8.1L22.7 33.8 22.7 33.8z"/><path class="st0" d="M57.5 17.4c-0.4 0-0.7-0.1-1-0.4l-9-9c-0.5-0.5-0.5-1.4 0-1.9s1.4-0.5 1.9 0l9 9c0.5 0.5 0.5 1.4 0 1.9C58.2 17.3 57.8 17.4 57.5 17.4L57.5 17.4z"/><path class="st0" d="M28 37.9c-0.4 0-0.7-0.1-1-0.4 -0.5-0.5-0.5-1.4 0-1.9l24.8-24.8c0.5-0.5 1.4-0.5 1.9 0 0.5 0.5 0.5 1.4 0 1.9L29 37.5C28.7 37.8 28.4 37.9 28 37.9L28 37.9z"/><path class="st0" d="M20.7 45.3c-0.4 0-0.7-0.1-1-0.4 -0.3-0.3-0.4-0.7-0.4-1.1l0.3-5.2c0-0.6 0.5-1.2 1.2-1.3 0.2 0 0.3-0.1 0.5-0.1 0.2 0 0.4 0 0.6 0 1.6 0 3 0.6 4 1.7 1 1.1 1.5 2.6 1.3 4.2 0 0.3-0.1 0.5-0.1 0.7 -0.1 0.6-0.7 1.1-1.3 1.2L20.7 45.3C20.8 45.3 20.8 45.3 20.7 45.3L20.7 45.3zM22.4 40l-0.1 2.4 2.3-0.1c-0.1-0.6-0.3-1.1-0.6-1.5C23.5 40.4 22.9 40.1 22.4 40L22.4 40z"/><path class="st0" d="M50 63.1H0V19.7L15.7 4h32.9C49.3 4 50 4.6 50 5.4s-0.6 1.4-1.4 1.4H16.8L2.7 20.8v39.5h44.5V26.7c0-0.8 0.6-1.4 1.4-1.4 0.8 0 1.4 0.6 1.4 1.4V63.1L50 63.1z"/><path class="st0" d="M17.6 21.6H1.4C0.6 21.6 0 21 0 20.2s0.6-1.4 1.4-1.4h13.5V5.4c0-0.8 0.6-1.4 1.4-1.4 0.8 0 1.4 0.6 1.4 1.4V21.6L17.6 21.6z"/></svg>