<svg xmlns="http://www.w3.org/2000/svg" width="14.25" height="19" viewBox="0 0 14.25 19">
  <g id="placeholder" transform="translate(-64)">
    <g id="Group_1117" data-name="Group 1117" transform="translate(64)">
      <g id="Group_1116" data-name="Group 1116">
        <path id="Path_1675" data-name="Path 1675" d="M71.125,0A7.132,7.132,0,0,0,64,7.125c0,4.939,6.431,11.427,6.7,11.7a.6.6,0,0,0,.841,0c.273-.274,6.7-6.763,6.7-11.7A7.132,7.132,0,0,0,71.125,0Zm0,17.548c-1.418-1.518-5.937-6.65-5.937-10.423a5.938,5.938,0,0,1,11.875,0C77.063,10.894,72.543,16.03,71.125,17.548Z" transform="translate(-64)" fill="#fff"/>
      </g>
    </g>
    <g id="Group_1119" data-name="Group 1119" transform="translate(67.563 3.563)">
      <g id="Group_1118" data-name="Group 1118">
        <path id="Path_1676" data-name="Path 1676" d="M163.563,96a3.563,3.563,0,1,0,3.563,3.563A3.567,3.567,0,0,0,163.563,96Zm0,5.938a2.375,2.375,0,1,1,2.375-2.375A2.377,2.377,0,0,1,163.563,101.938Z" transform="translate(-160 -96)" fill="#fff"/>
      </g>
    </g>
  </g>
</svg>
