<svg xmlns="http://www.w3.org/2000/svg" viewBox="0 0 68.4 68.4"><style type="text/css"> .st0{fill:#FFFFFF;} </style><path class="st0" d="M38.1 68.4h-7.8c-2 0-3.7-1.6-3.7-3.7v-5.1c0-0.5-0.5-1.2-1-1.4l-2.4-1c-0.7-0.4-1.4-0.1-1.8 0.2l-3.6 3.6c-1.4 1.4-3.8 1.4-5.2 0l-5.5-5.5C6.6 54.9 6.2 54 6.2 53c0-1 0.4-1.9 1.1-2.6l3.6-3.6c0.4-0.4 0.5-1.2 0.3-1.7l-1-2.4c-0.2-0.6-0.9-1.1-1.4-1.1H3.7c-2 0-3.7-1.6-3.7-3.6v-7.8c0-2 1.6-3.7 3.7-3.7h5.1c0.5 0 1.2-0.5 1.4-1l1-2.4c0.3-0.6 0.1-1.4-0.2-1.8l-3.6-3.6c-0.7-0.7-1.1-1.6-1.1-2.6s0.4-1.9 1.1-2.6l5.5-5.5c1.4-1.4 3.8-1.4 5.2 0l3.6 3.6c0.3 0.4 1.2 0.5 1.7 0.3l2.4-1c0.6-0.2 1.1-0.9 1.1-1.4V3.7c0-2 1.6-3.7 3.7-3.7h7.8c2 0 3.7 1.6 3.7 3.7v5.1c0 0.5 0.5 1.2 1 1.4l2.4 1c0.7 0.3 1.4 0.1 1.8-0.2l3.6-3.6c1.4-1.4 3.8-1.4 5.2 0l5.5 5.5c0.7 0.7 1.1 1.6 1.1 2.6s-0.4 1.9-1.1 2.6l-3.6 3.6c-0.4 0.4-0.5 1.2-0.3 1.7l1 2.4c0.2 0.6 0.9 1.1 1.4 1.1h5.1c2 0 3.6 1.6 3.6 3.7v7.8c0 2-1.6 3.6-3.6 3.6h-5.1c-0.5 0-1.2 0.5-1.4 1l-1 2.4c-0.3 0.6-0.1 1.4 0.2 1.8l3.6 3.6c0.7 0.7 1.1 1.6 1.1 2.6 0 1-0.4 1.9-1.1 2.6l-5.5 5.5c-1.4 1.4-3.8 1.4-5.2 0l-3.6-3.6c-0.3-0.4-1.2-0.5-1.7-0.3l-2.4 1c-0.6 0.2-1.1 0.9-1.1 1.4v5.1C41.8 66.7 40.1 68.4 38.1 68.4L38.1 68.4zM22.6 54.1c0.7 0 1.4 0.2 1.9 0.4l2.2 0.9c1.6 0.5 3 2.4 3 4.2v5.1c0 0.3 0.3 0.6 0.6 0.6h7.8c0.3 0 0.6-0.3 0.6-0.6v-5.1c0-1.8 1.3-3.7 3.1-4.2l2.2-0.9c1.3-0.7 3.8-0.4 5.1 0.9l3.6 3.6c0.3 0.3 0.6 0.3 0.9 0l5.5-5.5c0.2-0.2 0.2-0.3 0.2-0.4 0-0.1 0-0.3-0.2-0.4L55.4 49c-1.3-1.3-1.7-3.5-0.8-5.2l0.9-2.2c0.5-1.6 2.4-3 4.2-3h5.1c0.3 0 0.6-0.3 0.6-0.6v-7.8c0-0.3-0.3-0.6-0.6-0.6h-5.1c-1.8 0-3.7-1.3-4.3-3.1l-0.9-2.2c-0.8-1.5-0.4-3.8 0.9-5.1l3.6-3.6c0.2-0.2 0.2-0.3 0.2-0.4 0-0.1 0-0.3-0.2-0.4l-5.5-5.5c-0.3-0.3-0.6-0.3-0.9 0L49 13c-1.2 1.2-3.6 1.6-5.2 0.8l-2.2-0.9c-1.6-0.5-3-2.4-3-4.2V3.7c0-0.3-0.3-0.6-0.6-0.6h-7.8c-0.3 0-0.6 0.3-0.6 0.6v5.1c0 1.8-1.3 3.7-3.1 4.2l-2.2 0.9c-1.3 0.7-3.8 0.4-5.1-0.9l-3.6-3.6c-0.3-0.3-0.6-0.3-0.9 0l-5.5 5.5c-0.2 0.2-0.2 0.3-0.2 0.4 0 0.1 0 0.3 0.2 0.4l3.6 3.6c1.3 1.3 1.7 3.5 0.8 5.2l-0.9 2.2c-0.6 1.6-2.4 3-4.2 3H3.7C3.3 29.7 3 30 3 30.3v7.8c0 0.3 0.3 0.6 0.6 0.6h5.1c1.8 0 3.7 1.3 4.2 3.1l0.9 2.2c0.8 1.5 0.4 3.8-0.9 5.1l-3.6 3.6c-0.2 0.2-0.2 0.3-0.2 0.4 0 0.1 0 0.3 0.2 0.4l5.5 5.5c0.3 0.3 0.6 0.3 0.9 0l3.6-3.6C20.2 54.6 21.4 54.1 22.6 54.1L22.6 54.1zM34.2 46c-6.5 0-11.8-5.3-11.8-11.8 0-6.5 5.3-11.8 11.8-11.8 6.5 0 11.8 5.3 11.8 11.8C46 40.7 40.7 46 34.2 46L34.2 46zM34.2 25.4c-4.8 0-8.8 3.9-8.8 8.8s3.9 8.8 8.8 8.8C39 43 43 39 43 34.2S39 25.4 34.2 25.4L34.2 25.4z"/></svg>