<svg xmlns="http://www.w3.org/2000/svg" width="36.255" height="31.939" viewBox="0 0 36.255 31.939"><defs><style>.a{fill:#ef463f;}</style></defs><g transform="translate(123.251 -2167.963)"><path class="a" d="M-82.362,2201.533q.016.434.047.913t.062,1.055l.011.2h1.079l.011-.2q.03-.58.062-1.055t.047-.913c.011-.288.019-.57.026-.848s.01-.574.01-.886v-6.142H-82.4v6.142q0,.469.01.887T-82.362,2201.533Z" transform="translate(-23.39 -14.711)"/><path class="a" d="M-82.419,2226.192a1.191,1.191,0,0,0,.455-.089,1.146,1.146,0,0,0,.375-.248,1.265,1.265,0,0,0,.251-.364,1.122,1.122,0,0,0,.1-.466,1.147,1.147,0,0,0-.1-.461,1.236,1.236,0,0,0-.252-.37,1.211,1.211,0,0,0-.37-.251,1.164,1.164,0,0,0-.927,0,1.225,1.225,0,0,0-.364.25,1.161,1.161,0,0,0-.248.376,1.19,1.19,0,0,0-.088.454,1.136,1.136,0,0,0,.337.831A1.135,1.135,0,0,0-82.419,2226.192Z" transform="translate(-22.71 -31.996)"/><path class="a" d="M-87.274,2196.836l-16.08-27.851a2.023,2.023,0,0,0-1.77-1.022,2.024,2.024,0,0,0-1.771,1.022l-16.08,27.851a2.022,2.022,0,0,0,0,2.044,2.024,2.024,0,0,0,1.771,1.022h32.159a2.024,2.024,0,0,0,1.771-1.022A2.022,2.022,0,0,0-87.274,2196.836Zm-18.509-27.21a.752.752,0,0,1,.66-.38.752.752,0,0,1,.659.38l16.08,27.851a.752.752,0,0,1,0,.761.753.753,0,0,1-.66.381H-121.2a.753.753,0,0,1-.66-.381.752.752,0,0,1,0-.761Z" transform="translate(0)"/></g></svg>