<svg xmlns="http://www.w3.org/2000/svg" width="28.31" height="75.498" viewBox="0 0 28.31 75.498"><defs><style>.a{fill:#009cdc;}</style></defs><g transform="translate(0)"><g transform="translate(0)"><g transform="translate(0)"><path class="a" d="M186.454,153.912l-2.086-18.27A8.322,8.322,0,0,0,176.347,128h-8.031a8.324,8.324,0,0,0-8.015,7.641l-2.086,18.27a5.347,5.347,0,0,0,1.293,4.162,4.655,4.655,0,0,0,3.231,1.589l1.736,23.505a1.572,1.572,0,0,0,1.567,1.456h12.583a1.568,1.568,0,0,0,1.567-1.456l1.736-23.505a4.649,4.649,0,0,0,3.231-1.589A5.328,5.328,0,0,0,186.454,153.912Zm-3.636,2.067a1.568,1.568,0,0,1-1.151.544h-1.2a1.573,1.573,0,0,0-1.57,1.456l-1.733,23.5H167.5l-1.73-23.5a1.575,1.575,0,0,0-1.57-1.456h-1.2a1.574,1.574,0,0,1-1.151-.544,2.2,2.2,0,0,1-.516-1.711L163.428,136a5.188,5.188,0,0,1,4.895-4.851h8.031A5.193,5.193,0,0,1,181.248,136l2.086,18.271A2.2,2.2,0,0,1,182.818,155.978Z" transform="translate(-158.18 -109.126)"/><path class="a" d="M208.693,15.729a7.864,7.864,0,1,0-7.864-7.864A7.875,7.875,0,0,0,208.693,15.729Zm0-12.583a4.719,4.719,0,1,1-4.719,4.719A4.724,4.724,0,0,1,208.693,3.146Z" transform="translate(-194.54)"/></g></g></g></svg>