<?xml version="1.0" encoding="utf-8"?>
<!-- Generator: Adobe Illustrator 22.0.1, SVG Export Plug-In . SVG Version: 6.00 Build 0)  -->
<svg version="1.1" id="Capa_1" xmlns="http://www.w3.org/2000/svg" xmlns:xlink="http://www.w3.org/1999/xlink" x="0px" y="0px"
	 viewBox="0 0 37.5 38.5" style="enable-background:new 0 0 37.5 38.5;" xml:space="preserve">
<style type="text/css">
	.st0{fill:#BDBCC0;}
</style>
<g>
	<g>
		<g>
			<path class="st0" d="M27.9,8.4c-0.2,0-0.3-0.1-0.5-0.2l-8.6-6.3l-8.6,6.3C9.7,8.5,9.2,8.4,8.9,8C8.6,7.6,8.7,7.1,9.1,6.8l9.1-6.7
				c0.3-0.2,0.7-0.2,1,0l9.1,6.7c0.4,0.3,0.5,0.8,0.2,1.2C28.4,8.2,28.1,8.4,27.9,8.4L27.9,8.4z"/>
		</g>
		<g>
			<path class="st0" d="M18.7,20c-0.5,0-0.9-0.4-0.9-0.9V0.9c0-0.5,0.4-0.9,0.9-0.9c0.5,0,0.9,0.4,0.9,0.9v18.3
				C19.6,19.6,19.2,20,18.7,20L18.7,20z"/>
		</g>
	</g>
	<g>
		<path class="st0" d="M36.6,38.5H0.9c-0.5,0-0.9-0.4-0.9-0.9V25.6c0-0.5,0.4-0.9,0.9-0.9h11.1c0.5,0,0.9,0.4,0.9,0.9V28
			c0,0.5,0.4,0.9,0.9,0.9h10.2c0.5,0,0.9-0.4,0.9-0.9v-2.4c0-0.5,0.4-0.9,0.9-0.9h11.1c0.5,0,0.9,0.4,0.9,0.9v12.1
			C37.5,38.1,37.1,38.5,36.6,38.5L36.6,38.5z M1.7,36.8h34.1V26.4h-9.4V28c0,1.4-1.1,2.6-2.6,2.6H13.6c-1.4,0-2.6-1.1-2.6-2.6v-1.6
			H1.7V36.8L1.7,36.8z"/>
	</g>
	<g>
		<g>
			<g>
				<path class="st0" d="M0.9,26.4c-0.2,0-0.4-0.1-0.6-0.2c-0.3-0.3-0.3-0.9,0-1.2l6.9-7.1c0.3-0.3,0.9-0.3,1.2,0
					c0.3,0.3,0.3,0.9,0,1.2l-6.9,7.1C1.3,26.3,1.1,26.4,0.9,26.4L0.9,26.4z"/>
			</g>
		</g>
		<g>
			<g>
				<path class="st0" d="M36.6,26.4c-0.2,0-0.4-0.1-0.6-0.3L29.1,19c-0.3-0.3-0.3-0.9,0-1.2c0.3-0.3,0.9-0.3,1.2,0l6.9,7.1
					c0.3,0.3,0.3,0.9,0,1.2C37.1,26.3,36.8,26.4,36.6,26.4L36.6,26.4z"/>
			</g>
		</g>
	</g>
</g>
</svg>
