<?xml version="1.0" encoding="utf-8"?>
<!-- Generator: Adobe Illustrator 22.0.1, SVG Export Plug-In . SVG Version: 6.00 Build 0)  -->
<svg version="1.1" id="Capa_1" xmlns="http://www.w3.org/2000/svg" xmlns:xlink="http://www.w3.org/1999/xlink" x="0px" y="0px"
	 viewBox="0 0 227.2 227.2" style="enable-background:new 0 0 227.2 227.2;" xml:space="preserve">
<style type="text/css">
	.st0{fill:#FFFFFF;stroke:#CFD0D2;stroke-width:3;stroke-miterlimit:10;}
	.st1{fill:#CFD0D2;}
	.st2{fill:#78757D;}
</style>
<g>
	<g>
		<circle class="st0" cx="113" cy="114.1" r="112.1"/>
		<g>
			<path class="st1" d="M109.4,120.4l-26-16.8c-0.8-0.5-1.9-0.5-2.7,0.1l-17.5,14.1c-1.2,1-1.1,2.9,0.2,3.8l26,16.8
				c0.8,0.5,1.9,0.5,2.7-0.1l17.5-14.1C110.8,123.2,110.7,121.3,109.4,120.4z"/>
			<path class="st1" d="M116.5,124.2l17.5,14.1c0.8,0.6,1.9,0.7,2.7,0.1l26-16.8c1.3-0.9,1.4-2.8,0.2-3.8l-17.5-14.1
				c-0.8-0.6-1.9-0.7-2.7-0.1l-26,16.8C115.3,121.3,115.2,123.2,116.5,124.2z"/>
			<path class="st1" d="M109.5,80.2L92.1,66.1c-0.8-0.6-1.9-0.7-2.7-0.1l-26,16.8c-1.3,0.9-1.4,2.8-0.2,3.8l17.5,14.1
				c0.8,0.6,1.9,0.7,2.7,0.1l26-16.8C110.7,83.1,110.8,81.2,109.5,80.2z"/>
			<path class="st1" d="M162.6,82.7l-26-16.8c-0.8-0.5-1.9-0.5-2.7,0.1l-17.5,14.1c-1.2,1-1.1,2.9,0.2,3.8l26,16.8
				c0.8,0.5,1.9,0.5,2.7-0.1l17.5-14.1C164.1,85.5,164,83.6,162.6,82.7z"/>
			<path class="st1" d="M111.7,126.7l-19.6,15.6c-0.7,0.6-1.7,0.6-2.5,0.1l-4.8-3.1c-1.4-0.9-3.3,0.1-3.3,1.8v1.7
				c0,0.7,0.4,1.4,1,1.8l29.1,17.7c0.7,0.4,1.5,0.4,2.2,0l29.1-17.7c0.6-0.4,1-1.1,1-1.8v-1.5c0-1.7-1.9-2.7-3.3-1.8l-4.5,2.9
				c-0.8,0.5-1.8,0.4-2.5-0.1l-19.5-15.6C113.6,126.1,112.5,126.1,111.7,126.7z"/>
		</g>
	</g>
	<g>
		<path class="st2" d="M64.8,194.3v-19.2h5.4c1.7,0,3.1,0.4,4.4,1.1s2.3,1.8,3,3.2c0.7,1.4,1.1,2.9,1.1,4.7v1.2c0,1.8-0.3,3.4-1,4.8
			c-0.7,1.4-1.7,2.4-3,3.1c-1.3,0.7-2.8,1.1-4.5,1.1H64.8z M67.4,177.2v15.1H70c2,0,3.5-0.6,4.6-1.8c1.1-1.2,1.6-2.9,1.6-5.2v-1.1
			c0-2.2-0.5-3.9-1.5-5.1c-1-1.2-2.5-1.8-4.4-1.8H67.4z"/>
		<path class="st2" d="M89.1,182.2c-0.4-0.1-0.8-0.1-1.2-0.1c-1.6,0-2.7,0.7-3.3,2v10.1h-2.4v-14.3h2.4l0,1.6
			c0.8-1.3,1.9-1.9,3.4-1.9c0.5,0,0.8,0.1,1.1,0.2V182.2z"/>
		<path class="st2" d="M90.4,187.1c0-1.4,0.3-2.7,0.8-3.8c0.5-1.1,1.3-2,2.3-2.6c1-0.6,2.1-0.9,3.4-0.9c1.9,0,3.5,0.7,4.7,2
			c1.2,1.3,1.8,3.1,1.8,5.4v0.2c0,1.4-0.3,2.6-0.8,3.7c-0.5,1.1-1.3,2-2.3,2.6c-1,0.6-2.1,0.9-3.4,0.9c-1.9,0-3.5-0.7-4.7-2
			c-1.2-1.3-1.8-3.1-1.8-5.3V187.1z M92.8,187.3c0,1.6,0.4,2.9,1.1,3.8c0.7,1,1.7,1.4,2.9,1.4c1.2,0,2.2-0.5,3-1.5
			c0.7-1,1.1-2.3,1.1-4.1c0-1.6-0.4-2.8-1.1-3.8c-0.7-1-1.7-1.5-3-1.5c-1.2,0-2.2,0.5-2.9,1.4C93.2,184.2,92.8,185.6,92.8,187.3z"/>
		<path class="st2" d="M118.5,187.3c0,2.2-0.5,3.9-1.5,5.2s-2.3,2-4,2c-1.7,0-3.1-0.5-4.1-1.6v6.9h-2.4v-19.7h2.2l0.1,1.6
			c1-1.2,2.4-1.8,4.1-1.8c1.7,0,3.1,0.6,4.1,1.9c1,1.3,1.5,3.1,1.5,5.4V187.3z M116,187.1c0-1.6-0.3-2.9-1-3.8s-1.6-1.4-2.8-1.4
			c-1.5,0-2.6,0.7-3.3,2v6.8c0.7,1.3,1.8,2,3.3,2c1.2,0,2.1-0.5,2.8-1.4C115.7,190.3,116,188.9,116,187.1z"/>
		<path class="st2" d="M133.7,187.3c0,2.2-0.5,3.9-1.5,5.3c-1,1.3-2.3,2-4,2c-1.8,0-3.2-0.6-4.2-1.9l-0.1,1.6h-2.2v-20.3h2.4v7.6
			c1-1.2,2.3-1.8,4.1-1.8s3.1,0.7,4.1,2c1,1.3,1.5,3.1,1.5,5.4V187.3z M131.2,187.1c0-1.7-0.3-2.9-1-3.8s-1.6-1.4-2.8-1.4
			c-1.6,0-2.8,0.7-3.5,2.2v6.2c0.7,1.5,1.9,2.2,3.5,2.2c1.2,0,2.1-0.5,2.7-1.4S131.2,188.9,131.2,187.1z"/>
		<path class="st2" d="M136.1,187.1c0-1.4,0.3-2.7,0.8-3.8c0.5-1.1,1.3-2,2.3-2.6c1-0.6,2.1-0.9,3.4-0.9c1.9,0,3.5,0.7,4.7,2
			c1.2,1.3,1.8,3.1,1.8,5.4v0.2c0,1.4-0.3,2.6-0.8,3.7c-0.5,1.1-1.3,2-2.3,2.6c-1,0.6-2.1,0.9-3.4,0.9c-1.9,0-3.5-0.7-4.7-2
			c-1.2-1.3-1.8-3.1-1.8-5.3V187.1z M138.5,187.3c0,1.6,0.4,2.9,1.1,3.8c0.7,1,1.7,1.4,2.9,1.4c1.2,0,2.2-0.5,3-1.5
			c0.7-1,1.1-2.3,1.1-4.1c0-1.6-0.4-2.8-1.1-3.8c-0.7-1-1.7-1.5-3-1.5c-1.2,0-2.2,0.5-2.9,1.4C138.9,184.2,138.5,185.6,138.5,187.3z
			"/>
		<path class="st2" d="M156.6,185.3l3.2-5.2h2.8l-4.7,7.1l4.8,7.2H160l-3.3-5.3l-3.3,5.3h-2.8l4.8-7.2l-4.7-7.1h2.8L156.6,185.3z"/>
	</g>
</g>
</svg>
