<svg xmlns="http://www.w3.org/2000/svg" viewBox="0 0 82 83.1"><style type="text/css"> .st0{fill:#78757D;} </style><polygon class="st0" points="80.5 51.5 56.3 51.5 56.3 29.2 73.8 29.2 73.8 31.6 58.7 31.6 58.7 49.1 78.1 49.1 78.1 41.3 80.5 41.3 "/><path class="st0" d="M80.5 82.4H56.3V60h24.2V82.4zM58.7 80h19.4V62.4H58.7V80z"/><polygon class="st0" points="68.4 46.6 62.1 40.3 63.8 38.6 68.3 43.1 80.2 29.6 82 31.1 "/><polygon class="st0" points="80.5 22.5 56.3 22.5 56.3 0.1 73.8 0.1 73.8 2.5 58.7 2.5 58.7 20.1 78.1 20.1 78.1 12.2 80.5 12.2 "/><polygon class="st0" points="68.4 17.6 62.1 11.2 63.8 9.5 68.3 14.1 80.2 0.5 82 2.1 "/><path class="st0" d="M30.3 38.8c-4.3 0-8.3-1.6-11.1-4.4 -3-2.9-4.6-6.9-4.6-11.3v-7.3c0-4.4 1.6-8.5 4.6-11.3C22 1.7 26 0.1 30.3 0.1c4.3 0 8.3 1.6 11.1 4.4 3 2.9 4.6 6.9 4.6 11.3v7.3c0 4.4-1.6 8.5-4.6 11.3C38.5 37.3 34.5 38.8 30.3 38.8zM30.3 2.5c-7.7 0-13.3 5.6-13.3 13.3v7.3c0 7.7 5.6 13.3 13.3 13.3s13.3-5.6 13.3-13.3v-7.3C43.6 8.1 38 2.5 30.3 2.5z"/><path class="st0" d="M2.4 73.9H0V59.4C0 54 4 49.4 11.6 46c6.8-3.1 14.3-4.1 18.6-4.1 5.2 0 13.8 1.6 20.5 5.1l-1.1 2.1c-6.4-3.3-14.5-4.8-19.4-4.8 -4.4 0-11.5 1.2-17.6 3.9C8 50.3 2.4 53.9 2.4 59.4V73.9z"/></svg>