<?xml version="1.0" encoding="utf-8"?>
<!-- Generator: Adobe Illustrator 22.0.1, SVG Export Plug-In . SVG Version: 6.00 Build 0)  -->
<svg version="1.1" id="Capa_1" xmlns="http://www.w3.org/2000/svg" xmlns:xlink="http://www.w3.org/1999/xlink" x="0px" y="0px"
	 viewBox="0 0 23.7 16.9" style="enable-background:new 0 0 23.7 16.9;" xml:space="preserve">
<style type="text/css">
	.st0{fill:#FFFFFF;}
</style>
<g>
	<g>
		<path class="st0" d="M21.7,16.9H2c-1.1,0-2-0.9-2-2V2c0-1.1,0.9-2,2-2h19.7c1.1,0,2,0.9,2,2v12.9C23.7,16,22.8,16.9,21.7,16.9
			L21.7,16.9z M2,1.1C1.5,1.1,1.1,1.5,1.1,2v12.9c0,0.5,0.4,0.9,0.9,0.9h19.7c0.5,0,0.9-0.4,0.9-0.9V2c0-0.5-0.4-0.9-0.9-0.9H2
			L2,1.1z"/>
	</g>
	<g>
		<path class="st0" d="M23.1,4H0.8C0.5,4,0.3,3.8,0.3,3.5C0.3,3.2,0.5,3,0.8,3h22.3c0.3,0,0.5,0.2,0.5,0.5C23.6,3.8,23.4,4,23.1,4
			L23.1,4z"/>
	</g>
	<g>
		<path class="st0" d="M23.1,7.1H0.8c-0.3,0-0.5-0.2-0.5-0.5C0.3,6.3,0.5,6,0.8,6h22.3c0.3,0,0.5,0.2,0.5,0.5
			C23.6,6.9,23.4,7.1,23.1,7.1L23.1,7.1z"/>
	</g>
	<g>
		<path class="st0" d="M6.6,13.3H3.1c-0.3,0-0.5-0.2-0.5-0.5v-3c0-0.3,0.2-0.5,0.5-0.5h3.5c0.3,0,0.5,0.2,0.5,0.5v3
			C7.1,13,6.9,13.3,6.6,13.3L6.6,13.3z M3.6,12.2H6v-2H3.6V12.2L3.6,12.2z"/>
	</g>
</g>
</svg>
