<svg xmlns="http://www.w3.org/2000/svg" width="54.84" height="54.84" viewBox="0 0 54.84 54.84"><defs><style>.a{fill:#009cdc;stroke:#4d445a;}.b{fill:#fff;}</style></defs><g transform="translate(-221.5 -554.08)"><g transform="translate(85 63.42)"><g transform="translate(137 491.16)"><circle class="a" cx="26.92" cy="26.92" r="26.92"/></g></g><g transform="translate(236.92 539.141)"><g transform="translate(5.379 37.089)"><g transform="translate(0 0)"><path class="b" d="M104.884,131.227h3.666v1.539h-3.666Z" transform="translate(-104.884 -131.227)"/></g><g transform="translate(0 3.5)"><path class="b" d="M104.884,199.484h3.666v1.539h-3.666Z" transform="translate(-104.884 -199.484)"/></g><g transform="translate(0 7.001)"><path class="b" d="M104.884,267.74h3.666v1.539h-3.666Z" transform="translate(-104.884 -267.74)"/></g><g transform="translate(0 10.501)"><path class="b" d="M104.884,336h3.666v1.539h-3.666Z" transform="translate(-104.884 -335.997)"/></g></g><g transform="translate(0 32)"><path class="b" d="M12.793,51.179V38.6l8.038-.009v8.485h1.538V37.821a.777.777,0,0,0-.77-.77l-9.576.011a.769.769,0,0,0-.768.77V51.179H3.169V35.948l8.085-2.175v1.747h1.538V32.769a.777.777,0,0,0-.969-.743L2.2,34.615a.77.77,0,0,0-.569.743V51.179H0v1.539H24V51.179Z" transform="translate(0 -32)"/><g transform="translate(20.831 16.462)"><path class="b" d="M406.2,353.008h1.538v1.434H406.2Z" transform="translate(-406.2 -353.008)"/></g><g transform="translate(14.955 8.589)"><path class="b" d="M291.624,199.484h3.666v1.539h-3.666Z" transform="translate(-291.624 -199.484)"/><g transform="translate(0 3.5)"><path class="b" d="M291.624,267.74h3.666v1.539h-3.666Z" transform="translate(-291.624 -267.74)"/></g><g transform="translate(0 7.001)"><path class="b" d="M291.624,336h3.666v1.539h-3.666Z" transform="translate(-291.624 -335.997)"/></g></g></g></g></g></svg>