<?xml version="1.0" encoding="utf-8"?>
<!-- Generator: Adobe Illustrator 22.0.1, SVG Export Plug-In . SVG Version: 6.00 Build 0)  -->
<svg version="1.1" id="Capa_1" xmlns="http://www.w3.org/2000/svg" xmlns:xlink="http://www.w3.org/1999/xlink" x="0px" y="0px"
	 viewBox="0 0 24.3 22.8" style="enable-background:new 0 0 24.3 22.8;" xml:space="preserve">
<style type="text/css">
	.st0{fill:#FFFFFF;}
</style>
<g>
	<g>
		<g>
			<path class="st0" d="M4.7,22.3c-0.7,0-1.2-0.2-1.7-0.7c-0.5-0.5-0.7-1.3-0.6-2.1c0.1-0.8,0.5-1.5,1.1-2.2l4.9-4.9
				c0.2-0.2,0.5-0.2,0.7,0l3,3c0.1,0.1,0.1,0.2,0.1,0.4c0,0.1-0.1,0.3-0.1,0.4l-4.9,4.9C6.5,21.9,5.6,22.3,4.7,22.3L4.7,22.3z
				 M8.8,13.6l-4.6,4.6c-0.5,0.5-0.8,1-0.8,1.6c-0.1,0.5,0,0.9,0.3,1.2c0.3,0.3,0.7,0.4,1,0.4c0.6,0,1.3-0.3,1.9-0.9l4.6-4.6
				L8.8,13.6L8.8,13.6z"/>
		</g>
		<g>
			<path class="st0" d="M21.1,5.5c-0.5,0-1-0.2-1.4-0.6c-0.7-0.8-0.7-2,0-2.7l1.7-1.7c0.2-0.2,0.5-0.2,0.7,0l2,2
				c0.2,0.2,0.2,0.5,0,0.7L22.5,5C22.1,5.3,21.6,5.5,21.1,5.5L21.1,5.5z M21.8,1.6L20.5,3c-0.4,0.4-0.4,0.9,0,1.3
				c0.3,0.3,1,0.4,1.3,0l1.3-1.3L21.8,1.6L21.8,1.6z"/>
		</g>
		<g>
			<path class="st0" d="M14.6,10.6c-0.1,0-0.3,0-0.4-0.1c-0.2-0.2-0.2-0.5,0-0.7l5.5-5.5c0.2-0.2,0.5-0.2,0.7,0s0.2,0.5,0,0.7
				L15,10.5C14.9,10.6,14.7,10.6,14.6,10.6L14.6,10.6z"/>
		</g>
	</g>
	<g>
		<path class="st0" d="M19.4,22.8L19.4,22.8c-0.9,0-1.7-0.3-2.4-1L7.3,12c-2,0.4-4.1-0.2-5.5-1.7C0.1,8.7-0.4,6.2,0.4,3.9
			c0.1-0.2,0.2-0.3,0.4-0.3c0.2,0,0.3,0,0.5,0.1l2.9,2.9l2-0.5l0.5-2L3.8,1.2C3.6,1.1,3.6,0.9,3.6,0.7c0-0.2,0.2-0.3,0.3-0.4
			C4.6,0.1,5.4,0,6.1,0c1.6,0,3.1,0.6,4.3,1.8c1.4,1.4,2.1,3.5,1.7,5.5l9.8,9.8c0.6,0.6,1,1.5,1,2.4c0,0.9-0.3,1.7-1,2.4
			C21.2,22.4,20.3,22.8,19.4,22.8L19.4,22.8z M7.5,11c0.1,0,0.3,0.1,0.4,0.1l9.9,9.9c0.4,0.4,1,0.7,1.7,0.7l0,0
			c0.6,0,1.2-0.2,1.7-0.7c0.4-0.4,0.7-1,0.7-1.7c0-0.6-0.2-1.2-0.7-1.7l-9.9-9.9C11,7.7,11,7.5,11,7.3c0.4-1.7-0.1-3.6-1.3-4.8
			c-1.2-1.2-3-1.7-4.6-1.4l2.5,2.5c0.1,0.1,0.2,0.3,0.1,0.5L7,6.7C7,6.8,6.8,7,6.7,7L4.1,7.7c-0.2,0-0.4,0-0.5-0.1L1.1,5.1
			C0.8,6.7,1.3,8.5,2.5,9.7c1.3,1.3,3.1,1.8,4.8,1.3C7.4,11,7.4,11,7.5,11L7.5,11z"/>
	</g>
	<g>
		<path class="st0" d="M19.3,18.4c-0.5,0-0.8,0.4-0.8,0.8c0,0.5,0.4,0.8,0.8,0.8c0.5,0,0.8-0.4,0.8-0.8
			C20.1,18.7,19.7,18.4,19.3,18.4L19.3,18.4z"/>
	</g>
</g>
</svg>
