<?xml version="1.0" encoding="utf-8"?>
<!-- Generator: Adobe Illustrator 22.0.1, SVG Export Plug-In . SVG Version: 6.00 Build 0)  -->
<svg version="1.1" id="Capa_1" xmlns="http://www.w3.org/2000/svg" xmlns:xlink="http://www.w3.org/1999/xlink" x="0px" y="0px"
	 viewBox="0 0 128.5 39.8" style="enable-background:new 0 0 128.5 39.8;" xml:space="preserve">
<style type="text/css">
	.st0{fill:#919295;}
</style>
<g>
	<path class="st0" d="M90.8,39.2c0.2,0.3,0.6,0.5,1,0.5h8.7c0.5,0,1-0.3,1.1-0.8c1.1-2.8,1.8-4.6,2-5.2c0.6,0,3.2,0,6.1,0h0.2
		c3.3,0,6.8,0,7.6,0c0.2,1.1,0.9,3.8,1.1,5c0.1,0.6,0.6,1,1.2,1h7.6c0.4,0,0.7-0.2,0.9-0.5c0.2-0.3,0.3-0.7,0.2-1l-8.2-37.3
		c-0.1-0.6-0.6-0.9-1.2-0.9h-7.4c-3,0-4.7,1-5.7,3.3L90.7,38.1C90.5,38.5,90.6,38.9,90.8,39.2L90.8,39.2z M112.4,10.8l0.7,3.4
		l2.5,11.5h-9L112.4,10.8z M112.4,10.8"/>
	<path class="st0" d="M61.3,38c2.9,1,6.8,1.6,10.7,1.7h0c11,0,18.1-5.1,18.2-13.1c0-4.4-2.7-7.7-8.7-10.4c-3.7-1.8-5.9-3-5.9-4.8
		c0-1.6,2.1-3.3,6-3.3c0.1,0,0.2,0,0.3,0c3.3,0,5.6,0.7,7,1.3c0.3,0.1,0.7,0.1,1-0.1c0.3-0.2,0.5-0.5,0.6-0.8l1-5.8
		c0.1-0.6-0.2-1.2-0.8-1.4c-1.8-0.6-4.7-1.3-8.3-1.3C72,0.1,64.8,5.3,64.7,12.8c-0.1,5.5,5.2,8.6,9.1,10.4c4.1,1.9,5.4,3.1,5.4,4.7
		c0,2.6-3.3,3.7-6.2,3.7c-4.2,0-6.5-0.6-9.8-2c-0.3-0.1-0.7-0.1-1,0.1c-0.3,0.2-0.5,0.5-0.6,0.9l-1,6.1C60.4,37.2,60.8,37.8,61.3,38
		L61.3,38z M61.3,38"/>
	<path class="st0" d="M0.8,2.3c6.9,2.5,12.6,6.4,16.4,11.4c0.2,0.3,0.6,0.5,1,0.5c0.2,0,0.3,0,0.5-0.1c0.5-0.2,0.8-0.8,0.7-1.3
		l-2-9.5c0,0,0,0,0-0.1c-0.7-2.7-3-3.1-4.7-3.2c0,0,0,0,0,0L1.2,0h0C0.6,0,0.1,0.4,0,1C-0.1,1.6,0.2,2.1,0.8,2.3L0.8,2.3z M0.8,2.3"
		/>
	<path class="st0" d="M42.7,39.3c0.2,0.3,0.6,0.4,0.9,0.4H52c0.6,0,1.1-0.4,1.2-1l6.4-37.3c0.1-0.4,0-0.7-0.3-1s-0.6-0.4-0.9-0.4H50
		c-0.6,0-1.1,0.4-1.2,1l-6.4,37.3C42.4,38.7,42.5,39.1,42.7,39.3L42.7,39.3z M42.7,39.3"/>
	<path class="st0" d="M9.3,8.7c-0.4-0.3-1-0.3-1.4,0C7.4,8.9,7.2,9.5,7.4,10l8.5,28.9c0.1,0.5,0.6,0.9,1.2,0.9h0l9.7,0
		c0.5,0,0.9-0.3,1.1-0.7l16-37.2C44,1.4,44,1,43.8,0.6c-0.2-0.3-0.6-0.5-1-0.5h0l-8.8,0c-0.5,0-0.9,0.3-1.1,0.8L22.5,27.2l-1.1-4
		c0-0.1,0-0.1-0.1-0.2C19.8,19.2,15.4,13.3,9.3,8.7L9.3,8.7z M9.3,8.7"/>
</g>
</svg>
