<?xml version="1.0" encoding="utf-8"?>
<!-- Generator: Adobe Illustrator 22.0.1, SVG Export Plug-In . SVG Version: 6.00 Build 0)  -->
<svg version="1.1" id="Capa_1" xmlns="http://www.w3.org/2000/svg" xmlns:xlink="http://www.w3.org/1999/xlink" x="0px" y="0px"
	 viewBox="0 0 48.6 31.8" style="enable-background:new 0 0 48.6 31.8;" xml:space="preserve">
<style type="text/css">
	.st0{fill:#969499;}
</style>
<g>
	<g>
		<path class="st0" d="M38.8,31.8H8.6c-4.7,0-8.6-3.8-8.6-8.6c0-4.7,3.8-8.6,8.6-8.6h1.1c0-0.5-0.1-0.9-0.1-1.4
			C9.6,5.9,15.5,0,22.8,0c6.4,0,11.9,4.6,13,10.8c0.7-0.1,1.4-0.2,2.1-0.2c5.9,0,10.6,4.8,10.6,10.6c0,3-1.3,5.8-3.5,7.9
			C43.5,30.8,41.2,31.8,38.8,31.8L38.8,31.8z M8.6,16.7C5,16.7,2,19.6,2,23.2c0,3.6,2.9,6.5,6.5,6.5h30.2c1.8,0,3.6-0.8,4.8-2.2
			c1.9-1.7,2.9-4,2.9-6.4c0-4.7-3.8-8.6-8.6-8.6c-0.9,0-1.8,0.1-2.6,0.4c-0.3,0.1-0.6,0.1-0.9-0.1c-0.3-0.2-0.4-0.4-0.5-0.8
			C33.4,6.4,28.6,2,22.8,2c-6.2,0-11.2,5-11.2,11.2c0,0.7,0.1,1.5,0.2,2.2c0.1,0.3,0,0.6-0.2,0.8c-0.2,0.2-0.5,0.4-0.8,0.4H8.6
			L8.6,16.7z"/>
	</g>
</g>
</svg>
