<svg xmlns="http://www.w3.org/2000/svg" width="52.724" height="48.398" viewBox="0 0 52.724 48.398"><defs><style>.a{fill:#4d445a;}</style></defs><g transform="translate(0 -21.005)"><path class="a" d="M126,85.124a4.119,4.119,0,1,0,4.119-4.119A4.124,4.124,0,0,0,126,85.124Zm6.178,0a2.059,2.059,0,1,1-2.059-2.059A2.062,2.062,0,0,1,132.178,85.124Z" transform="translate(-113.025 -53.822)"/><path class="a" d="M66,31.3a10.3,10.3,0,0,0,19.738,4.119h18.98a1.028,1.028,0,0,0,.46-.109l6.178-3.089a1.03,1.03,0,0,0,.268-1.649L105.446,24.4a1.03,1.03,0,0,0-1.456,0l-2.361,2.361L99.268,24.4a1.03,1.03,0,0,0-1.456,0l-2.361,2.361L93.089,24.4a1.03,1.03,0,0,0-1.456,0l-2.788,2.788H85.738A10.3,10.3,0,0,0,66,31.3Zm18.067-2.746a1.03,1.03,0,0,0,.971.687h4.234a1.03,1.03,0,0,0,.728-.3l2.361-2.361,2.361,2.361a1.03,1.03,0,0,0,1.456,0L98.54,26.58l2.361,2.361a1.03,1.03,0,0,0,1.456,0l2.361-2.361,4.44,4.44-4.683,2.342H85.038a1.03,1.03,0,0,0-.971.687,8.238,8.238,0,1,1,0-5.492Z" transform="translate(-59.204 0)"/><circle class="a" cx="0.967" cy="0.967" r="0.967" transform="translate(39.257 59.392)"/><path class="a" d="M42.68,281.966l-5.894,3.912a4.139,4.139,0,0,0-3.582-2.1H28.19a2.054,2.054,0,0,1-1.361-.5l-.726-.638a10.318,10.318,0,0,0-13.605,0l-1.559,1.372-2.7,1.91v-.6a1.03,1.03,0,0,0-1.03-1.03H1.03A1.03,1.03,0,0,0,0,285.323v15.446a1.03,1.03,0,0,0,1.03,1.03H7.208a1.03,1.03,0,0,0,1.03-1.03v-2.574h3.238l17.771,3.584a1.031,1.031,0,0,0,.814-.18l7.185-5.285a1.03,1.03,0,0,0-1.22-1.659l-6.818,5.015-17.426-3.514a1.031,1.031,0,0,0-.2-.02H8.238v-7.693c4.4-3.112,3.644-2.477,5.621-4.257a8.254,8.254,0,0,1,10.884,0l.726.638a4.112,4.112,0,0,0,2.721,1.015H33.2a2.059,2.059,0,1,1,0,4.119H20.846a1.03,1.03,0,1,0,0,2.059H33.2A4.118,4.118,0,0,0,37.32,288l6.5-4.311a5.136,5.136,0,0,1,6.374.551l-6.7,4.928a1.03,1.03,0,1,0,1.22,1.659l7.6-5.587a1.03,1.03,0,0,0,.229-1.426A7.191,7.191,0,0,0,42.68,281.966Zm-36.5,17.772H2.059V286.352H6.178Z" transform="translate(0 -232.395)"/></g></svg>