<?xml version="1.0" encoding="utf-8"?>
<!-- Generator: Adobe Illustrator 22.0.1, SVG Export Plug-In . SVG Version: 6.00 Build 0)  -->
<svg version="1.1" id="Capa_1" xmlns="http://www.w3.org/2000/svg" xmlns:xlink="http://www.w3.org/1999/xlink" x="0px" y="0px"
	 viewBox="0 0 63.9 63.9" style="enable-background:new 0 0 63.9 63.9;" xml:space="preserve">
<style type="text/css">
	.st0{fill:#9DC44C;}
	.st1{fill:#FFFFFF;}
</style>
<g>
	<g>
		<circle class="st0" cx="32.2" cy="31.6" r="31"/>
		<g>
			<g>
				<path class="st0" d="M31.9,63.9C14.3,63.9,0,49.5,0,31.9S14.3,0,31.9,0s31.9,14.3,31.9,31.9C63.9,49.5,49.5,63.9,31.9,63.9
					L31.9,63.9z M31.9,1.4C15.1,1.4,1.4,15.1,1.4,31.9s13.7,30.5,30.5,30.5s30.5-13.7,30.5-30.5S48.8,1.4,31.9,1.4L31.9,1.4z"/>
			</g>
		</g>
		<g>
			<path class="st1" d="M27.2,45.1c-0.2,0-0.4-0.1-0.5-0.2L17.3,35c-0.3-0.3-0.3-0.7,0-1s0.7-0.3,1,0l8.8,9.3l20.2-24.7
				c0.2-0.3,0.7-0.3,1-0.1c0.3,0.2,0.3,0.7,0.1,1L27.7,44.9C27.6,45,27.4,45.1,27.2,45.1L27.2,45.1L27.2,45.1z"/>
		</g>
	</g>
</g>
</svg>
