<svg xmlns="http://www.w3.org/2000/svg" width="45.776" height="72.358" viewBox="0 0 45.776 72.358"><defs><style>.a,.b{fill:#009cdc;}.b{stroke:#009cdc;}</style></defs><g transform="translate(-966.565 -438.103)"><g transform="translate(-108.343 -16.006)"><path class="a" d="M360.193,37.779a8.223,8.223,0,1,1,8.2-8.222A8.221,8.221,0,0,1,360.193,37.779Zm0-13.156a4.934,4.934,0,1,0,4.918,4.934A4.932,4.932,0,0,0,360.193,24.623Z" transform="translate(729.031 432.776)"/><path class="a" d="M343.645,173.411l2.1-16.853a8.213,8.213,0,0,1,8.131-7.2h8.094a8.092,8.092,0,0,1,2.731.483,1.643,1.643,0,0,1-1.1,3.1,4.9,4.9,0,0,0-1.636-.293h-8.094A4.93,4.93,0,0,0,349,156.966l-2.1,16.853a1.631,1.631,0,0,0,.4,1.293,1.613,1.613,0,0,0,1.229.556h1.2a1.639,1.639,0,0,1,1.636,1.526l1.531,21.5h10.061l1.18-16.567a1.638,1.638,0,1,1,3.269.234l-1.288,18.093a1.649,1.649,0,0,1-1.636,1.526H351.366a1.639,1.639,0,0,1-1.633-1.523L348.2,178.946a4.929,4.929,0,0,1-4.557-5.536Z" transform="translate(731.301 324.492)"/></g><g transform="translate(953.717 455.236)"><g transform="translate(30.814 0)"><path class="b" d="M57.774,12.141,44.838.283A1.079,1.079,0,0,0,43.359.3L31.141,12.162a1.079,1.079,0,0,0-.327.774V29.968a1.078,1.078,0,0,0,1.078,1.078h8.983a1.078,1.078,0,0,0,1.078-1.078V22.063h5.031v7.905a1.078,1.078,0,0,0,1.078,1.078h8.983a1.078,1.078,0,0,0,1.078-1.078V12.936A1.078,1.078,0,0,0,57.774,12.141ZM55.968,28.89H49.14V20.985a1.078,1.078,0,0,0-1.078-1.078H40.875A1.078,1.078,0,0,0,39.8,20.985V28.89H32.97v-15.5L44.131,2.56,55.968,13.41V28.89Z" transform="translate(-30.814 0)"/></g></g></g></svg>