<svg xmlns="http://www.w3.org/2000/svg" width="45.176" height="36" viewBox="0 0 45.176 36">
  <g id="ed8b02d7a7bd5a9f3faa61f9eea01e76" transform="translate(0 -6.5)">
    <path id="Trazado_64321" data-name="Trazado 64321" d="M22.118,29.324a1.412,1.412,0,1,0,0-2.824,9.48,9.48,0,0,1-4.02-.832,13.478,13.478,0,0,0,3.034-5.521h.986a1.412,1.412,0,0,0,0-2.824H17.176V15.912a1.412,1.412,0,0,0-2.824,0v1.412H9.412a1.412,1.412,0,0,0,0,2.824h8.75a10.46,10.46,0,0,1-2.39,3.884,9.833,9.833,0,0,1-1.756-2.418,1.412,1.412,0,1,0-2.505,1.3,13.081,13.081,0,0,0,1.9,2.759,9.415,9.415,0,0,1-4,.826,1.412,1.412,0,1,0,0,2.824,11.817,11.817,0,0,0,6.331-1.7A11.8,11.8,0,0,0,22.118,29.324Z" transform="translate(-2.353 -2.353)" fill="#fff"/>
    <path id="Trazado_64322" data-name="Trazado 64322" d="M43.765,16.382H29.647a1.412,1.412,0,1,0,0,2.824H42.353V39.676H22.2l4.44-7.77a1.632,1.632,0,0,0,.186-.7V7.912A1.412,1.412,0,0,0,25.412,6.5h-24A1.412,1.412,0,0,0,0,7.912V31.206a1.412,1.412,0,0,0,1.412,1.412H18.353v8.471A1.435,1.435,0,0,0,19.766,42.5h24a1.412,1.412,0,0,0,1.412-1.412V17.794a1.412,1.412,0,0,0-1.412-1.412ZM2.824,9.324H24V29.794H2.824ZM22.979,32.618l-1.8,3.155V32.618Z" fill="#fff"/>
    <path id="Trazado_64323" data-name="Trazado 64323" d="M42,38.441v4.941a1.412,1.412,0,1,0,2.824,0V41.971h4.235v1.412a1.412,1.412,0,0,0,2.824,0V38.441a4.941,4.941,0,0,0-9.882,0Zm4.941-2.118a2.12,2.12,0,0,1,2.118,2.118v.706H44.824v-.706a2.12,2.12,0,0,1,2.118-2.118Z" transform="translate(-12.353 -7.941)" fill="#fff"/>
    <circle id="Elipse_593" data-name="Elipse 593" cx="1.412" cy="1.412" r="1.412" transform="translate(33.176 21.324)" fill="#fff"/>
  </g>
</svg>
