<?xml version="1.0" encoding="utf-8"?>
<!-- Generator: Adobe Illustrator 22.0.1, SVG Export Plug-In . SVG Version: 6.00 Build 0)  -->
<svg version="1.1" id="Capa_1" xmlns="http://www.w3.org/2000/svg" xmlns:xlink="http://www.w3.org/1999/xlink" x="0px" y="0px"
	 viewBox="0 0 447.3 191.5" style="enable-background:new 0 0 447.3 191.5;" xml:space="preserve">
<style type="text/css">
	.st0{fill:#CF4741;}
	.st1{fill:#CA3536;}
	.st2{fill:#383342;}
</style>
<g>
	<g>
		<path class="st0" d="M232.2,7.4c0.5,0,0.6-0.3,0.2-0.6l-8-6.5c-0.4-0.3-1.1-0.4-1.6,0l-9.1,6.6c-0.4,0.3-0.4,0.6,0.2,0.6H232.2z"
			/>
		<path class="st0" d="M242.4,14.8c-0.4-0.3-0.8-0.2-0.8,0.4v7.3c0,0.5-0.4,1.3-0.8,1.6l-17.4,12.1c-0.5,0.3-1.2,0.3-1.7,0
			l-16.9-10.8c-0.5-0.3-0.8-1-0.8-1.5v-8.9c0-0.5-0.4-0.7-0.8-0.4l-5.8,4.2c-0.4,0.3-0.8,1-0.8,1.6V51c0,0.5,0.4,1,1,1h19.3
			c0.6,0,1-0.5,1-1v-5.8c0-0.5,0.4-1,1-1h5.7c0.6,0,1,0.5,1,1V51c0,0.5,0.5,1,1,1h20.3c0.6,0,1-0.5,1-1V20.1c0-0.5-0.4-1.3-0.8-1.6
			L242.4,14.8z"/>
		<path class="st1" d="M194.4,17.8"/>
		<polygon class="st0" points="210.9,16.9 221.8,29.3 242.1,4.5 221.2,20.5 		"/>
	</g>
	<g>
		<path class="st2" d="M103,179v-37.1h2.6v34.6h17.7v2.4H103z"/>
		<path class="st2" d="M140.2,179.5c-4,0-7.1-1.2-9.4-3.7c-2.2-2.5-3.4-5.9-3.4-10.4c0-4.4,1.1-7.9,3.2-10.6c2.2-2.6,5.1-4,8.7-4
			c3.2,0,5.8,1.1,7.7,3.4c1.9,2.3,2.8,5.3,2.8,9.2v2h-19.9c0,3.8,0.9,6.7,2.6,8.7c1.7,2,4.2,3,7.4,3c1.6,0,3-0.1,4.1-0.3
			c1.2-0.2,2.7-0.7,4.5-1.4v2.3c-1.6,0.7-3,1.1-4.3,1.4C143.2,179.4,141.8,179.5,140.2,179.5z M139.4,153.1c-2.7,0-4.8,0.9-6.4,2.6
			c-1.6,1.7-2.5,4.3-2.8,7.6h17c0-3.2-0.7-5.7-2.1-7.5C143.8,154,141.9,153.1,139.4,153.1z"/>
		<path class="st2" d="M164.8,177.3c1.6,0,3-0.1,4.2-0.4v2c-1.2,0.4-2.6,0.6-4.2,0.6c-2.4,0-4.2-0.7-5.4-2c-1.2-1.3-1.7-3.3-1.7-6.1
			v-17.8h-4.1v-1.5l4.1-1.1l1.3-6.2h1.3v6.7h8.1v2.2h-8.1v17.4c0,2.1,0.4,3.7,1.1,4.7C162.1,176.8,163.2,177.3,164.8,177.3z"/>
		<path class="st2" d="M176.8,141.9l0.3,0.5c-1.3,4.5-2.7,8.5-4.4,12.2H171c0.5-1.6,1-3.7,1.5-6.1c0.5-2.5,1-4.7,1.2-6.6H176.8z"/>
		<path class="st2" d="M199.5,171.8c0,2.5-0.9,4.4-2.8,5.7c-1.9,1.3-4.5,2-8,2c-3.7,0-6.6-0.6-8.8-1.7v-2.7c2.8,1.4,5.7,2.1,8.8,2.1
			c2.7,0,4.8-0.5,6.2-1.4c1.4-0.9,2.1-2.1,2.1-3.6c0-1.4-0.6-2.6-1.7-3.5c-1.1-0.9-3-1.9-5.5-2.8c-2.8-1-4.7-1.9-5.8-2.6
			c-1.1-0.7-2-1.5-2.5-2.4c-0.6-0.9-0.8-2-0.8-3.3c0-2.1,0.9-3.7,2.6-4.9c1.7-1.2,4.2-1.8,7.3-1.8c3,0,5.8,0.6,8.5,1.7l-0.9,2.3
			c-2.7-1.1-5.2-1.7-7.5-1.7c-2.2,0-4,0.4-5.3,1.1c-1.3,0.7-2,1.8-2,3.1c0,1.4,0.5,2.6,1.5,3.4c1,0.9,3,1.8,6,2.9
			c2.5,0.9,4.3,1.7,5.4,2.4s2,1.5,2.5,2.4C199.3,169.5,199.5,170.6,199.5,171.8z"/>
		<path class="st2" d="M231.8,150.9c3.9,0,6.8,1.2,8.7,3.6c2,2.4,2.9,6,2.9,10.6c0,4.6-1,8.1-3.1,10.6c-2.1,2.5-4.9,3.7-8.7,3.7
			c-2,0-3.7-0.4-5.3-1.2c-1.6-0.8-2.8-2-3.7-3.4h-0.2l-0.7,4.2h-1.6v-39.5h2.5v9.9c0,1.5,0,2.9-0.1,4.1l-0.1,2.2h0.2
			c1-1.7,2.3-2.9,3.8-3.7C227.9,151.3,229.7,150.9,231.8,150.9z M231.7,153.2c-3.2,0-5.6,0.9-7,2.8c-1.4,1.9-2.1,4.9-2.1,9.2v0.4
			c0,4.2,0.7,7.1,2.2,9c1.5,1.8,3.7,2.7,6.8,2.7c3,0,5.3-1.1,6.8-3.2c1.5-2.1,2.3-5.1,2.3-9C240.7,157.2,237.7,153.2,231.7,153.2z"
			/>
		<path class="st2" d="M262.2,179.5c-4,0-7.1-1.2-9.4-3.7c-2.2-2.5-3.4-5.9-3.4-10.4c0-4.4,1.1-7.9,3.2-10.6c2.2-2.6,5.1-4,8.7-4
			c3.2,0,5.8,1.1,7.7,3.4c1.9,2.3,2.8,5.3,2.8,9.2v2h-19.9c0,3.8,0.9,6.7,2.6,8.7c1.7,2,4.2,3,7.4,3c1.6,0,3-0.1,4.1-0.3
			c1.2-0.2,2.7-0.7,4.5-1.4v2.3c-1.6,0.7-3,1.1-4.3,1.4C265.2,179.4,263.8,179.5,262.2,179.5z M261.4,153.1c-2.7,0-4.8,0.9-6.4,2.6
			c-1.6,1.7-2.5,4.3-2.8,7.6h17c0-3.2-0.7-5.7-2.1-7.5C265.8,154,263.9,153.1,261.4,153.1z"/>
		<path class="st2" d="M301,151.4v1.7l-5.7,0.4c1.5,1.9,2.3,4,2.3,6.2c0,2.7-0.9,4.8-2.6,6.5c-1.8,1.6-4.1,2.5-7.1,2.5
			c-1.3,0-2.1-0.1-2.6-0.2c-1,0.5-1.8,1.1-2.3,1.9s-0.8,1.5-0.8,2.3c0,0.9,0.3,1.5,1,1.9c0.7,0.4,1.8,0.6,3.4,0.6h4.8
			c3,0,5.3,0.6,6.9,1.8c1.6,1.2,2.4,3,2.4,5.4c0,2.9-1.2,5.2-3.5,6.7s-5.7,2.4-10.1,2.4c-3.5,0-6.1-0.7-8.1-2
			c-1.9-1.3-2.9-3.2-2.9-5.6c0-1.9,0.6-3.5,1.8-4.7c1.2-1.3,2.8-2.1,4.8-2.6c-0.8-0.4-1.5-0.9-2-1.5c-0.5-0.7-0.7-1.4-0.7-2.2
			c0-1.8,1.2-3.5,3.5-4.9c-1.6-0.7-2.9-1.7-3.8-3.1c-0.9-1.4-1.3-3-1.3-4.9c0-2.8,0.9-5,2.6-6.6c1.7-1.7,4.1-2.5,7.1-2.5
			c1.8,0,3.2,0.2,4.2,0.5H301z M278.7,183.7c0,3.8,2.8,5.7,8.4,5.7c7.2,0,10.9-2.3,10.9-6.9c0-1.7-0.6-2.9-1.7-3.6
			c-1.1-0.7-3-1.1-5.5-1.1h-4.5C281.3,177.7,278.7,179.7,278.7,183.7z M280.8,160c0,2.1,0.6,3.8,1.9,5c1.3,1.2,3,1.8,5.2,1.8
			c2.3,0,4.1-0.6,5.3-1.7s1.8-2.9,1.8-5.1c0-2.3-0.6-4.1-1.9-5.3c-1.3-1.2-3-1.8-5.3-1.8c-2.2,0-3.9,0.6-5.2,1.9
			C281.5,156,280.8,157.8,280.8,160z"/>
		<path class="st2" d="M306.3,143.8c0-1.6,0.5-2.4,1.6-2.4c0.5,0,0.9,0.2,1.2,0.6c0.3,0.4,0.4,1,0.4,1.8c0,0.8-0.1,1.4-0.4,1.8
			c-0.3,0.4-0.7,0.7-1.2,0.7C306.9,146.2,306.3,145.4,306.3,143.8z M309.2,179h-2.5v-27.6h2.5V179z"/>
		<path class="st2" d="M337.6,179v-17.9c0-2.8-0.6-4.8-1.7-6c-1.2-1.3-3-1.9-5.4-1.9c-3.3,0-5.7,0.8-7.2,2.5
			c-1.5,1.7-2.3,4.4-2.3,8.1V179h-2.5v-27.6h2.1l0.5,3.8h0.2c1.8-2.9,5-4.3,9.6-4.3c6.3,0,9.4,3.4,9.4,10.1v18H337.6z"/>
	</g>
	<g>
		<path class="st2" d="M28.2,129h-6.5l-0.9-21.3l-0.2-4.7l0.1-2.7h-0.2c-0.8,2.4-1.8,4.9-3,7.4L7.8,129H1.3L0,92.1h5.8l0.5,21.5
			c0,2.3-0.1,5.2-0.3,8.7h0.2c1.4-3.7,2.6-6.7,3.6-9l9.8-21.3h5.7l0.8,21.2l0.1,4.3l-0.1,4.8h0.2c0.5-1.5,1.1-3.1,1.8-5
			s1.2-3.1,1.5-3.9l9.1-21.4h6.2L28.2,129z"/>
		<path class="st2" d="M53,129.6c-3.3,0-5.9-0.9-7.8-2.8c-1.9-1.9-2.8-4.5-2.8-7.8c0-3.3,0.7-6.4,2-9.3c1.3-2.9,3.1-5.1,5.3-6.7
			c2.2-1.6,4.7-2.4,7.5-2.4c2.7,0,4.8,0.6,6.3,1.8c1.5,1.2,2.3,3,2.3,5.2c0,3.1-1.4,5.5-4.2,7.2c-2.8,1.7-6.8,2.6-12,2.6h-1.1
			l-0.1,0.8v0.7c0,1.9,0.5,3.3,1.4,4.4c1,1.1,2.4,1.6,4.3,1.6c1.2,0,2.4-0.2,3.6-0.5c1.2-0.3,2.6-0.9,4.2-1.6v4.7
			c-1.6,0.7-3.1,1.3-4.5,1.6C56.2,129.4,54.7,129.6,53,129.6z M56.9,105.1c-1.6,0-3.1,0.7-4.6,2.2c-1.4,1.5-2.4,3.4-3.1,5.7H50
			c3.2,0,5.6-0.5,7.4-1.4c1.8-0.9,2.7-2.2,2.7-3.8c0-0.9-0.3-1.5-0.8-2C58.7,105.4,57.9,105.1,56.9,105.1z"/>
		<path class="st2" d="M80.3,92.1l-3.8,13.3h-3.8l1.8-13.3H80.3z"/>
		<path class="st2" d="M85.3,129l-3.3-28h5.9l1.4,15.1c0.2,2.7,0.4,5.2,0.4,7.5h0.2c0.5-1.2,1.1-2.6,1.8-4.2
			c0.7-1.5,1.3-2.6,1.6-3.3l7.9-15.1h6.3l-15.1,28H85.3z"/>
		<path class="st2" d="M117.6,129.6c-3.3,0-5.9-0.9-7.8-2.8c-1.9-1.9-2.8-4.5-2.8-7.8c0-3.3,0.7-6.4,2-9.3c1.3-2.9,3.1-5.1,5.3-6.7
			c2.2-1.6,4.7-2.4,7.5-2.4c2.7,0,4.8,0.6,6.3,1.8c1.5,1.2,2.3,3,2.3,5.2c0,3.1-1.4,5.5-4.2,7.2c-2.8,1.7-6.8,2.6-12,2.6h-1.1
			l-0.1,0.8v0.7c0,1.9,0.5,3.3,1.4,4.4c1,1.1,2.4,1.6,4.3,1.6c1.2,0,2.4-0.2,3.6-0.5c1.2-0.3,2.6-0.9,4.2-1.6v4.7
			c-1.6,0.7-3.1,1.3-4.5,1.6C120.8,129.4,119.3,129.6,117.6,129.6z M121.5,105.1c-1.6,0-3.1,0.7-4.6,2.2c-1.4,1.5-2.4,3.4-3.1,5.7
			h0.7c3.2,0,5.6-0.5,7.4-1.4c1.8-0.9,2.7-2.2,2.7-3.8c0-0.9-0.3-1.5-0.8-2C123.3,105.4,122.5,105.1,121.5,105.1z"/>
		<path class="st2" d="M165.7,100.6c3.7,0,5.8,2,6.4,5.9h0.2c1.3-2,2.7-3.4,4.3-4.4c1.6-1,3.3-1.5,5-1.5c2.2,0,3.9,0.6,5.1,1.9
			c1.2,1.3,1.8,3.1,1.8,5.4c0,1.1-0.2,2.6-0.6,4.6l-3.5,16.5h-5.9l3.6-17c0.3-1.6,0.5-2.7,0.5-3.4c0-2.2-1-3.3-3.1-3.3
			c-1.8,0-3.5,1-5.1,3.1c-1.6,2.1-2.7,4.9-3.5,8.3l-2.6,12.2h-5.9l3.6-17c0.3-1.4,0.4-2.5,0.4-3.2c0-2.3-1-3.4-3-3.4
			c-1.9,0-3.6,1.1-5.1,3.2s-2.7,5-3.5,8.5l-2.5,11.9h-6l6-28h4.7l-0.5,5.2h0.2C159.3,102.5,162.3,100.6,165.7,100.6z"/>
		<path class="st2" d="M201.4,129.6c-2.4,0-4.3-0.9-5.6-2.6c-1.4-1.7-2.1-4.1-2.1-7.2c0-3.4,0.6-6.6,1.8-9.6c1.2-3,2.8-5.3,4.8-7
			c2.1-1.7,4.3-2.6,6.8-2.6c1.6,0,3,0.4,4.2,1.2c1.2,0.8,2.1,1.9,2.8,3.4h0.3l1.6-4h4.6l-6,28h-4.6l0.5-4.4h-0.2
			C207.5,127.9,204.6,129.6,201.4,129.6z M203.6,124.8c1.4,0,2.7-0.7,4.1-2c1.3-1.3,2.4-3.1,3.3-5.2c0.9-2.2,1.3-4.6,1.3-7.2
			c0-1.5-0.4-2.7-1.2-3.6c-0.8-0.9-1.8-1.4-3.1-1.4c-1.4,0-2.8,0.6-4,1.9s-2.3,3.1-3,5.3c-0.8,2.2-1.1,4.5-1.1,6.9
			c0,1.7,0.3,3,1,3.9C201.4,124.3,202.3,124.8,203.6,124.8z"/>
		<path class="st2" d="M237,100.6c3,0,5.3,1.5,6.8,4.5h0.2c0.2-2.5,0.5-4.6,0.9-6.3l1.9-9.1h5.9l-8.3,39.3h-4.7l0.5-4.4h-0.2
			c-1.5,1.8-2.9,3.1-4.3,3.8c-1.4,0.8-2.8,1.1-4.4,1.1c-2.4,0-4.3-0.9-5.7-2.6c-1.4-1.7-2-4.1-2-7.3c0-3.5,0.6-6.7,1.8-9.7
			c1.2-3,2.8-5.3,4.8-7C232.3,101.4,234.6,100.6,237,100.6z M233.6,124.8c1.4,0,2.8-0.7,4.1-2.1c1.4-1.4,2.4-3.2,3.3-5.4
			c0.8-2.2,1.2-4.5,1.2-6.8c0-1.5-0.4-2.8-1.1-3.7c-0.7-0.9-1.9-1.4-3.4-1.4c-1.4,0-2.8,0.6-4,1.9c-1.2,1.3-2.2,3.1-3,5.3
			c-0.7,2.3-1.1,4.6-1.1,6.9C229.7,123,231,124.8,233.6,124.8z"/>
		<path class="st2" d="M264.5,129.6c-3.3,0-5.9-0.9-7.8-2.8c-1.9-1.9-2.8-4.5-2.8-7.8c0-3.3,0.7-6.4,2-9.3c1.3-2.9,3.1-5.1,5.3-6.7
			c2.2-1.6,4.7-2.4,7.5-2.4c2.7,0,4.8,0.6,6.3,1.8c1.5,1.2,2.3,3,2.3,5.2c0,3.1-1.4,5.5-4.2,7.2c-2.8,1.7-6.8,2.6-12,2.6H260
			l-0.1,0.8v0.7c0,1.9,0.5,3.3,1.4,4.4c1,1.1,2.4,1.6,4.3,1.6c1.2,0,2.4-0.2,3.6-0.5c1.2-0.3,2.6-0.9,4.2-1.6v4.7
			c-1.6,0.7-3.1,1.3-4.5,1.6C267.7,129.4,266.2,129.6,264.5,129.6z M268.4,105.1c-1.6,0-3.1,0.7-4.6,2.2c-1.4,1.5-2.4,3.4-3.1,5.7
			h0.7c3.2,0,5.6-0.5,7.4-1.4c1.8-0.9,2.7-2.2,2.7-3.8c0-0.9-0.3-1.5-0.8-2C270.2,105.4,269.4,105.1,268.4,105.1z"/>
		<path class="st2" d="M299.4,129h-6l6-28h5.9L299.4,129z M300.5,94.2c0-1.1,0.3-2.1,1-2.8c0.7-0.7,1.6-1.1,2.8-1.1
			c0.9,0,1.6,0.2,2.2,0.7c0.6,0.4,0.8,1.1,0.8,2c0,1.2-0.3,2.1-1,2.8c-0.7,0.7-1.6,1-2.7,1c-0.9,0-1.6-0.2-2.2-0.7
			C300.8,95.8,300.5,95.2,300.5,94.2z"/>
		<path class="st2" d="M317.9,124.8c1.1,0,2.4-0.3,3.8-0.8v4.5c-0.6,0.3-1.4,0.5-2.4,0.8c-1,0.2-2,0.3-3,0.3c-4.6,0-6.9-2.1-6.9-6.2
			c0-1,0.1-2.1,0.4-3.3l3.1-14.4h-4.1l0.5-2.8l4.8-2.1l3.3-5.9h3.7l-1.3,6.2h7.1l-1,4.5h-7l-3.1,14.5c-0.2,0.9-0.3,1.7-0.3,2.3
			c0,0.7,0.2,1.3,0.6,1.7S317.1,124.8,317.9,124.8z"/>
		<path class="st2" d="M351.8,129.6c-3.3,0-5.9-0.9-7.8-2.8c-1.9-1.9-2.8-4.5-2.8-7.8c0-3.3,0.7-6.4,2-9.3c1.3-2.9,3.1-5.1,5.3-6.7
			c2.2-1.6,4.7-2.4,7.5-2.4c2.7,0,4.8,0.6,6.3,1.8c1.5,1.2,2.3,3,2.3,5.2c0,3.1-1.4,5.5-4.2,7.2c-2.8,1.7-6.8,2.6-12,2.6h-1.1
			l-0.1,0.8v0.7c0,1.9,0.5,3.3,1.4,4.4c1,1.1,2.4,1.6,4.3,1.6c1.2,0,2.4-0.2,3.6-0.5c1.2-0.3,2.6-0.9,4.2-1.6v4.7
			c-1.6,0.7-3.1,1.3-4.5,1.6C355,129.4,353.5,129.6,351.8,129.6z M355.7,105.1c-1.6,0-3.1,0.7-4.6,2.2c-1.4,1.5-2.4,3.4-3.1,5.7h0.7
			c3.2,0,5.6-0.5,7.4-1.4c1.8-0.9,2.7-2.2,2.7-3.8c0-0.9-0.3-1.5-0.8-2C357.6,105.4,356.8,105.1,355.7,105.1z"/>
		<path class="st2" d="M376.2,129.6c-2.4,0-4.3-0.9-5.6-2.6c-1.4-1.7-2.1-4.1-2.1-7.2c0-3.4,0.6-6.6,1.8-9.6c1.2-3,2.8-5.3,4.8-7
			c2.1-1.7,4.3-2.6,6.8-2.6c1.6,0,3,0.4,4.2,1.2c1.2,0.8,2.1,1.9,2.8,3.4h0.3l1.6-4h4.6l-6,28h-4.6l0.5-4.4H385
			C382.3,127.9,379.4,129.6,376.2,129.6z M378.3,124.8c1.4,0,2.7-0.7,4.1-2c1.3-1.3,2.4-3.1,3.3-5.2c0.9-2.2,1.3-4.6,1.3-7.2
			c0-1.5-0.4-2.7-1.2-3.6c-0.8-0.9-1.8-1.4-3.1-1.4c-1.4,0-2.8,0.6-4,1.9s-2.3,3.1-3,5.3c-0.8,2.2-1.1,4.5-1.1,6.9
			c0,1.7,0.3,3,1,3.9C376.2,124.3,377.1,124.8,378.3,124.8z"/>
		<path class="st2" d="M415.8,120.5c0,2.9-1,5.2-3,6.7c-2,1.6-4.8,2.4-8.3,2.4c-3.2,0-5.9-0.6-8.1-1.7v-5.1c2.6,1.5,5.2,2.3,7.9,2.3
			c1.6,0,3-0.3,4-1c1-0.7,1.5-1.6,1.5-2.8c0-0.9-0.3-1.6-0.9-2.2s-1.8-1.4-3.6-2.5c-2.1-1.1-3.6-2.3-4.5-3.5
			c-0.9-1.2-1.3-2.6-1.3-4.2c0-2.6,0.9-4.7,2.7-6.1c1.8-1.5,4.2-2.2,7.3-2.2c3.3,0,6.2,0.7,8.7,2.1l-1.9,4.5
			c-2.4-1.3-4.6-1.9-6.7-1.9c-1.2,0-2.2,0.3-3,0.8c-0.8,0.6-1.2,1.3-1.2,2.3c0,0.8,0.3,1.4,0.8,2c0.6,0.6,1.7,1.3,3.4,2.3
			c1.8,1,3,1.8,3.8,2.6c0.7,0.7,1.3,1.5,1.7,2.3C415.6,118.4,415.8,119.4,415.8,120.5z"/>
		<path class="st2" d="M421.9,101.1h5.9l1.6,13.4c0.2,1,0.3,2.5,0.4,4.4c0.1,1.9,0.2,3.4,0.2,4.6h0.2c1.4-3.6,2.6-6.3,3.4-7.9
			l7.4-14.5h6.4l-17.4,32.4c-1.5,2.8-3.2,4.8-5,6.1s-3.9,1.9-6.3,1.9c-1.3,0-2.5-0.2-3.6-0.5v-4.8c1.3,0.3,2.3,0.4,3.2,0.4
			c1.2,0,2.4-0.4,3.4-1.1c1-0.7,2.1-2,3.1-3.9l1.3-2.3L421.9,101.1z"/>
	</g>
</g>
</svg>
