<?xml version="1.0" encoding="utf-8"?>
<!-- Generator: Adobe Illustrator 22.0.1, SVG Export Plug-In . SVG Version: 6.00 Build 0)  -->
<svg version="1.1" id="Capa_1" xmlns="http://www.w3.org/2000/svg" xmlns:xlink="http://www.w3.org/1999/xlink" x="0px" y="0px"
	 viewBox="0 0 945.4 2" style="enable-background:new 0 0 945.4 2;" xml:space="preserve">
<style type="text/css">
	.st0{fill:#383342;}
</style>
<g>
	<g>
		<path class="st0" d="M19.7,2c-0.6,0-1-0.4-1-1s0.4-1,1-1h0c0.6,0,1,0.4,1,1S20.2,2,19.7,2z"/>
	</g>
	<g>
		<path class="st0" d="M1,2C0.5,2,0,1.6,0,1s0.4-1,1-1h0c0.6,0,1,0.4,1,1S1.6,2,1,2z"/>
	</g>
	<path class="st0" d="M732.2,2h-0.1c-0.6,0-1-0.4-1-1s0.4-1,1-1h0.1c0.6,0,1,0.4,1,1S732.7,2,732.2,2z"/>
	<path class="st0" d="M717,2h-0.1c-0.6,0-1-0.4-1-1s0.4-1,1-1h0.1c0.6,0,1,0.4,1,1S717.6,2,717,2z"/>
	<path class="st0" d="M701.9,2h-0.1c-0.6,0-1-0.4-1-1s0.4-1,1-1h0.1c0.6,0,1,0.4,1,1S702.4,2,701.9,2z"/>
	<path class="st0" d="M686.7,2h-0.1c-0.6,0-1-0.4-1-1s0.4-1,1-1h0.1c0.6,0,1,0.4,1,1S687.3,2,686.7,2z"/>
	<path class="st0" d="M671.5,2h-0.1c-0.6,0-1-0.4-1-1s0.4-1,1-1h0.1c0.6,0,1,0.4,1,1S672.1,2,671.5,2z"/>
	<path class="st0" d="M656.4,2h-0.1c-0.6,0-1-0.4-1-1s0.4-1,1-1h0.1c0.6,0,1,0.4,1,1S656.9,2,656.4,2z"/>
	<path class="st0" d="M641.2,2h-0.1c-0.6,0-1-0.4-1-1s0.4-1,1-1h0.1c0.6,0,1,0.4,1,1S641.8,2,641.2,2z"/>
	<path class="st0" d="M626.1,2H626c-0.6,0-1-0.4-1-1s0.4-1,1-1h0.1c0.6,0,1,0.4,1,1S626.6,2,626.1,2z"/>
	<path class="st0" d="M610.9,2h-0.1c-0.6,0-1-0.4-1-1s0.4-1,1-1h0.1c0.6,0,1,0.4,1,1S611.5,2,610.9,2z"/>
	<path class="st0" d="M595.7,2h-0.1c-0.6,0-1-0.4-1-1s0.4-1,1-1h0.1c0.6,0,1,0.4,1,1S596.3,2,595.7,2z"/>
	<path class="st0" d="M580.6,2h-0.1c-0.6,0-1-0.4-1-1s0.4-1,1-1h0.1c0.6,0,1,0.4,1,1S581.1,2,580.6,2z"/>
	<path class="st0" d="M565.4,2h-0.1c-0.6,0-1-0.4-1-1s0.4-1,1-1h0.1c0.6,0,1,0.4,1,1S566,2,565.4,2z"/>
	<path class="st0" d="M550.3,2h-0.1c-0.6,0-1-0.4-1-1s0.4-1,1-1h0.1c0.6,0,1,0.4,1,1S550.8,2,550.3,2z"/>
	<path class="st0" d="M535.1,2H535c-0.6,0-1-0.4-1-1s0.4-1,1-1h0.1c0.6,0,1,0.4,1,1S535.7,2,535.1,2z"/>
	<path class="st0" d="M519.9,2h-0.1c-0.6,0-1-0.4-1-1s0.4-1,1-1h0.1c0.6,0,1,0.4,1,1S520.5,2,519.9,2z"/>
	<path class="st0" d="M504.8,2h-0.1c-0.6,0-1-0.4-1-1s0.4-1,1-1h0.1c0.6,0,1,0.4,1,1S505.3,2,504.8,2z"/>
	<path class="st0" d="M489.6,2h-0.1c-0.6,0-1-0.4-1-1s0.4-1,1-1h0.1c0.6,0,1,0.4,1,1S490.2,2,489.6,2z"/>
	<path class="st0" d="M474.5,2h-0.1c-0.6,0-1-0.4-1-1s0.4-1,1-1h0.1c0.6,0,1,0.4,1,1S475,2,474.5,2z"/>
	<path class="st0" d="M459.3,2h-0.1c-0.6,0-1-0.4-1-1s0.4-1,1-1h0.1c0.6,0,1,0.4,1,1S459.9,2,459.3,2z"/>
	<path class="st0" d="M444.2,2h-0.1c-0.6,0-1-0.4-1-1s0.4-1,1-1h0.1c0.6,0,1,0.4,1,1S444.7,2,444.2,2z"/>
	<path class="st0" d="M429,2h-0.1c-0.6,0-1-0.4-1-1s0.4-1,1-1h0.1c0.6,0,1,0.4,1,1S429.5,2,429,2z"/>
	<path class="st0" d="M413.8,2h-0.1c-0.6,0-1-0.4-1-1s0.4-1,1-1h0.1c0.6,0,1,0.4,1,1S414.4,2,413.8,2z"/>
	<path class="st0" d="M398.7,2h-0.1c-0.6,0-1-0.4-1-1s0.4-1,1-1h0.1c0.6,0,1,0.4,1,1S399.2,2,398.7,2z"/>
	<path class="st0" d="M383.5,2h-0.1c-0.6,0-1-0.4-1-1s0.4-1,1-1h0.1c0.6,0,1,0.4,1,1S384.1,2,383.5,2z"/>
	<path class="st0" d="M368.4,2h-0.1c-0.6,0-1-0.4-1-1s0.4-1,1-1h0.1c0.6,0,1,0.4,1,1S368.9,2,368.4,2z"/>
	<path class="st0" d="M353.2,2h-0.1c-0.6,0-1-0.4-1-1s0.4-1,1-1h0.1c0.6,0,1,0.4,1,1S353.7,2,353.2,2z"/>
	<path class="st0" d="M338,2h-0.1c-0.6,0-1-0.4-1-1s0.4-1,1-1h0.1c0.6,0,1,0.4,1,1S338.6,2,338,2z"/>
	<path class="st0" d="M322.9,2h-0.1c-0.6,0-1-0.4-1-1s0.4-1,1-1h0.1c0.6,0,1,0.4,1,1S323.4,2,322.9,2z"/>
	<path class="st0" d="M307.7,2h-0.1c-0.6,0-1-0.4-1-1s0.4-1,1-1h0.1c0.6,0,1,0.4,1,1S308.3,2,307.7,2z"/>
	<path class="st0" d="M292.6,2h-0.1c-0.6,0-1-0.4-1-1s0.4-1,1-1h0.1c0.6,0,1,0.4,1,1S293.1,2,292.6,2z"/>
	<path class="st0" d="M277.4,2h-0.1c-0.6,0-1-0.4-1-1s0.4-1,1-1h0.1c0.6,0,1,0.4,1,1S278,2,277.4,2z"/>
	<path class="st0" d="M262.2,2h-0.1c-0.6,0-1-0.4-1-1s0.4-1,1-1h0.1c0.6,0,1,0.4,1,1S262.8,2,262.2,2z"/>
	<path class="st0" d="M247.1,2H247c-0.6,0-1-0.4-1-1s0.4-1,1-1h0.1c0.6,0,1,0.4,1,1S247.6,2,247.1,2z"/>
	<path class="st0" d="M231.9,2h-0.1c-0.6,0-1-0.4-1-1s0.4-1,1-1h0.1c0.6,0,1,0.4,1,1S232.5,2,231.9,2z"/>
	<path class="st0" d="M216.8,2h-0.1c-0.6,0-1-0.4-1-1s0.4-1,1-1h0.1c0.6,0,1,0.4,1,1S217.3,2,216.8,2z"/>
	<path class="st0" d="M201.6,2h-0.1c-0.6,0-1-0.4-1-1s0.4-1,1-1h0.1c0.6,0,1,0.4,1,1S202.2,2,201.6,2z"/>
	<path class="st0" d="M186.4,2h-0.1c-0.6,0-1-0.4-1-1s0.4-1,1-1h0.1c0.6,0,1,0.4,1,1S187,2,186.4,2z"/>
	<path class="st0" d="M171.3,2h-0.1c-0.6,0-1-0.4-1-1s0.4-1,1-1h0.1c0.6,0,1,0.4,1,1S171.8,2,171.3,2z"/>
	<path class="st0" d="M156.1,2H156c-0.6,0-1-0.4-1-1s0.4-1,1-1h0.1c0.6,0,1,0.4,1,1S156.7,2,156.1,2z"/>
	<path class="st0" d="M141,2h-0.1c-0.6,0-1-0.4-1-1s0.4-1,1-1h0.1c0.6,0,1,0.4,1,1S141.5,2,141,2z"/>
	<path class="st0" d="M125.8,2h-0.1c-0.6,0-1-0.4-1-1s0.4-1,1-1h0.1c0.6,0,1,0.4,1,1S126.4,2,125.8,2z"/>
	<path class="st0" d="M110.6,2h-0.1c-0.6,0-1-0.4-1-1s0.4-1,1-1h0.1c0.6,0,1,0.4,1,1S111.2,2,110.6,2z"/>
	<path class="st0" d="M95.5,2h-0.1c-0.6,0-1-0.4-1-1s0.4-1,1-1h0.1c0.6,0,1,0.4,1,1S96,2,95.5,2z"/>
	<path class="st0" d="M80.3,2h-0.1c-0.6,0-1-0.4-1-1s0.4-1,1-1h0.1c0.6,0,1,0.4,1,1S80.9,2,80.3,2z"/>
	<path class="st0" d="M65.2,2h-0.1c-0.6,0-1-0.4-1-1s0.4-1,1-1h0.1c0.6,0,1,0.4,1,1S65.7,2,65.2,2z"/>
	<path class="st0" d="M50,2h-0.1c-0.6,0-1-0.4-1-1s0.4-1,1-1H50c0.6,0,1,0.4,1,1S50.6,2,50,2z"/>
	<path class="st0" d="M34.9,2h-0.1c-0.6,0-1-0.4-1-1s0.4-1,1-1h0.1c0.6,0,1,0.4,1,1S35.4,2,34.9,2z"/>
	<g>
		<path class="st0" d="M747.3,2c-0.6,0-1-0.4-1-1s0.4-1,1-1h0c0.6,0,1,0.4,1,1S747.8,2,747.3,2z"/>
	</g>
	<path class="st0" d="M929.2,2h-0.1c-0.6,0-1-0.4-1-1s0.4-1,1-1h0.1c0.6,0,1,0.4,1,1S929.8,2,929.2,2z"/>
	<path class="st0" d="M914.1,2H914c-0.6,0-1-0.4-1-1s0.4-1,1-1h0.1c0.6,0,1,0.4,1,1S914.6,2,914.1,2z"/>
	<path class="st0" d="M898.9,2h-0.1c-0.6,0-1-0.4-1-1s0.4-1,1-1h0.1c0.6,0,1,0.4,1,1S899.5,2,898.9,2z"/>
	<path class="st0" d="M883.8,2h-0.1c-0.6,0-1-0.4-1-1s0.4-1,1-1h0.1c0.6,0,1,0.4,1,1S884.3,2,883.8,2z"/>
	<path class="st0" d="M868.6,2h-0.1c-0.6,0-1-0.4-1-1s0.4-1,1-1h0.1c0.6,0,1,0.4,1,1S869.2,2,868.6,2z"/>
	<path class="st0" d="M853.5,2h-0.1c-0.6,0-1-0.4-1-1s0.4-1,1-1h0.1c0.6,0,1,0.4,1,1S854,2,853.5,2z"/>
	<path class="st0" d="M838.3,2h-0.1c-0.6,0-1-0.4-1-1s0.4-1,1-1h0.1c0.6,0,1,0.4,1,1S838.8,2,838.3,2z"/>
	<path class="st0" d="M823.1,2H823c-0.6,0-1-0.4-1-1s0.4-1,1-1h0.1c0.6,0,1,0.4,1,1S823.7,2,823.1,2z"/>
	<path class="st0" d="M808,2h-0.1c-0.6,0-1-0.4-1-1s0.4-1,1-1h0.1c0.6,0,1,0.4,1,1S808.5,2,808,2z"/>
	<path class="st0" d="M792.8,2h-0.1c-0.6,0-1-0.4-1-1s0.4-1,1-1h0.1c0.6,0,1,0.4,1,1S793.4,2,792.8,2z"/>
	<path class="st0" d="M777.7,2h-0.1c-0.6,0-1-0.4-1-1s0.4-1,1-1h0.1c0.6,0,1,0.4,1,1S778.2,2,777.7,2z"/>
	<path class="st0" d="M762.5,2h-0.1c-0.6,0-1-0.4-1-1s0.4-1,1-1h0.1c0.6,0,1,0.4,1,1S763,2,762.5,2z"/>
	<path class="st0" d="M747.3,2h-0.1c-0.6,0-1-0.4-1-1s0.4-1,1-1h0.1c0.6,0,1,0.4,1,1S747.9,2,747.3,2z"/>
	<g>
		<path class="st0" d="M944.4,2c-0.6,0-1-0.4-1-1s0.4-1,1-1h0c0.6,0,1,0.4,1,1S944.9,2,944.4,2z"/>
	</g>
</g>
</svg>
