<svg xmlns="http://www.w3.org/2000/svg" width="58.35" height="45.746" viewBox="0 0 58.35 45.746">
  <path id="Path_2953" data-name="Path 2953" d="M188.911,36.443a11.88,11.88,0,0,0-4.675-6.172A11.258,11.258,0,0,0,178.625,29H174.7V27.548a21.144,21.144,0,0,1,2.992-10.529q3.366-4.9,6.733-9.621,0-2.178-2.057-2.178-5.8,0-12.624,10.983t-6.826,18.607a17.843,17.843,0,0,0,3.74,11.436,12.405,12.405,0,0,0,10.286,4.72,12.637,12.637,0,0,0,8.883-3.358,10.6,10.6,0,0,0,3.647-8.078Zm-31.793,0a11.88,11.88,0,0,0-4.675-6.172A11.258,11.258,0,0,0,146.831,29H142.9V27.548A21.144,21.144,0,0,1,145.9,17.019q3.366-4.9,6.92-9.8,0-2-2.244-2-5.611,0-12.53,11.073t-6.92,18.516a17.843,17.843,0,0,0,3.74,11.436,12.405,12.405,0,0,0,10.286,4.72,12.637,12.637,0,0,0,8.883-3.358,10.6,10.6,0,0,0,3.647-8.078Z" transform="translate(189.472 50.965) rotate(180)" fill="#ebebeb"/>
</svg>
