<?xml version="1.0" encoding="utf-8"?>
<!-- Generator: Adobe Illustrator 16.0.0, SVG Export Plug-In . SVG Version: 6.00 Build 0)  -->
<!DOCTYPE svg PUBLIC "-//W3C//DTD SVG 1.1//EN" "http://www.w3.org/Graphics/SVG/1.1/DTD/svg11.dtd">
<svg version="1.1" id="Layer_1" xmlns="http://www.w3.org/2000/svg" xmlns:xlink="http://www.w3.org/1999/xlink" x="0px" y="0px"
	 width="142.555px" height="242.65px" viewBox="349.667 0 142.555 242.65" enable-background="new 349.667 0 142.555 242.65"
	 xml:space="preserve">
<g>
	<g>
		<path fill="#969499" d="M488.352,111.857L380.369,3.877C377.872,1.377,374.538,0,370.983,0c-3.555,0-6.889,1.377-9.386,3.877
			l-7.952,7.95c-5.175,5.18-5.175,13.6,0,18.772l90.675,90.675l-90.775,90.776c-2.498,2.5-3.877,5.831-3.877,9.385
			c0,3.557,1.379,6.889,3.877,9.39l7.952,7.948c2.499,2.5,5.831,3.877,9.386,3.877c3.556,0,6.89-1.377,9.387-3.877l108.083-108.079
			c2.503-2.507,3.878-5.854,3.87-9.413C492.23,117.708,490.855,114.362,488.352,111.857z"/>
	</g>
</g>
</svg>
