<svg xmlns="http://www.w3.org/2000/svg" width="59.402" height="59.393" viewBox="0 0 59.402 59.393">
  <g id="Group_2743" data-name="Group 2743" transform="translate(-365.356 -488.265)">
    <circle id="Ellipse_543" data-name="Ellipse 543" cx="8" cy="8" r="8" transform="translate(370 528)" fill="#d7cce6"/>
    <g id="contract_4_" data-name="contract (4)" transform="translate(365.556 488.426)">
      <path id="Path_2002" data-name="Path 2002" d="M227.365,98.2a2.951,2.951,0,0,0-5.408-.708l-.492.856a.983.983,0,0,0-1.337.354l-2.5,4.257-.856-.492a.982.982,0,1,0-.983,1.7l.855.492-8.357,14.483-2.065,5.516-.983,1.838a2.95,2.95,0,0,0,.157,3.186l-2.212,2.713-.619-1.553a1.967,1.967,0,0,0-3.51-.276l-.354.6-.334-3.933a1.966,1.966,0,0,0-3.825-.462l-2.419,7.256a.983.983,0,0,0,.619,1.239.852.852,0,0,0,.3.078.983.983,0,0,0,.934-.668l2.409-7.256.344,3.991a1.966,1.966,0,0,0,3.648.846l.364-.6.61,1.544a1.966,1.966,0,0,0,3.363.5l2.291-2.9a3.028,3.028,0,0,0,.777.1,2.95,2.95,0,0,0,2.566-1.456l.983-1.642,3.746-4.552,8.446-14.66.856.492a.986.986,0,0,1,.364,1.347l-3.933,6.814a.976.976,0,1,0,1.662,1.023l3.933-6.814a2.949,2.949,0,0,0-1.082-4.031l-.856-.492,2.458-4.257a.984.984,0,0,0-.354-1.337l.492-.856A2.949,2.949,0,0,0,227.365,98.2Zm-3.707.275a.983.983,0,0,1,.6-.462,1.033,1.033,0,0,1,.747.1.984.984,0,0,1,.462.6,1.033,1.033,0,0,1-.1.747l-.492.856-1.711-.983Zm-13.4,27.452-.492-.285-1.455-.846,1.4-3.736,3.1,1.789Zm-2.95,2.841a.983.983,0,0,1-.295-1.288l.492-.855,1.711.983-.492.845a.983.983,0,0,1-1.416.314Zm6.617-7.531-3.4-1.966,7.866-13.628,3.4,1.966Zm8.849-15.329-3.4-1.966,1.966-3.4,3.4,1.966Zm0,0" transform="translate(-168.47 -84.184)" fill="#4d445a"/>
      <path id="Path_2002_-_Outline" data-name="Path 2002 - Outline" d="M193.054,135.55h-.016a1.047,1.047,0,0,1-.366-.092,1.187,1.187,0,0,1-.735-1.488l2.419-7.257a2.166,2.166,0,0,1,4.214.509l.281,3.308.035-.06a2.177,2.177,0,0,1,1.858-1.054c.057,0,.114,0,.17.007a2.154,2.154,0,0,1,1.84,1.349l.494,1.238,1.9-2.335a3.159,3.159,0,0,1-.083-3.272l.975-1.824,2.066-5.519.008-.014,8.257-14.309-.682-.392a1.182,1.182,0,1,1,1.183-2.047l.683.393,2.4-4.086a1.183,1.183,0,0,1,1.427-.511l.4-.7a3.148,3.148,0,0,1,4.3-1.155,3.181,3.181,0,0,1,1.154,4.344l-.4.7a1.189,1.189,0,0,1,.264,1.494l-2.358,4.084.682.392a3.13,3.13,0,0,1,1.47,1.911,3.169,3.169,0,0,1-.315,2.394l-3.933,6.814a1.183,1.183,0,0,1-1.027.6h0a1.177,1.177,0,0,1-.978-1.824l3.93-6.809a.787.787,0,0,0,.078-.595.779.779,0,0,0-.368-.479l-.683-.392-8.354,14.5-3.747,4.554-.976,1.629a3.161,3.161,0,0,1-2.715,1.553h-.034a3.228,3.228,0,0,1-.688-.074l-2.212,2.8a2.166,2.166,0,0,1-3.705-.551l-.462-1.17-.155.255a2.166,2.166,0,0,1-4.018-.933l-.261-3.024-2.1,6.335A1.183,1.183,0,0,1,193.054,135.55Zm3.355-9.917a1.764,1.764,0,0,0-1.674,1.207l-2.419,7.256a.785.785,0,0,0,.494.986l.02.008a.65.65,0,0,0,.227.06.782.782,0,0,0,.738-.532l2.408-7.255.389.046.344,3.991a1.766,1.766,0,0,0,3.277.76l.574-.946.758,1.919a1.766,1.766,0,0,0,3.02.45l2.371-3,.126.033a2.829,2.829,0,0,0,.715.092h.034a2.76,2.76,0,0,0,2.371-1.357l1-1.668,3.736-4.539,8.537-14.819,1.029.591a1.175,1.175,0,0,1,.555.722,1.189,1.189,0,0,1-.118.9l-3.939,6.824a.773.773,0,0,0,.641,1.208h0a.783.783,0,0,0,.68-.4l3.933-6.815a2.767,2.767,0,0,0,.275-2.09,2.733,2.733,0,0,0-1.283-1.668l-1.029-.591,2.558-4.431a.786.786,0,0,0-.282-1.065l-.17-.1.59-1.027a2.765,2.765,0,0,0-3.1-4.073A2.732,2.732,0,0,0,222.13,97.6l-.591,1.029-.173-.1a.783.783,0,0,0-1.065.282l-2.6,4.428-1.027-.59a.791.791,0,0,0-.6-.079.782.782,0,0,0-.187,1.433l1.029.591-8.449,14.642-2.07,5.525-.986,1.844a2.757,2.757,0,0,0,.147,2.97l.089.124-2.524,3.1-.745-1.869a1.756,1.756,0,0,0-1.5-1.1c-.046,0-.093-.005-.139-.005a1.774,1.774,0,0,0-1.514.858l-.672,1.138-.387-4.557a1.767,1.767,0,0,0-1.762-1.622Zm11.462,3.517a1.185,1.185,0,0,1-1.033-1.764l.592-1.03,2.058,1.183-.593,1.019a1.182,1.182,0,0,1-1.025.592Zm-.294-2.248-.392.682a.785.785,0,0,0,.686,1.166.782.782,0,0,0,.678-.392l.391-.672Zm2.725-.713-2.239-1.3,1.538-4.116,3.507,2.026Zm-1.746-1.477,1.654.961,2.288-2.765-2.688-1.553Zm5.441-3.2-3.748-2.167,8.066-13.974,3.748,2.167Zm-3.2-2.313,3.056,1.766,7.666-13.281-3.056-1.766Zm12.051-13.016-3.748-2.167,2.167-3.748,3.748,2.167Zm-3.2-2.313,3.056,1.766,1.766-3.056-3.056-1.766Zm5.307-3.282-2.058-1.183.591-1.029a1.19,1.19,0,0,1,.722-.555,1.231,1.231,0,0,1,.9.117,1.193,1.193,0,0,1,.559.723,1.231,1.231,0,0,1-.117.9Zm-1.512-1.33,1.364.784.392-.682a.828.828,0,0,0,.078-.6.787.787,0,0,0-.367-.474.841.841,0,0,0-.6-.078.786.786,0,0,0-.474.367Z" transform="translate(-168.47 -84.184)" fill="#4d445a"/>
      <path id="Path_2003" data-name="Path 2003" d="M74.555,356.832l-3.48,3.471-2.085-2.085a.984.984,0,1,0-1.386,1.4l2.085,2.085a1.982,1.982,0,0,0,2.783,0l3.471-3.481a.983.983,0,0,0-1.386-1.387Zm0,0" transform="translate(-59.04 -312.735)" fill="#4d445a"/>
      <path id="Path_2003_-_Outline" data-name="Path 2003 - Outline" d="M71.085,362.47h-.012a2.153,2.153,0,0,1-1.526-.628l-2.085-2.085a1.189,1.189,0,0,1-.35-.839,1.184,1.184,0,0,1,2.018-.84l1.944,1.944,3.35-3.34a1.183,1.183,0,0,1,1.669,1.668l-.01.011-3.471,3.481A2.154,2.154,0,0,1,71.085,362.47ZM68.3,358.133a.785.785,0,0,0-.784.784.787.787,0,0,0,.232.556l2.085,2.085a1.755,1.755,0,0,0,1.243.512h.013a1.756,1.756,0,0,0,1.244-.512l3.464-3.474a.787.787,0,0,0-.046-1.058.783.783,0,0,0-1.058-.046l-3.616,3.606-2.226-2.226A.778.778,0,0,0,68.3,358.133Z" transform="translate(-59.04 -312.735)" fill="#4d445a"/>
      <path id="Path_2004" data-name="Path 2004" d="M32,320.4a8.357,8.357,0,1,0,16.715,0,.983.983,0,0,0-1.966,0,6.392,6.392,0,1,1-2.556-5.112.983.983,0,0,0,1.18-1.573A8.357,8.357,0,0,0,32,320.4Zm0,0" transform="translate(-28.067 -273.656)" fill="#4d445a"/>
      <path id="Path_2004_-_Outline" data-name="Path 2004 - Outline" d="M40.357,328.956a8.557,8.557,0,1,1,5.135-15.4,1.183,1.183,0,1,1-1.42,1.893,6.173,6.173,0,0,0-3.7-1.238h-.017a6.191,6.191,0,1,0,6.19,6.191,1.183,1.183,0,1,1,2.366,0A8.567,8.567,0,0,1,40.357,328.956Zm0-16.715a8.157,8.157,0,1,0,8.159,8.157.783.783,0,1,0-1.566,0,6.591,6.591,0,1,1-6.591-6.591h.018a6.575,6.575,0,0,1,3.937,1.319.783.783,0,0,0,.94-1.254A8.211,8.211,0,0,0,40.356,312.241Z" transform="translate(-28.067 -273.656)" fill="#4d445a"/>
      <path id="Path_2008" data-name="Path 2008" d="M78.614,217.022a1.006,1.006,0,0,0-1.028-.983H57.028a.984.984,0,1,0,0,1.966H77.586A1.006,1.006,0,0,0,78.614,217.022Zm0,0" transform="translate(-49.117 -200.392)" fill="#4d445a"/>
      <path id="Path_2008_-_Outline" data-name="Path 2008 - Outline" d="M77.586,218.206H57.028a1.184,1.184,0,1,1,0-2.366H77.586a1.184,1.184,0,1,1,0,2.366Zm-20.558-1.966a.784.784,0,1,0,0,1.566H77.586a.784.784,0,1,0,0-1.566Z" transform="translate(-49.117 -200.392)" fill="#4d445a"/>
      <path id="Path_2010" data-name="Path 2010" d="M66.815,258.005a.983.983,0,1,0,0-1.966H56.983a.983.983,0,1,0,0,1.966Zm0,0" transform="translate(-49.117 -235.476)" fill="#4d445a"/>
      <path id="Path_2010_-_Outline" data-name="Path 2010 - Outline" d="M66.815,258.206H56.983a1.183,1.183,0,0,1,0-2.366h9.832a1.183,1.183,0,1,1,0,2.366Zm-9.832-1.966a.783.783,0,0,0,0,1.566h9.832a.783.783,0,0,0,0-1.566Z" transform="translate(-49.117 -235.476)" fill="#4d445a"/>
      <path id="Path_2011" data-name="Path 2011" d="M168.983,258.005h6.883a.983.983,0,1,0,0-1.966h-6.883a.983.983,0,0,0,0,1.966Zm0,0" transform="translate(-147.352 -235.476)" fill="#4d445a"/>
      <path id="Path_2011_-_Outline" data-name="Path 2011 - Outline" d="M175.866,258.206h-6.883a1.183,1.183,0,0,1,0-2.366h6.883a1.183,1.183,0,0,1,0,2.366Zm-6.883-1.966a.783.783,0,0,0,0,1.566h6.883a.783.783,0,0,0,0-1.566Z" transform="translate(-147.352 -235.476)" fill="#4d445a"/>
      <path id="Path_2012" data-name="Path 2012" d="M44.245,45.267a.983.983,0,0,0-.983.983v9.832a.983.983,0,0,1-.983.983H2.95a.983.983,0,0,1-.983-.983V2.989a.983.983,0,0,1,.983-.983H42.278a.983.983,0,0,1,.983.983V21.454a.983.983,0,0,0,1.966,0V2.989a2.95,2.95,0,0,0-2.95-2.95H2.95A2.95,2.95,0,0,0,0,2.989V56.083a2.949,2.949,0,0,0,2.95,2.95H42.278a2.949,2.949,0,0,0,2.95-2.95V46.25A.983.983,0,0,0,44.245,45.267Zm0,0" transform="translate(0 0)" fill="#4d445a"/>
      <path id="Path_2012_-_Outline" data-name="Path 2012 - Outline" d="M42.278,59.232H2.95A3.153,3.153,0,0,1-.2,56.083V2.989A3.153,3.153,0,0,1,2.95-.161H42.278a3.153,3.153,0,0,1,3.15,3.15V21.454a1.183,1.183,0,1,1-2.366,0V2.989a.784.784,0,0,0-.783-.783H2.95a.784.784,0,0,0-.783.783V56.083a.784.784,0,0,0,.783.783H42.278a.784.784,0,0,0,.783-.783V46.25a1.183,1.183,0,1,1,2.366,0v9.832A3.153,3.153,0,0,1,42.278,59.232ZM2.95.239A2.753,2.753,0,0,0,.2,2.989V56.083a2.753,2.753,0,0,0,2.75,2.75H42.278a2.753,2.753,0,0,0,2.75-2.75V46.25a.783.783,0,0,0-1.566,0v9.832a1.185,1.185,0,0,1-1.183,1.183H2.95a1.185,1.185,0,0,1-1.183-1.183V2.989A1.185,1.185,0,0,1,2.95,1.806H42.278a1.185,1.185,0,0,1,1.183,1.183V21.454a.783.783,0,1,0,1.566,0V2.989a2.753,2.753,0,0,0-2.75-2.75Z" transform="translate(0 0)" fill="#4d445a"/>
    </g>
  </g>
</svg>
