<svg xmlns="http://www.w3.org/2000/svg" width="196.213" height="47.244" viewBox="0 0 196.213 47.244"><defs><style>.a{fill:#282432;}.b{fill:#e82d2e;}</style></defs><g transform="translate(-74.833 -63.681)"><path class="a" d="M678.893,149.712v-2.095h-.764v-.185a.256.256,0,0,1,.077-.189.267.267,0,0,1,.192-.077h1.785v.452h-.757v2.095Z" transform="translate(-417.221 -57.735)"/><path class="a" d="M685.1,149.7v-2.28a.256.256,0,0,1,.08-.189.294.294,0,0,1,.192-.085h.517l.51,1.947.511-1.947h.787V149.7h-.5v-2.058l-.525,2.058h-.548l-.532-2.058V149.7Z" transform="translate(-422.043 -57.718)"/><path class="a" d="M183.118,106.7v2.314H178.94v12.072h-2.7V109.016h-4.178V106.7Z" transform="translate(-67.241 -29.752)"/><path class="a" d="M211.927,125.414h-7q0,2.133,3.526,2.133a17.663,17.663,0,0,0,3.24-.3v2.112a17.978,17.978,0,0,1-3.648.3q-5.819,0-5.819-5.4,0-5.16,5.329-5.16t4.372,6.317m-7-1.951h4.463a1.881,1.881,0,0,0-2.139-2.274,2.139,2.139,0,0,0-2.324,2.274" transform="translate(-88.101 -38.324)"/><path class="a" d="M237.546,129.66V119.1h2.088l.337,1.348a6.825,6.825,0,0,1,3.912-1.348q3.7,0,3.7,3.933v6.63h-2.7V123a1.552,1.552,0,0,0-1.763-1.75,4.317,4.317,0,0,0-2.873,1.338v7.071Z" transform="translate(-112.527 -38.324)"/><path class="a" d="M273.99,126.371q0-3.248,4.646-3.249a13.829,13.829,0,0,1,2.486.2v-.695q0-1.417-2.782-1.418a12.458,12.458,0,0,0-3.485.5V119.6a12.448,12.448,0,0,1,3.485-.5q5.481,0,5.482,3.48v7.082h-1.365l-1.161-.744a6.239,6.239,0,0,1-2.976.744q-4.33,0-4.33-3.29m4.646-1.238q-1.946,0-1.947,1.208t1.63,1.207a4.69,4.69,0,0,0,2.8-.825v-1.388a13.045,13.045,0,0,0-2.486-.2" transform="translate(-137.731 -38.325)"/><path class="a" d="M311.42,129.66V119.1h2.089l.337,1.348a6.826,6.826,0,0,1,3.913-1.348q3.7,0,3.7,3.933v6.63h-2.7V123a1.552,1.552,0,0,0-1.762-1.75,4.318,4.318,0,0,0-2.874,1.338v7.071Z" transform="translate(-163.616 -38.324)"/><path class="a" d="M349.516,113.549h2l.408,1.711h2.487v2.112h-2.191v4.858q0,1.48,1.294,1.48h.9v2.112h-2.2q-2.691,0-2.69-2.847Z" transform="translate(-189.962 -34.487)"/><path class="a" d="M382.258,106.7V109H375.37v3.622h6.541V115h-6.572v3.773H382.4v2.314H372.69V106.7Z" transform="translate(-205.989 -29.752)"/><path class="a" d="M405.927,119.1h2.853l2.6,7.384,2.7-7.384h2.853l-4.351,10.563h-2.568Z" transform="translate(-228.974 -38.324)"/><path class="a" d="M441.378,126.371q0-3.248,4.647-3.249a13.836,13.836,0,0,1,2.486.2v-.695q0-1.417-2.782-1.418a12.456,12.456,0,0,0-3.485.5V119.6a12.445,12.445,0,0,1,3.485-.5q5.482,0,5.482,3.48v7.082h-1.365l-1.162-.744a6.237,6.237,0,0,1-2.975.744q-4.331,0-4.33-3.29m4.647-1.238q-1.948,0-1.946,1.208t1.63,1.207a4.691,4.691,0,0,0,2.8-.825v-1.388a13.054,13.054,0,0,0-2.486-.2" transform="translate(-253.491 -38.325)"/><rect class="a" width="2.7" height="14.386" transform="translate(199.432 76.95)"/><path class="a" d="M503.156,119.1V129.66h-2.109l-.326-1.348a6.823,6.823,0,0,1-3.912,1.348q-3.69,0-3.689-3.933V119.1h2.7v6.659a1.548,1.548,0,0,0,1.753,1.751,4.35,4.35,0,0,0,2.884-1.338V119.1Z" transform="translate(-289.274 -38.324)"/><path class="a" d="M529.562,126.371q0-3.248,4.646-3.249a13.826,13.826,0,0,1,2.487.2v-.695q0-1.417-2.782-1.418a12.454,12.454,0,0,0-3.485.5V119.6a12.444,12.444,0,0,1,3.485-.5q5.482,0,5.482,3.48v7.082h-1.365l-1.162-.744a6.232,6.232,0,0,1-2.975.744q-4.33,0-4.33-3.29m4.646-1.238q-1.946,0-1.946,1.208t1.631,1.207a4.689,4.689,0,0,0,2.8-.825v-1.388a13.05,13.05,0,0,0-2.487-.2" transform="translate(-314.477 -38.325)"/><path class="a" d="M566.993,113.549h2l.408,1.711h2.486v2.112h-2.19v4.858q0,1.48,1.294,1.48h.9v2.112h-2.2q-2.691,0-2.691-2.847Z" transform="translate(-340.363 -34.487)"/><path class="a" d="M589.455,108.813h-2.7V106.7h2.7Zm0,12.274h-2.7V110.524h2.7Z" transform="translate(-354.03 -29.751)"/><path class="a" d="M598.914,124.152q0-5.381,5.4-5.382t5.4,5.382q0,5.372-5.4,5.373-5.381,0-5.4-5.373m5.4,3.27q2.7,0,2.7-3.309,0-3.229-2.7-3.23t-2.7,3.23q0,3.31,2.7,3.309" transform="translate(-362.438 -38.098)"/><path class="a" d="M637.339,129.66V119.1h2.088l.337,1.348a6.826,6.826,0,0,1,3.912-1.348q3.7,0,3.7,3.933v6.63h-2.7V123a1.552,1.552,0,0,0-1.762-1.75,4.315,4.315,0,0,0-2.873,1.338v7.071Z" transform="translate(-389.012 -38.324)"/><path class="b" d="M113.828,67.689c.17,0,.2-.087.068-.193l-4.628-3.731a.429.429,0,0,0-.49-.013l-5.209,3.757c-.138.1-.111.18.058.18Z" transform="translate(-19.811)"/><path class="b" d="M99.02,88.407c-.132-.106-.24-.055-.24.115v4.337a.662.662,0,0,1-.254.484l-9.622,6.667a.5.5,0,0,1-.513.009l-9.356-6.008a.631.631,0,0,1-.26-.475V88.342c0-.17-.113-.227-.25-.128L75.083,90.7a.68.68,0,0,0-.25.489v16.888a.309.309,0,0,0,.308.308H85.834a.309.309,0,0,0,.308-.308v-3.552a.309.309,0,0,1,.308-.308h3.47a.31.31,0,0,1,.308.308v3.552a.309.309,0,0,0,.308.308h11.239a.309.309,0,0,0,.308-.308V91.186a.732.732,0,0,0-.24-.5Z" transform="translate(0 -16.932)"/><path class="b" d="M99.59,78.25l5.769,6.62,10.786-13.24-11.105,8.53Z" transform="translate(-17.121 -5.497)"/><path class="a" d="M341.495,184.844H339.8l-.243-5.531-.039-1.215.026-.7H339.5a16.079,16.079,0,0,1-.769,1.912l-2.529,5.531h-1.682l-.348-9.6h1.5l.125,5.584q0,.893-.085,2.273h.039q.545-1.452.933-2.332l2.542-5.524h1.478l.2,5.511.02,1.11-.02,1.235h.053q.184-.578.46-1.3t.4-1l2.352-5.558H345.8Z" transform="translate(-179.354 -77.151)"/><path class="a" d="M372.682,189.925a2.725,2.725,0,0,1-2.02-.729,2.761,2.761,0,0,1-.726-2.037,5.777,5.777,0,0,1,.509-2.421,4.158,4.158,0,0,1,1.379-1.731,3.312,3.312,0,0,1,1.948-.611,2.548,2.548,0,0,1,1.646.477,1.637,1.637,0,0,1,.588,1.35,2.091,2.091,0,0,1-1.094,1.869,5.973,5.973,0,0,1-3.117.673h-.282l-.013.2v.191a1.65,1.65,0,0,0,.371,1.143,1.411,1.411,0,0,0,1.107.414,3.606,3.606,0,0,0,.939-.125,6.671,6.671,0,0,0,1.1-.427v1.228a6.077,6.077,0,0,1-1.16.411,5.284,5.284,0,0,1-1.179.122m1-6.346a1.651,1.651,0,0,0-1.186.565,3.264,3.264,0,0,0-.8,1.491h.191a4.351,4.351,0,0,0,1.931-.351,1.088,1.088,0,0,0,.7-1,.662.662,0,0,0-.21-.522.911.911,0,0,0-.624-.188" transform="translate(-204.084 -82.1)"/><path class="a" d="M397.356,175.24l-.992,3.468h-1l.473-3.468Z" transform="translate(-221.67 -77.151)"/><path class="a" d="M404.106,190.088l-.86-7.265h1.524l.362,3.928q.092,1.044.092,1.951h.046q.184-.486.46-1.084t.427-.867l2.043-3.928h1.642l-3.928,7.265Z" transform="translate(-227.12 -82.395)"/><path class="a" d="M427.1,189.925a2.724,2.724,0,0,1-2.02-.729,2.76,2.76,0,0,1-.726-2.037,5.781,5.781,0,0,1,.509-2.421,4.158,4.158,0,0,1,1.38-1.731,3.311,3.311,0,0,1,1.948-.611,2.547,2.547,0,0,1,1.646.477,1.638,1.638,0,0,1,.588,1.35,2.092,2.092,0,0,1-1.094,1.869,5.973,5.973,0,0,1-3.117.673h-.283l-.013.2v.191a1.649,1.649,0,0,0,.371,1.143,1.411,1.411,0,0,0,1.107.414,3.607,3.607,0,0,0,.939-.125,6.649,6.649,0,0,0,1.1-.427v1.228a6.067,6.067,0,0,1-1.159.411,5.282,5.282,0,0,1-1.179.122m1-6.346a1.65,1.65,0,0,0-1.186.565,3.259,3.259,0,0,0-.8,1.491h.191a4.35,4.35,0,0,0,1.931-.351,1.087,1.087,0,0,0,.7-1,.662.662,0,0,0-.21-.522.912.912,0,0,0-.624-.188" transform="translate(-241.717 -82.1)"/><path class="a" d="M462.569,182.4a1.56,1.56,0,0,1,1.668,1.544h.053a3.664,3.664,0,0,1,1.12-1.153,2.432,2.432,0,0,1,1.3-.391,1.708,1.708,0,0,1,1.331.5,2.032,2.032,0,0,1,.456,1.416,6.921,6.921,0,0,1-.144,1.189l-.92,4.289h-1.544l.939-4.414a5.251,5.251,0,0,0,.125-.873q0-.848-.795-.848a1.7,1.7,0,0,0-1.324.814,5.407,5.407,0,0,0-.9,2.161l-.663,3.16h-1.544l.939-4.414a4.431,4.431,0,0,0,.112-.834q0-.887-.768-.887a1.7,1.7,0,0,0-1.337.834,5.731,5.731,0,0,0-.91,2.22l-.644,3.081h-1.551l1.551-7.265h1.209l-.138,1.346h.059a2.773,2.773,0,0,1,2.312-1.478" transform="translate(-264.693 -82.099)"/><path class="a" d="M499.322,189.925a1.782,1.782,0,0,1-1.465-.667,2.913,2.913,0,0,1-.539-1.876,6.706,6.706,0,0,1,.456-2.483,4.491,4.491,0,0,1,1.258-1.829,2.679,2.679,0,0,1,1.761-.673,1.864,1.864,0,0,1,1.813,1.169h.066l.407-1.038h1.183l-1.551,7.265h-1.2l.138-1.156h-.039a2.95,2.95,0,0,1-2.293,1.288m.565-1.248a1.521,1.521,0,0,0,1.057-.509,3.831,3.831,0,0,0,.854-1.363,5.054,5.054,0,0,0,.335-1.866,1.358,1.358,0,0,0-.309-.93,1.024,1.024,0,0,0-.807-.351,1.459,1.459,0,0,0-1.051.506,3.6,3.6,0,0,0-.788,1.377,5.577,5.577,0,0,0-.3,1.8,1.581,1.581,0,0,0,.266,1,.9.9,0,0,0,.739.332" transform="translate(-292.178 -82.1)"/><path class="a" d="M526.053,176.063a1.878,1.878,0,0,1,1.761,1.169h.052a12.258,12.258,0,0,1,.243-1.642l.5-2.352h1.531l-2.168,10.221h-1.209l.125-1.156h-.046a4.083,4.083,0,0,1-1.117.992,2.343,2.343,0,0,1-1.143.3,1.779,1.779,0,0,1-1.471-.667,2.96,2.96,0,0,1-.532-1.889,6.691,6.691,0,0,1,.469-2.516,4.4,4.4,0,0,1,1.258-1.813,2.7,2.7,0,0,1,1.748-.644m-.88,6.28a1.52,1.52,0,0,0,1.067-.539,3.883,3.883,0,0,0,.847-1.406,5.047,5.047,0,0,0,.319-1.754,1.5,1.5,0,0,0-.286-.959,1.043,1.043,0,0,0-.87-.361,1.439,1.439,0,0,0-1.045.506,3.59,3.59,0,0,0-.775,1.386,5.713,5.713,0,0,0-.289,1.793q0,1.334,1.032,1.334" transform="translate(-309.647 -75.766)"/><path class="a" d="M550.838,189.925a2.723,2.723,0,0,1-2.02-.729,2.76,2.76,0,0,1-.726-2.037,5.781,5.781,0,0,1,.509-2.421,4.158,4.158,0,0,1,1.38-1.731,3.312,3.312,0,0,1,1.948-.611,2.547,2.547,0,0,1,1.645.477,1.638,1.638,0,0,1,.588,1.35,2.092,2.092,0,0,1-1.094,1.869,5.972,5.972,0,0,1-3.117.673h-.282l-.013.2v.191a1.649,1.649,0,0,0,.371,1.143,1.41,1.41,0,0,0,1.107.414,3.607,3.607,0,0,0,.939-.125,6.647,6.647,0,0,0,1.1-.427v1.228a6.066,6.066,0,0,1-1.159.411,5.282,5.282,0,0,1-1.179.122m1-6.346a1.65,1.65,0,0,0-1.186.565,3.259,3.259,0,0,0-.8,1.491h.191a4.35,4.35,0,0,0,1.931-.351,1.088,1.088,0,0,0,.7-1,.662.662,0,0,0-.21-.522.912.912,0,0,0-.624-.188" transform="translate(-327.291 -82.1)"/><path class="a" d="M582.868,183.843h-1.55l1.55-7.265h1.544Zm.309-9.052a1.02,1.02,0,0,1,.256-.723.937.937,0,0,1,.723-.275.874.874,0,0,1,.565.174.637.637,0,0,1,.217.529,1.008,1.008,0,0,1-.263.736.921.921,0,0,1-.69.269.943.943,0,0,1-.578-.171.627.627,0,0,1-.23-.539" transform="translate(-350.269 -76.15)"/><path class="a" d="M596.651,185.348a2.865,2.865,0,0,0,.992-.2v1.169a2.843,2.843,0,0,1-.624.2,3.719,3.719,0,0,1-.788.085q-1.8,0-1.8-1.623a4.133,4.133,0,0,1,.105-.861l.8-3.745h-1.064l.138-.722,1.248-.539.848-1.524h.959l-.341,1.616h1.832l-.256,1.169h-1.819l-.8,3.758a2.707,2.707,0,0,0-.085.6.613.613,0,0,0,.164.45.67.67,0,0,0,.5.168" transform="translate(-359.225 -78.771)"/><path class="a" d="M624.4,189.925a2.724,2.724,0,0,1-2.02-.729,2.761,2.761,0,0,1-.726-2.037,5.776,5.776,0,0,1,.509-2.421,4.161,4.161,0,0,1,1.379-1.731,3.312,3.312,0,0,1,1.948-.611,2.548,2.548,0,0,1,1.646.477,1.638,1.638,0,0,1,.588,1.35,2.091,2.091,0,0,1-1.093,1.869,5.973,5.973,0,0,1-3.117.673h-.282l-.013.2v.191a1.649,1.649,0,0,0,.371,1.143,1.411,1.411,0,0,0,1.107.414,3.6,3.6,0,0,0,.939-.125,6.652,6.652,0,0,0,1.1-.427v1.228a6.076,6.076,0,0,1-1.159.411,5.284,5.284,0,0,1-1.179.122m1-6.346a1.65,1.65,0,0,0-1.186.565,3.262,3.262,0,0,0-.8,1.491h.191a4.35,4.35,0,0,0,1.931-.351,1.088,1.088,0,0,0,.7-1,.662.662,0,0,0-.21-.522.911.911,0,0,0-.624-.188" transform="translate(-378.165 -82.1)"/><path class="a" d="M646.554,189.925a1.783,1.783,0,0,1-1.465-.667,2.913,2.913,0,0,1-.539-1.876,6.706,6.706,0,0,1,.456-2.483,4.485,4.485,0,0,1,1.258-1.829,2.678,2.678,0,0,1,1.76-.673,1.864,1.864,0,0,1,1.813,1.169h.066l.407-1.038h1.183l-1.55,7.265h-1.2l.138-1.156h-.039a2.951,2.951,0,0,1-2.293,1.288m.565-1.248a1.521,1.521,0,0,0,1.057-.509,3.84,3.84,0,0,0,.854-1.363,5.054,5.054,0,0,0,.335-1.866,1.359,1.359,0,0,0-.309-.93,1.025,1.025,0,0,0-.808-.351,1.459,1.459,0,0,0-1.051.506,3.6,3.6,0,0,0-.788,1.377,5.577,5.577,0,0,0-.3,1.8,1.581,1.581,0,0,0,.266,1,.9.9,0,0,0,.739.332" transform="translate(-393.999 -82.1)"/><path class="a" d="M673.152,187.56a2.1,2.1,0,0,1-.775,1.751,3.387,3.387,0,0,1-2.154.614,4.635,4.635,0,0,1-2.115-.44v-1.333a4,4,0,0,0,2.049.591,1.826,1.826,0,0,0,1.031-.263.818.818,0,0,0,.394-.716.808.808,0,0,0-.226-.575,4.424,4.424,0,0,0-.93-.64,3.468,3.468,0,0,1-1.159-.9,1.765,1.765,0,0,1-.338-1.08,1.953,1.953,0,0,1,.7-1.6,2.9,2.9,0,0,1,1.9-.578,4.57,4.57,0,0,1,2.272.552l-.5,1.156a3.674,3.674,0,0,0-1.748-.5,1.293,1.293,0,0,0-.778.217.705.705,0,0,0-.3.6.744.744,0,0,0,.217.525,3.835,3.835,0,0,0,.887.591,5.147,5.147,0,0,1,.979.663,1.994,1.994,0,0,1,.44.6,1.77,1.77,0,0,1,.151.752" transform="translate(-410.29 -82.1)"/><path class="a" d="M685.6,182.823h1.524l.414,3.488q.059.407.1,1.146t.046,1.192h.039q.565-1.412.887-2.056l1.925-3.77h1.668l-4.519,8.408a4.678,4.678,0,0,1-1.287,1.586,2.722,2.722,0,0,1-1.636.5,3.439,3.439,0,0,1-.939-.125V191.96a4.077,4.077,0,0,0,.821.105,1.462,1.462,0,0,0,.88-.286,3.249,3.249,0,0,0,.814-1.021l.335-.6Z" transform="translate(-421.159 -82.395)"/></g></svg>