<svg xmlns="http://www.w3.org/2000/svg" xmlns:xlink="http://www.w3.org/1999/xlink" width="75.012" height="65.838" viewBox="0 0 75.012 65.838"><defs><style>.a{fill:#0093d0;}.b{fill:#fff;}.c{fill:url(#a);}.d,.e,.f,.h{fill:none;}.d,.e,.f{stroke:#fff;stroke-width:3px;}.d,.e{stroke-linecap:round;}.d{stroke-linejoin:round;}.g{stroke:none;}</style><linearGradient id="a" x1="0.945" y1="1.943" x2="0.02" y2="0.668" gradientUnits="objectBoundingBox"><stop offset="0" stop-color="#65d2ff"/><stop offset="1" stop-color="#009cdc"/></linearGradient></defs><g transform="translate(13559 -1410.268)"><g transform="translate(-13555.834 1410.72)"><path class="a" d="M33.6,51.695l21.191-10H48.806l-9.06-7.72a2.08,2.08,0,0,0-1.5-.551H23.36A2.321,2.321,0,0,0,21,35.781V51.695Z" transform="translate(-20.997 -33.418)"/><path class="a" d="M407.113,98.28h6.46V90.638a2.321,2.321,0,0,0-2.363-2.363h-8.823Z" transform="translate(-344.878 -80.003)"/></g><path class="b" d="M136.817,31.975a2.736,2.736,0,0,0-3.7-1.26L93.1,49.621h51.994Z" transform="translate(-13638.058 1379.848)"/><path class="c" d="M74.382,152.723a2.444,2.444,0,0,0-1.733-.709H2.378a2.444,2.444,0,0,0-1.733.709,2.089,2.089,0,0,0-.63,1.733l2.363,42.855a2.34,2.34,0,0,0,2.363,2.206H70.285a2.34,2.34,0,0,0,2.363-2.206l2.363-42.855A2.753,2.753,0,0,0,74.382,152.723Z" transform="translate(-13559 1276.589)"/><g transform="translate(-13535.615 1441.583)"><g transform="translate(7.766 8.537)"><path class="d" d="M-13661.477,1317.383l5.946-6,5.945,6" transform="translate(13661.477 -1311.382)"/><path class="e" d="M-13497.59,1473.451v11.011" transform="translate(13503.536 -1473.019)"/></g><g class="f" transform="translate(-0.04 -0.345)"><circle class="g" cx="14" cy="14" r="14"/><circle class="h" cx="14" cy="14" r="12.5"/></g></g></g></svg>