<svg xmlns="http://www.w3.org/2000/svg" xmlns:xlink="http://www.w3.org/1999/xlink" width="107" height="112.3" viewBox="0 0 107 112.3"><defs><style>.a{fill:#40384b;}.b{fill:#ddd;}.c{fill:#c6c6c6;}.d{fill:#c3c4c6;}.e{fill:#fff;}.f{fill:#d6d6d6;}.g{clip-path:url(#a);}.h{fill:#fcfcfd;}</style><clipPath id="a"><path class="a" d="M.64-.071,12.9-.083a.725.725,0,0,1,.725.727l-.014,15.125a.728.728,0,0,1-.726.728L.624,16.509A.725.725,0,0,1-.1,15.782L-.086.657A.728.728,0,0,1,.64-.071Z" transform="translate(0.1 0.083)"/></clipPath></defs><g transform="translate(-1043 -466.7)"><circle class="a" cx="52.5" cy="52.5" r="52.5" transform="translate(1045 474)"/><path class="b" d="M125.435,145.132a32.766,32.766,0,0,1-4,7.645,34.268,34.268,0,0,1-37.791,13.058,34.642,34.642,0,0,1-14.824-8.8L55.842,144.055,54.4,142.671l-8.662-8.316a7.88,7.88,0,1,1,0-15.759,7.878,7.878,0,0,1,0-15.757V93.569a7.877,7.877,0,1,1,0-15.755l50.346,24.411,1.95.943,2.195,1.065a37.294,37.294,0,0,1,.979-5.9,8.672,8.672,0,1,1,16.834,4.179,19.889,19.889,0,0,0,2.286,15.176S130.146,132.06,125.435,145.132Z" transform="translate(1005.141 402.539)"/><g transform="translate(1046.738 480.351)"><path class="c" d="M139.162,383.506a34.642,34.642,0,0,1-14.824-8.8l-12.982-12.982-1.442-1.384,22.5,4.642C118.737,364.984,129.733,377.644,139.162,383.506Z" transform="translate(-97.112 -295.484)"/><path class="c" d="M308.007,178.375a2.279,2.279,0,0,1-3.139-.781,39.338,39.338,0,0,1-5.568-23.7c0-.16.016-.484.052-.948L301.546,154a37.374,37.374,0,0,1,.981-5.9,8.637,8.637,0,0,1,4.594-5.693,28.888,28.888,0,0,0-3.243,11.607l-.01.177c-.026.3-.046.6-.062.9a34.592,34.592,0,0,0,3.283,16.959,35.748,35.748,0,0,0,1.7,3.175A2.288,2.288,0,0,1,308.007,178.375Z" transform="translate(-242.915 -127.584)"/><path class="c" d="M108.631,102.22v38.046c0,3.891-3.685,7.043-8.236,7.043H71.644l-3.257-3.257-10.1-9.7a7.84,7.84,0,0,1-4.142-1.177l.084-.113a11.042,11.042,0,0,0-.084-13.292h0a7.838,7.838,0,0,1,4.142-1.177,7.84,7.84,0,0,1-4.142-1.177l.535-.666a9.545,9.545,0,0,0,.34-11.5l-.875-1.232a7.838,7.838,0,0,1,4.142-1.177V93.566a7.835,7.835,0,0,1-4.142-1.174l1.37-2.311a8.787,8.787,0,0,0-.176-9.246l-1.193-1.849a7.838,7.838,0,0,1,4.142-1.177Z" transform="translate(-54.142 -77.809)"/></g><path class="d" d="M72.186,62.773V41.3a7.706,7.706,0,0,1,7.744-7.666h35.742a7.706,7.706,0,0,1,7.744,7.666v71.331a7.7,7.7,0,0,1-7.744,7.664H79.93a7.7,7.7,0,0,1-7.744-7.664V62.773Z" transform="translate(978.324 433.066)"/><rect class="e" width="42.952" height="62.387" transform="translate(1054.648 478.838)"/><path class="d" d="M319.855,320.843c-5.742,13.255-13.525,21.008-24.16,27.1-5.6,3.2-12.262,4.631-18.818,5.852l-7.394-7.334,37.993-37.993Z" transform="translate(826.689 224.837)"/><g transform="translate(1067.25 471.757)"><path class="e" d="M168.116,59.338H154.044a1.839,1.839,0,0,1-1.839-1.839h0a1.839,1.839,0,0,1,1.839-1.839h14.072a1.839,1.839,0,0,1,1.839,1.839h0A1.839,1.839,0,0,1,168.116,59.338Z" transform="translate(-152.205 -55.66)"/><circle class="e" cx="3.47" cy="3.47" r="3.47" transform="translate(5.407 72.067)"/></g><path class="f" d="M295.829,433.163a50.924,50.924,0,0,1-19.045,6.091l-7.3-7.343,12.531-12.531Z" transform="translate(826.689 139.383)"/><g transform="translate(1058.537 496.887)"><g transform="translate(-0.16 -0.216)"><path class="f" d="M1.314-.186l32.572-.03a1.45,1.45,0,0,1,1.449,1.454l-.022,23.779a1.456,1.456,0,0,1-1.452,1.457L1.29,26.5A1.45,1.45,0,0,1-.16,25.05L-.138,1.271A1.456,1.456,0,0,1,1.314-.186Z" transform="translate(0.16 0.216)"/><path class="a" d="M-.011-.053,9.664-.061l0,2.022-9.675.009Z" transform="translate(19.377 6.941)"/><path class="a" d="M-.011-.074,13.695-.087l0,2.022L-.013,1.948Z" transform="translate(3.256 3.338)"/><path class="a" d="M-.011-.042,7.648-.049l0,2.022L-.013,1.98Z" transform="translate(22.598 10.566)"/><path class="a" d="M-.011-.013l2.419,0,0,2.022-2.419,0Z" transform="translate(19.374 10.541)"/><path class="a" d="M-.011-.024l4.434,0,0,2.022L-.013,2Z" transform="translate(19.37 14.192)"/><path class="a" d="M-.011-.044,8.051-.051l0,2.022-8.062.007Z" transform="translate(24.611 14.206)"/><path class="a" d="M-.011-.044,8.051-.051l0,2.022-8.062.007Z" transform="translate(19.367 17.851)"/><path class="a" d="M.64-.071,12.9-.083a.725.725,0,0,1,.725.727l-.014,15.125a.728.728,0,0,1-.726.728L.624,16.509A.725.725,0,0,1-.1,15.782L-.086.657A.728.728,0,0,1,.64-.071Z" transform="translate(3.328 6.569)"/><g class="g" transform="translate(3.228 6.487)"><g transform="translate(-7.643 1.292)"><g transform="translate(0 0)"><path class="h" d="M16.27,17.687.814,17.963A113.3,113.3,0,0,1-.014,2.08,36.392,36.392,0,0,1,4.382.693,3.823,3.823,0,0,0,7.844,3a3.73,3.73,0,0,0,3.9-3.073c2.585.007,4.451.215,4.451.215L14.662,5.146A94.5,94.5,0,0,0,16.27,17.687Z" transform="translate(6.446 11.201)"/><path class="b" d="M5.009,2.722a19.283,19.283,0,0,1-.5-2.75L2.638.139a18.163,18.163,0,0,1-.507,2.916.316.316,0,0,1-.253.225c-.651.112-1.292.249-1.9.4A3.823,3.823,0,0,0,3.438,5.983a3.73,3.73,0,0,0,3.9-3.073c-.633,0-1.309.009-2.011.037A.316.316,0,0,1,5.009,2.722Z" transform="translate(10.851 8.216)"/><path class="b" d="M6.824,1.8a.539.539,0,0,0-.2-.022,12.32,12.32,0,0,0,0-1.824L.083.291c-.9,7.3,4.874,8.345,6.272,3.1C7.034,3.6,7.7,2.071,6.824,1.8Z" transform="translate(11.274 3.401)"/><path class="e" d="M8.08.789A3.956,3.956,0,0,0,4.691.1C3.679.406,2.951,1.43,1.848,1.5c-.5.032-1.06-.142-1.462.155a1.123,1.123,0,0,0-.39.8A2.511,2.511,0,0,0,1.4,4.884a3.294,3.294,0,0,0,2.882-.078,5.013,5.013,0,0,1,2.1-.9,2.511,2.511,0,0,1,1.794,1.28.565.565,0,0,1,.314-.024A3.047,3.047,0,0,0,9.172,3.51,3.124,3.124,0,0,0,8.08.789Z" transform="translate(9.562 0.036)"/><path class="h" d="M10.055,2.746A2.695,2.695,0,0,0,5.628.585c-.021.016-.04.033-.059.05S5.507.691,5.477.72A27.124,27.124,0,0,0-.048,7.565a39.678,39.678,0,0,1,4.813,2.689Q7.028,7.235,9.443,4.38A2.722,2.722,0,0,0,10.055,2.746Z" transform="translate(0.048 13.146)"/><path class="h" d="M5.291,1.972A2.712,2.712,0,0,0,2.772-.016a2.715,2.715,0,0,0-2.6,3.7,65.677,65.677,0,0,0,1.976,6.763A32.066,32.066,0,0,1,7.37,8.922,46.024,46.024,0,0,0,5.291,1.972Z" transform="translate(19.866 11.358)"/></g></g></g></g></g></g></svg>