<svg xmlns="http://www.w3.org/2000/svg" width="77" height="85.829" viewBox="0 0 77 85.829">
  <g id="Group_1772" data-name="Group 1772" transform="translate(-681.488 -244.147)">
    <g id="ic-email-message-download" transform="translate(681.488 244.147)">
      <rect id="Rectangle_233" data-name="Rectangle 233" width="77" height="77" transform="translate(0 6.853)" fill="none"/>
      <g id="ic-email-message-download-2" data-name="ic-email-message-download" transform="translate(5.939 20.408)">
        <circle id="Ellipse_120" data-name="Ellipse 120" cx="13.301" cy="13.301" r="13.301" transform="translate(38.472 23.288)" fill="none" stroke="#79bf42" stroke-linecap="round" stroke-width="3"/>
        <path id="Path_356" data-name="Path 356" d="M23.984,32.34V19.561" transform="translate(27.789 10.638)" fill="none" stroke="#79bf42" stroke-linecap="round" stroke-linejoin="round" stroke-width="3"/>
        <path id="Path_357" data-name="Path 357" d="M22.325,23.555l3.993-3.993,3.993,3.993" transform="translate(25.455 10.638)" fill="none" stroke="#79bf42" stroke-linecap="round" stroke-linejoin="round" stroke-width="3"/>
        <g id="smartphone_3_" data-name="smartphone (3)" transform="translate(5.313 -43.408)">
          <g id="Group_1761" data-name="Group 1761" transform="translate(-4 23)">
            <g id="Group_1760" data-name="Group 1760">
              <path id="Path_2024" data-name="Path 2024" d="M37.526,0H12.509A12.522,12.522,0,0,0,0,12.509V73.265A12.522,12.522,0,0,0,12.509,85.773l28.472.056a1.787,1.787,0,0,0,0-3.574L12.509,82.2a8.947,8.947,0,0,1-8.935-8.935V12.509a8.947,8.947,0,0,1,8.935-8.935H37.526a8.947,8.947,0,0,1,8.935,8.935v17.87a1.787,1.787,0,0,0,3.574,0V12.509A12.522,12.522,0,0,0,37.526,0Z" fill="#373041"/>
            </g>
          </g>
          <g id="Group_1763" data-name="Group 1763" transform="translate(-4 37.296)">
            <g id="Group_1762" data-name="Group 1762">
              <path id="Path_2025" data-name="Path 2025" d="M48.248,85.333H1.787a1.787,1.787,0,0,0,0,3.574H48.248a1.787,1.787,0,0,0,0-3.574Z" transform="translate(0 -85.333)" fill="#373041"/>
            </g>
          </g>
          <g id="Group_1765" data-name="Group 1765" transform="translate(-4 87.33)">
            <g id="Group_1764" data-name="Group 1764">
              <path id="Path_2026" data-name="Path 2026" d="M32.165,384H1.787a1.787,1.787,0,0,0,0,3.574H32.165a1.787,1.787,0,1,0,0-3.574Z" transform="translate(0 -384)" fill="#373041"/>
            </g>
          </g>
          <g id="Group_1767" data-name="Group 1767" transform="translate(13.869 30.148)">
            <g id="Group_1766" data-name="Group 1766">
              <path id="Path_2027" data-name="Path 2027" d="M119.175,42.667H108.453a1.787,1.787,0,1,0,0,3.574h10.722a1.787,1.787,0,1,0,0-3.574Z" transform="translate(-106.666 -42.667)" fill="#373041"/>
            </g>
          </g>
          <g id="Group_1769" data-name="Group 1769" transform="translate(31.793 30.148)">
            <g id="Group_1768" data-name="Group 1768">
              <path id="Path_2028" data-name="Path 2028" d="M215.459,42.667h-.036a1.772,1.772,0,0,0-1.769,1.787,1.8,1.8,0,1,0,1.8-1.787Z" transform="translate(-213.654 -42.667)" fill="#373041"/>
            </g>
          </g>
        </g>
      </g>
    </g>
  </g>
</svg>
