<svg xmlns="http://www.w3.org/2000/svg" width="77" height="77" viewBox="0 0 77 77">
  <g id="Group_1772" data-name="Group 1772" transform="translate(-681.488 -251)">
    <g id="ic-email-message-download" transform="translate(681.488 251)">
      <rect id="Rectangle_233" data-name="Rectangle 233" width="77" height="77" fill="none"/>
      <g id="ic-email-message-download-2" data-name="ic-email-message-download" transform="translate(5.939 13.555)">
        <circle id="Ellipse_120" data-name="Ellipse 120" cx="13.301" cy="13.301" r="13.301" transform="translate(38.472 23.288)" fill="none" stroke="#79bf42" stroke-linecap="round" stroke-width="3"/>
        <path id="Path_356" data-name="Path 356" d="M23.984,32.34V19.561" transform="translate(27.789 10.638)" fill="none" stroke="#79bf42" stroke-linecap="round" stroke-linejoin="round" stroke-width="3"/>
        <path id="Path_357" data-name="Path 357" d="M22.325,23.555l3.993-3.993,3.993,3.993" transform="translate(25.455 10.638)" fill="none" stroke="#79bf42" stroke-linecap="round" stroke-linejoin="round" stroke-width="3"/>
        <path id="Path_358" data-name="Path 358" d="M35.048,50.271H7.281a4.812,4.812,0,0,1-4.812-4.812V11.823A4.813,4.813,0,0,1,7.281,7.011h55.5a4.812,4.812,0,0,1,4.813,4.813v15.9" transform="translate(-2.468 -7.011)" fill="none" stroke="#373041" stroke-linecap="round" stroke-width="3"/>
        <path id="Path_359" data-name="Path 359" d="M3.545,7.724l26.972,21.62a4.813,4.813,0,0,0,6.006.011l27-21.482" transform="translate(-0.954 -6.008)" fill="none" stroke="#373041" stroke-linecap="round" stroke-width="3"/>
        <line id="Line_307" data-name="Line 307" x1="24.412" y2="20.245" transform="translate(2.414 21.142)" fill="none" stroke="#373041" stroke-linecap="round" stroke-width="3"/>
      </g>
    </g>
  </g>
</svg>
