<svg xmlns="http://www.w3.org/2000/svg" width="137.068" height="102.802" viewBox="0 0 137.068 102.802"><defs><style>.a{fill:#f0f0f0;}.b{fill:#40384b;}.c{fill:none;stroke:#40384b;stroke-linecap:round;}</style></defs><g transform="translate(0)"><rect class="a" width="137.068" height="102.802" rx="10"/><g transform="translate(43.1 38.922)"><rect class="b" width="5.956" height="7.788" transform="translate(0 0)"/><rect class="b" width="5.956" height="7.788" transform="translate(9.455 0)"/><rect class="b" width="5.956" height="7.788" transform="translate(18.911 0)"/><rect class="b" width="5.956" height="7.788" transform="translate(28.366 0)"/><rect class="b" width="5.956" height="7.788" transform="translate(37.822 0)"/><rect class="b" width="5.956" height="7.788" transform="translate(47.277 0)"/></g><g transform="translate(12.466 29.169)"><g transform="translate(93.987 0)"><rect class="b" width="17.239" height="3.79" transform="translate(2.927 5.153)"/><rect class="b" width="17.239" height="3.79" transform="translate(2.927 57.973)"/><rect class="b" width="20.166" height="3.79"/><rect class="b" width="46.567" height="2.842" transform="translate(7.973 10.306) rotate(90)"/><rect class="b" width="46.567" height="2.842" transform="translate(13.827 10.306) rotate(90)"/><rect class="b" width="46.567" height="2.842" transform="translate(19.681 10.306) rotate(90)"/></g><g transform="translate(0 0)"><rect class="b" width="17.668" height="3.79" transform="translate(0 5.153)"/><rect class="b" width="17.668" height="3.79" transform="translate(0 57.973)"/><rect class="b" width="20.489" height="3.79"/><rect class="b" width="46.567" height="2.739" transform="translate(15.232 10.306) rotate(90)"/><rect class="b" width="46.567" height="2.739" transform="translate(9.234 10.306) rotate(90)"/><rect class="b" width="46.567" height="2.739" transform="translate(3.206 10.306) rotate(90)"/></g></g><path class="b" d="M5.129,19.74V6.3H119.281V19.74S87.467,12.93,62.625,12.925,5.129,19.74,5.129,19.74Z" transform="translate(7.337 5.104)"/><path class="c" d="M27.849,65.817s14.326-1.676,17.2-14.676S44.715,32.9,42.574,35.015s-2.9,9.241-2.235,17.723,5.654,9.2,8.269,5.84,6.83-10.866,7.4-7.437S52.193,59.882,54.2,61.183s17.866-11.96,17.866-11.96" transform="translate(20.766 19.904)"/></g></svg>