<svg xmlns="http://www.w3.org/2000/svg" xmlns:xlink="http://www.w3.org/1999/xlink" width="181" height="181" viewBox="0 0 181 181"><defs><style>.a{fill:#ececec;}.b{clip-path:url(#a);}.c{fill:#f0f0f0;}.d{fill:#40384b;}.e{fill:none;stroke:#40384b;stroke-linecap:round;}.f{fill:#aaa7a7;}.g{fill:#888;}.h{fill:#f5f5f5;}.i{filter:url(#b);}</style><clipPath id="a"><circle class="a" cx="90.5" cy="90.5" r="90.5" transform="translate(-12964 -1021)"/></clipPath><filter id="b" x="-14.936" y="30.899" width="113.011" height="114.17" filterUnits="userSpaceOnUse"><feOffset dy="3" input="SourceAlpha"/><feGaussianBlur stdDeviation="3" result="c"/><feFlood flood-opacity="0.161"/><feComposite operator="in" in2="c"/><feComposite in="SourceGraphic"/></filter></defs><g class="b" transform="translate(12964 1021)"><g transform="translate(39.515 -43.004)"><g transform="translate(-12963.614 -933.898)"><g transform="translate(0)"><rect class="c" width="118.627" height="88.971" rx="10"/><g transform="translate(37.302 33.685)"><rect class="d" width="5.155" height="6.74"/><rect class="d" width="5.155" height="6.74" transform="translate(8.183)"/><rect class="d" width="5.155" height="6.74" transform="translate(16.367)"/><rect class="d" width="5.155" height="6.74" transform="translate(24.55)"/><rect class="d" width="5.155" height="6.74" transform="translate(32.733)"/><rect class="d" width="5.155" height="6.74" transform="translate(40.916)"/></g><g transform="translate(10.789 25.244)"><g transform="translate(81.342 0)"><rect class="d" width="14.92" height="3.28" transform="translate(2.533 4.46)"/><rect class="d" width="14.92" height="3.28" transform="translate(2.533 50.174)"/><rect class="d" width="17.453" height="3.28"/><rect class="d" width="40.302" height="2.46" transform="translate(6.9 8.92) rotate(90)"/><rect class="d" width="40.302" height="2.46" transform="translate(11.967 8.92) rotate(90)"/><rect class="d" width="40.302" height="2.46" transform="translate(17.033 8.92) rotate(90)"/></g><g transform="translate(0 0)"><rect class="d" width="15.291" height="3.28" transform="translate(0 4.46)"/><rect class="d" width="15.291" height="3.28" transform="translate(0 50.174)"/><rect class="d" width="17.732" height="3.28"/><rect class="d" width="40.302" height="2.37" transform="translate(13.183 8.92) rotate(90)"/><rect class="d" width="40.302" height="2.37" transform="translate(7.992 8.92) rotate(90)"/><rect class="d" width="40.302" height="2.37" transform="translate(2.775 8.92) rotate(90)"/></g></g><path class="d" d="M5.129,17.931V6.3h98.795V17.931s-27.534-5.893-49.034-5.9S5.129,17.931,5.129,17.931Z" transform="translate(5.66 3.57)"/><path class="e" d="M27.849,61.612s12.4-1.45,14.887-12.7-.291-15.783-2.144-13.956-2.513,8-1.934,15.338,4.893,7.963,7.156,5.054,5.911-9.4,6.407-6.436-3.3,7.565-1.568,8.691S66.116,47.251,66.116,47.251" transform="translate(14.225 12.576)"/></g></g><g transform="translate(-13009.451 -941.097)"><g transform="translate(0)"><g class="i" transform="matrix(1, 0, 0, 1, 5.94, -36.9)"><path class="f" d="M7644.677,1647.8s-19.937-10.819-27.327-5.747-28.441,28.55-36.932,39.438-13.11,35.326,3.713,47.212,30.092,7.294,30.092,7.294l45.811-17.534s10.5-4.472,7.066-15.629-8.729-9.783-10.62-10.137-37.145,8.77-37.145,8.77l-.906-38.12s-.529-8.383,4.572-12.184a18.442,18.442,0,0,1,11.2-3.364Z" transform="translate(-7578.72 -1603.8)"/></g><path class="g" d="M7609.905,1665.32s-8.328,12.157-8.14,20.688,9.03,6.829,9.03,6.829Z" transform="translate(-7564.254 -1631.999)"/></g><path class="h" d="M6.051.212,10.035,0a5.213,5.213,0,0,1,5.112,5.4l.844,5.395a5.33,5.33,0,0,1-5.33,5.33H5.33A5.33,5.33,0,0,1,0,10.8L.72,5.542A5.33,5.33,0,0,1,6.051.212Z" transform="matrix(0.358, 0.934, -0.934, 0.358, 87.644, 53.978)"/></g></g></g></svg>